<svg width="70" height="70" viewBox="0 0 70 70" fill="none" xmlns="http://www.w3.org/2000/svg">
<circle cx="45" cy="45" r="25" fill="#212123"/>
<g clip-path="url(#clip0_162_259)">
<path d="M51.8737 35.3667C51.1266 34.6201 50.1337 34.209 49.078 34.209C48.0216 34.209 47.0292 34.6205 46.2847 35.3667C45.5373 36.1135 45.1257 37.1056 45.1257 38.1603C45.1257 39.2149 45.5373 40.207 46.2835 40.9527C47.0292 41.7 48.0217 42.1115 49.078 42.1115C50.1336 42.1115 51.1264 41.7003 51.875 40.9525C53.4112 39.4128 53.4111 36.9076 51.875 35.368C51.8747 35.3675 51.8742 35.367 51.8737 35.3667ZM50.2032 39.2817C49.9024 39.5823 49.5028 39.7477 49.0781 39.7477C48.654 39.7477 48.2558 39.5826 47.9555 39.2817C47.655 38.9813 47.4894 38.583 47.4894 38.1602C47.4894 37.7373 47.655 37.3391 47.9568 37.0373C48.2558 36.7375 48.654 36.5725 49.0781 36.5725C49.5025 36.5725 49.9016 36.7378 50.2023 37.0378C50.8198 37.657 50.8195 38.6641 50.2032 39.2817Z" fill="#B48E40"/>
<path d="M27.3086 28.3811C26.253 28.3811 25.2601 28.7923 24.5129 29.5388C22.9736 31.0769 22.9731 33.5827 24.5142 35.1272C25.2853 35.8953 26.2971 36.2794 27.3086 36.2793C28.3207 36.2793 29.3325 35.8948 30.1019 35.1261C30.8502 34.3784 31.2617 33.3849 31.2609 32.3283C31.2602 31.2741 30.8486 30.2838 30.1023 29.5393C29.3567 28.7924 28.3646 28.3811 27.3086 28.3811ZM28.4313 33.4539C27.8126 34.0725 26.8037 34.072 26.1848 33.4552C25.5662 32.8353 25.5656 31.8284 26.1835 31.2109C26.4843 30.9102 26.884 30.7448 27.3086 30.7448C27.7326 30.7448 28.1309 30.9099 28.43 31.2095C28.4308 31.2105 28.4318 31.2113 28.4326 31.2121C28.732 31.5104 28.8971 31.9074 28.8974 32.33C28.8977 32.7542 28.7321 33.1533 28.4313 33.4539Z" fill="#B48E40"/>
<path d="M57.5305 35.8963C56.3839 31.6258 52.2473 28.9404 47.9762 29.4856L47.007 25.8682L56.3455 11.86C57.9701 9.4229 57.9123 6.73942 56.1975 5.02239C55.3073 4.13258 53.8586 4.1327 52.9682 5.02227L43.8565 14.1265L40.5215 1.6911C40.1969 0.476802 38.9441 -0.246948 37.7284 0.0775443C35.3848 0.704497 33.9917 3.00055 34.1791 5.92708L34.718 14.3424C30.5637 11.9261 28.3786 12.3443 25.4992 12.8968C23.7419 13.2343 21.7506 13.6165 18.6878 13.5069C14.0252 13.3367 11.9664 12.0249 10.4632 11.067C9.43562 10.4122 8.46472 9.79415 7.16301 9.95528C5.64789 10.1432 4.23015 12.4583 3.40867 14.5622C2.37133 17.2183 1.96468 20.2617 2.26375 23.1313C2.64133 26.7554 4.07488 30.1154 6.52551 33.1254V39.9085C6.52551 42.3538 7.28183 45.0591 8.71269 47.7321C8.92574 48.1299 9.33379 48.3562 9.75566 48.3562C9.94386 48.3562 10.1349 48.3111 10.3124 48.2161C10.8878 47.9081 11.1046 47.1918 10.7965 46.6163C9.54871 44.2855 8.88918 41.9659 8.88918 39.9085V33.8824C13.9205 33.8754 15.0155 33.6543 18.5898 31.6075C18.5704 31.8463 18.5582 32.0865 18.5581 32.3288C18.5575 34.6658 19.4684 36.8632 21.123 38.5165C22.8286 40.2207 25.0684 41.0728 27.3091 41.0725C29.5491 41.0723 31.7898 40.2204 33.495 38.5165L37.9611 34.0542C38.1823 33.9466 38.3932 33.844 38.5982 33.7439C38.6608 33.8365 38.7241 33.9301 38.7885 34.0251L38.9943 34.3295L40.6278 40.4234C41.0247 41.906 41.7876 43.2267 42.8371 44.2907C40.8509 49.7086 35.8909 54.7715 30.5362 56.7659C27.4067 57.9304 25.1923 57.9329 22.0735 56.7754C20.4704 56.1809 18.8924 55.3135 17.3835 54.1973C16.8587 53.809 16.1187 53.9199 15.7306 54.4447C15.3425 54.9695 15.4532 55.7094 15.9778 56.0976C17.6656 57.3461 19.4399 58.3197 21.2514 58.9917C23.063 59.664 24.6761 60.0002 26.2901 60.0002C27.912 60.0002 29.5349 59.6607 31.3607 58.9813C37.0952 56.8454 42.4223 51.5504 44.7913 45.7822C46.1165 46.5272 47.5802 46.9084 49.0632 46.9084C49.8237 46.9084 50.5895 46.8083 51.3436 46.6061C53.6014 46.0027 55.4882 44.5563 56.6566 42.5331C57.8245 40.5103 58.1349 38.1538 57.5305 35.8963ZM38.2601 2.38344L41.9267 16.0545L37.4807 20.4969L36.5378 5.77602C36.495 5.10922 36.4962 2.91829 38.2601 2.38344ZM18.7846 28.7587C14.2082 31.4518 14.0699 31.5317 8.26597 31.5191C3.97586 26.1628 4.28793 20.7239 4.87316 17.9173C5.55777 14.6334 7.00785 12.6243 7.53379 12.2946C7.94629 12.2798 8.38047 12.5425 9.19316 13.0604C10.8273 14.1017 13.297 15.6754 18.6025 15.869C21.9331 15.9879 24.1575 15.5614 25.945 15.2181C28.984 14.6346 30.5616 14.3326 34.9041 17.2459L35.2547 22.721L32.6036 25.3699C29.1771 22.7635 24.2507 23.0231 21.1234 26.1479C20.4743 26.7958 19.9415 27.5286 19.5313 28.3198C19.2705 28.4728 19.0218 28.6191 18.7846 28.7587ZM36.7493 32.0151C36.6313 32.0724 36.5236 32.1491 36.4308 32.2419L31.8245 36.8443C29.3346 39.3321 25.2834 39.3321 22.7936 36.8443C21.586 35.6379 20.9212 34.0344 20.9216 32.3294C20.9221 30.6261 21.5868 29.025 22.7936 27.8205C24.0386 26.5766 25.6737 25.9547 27.3091 25.9547C28.9443 25.9547 30.5796 26.5767 31.8245 27.8205C32.286 28.2813 33.0337 28.2815 33.4952 27.8205L37.2597 24.059C37.2919 24.03 37.3227 23.9996 37.3516 23.9673L54.5819 6.75102C55.8428 8.09809 54.749 9.9936 54.3789 10.5488L44.0096 26.1034C42.008 29.1085 41.1817 29.8086 38.4705 31.1706C38.4655 31.173 38.4606 31.1754 38.4557 31.1779C37.9926 31.4104 37.4761 31.6617 36.888 31.9476L36.7493 32.0151ZM54.6098 41.3505C53.7573 42.8266 52.3806 43.882 50.7324 44.3225C49.0841 44.7642 47.3628 44.5385 45.885 43.6861C45.5601 43.4986 45.2568 43.2845 44.9746 43.049C44.973 43.0476 44.9713 43.0463 44.9696 43.0448C43.9717 42.2104 43.2539 41.0939 42.9107 39.8117L41.2257 33.5257C41.1918 33.3992 41.1371 33.2792 41.0638 33.1708L40.7455 32.7001C40.7366 32.6868 40.728 32.6742 40.7191 32.6609C42.5811 31.6313 43.6866 30.6707 45.2554 28.4643L45.9783 31.1622C46.0595 31.4649 46.2576 31.7231 46.529 31.8799C46.8005 32.0364 47.1231 32.0791 47.4258 31.9979C50.826 31.0865 54.3348 33.1102 55.2473 36.5084C55.6885 38.1552 55.462 39.8749 54.6098 41.3505Z" fill="#B48E40"/>
<path d="M13.7068 50.8139C13.298 50.3052 12.5541 50.224 12.0454 50.6329C11.5366 51.0416 11.4555 51.7857 11.8644 52.2944L11.8777 52.311C12.1112 52.6016 12.4539 52.7527 12.7998 52.7527C13.0594 52.7527 13.321 52.6675 13.5392 52.4921C14.048 52.0833 14.1291 51.3393 13.7203 50.8306L13.7068 50.8139Z" fill="#B48E40"/>
</g>
<defs>
<clipPath id="clip0_162_259">
<rect width="60" height="60" fill="white"/>
</clipPath>
</defs>
</svg>
