<svg width="70" height="70" viewBox="0 0 70 70" fill="none" xmlns="http://www.w3.org/2000/svg">
<circle cx="45" cy="45" r="25" fill="#212123"/>
<g clip-path="url(#clip0_164_130)">
<path d="M1.8901 27.5C1.8901 34.776 6.3281 36.663 8.4351 37.15C9.02045 39.1973 9.82511 41.1754 10.8351 43.05C9.78387 44.3543 8.17342 45.0787 6.5001 45C5.94781 45 5.5001 45.4477 5.5001 46C5.5001 46.5523 5.94781 47 6.5001 47C12.4001 47 12.5001 53.716 12.5001 54V54.015C12.5042 54.5673 12.9553 55.0117 13.5076 55.0075C14.0599 55.0034 14.5042 54.5523 14.5001 54C14.5417 52.3871 14.9965 50.8118 15.8211 49.425C18.5313 51.7635 22.0007 53.0344 25.5801 53C30.8021 53 35.1451 50.615 38.5051 45.921C39.46 46.0685 40.4355 46.0067 41.3641 45.74C42.8837 48.3748 46.0272 49.6036 48.9308 48.6977C51.8343 47.7918 53.7214 44.9935 53.4731 41.962C55.5814 42.2185 57.5806 40.9611 58.2624 38.9497C58.9443 36.9383 58.1218 34.7244 56.2921 33.646C56.8536 32.0402 56.1754 30.2635 54.6868 29.4401C53.1982 28.6168 51.3328 28.9867 50.271 30.3158C49.2091 31.6449 49.2603 33.546 50.3921 34.816C50.0051 35.3288 49.7348 35.9199 49.6001 36.548C48.7807 36.1874 47.8954 36.0007 47.0001 36C45.5801 36 46.0101 36.349 45.6931 35.748C47.4281 34.448 49.1501 32.015 49.1501 27.5C49.1501 24.933 48.6951 21.787 46.1631 21.427C49.7584 15.8561 51.1942 9.16341 50.2001 2.60801L49.8001 0.783012C49.698 0.323737 49.2896 -0.00225868 48.8191 1.17859e-05H2.1811C1.71249 9.2206e-05 1.30679 0.32557 1.2051 0.783012L0.785099 2.68301C-0.190995 9.21826 1.25082 15.8851 4.8401 21.433C2.3361 21.826 1.8901 24.956 1.8901 27.5ZM3.8901 27.5C3.8901 24.312 4.6631 23.623 4.8991 23.488C5.3901 23.209 6.2921 23.607 6.7191 23.9C6.75924 27.5859 7.13783 31.2604 7.8501 34.877C6.0771 34.143 3.8901 32.273 3.8901 27.5ZM13.5001 49.473C12.8729 48.0315 11.8161 46.8187 10.4741 46C11.8051 45.1684 12.8585 43.9594 13.5001 42.527C14.1273 43.9685 15.1841 45.1813 16.5261 46C15.194 46.8304 14.1403 48.0398 13.5001 49.473ZM25.5801 51C22.5144 51.0294 19.5402 49.9558 17.2001 47.975C18.1686 47.3078 19.3245 46.9663 20.5001 47C21.0524 47 21.5001 46.5523 21.5001 46C21.5001 45.4477 21.0524 45 20.5001 45C14.6001 45 14.5001 38.284 14.5001 38V37.985C14.496 37.4327 14.0449 36.9884 13.4926 36.9925C12.9403 36.9967 12.496 37.4477 12.5001 38C12.4717 38.9866 12.2985 39.9637 11.9861 40.9C9.3611 35.405 8.7571 29.11 8.6931 22.9C11.0944 18.538 14.0699 14.5179 17.5401 10.947C19.9709 12.3837 22.7575 13.1057 25.5801 13.03C30.4441 13.03 33.6001 13.068 35.9471 13.69C38.4615 16.6323 40.6486 19.8391 42.4701 23.254C42.4586 26.3093 42.219 29.3594 41.7531 32.379C38.2453 31.1614 34.3976 32.8979 32.9901 36.3339C31.5825 39.7699 33.1062 43.7068 36.4601 45.3C33.5561 49.067 29.9081 51 25.5801 51ZM19.0251 9.50001C21.0065 7.63151 23.1765 5.97364 25.5001 4.55301C28.5359 6.43021 31.3162 8.69195 33.7721 11.282C27.3811 10.594 23.3431 11.894 19.0251 9.50001ZM34.5001 39C34.5001 36.2386 36.7387 34 39.5001 34C42.2615 34 44.5001 36.2386 44.5001 39C44.5001 41.7614 42.2615 44 39.5001 44C36.7401 43.9967 34.5034 41.7601 34.5001 39ZM53.0001 31C53.8285 31 54.5001 31.6716 54.5001 32.5C54.5001 33.3284 53.8285 34 53.0001 34C52.1717 34 51.5001 33.3284 51.5001 32.5C51.5001 31.6716 52.1717 31 53.0001 31ZM51.5001 37.5C51.4994 36.9008 51.7182 36.322 52.1151 35.873C53.1536 36.1631 54.2681 35.9402 55.1151 35.273C55.9245 35.6658 56.4583 36.4655 56.5105 37.3636C56.5628 38.2617 56.1253 39.1179 55.3669 39.6019C54.6084 40.0858 53.6476 40.1218 52.8551 39.696C52.5285 39.0147 52.0863 38.3952 51.5481 37.865C51.5226 37.7448 51.5066 37.6227 51.5001 37.5ZM51.5001 42.5C51.4949 44.4946 50.1772 46.2477 48.2628 46.8074C46.3483 47.367 44.2939 46.5997 43.2151 44.922C45.5504 43.4665 46.8092 40.7721 46.4271 38.047C47.7089 37.8785 49.0012 38.2709 49.9728 39.1238C50.9444 39.9767 51.5011 41.2072 51.5001 42.5ZM47.1501 27.5C47.1501 30.584 46.2611 32.805 44.5151 34.127C44.2378 33.8419 43.9367 33.5809 43.6151 33.347C44.1517 30.2002 44.4336 27.0152 44.4581 23.823C44.9371 23.553 45.6831 23.223 46.1451 23.488C46.3781 23.622 47.1501 24.309 47.1501 27.5ZM48.0191 2.00001C49.3646 8.77735 47.8217 15.8087 43.7621 21.4C38.6131 12.259 31.0521 5.25701 25.0701 2.00001H48.0191ZM2.9831 2.00001H16.6221C14.3909 3.47786 12.4009 5.29082 10.7221 7.37501C10.3769 7.80635 10.4468 8.43583 10.8781 8.78101C11.3094 9.12619 11.9389 9.05635 12.2841 8.62501C14.5193 5.86492 17.335 3.631 20.5311 2.08201C21.547 2.48128 22.5413 2.93322 23.5101 3.43601C15.1161 8.84001 9.7551 16.913 7.2391 21.4C3.17383 15.8113 1.6307 8.77727 2.9831 2.00001Z" fill="#B48E40"/>
<path d="M13.9471 21.735C14.9899 21.2108 16.1989 21.1251 17.3051 21.497L21.1841 22.79C21.7088 22.9645 22.2756 22.6806 22.4501 22.156C22.6247 21.6313 22.3408 21.0645 21.8161 20.89L17.9371 19.6C16.328 19.0594 14.5697 19.1844 13.0531 19.947C12.7307 20.105 12.5177 20.4238 12.4951 20.7822C12.4726 21.1406 12.644 21.4836 12.9442 21.6808C13.2443 21.8779 13.6272 21.899 13.9471 21.736V21.735Z" fill="#B48E40"/>
<path d="M29.5002 22.841C29.7332 22.841 29.5002 22.896 33.7002 21.497C34.8064 21.1241 36.0157 21.2098 37.0582 21.735C37.3782 21.898 37.7611 21.8769 38.0612 21.6798C38.3614 21.4826 38.5328 21.1396 38.5102 20.7812C38.4877 20.4228 38.2747 20.104 37.9522 19.9459C36.4353 19.1834 34.6767 19.0585 33.0672 19.599L29.1892 20.892C28.7244 21.0464 28.4398 21.5148 28.517 21.9985C28.5942 22.4823 29.0104 22.8389 29.5002 22.841Z" fill="#B48E40"/>
<path d="M21.445 26.6789C21.2677 26.157 20.7014 25.877 20.179 26.0529C20.144 26.0639 16.734 27.1759 14.1 25.1999C13.7039 24.9047 13.1516 24.943 12.8 25.2899C12.4489 25.6532 11.9954 25.9009 11.5 25.9999C10.9477 25.9999 10.5 26.4476 10.5 26.9999C10.5 27.5522 10.9477 27.9999 11.5 27.9999C12.2467 27.9599 12.9642 27.6961 13.559 27.2429C13.71 27.3329 13.859 27.4129 14.013 27.4899C13.8789 27.6934 13.7043 27.867 13.5 27.9999C12.9477 27.9999 12.5 28.4476 12.5 28.9999C12.5 30.2289 14.347 30.6999 15.973 28.1809C17.5842 28.5101 19.2522 28.4293 20.824 27.9459C21.3445 27.7665 21.622 27.2002 21.445 26.6789Z" fill="#B48E40"/>
<path d="M36.9002 25.1999C34.2652 27.1759 30.8552 26.0649 30.8242 26.0539C30.3037 25.8817 29.7416 26.1606 29.564 26.6793C29.3863 27.1979 29.6594 27.7629 30.1762 27.9459C31.7479 28.43 33.4161 28.5109 35.0272 28.1809C35.5352 28.9699 36.4062 29.9999 37.5002 29.9999C38.0572 30.0027 38.5129 29.5569 38.5222 28.9999C38.5278 28.7367 38.4272 28.4822 38.243 28.294C38.0588 28.1059 37.8065 27.9999 37.5432 27.9999C37.3216 27.8727 37.1326 27.6957 36.9912 27.4829C37.1412 27.4059 37.2912 27.3279 37.4412 27.2379C38.0355 27.6929 38.7529 27.9584 39.5002 27.9999C40.0525 27.9999 40.5002 27.5522 40.5002 26.9999C40.5002 26.4476 40.0525 25.9999 39.5002 25.9999C39.0076 25.9006 38.5567 25.6541 38.2072 25.2929C37.8553 24.9411 37.2983 24.9014 36.9002 25.1999Z" fill="#B48E40"/>
<path d="M21.9452 34.832C24.0967 36.2714 26.9038 36.2714 29.0552 34.832C29.3525 34.6337 29.5214 34.2919 29.4983 33.9353C29.4752 33.5788 29.2636 33.2616 28.9433 33.1033C28.6229 32.9451 28.2425 32.9697 27.9452 33.168C26.4653 34.1571 24.5352 34.1571 23.0552 33.168C22.5957 32.8615 21.9747 32.9855 21.6682 33.445C21.3617 33.9045 21.4857 34.5255 21.9452 34.832Z" fill="#B48E40"/>
<path d="M30.2 39.6001C29.5265 39.4509 28.876 39.2121 28.266 38.8901C25.666 37.7071 25.349 37.7061 22.744 38.8901C22.134 39.2121 21.4835 39.4509 20.81 39.6001C20.4742 39.5737 20.1426 39.6879 19.8943 39.9154C19.6459 40.1429 19.5031 40.4633 19.5 40.8001C19.5 42.2111 22.325 44.0001 25.5 44.0001C28.675 44.0001 31.5 42.2101 31.5 40.8001C31.497 40.4651 31.3557 40.1462 31.1095 39.919C30.8633 39.6917 30.5342 39.5763 30.2 39.6001ZM22.38 41.2281C23.3809 40.7256 24.4251 40.3146 25.5 40.0001C26.5762 40.3153 27.6221 40.7263 28.625 41.2281C26.6687 42.257 24.3313 42.257 22.375 41.2281H22.38Z" fill="#B48E40"/>
<path d="M26.5 46H24.5C23.9477 46 23.5 46.4477 23.5 47C23.5 47.5523 23.9477 48 24.5 48H26.5C27.0523 48 27.5 47.5523 27.5 47C27.5 46.4477 27.0523 46 26.5 46Z" fill="#B48E40"/>
<path d="M8.5 12C9.05228 12 9.5 11.5523 9.5 11C9.5 10.4477 9.05228 10 8.5 10C7.94772 10 7.5 10.4477 7.5 11C7.5 11.5523 7.94772 12 8.5 12Z" fill="#B48E40"/>
<path d="M59.5 53C59.5 50.2386 57.2614 48 54.5 48C51.7386 48 49.5 50.2386 49.5 53C49.5 55.7614 51.7386 58 54.5 58C57.2601 57.9967 59.4967 55.7601 59.5 53ZM51.5 53C51.5 51.3431 52.8431 50 54.5 50C56.1569 50 57.5 51.3431 57.5 53C57.5 54.6569 56.1569 56 54.5 56C52.8431 56 51.5 54.6569 51.5 53Z" fill="#B48E40"/>
<path d="M46.5 53C46.5 51.3431 45.1569 50 43.5 50C41.8431 50 40.5 51.3431 40.5 53C40.5 54.6569 41.8431 56 43.5 56C45.1569 56 46.5 54.6569 46.5 53ZM42.5 53C42.5 52.4477 42.9477 52 43.5 52C44.0523 52 44.5 52.4477 44.5 53C44.5 53.5523 44.0523 54 43.5 54C42.9477 54 42.5 53.5523 42.5 53Z" fill="#B48E40"/>
<path d="M40.5002 36C39.43 35.9684 38.3941 36.3797 37.637 37.1368C36.8799 37.8939 36.4686 38.9297 36.5002 40C36.5002 40.5523 36.9479 41 37.5002 41C38.0525 41 38.5002 40.5523 38.5002 40C38.466 39.4587 38.6665 38.9289 39.0506 38.546C39.4346 38.163 39.9651 37.9641 40.5062 38C41.0585 37.9983 41.5049 37.5493 41.5032 36.997C41.5016 36.4447 41.0525 35.9983 40.5002 36Z" fill="#B48E40"/>
<path d="M5.5 50C4.94772 50 4.5 50.4477 4.5 51V53C4.5 53.5523 4.94772 54 5.5 54C6.05228 54 6.5 53.5523 6.5 53V51C6.5 50.4477 6.05228 50 5.5 50Z" fill="#B48E40"/>
<path d="M4.5 59C4.5 59.5523 4.94772 60 5.5 60C6.05228 60 6.5 59.5523 6.5 59V57C6.5 56.4477 6.05228 56 5.5 56C4.94772 56 4.5 56.4477 4.5 57V59Z" fill="#B48E40"/>
<path d="M7.5 56H9.5C10.0523 56 10.5 55.5523 10.5 55C10.5 54.4477 10.0523 54 9.5 54H7.5C6.94772 54 6.5 54.4477 6.5 55C6.5 55.5523 6.94772 56 7.5 56Z" fill="#B48E40"/>
<path d="M3.5 54H1.5C0.947715 54 0.5 54.4477 0.5 55C0.5 55.5523 0.947715 56 1.5 56H3.5C4.05228 56 4.5 55.5523 4.5 55C4.5 54.4477 4.05228 54 3.5 54Z" fill="#B48E40"/>
</g>
<defs>
<clipPath id="clip0_164_130">
<rect width="60" height="60" fill="white"/>
</clipPath>
</defs>
</svg>
