<svg width="70" height="70" viewBox="0 0 70 70" fill="none" xmlns="http://www.w3.org/2000/svg">
<circle cx="45" cy="45" r="25" fill="#212123"/>
<g clip-path="url(#clip0_164_336)">
<path d="M50.4296 26.4155C48.0911 25.8273 44.9381 26.4166 43.102 29.835C40.5221 34.6384 35.624 37.5061 29.9998 37.5061C24.4969 37.5061 19.7146 34.698 16.8789 29.8014C16.2707 28.7524 15.6251 27.9598 14.975 27.3642V13.3811C14.975 10.3159 17.4673 7.82238 20.5307 7.82238C23.191 7.82238 25.4197 9.70102 25.9625 12.2009H25.1736C23.931 12.2009 22.9202 13.212 22.9202 14.4548V17.1224C22.9202 19.8342 25.1272 22.0405 27.8399 22.0405H32.1595C34.8704 22.0405 37.076 19.8341 37.076 17.1224V14.4548C37.076 13.2121 36.0665 12.2009 34.826 12.2009H33.8572C33.2578 5.37328 27.5104 0 20.5308 0C17.0902 0 13.8161 1.3166 11.3118 3.70723C8.81736 6.08848 7.34771 9.28172 7.17357 12.699C7.17346 12.7007 7.17346 12.7021 7.17334 12.7037C7.16127 12.9543 7.15529 13.1757 7.15529 13.3811C7.15529 14.0329 7.68369 14.5613 8.33549 14.5613C8.98729 14.5613 9.51568 14.0329 9.51568 13.3811C9.51568 13.215 9.52061 13.0318 9.5308 12.8211C9.5308 12.821 9.5308 12.8209 9.5308 12.8208C9.82893 6.9552 14.6607 2.36051 20.5308 2.36051C26.2079 2.36051 30.8954 6.67699 31.4861 12.2009H28.362C27.7904 8.39203 24.4966 5.46188 20.5308 5.46188C16.166 5.46188 12.6147 9.01441 12.6147 13.3811V25.9562C11.3208 25.5414 10.1853 25.692 9.51568 25.8639V23.3245C9.51568 22.6727 8.98729 22.1443 8.33549 22.1443C7.68369 22.1443 7.15529 22.6727 7.15529 23.3245V27.0585C5.59154 28.3064 4.56885 30.2527 4.56885 32.2709C4.56885 38.0034 7.2426 43.3788 12.0977 47.4069C13.4561 48.534 14.9406 49.5171 16.5243 50.3479V53.8982C16.5243 57.2627 19.2606 60.0001 22.624 60.0001H37.3757C40.7391 60.0001 43.4754 57.2629 43.4754 53.8982V50.3472C45.0584 49.5165 46.5426 48.5338 47.9007 47.407C52.7565 43.3786 55.4308 38.0032 55.4308 32.2709C55.4309 29.607 53.3275 27.1445 50.4296 26.4155ZM34.7157 17.1223C34.7157 18.5326 33.5691 19.68 32.1597 19.68H27.8402C26.4289 19.68 25.2808 18.5326 25.2808 17.1223V14.5613H34.7158V17.1223H34.7157ZM41.1151 53.898C41.1151 55.9611 39.4376 57.6395 37.3757 57.6395H22.624C20.5621 57.6395 18.8847 55.9611 18.8847 53.898V51.4419C22.3052 52.8343 26.0858 53.5712 29.9999 53.5712C33.9139 53.5712 37.6945 52.8342 41.1151 51.4414V53.898ZM29.9999 51.2107C17.2788 51.2107 6.92936 42.7144 6.92936 32.2707C6.92936 30.4691 8.33877 28.6241 10.071 28.1583C10.3517 28.0828 10.6307 28.0454 10.9074 28.0454C12.3503 28.0454 13.7217 29.0618 14.8368 30.985C18.1055 36.6293 23.6323 39.8666 29.9999 39.8666C36.5081 39.8666 42.1833 36.534 45.1815 30.9519C46.643 28.2307 48.9357 28.4735 49.8537 28.7047C51.6876 29.166 53.0704 30.699 53.0704 32.2709C53.0704 42.7144 42.721 51.2107 29.9999 51.2107Z" fill="#B48E40"/>
<path d="M28.8198 26.0987V29.6532C28.8198 30.305 29.3482 30.8334 30 30.8334C30.6518 30.8334 31.1802 30.305 31.1802 29.6532V26.0987C31.1802 25.4469 30.6518 24.9185 30 24.9185C29.3482 24.9185 28.8198 25.4469 28.8198 26.0987Z" fill="#B48E40"/>
<path d="M22.9204 26.0987V29.6532C22.9204 30.305 23.4488 30.8334 24.1006 30.8334C24.7524 30.8334 25.2808 30.305 25.2808 29.6532V26.0987C25.2808 25.4469 24.7524 24.9185 24.1006 24.9185C23.4488 24.9185 22.9204 25.4469 22.9204 26.0987Z" fill="#B48E40"/>
<path d="M34.7158 26.0987V29.6532C34.7158 30.305 35.2442 30.8334 35.896 30.8334C36.5478 30.8334 37.0762 30.305 37.0762 29.6532V26.0987C37.0762 25.4469 36.5478 24.9185 35.896 24.9185C35.2442 24.9185 34.7158 25.4469 34.7158 26.0987Z" fill="#B48E40"/>
<path d="M34.1432 43.3013H25.854C25.2022 43.3013 24.6738 43.8297 24.6738 44.4815C24.6738 45.1333 25.2022 45.6617 25.854 45.6617H34.1432C34.795 45.6617 35.3234 45.1333 35.3234 44.4815C35.3234 43.8297 34.795 43.3013 34.1432 43.3013Z" fill="#B48E40"/>
<path d="M8.33547 19.2363C8.98726 19.2363 9.51566 18.7079 9.51566 18.0561V18.0327C9.51566 17.3809 8.98726 16.8525 8.33547 16.8525C7.68367 16.8525 7.15527 17.3809 7.15527 18.0327V18.0561C7.15527 18.7077 7.68367 19.2363 8.33547 19.2363Z" fill="#B48E40"/>
</g>
<defs>
<clipPath id="clip0_164_336">
<rect width="60" height="60" fill="white"/>
</clipPath>
</defs>
</svg>
