<svg width="70" height="70" viewBox="0 0 70 70" fill="none" xmlns="http://www.w3.org/2000/svg">
<circle cx="45" cy="45" r="25" fill="#212123"/>
<g clip-path="url(#clip0_164_115)">
<path d="M32.7003 8.77792C32.4492 8.51796 32.0774 8.41371 31.7278 8.50522C31.3781 8.59674 31.1051 8.86978 31.0136 9.21941C30.9221 9.56904 31.0263 9.94085 31.2863 10.1919L35.7253 14.6309C35.5341 15.3176 35.7292 16.054 36.2353 16.5559C37.9963 18.3169 39.3163 19.8959 42.3423 20.2559C44.5792 20.4622 46.6809 21.4183 48.3063 22.9689L53.2063 27.8689C54.2381 28.858 55.7191 29.2215 57.0916 28.8225C58.4641 28.4235 59.5194 27.3226 59.8601 25.9345C60.2008 24.5464 59.7751 23.082 58.7433 22.0929L53.9623 17.3119C52.4121 15.6863 51.4565 13.5847 51.2503 11.3479C50.8783 8.24792 49.1423 6.83492 47.5503 5.24092C47.0449 4.74155 46.3125 4.5478 45.6263 4.73192L41.1873 0.292919C40.7949 -0.0860532 40.1712 -0.0806333 39.7855 0.305101C39.3997 0.690834 39.3943 1.31454 39.7733 1.70692L44.0163 5.94992L42.6003 7.36392L38.3593 3.12192C37.9669 2.74295 37.3432 2.74837 36.9575 3.1341C36.5717 3.51983 36.5663 4.14354 36.9453 4.53592L41.1873 8.77792L39.7733 10.1919L35.5303 5.94992C35.1379 5.57095 34.5142 5.57637 34.1285 5.9621C33.7427 6.34784 33.7373 6.97154 34.1163 7.36392L38.3593 11.6059L36.9443 13.0209L32.7003 8.77792ZM49.2643 11.5869C49.5222 14.2692 50.6795 16.7855 52.5483 18.7269L57.3293 23.5079C58.1185 24.2583 58.2139 25.4835 57.5503 26.3469C57.1776 26.7524 56.6583 26.9921 56.108 27.0125C55.5577 27.033 55.022 26.8326 54.6203 26.4559L49.7203 21.5559C47.7791 19.6867 45.2627 18.5289 42.5803 18.2709C40.2223 17.9899 39.1803 16.6709 37.6493 15.1419L46.1373 6.65892C47.7193 8.23792 48.9843 9.23392 49.2663 11.5869H49.2643Z" fill="#B48E40"/>
<path d="M45.2101 41.048C44.0011 37.54 45.5551 32.811 45.9791 25.035C45.9988 24.6777 45.8263 24.3371 45.5267 24.1414C45.2272 23.9458 44.846 23.9248 44.5267 24.0864C44.2075 24.2481 43.9988 24.5677 43.9791 24.925C43.5671 32.506 42.0461 37.159 43.1581 41.191C39.0431 41.568 34.0001 42.594 34.0001 45C34.0826 45.8304 34.6007 46.5542 35.3601 46.9L35.8491 49.345C34.6591 49.512 33.3631 49.645 31.9771 49.745V42.828C34.0803 40.5896 35.6021 37.8694 36.4091 34.906C38.0091 34.483 41.0001 33.016 41.0001 27.96C41.0001 25.621 40.4601 24.211 39.3481 23.649C38.7946 23.382 38.1602 23.3362 37.5741 23.521C37.5741 22.884 37.5521 22.253 37.5071 21.655C37.4893 21.4178 37.3875 21.1948 37.2201 21.026C33.3621 17.136 31.7001 17 24.5001 17C19.7121 17 17.9151 14.264 17.2701 12.632C17.1545 12.3401 16.9085 12.1194 16.6058 12.036C16.3031 11.9527 15.9788 12.0164 15.7301 12.208C12.8741 14.408 11.4691 18.108 11.4301 23.522C10.8444 23.3375 10.2105 23.3829 9.65711 23.649C8.54011 24.211 8.00011 25.621 8.00011 27.96C8.00011 33 10.9711 34.473 12.5741 34.9C13.3749 37.8868 14.909 40.6264 17.0371 42.87V49.744C6.80011 49 4.19311 46.745 2.82611 45.2C9.42611 42.044 3.99211 29.317 4.95611 19.267C5.93911 9.06297 14.5001 8.59397 17.1051 8.68697C17.32 8.71061 17.5371 8.66915 17.7281 8.56797C21.9207 6.475 26.6263 5.6305 31.2851 6.13497C31.6404 6.17337 31.9892 6.01931 32.2001 5.73082C32.411 5.44232 32.452 5.06322 32.3076 4.73631C32.1632 4.40941 31.8554 4.18437 31.5001 4.14597C26.5289 3.61932 21.5096 4.49831 17.0131 6.68297C10.8211 6.52397 3.87211 9.66697 2.96411 19.075C1.95811 29.575 7.40811 42.247 0.974108 43.729C0.540699 43.7562 0.173203 44.0574 0.0614367 44.477C-0.0503298 44.8967 0.118655 45.3408 0.481108 45.58C2.11111 47.08 3.32011 50.796 17.1461 51.762C17.4944 53.0829 18.6881 54.004 20.0541 54.006H28.9941C30.3566 54.0113 31.5456 53.083 31.8711 51.76C33.4411 51.651 34.9041 51.5 36.2421 51.309C37.1521 55.857 37.0001 54.609 37.0001 57C37.0001 58.6568 38.3433 60 40.0001 60H54.0001C55.657 60 57.0001 58.6568 57.0001 57C57.0001 54.464 56.7331 56.432 58.6401 46.9C59.3996 46.5542 59.9177 45.8304 60.0001 45C60.0001 41.389 48.8811 40.874 45.2101 41.048ZM38.4451 25.434C38.4681 25.445 39.0001 25.734 39.0001 27.96C39.0001 30.635 38.0001 31.926 36.9521 32.547C37.3436 30.2806 37.5483 27.9859 37.5641 25.686C38.0241 25.423 38.3351 25.377 38.4451 25.434ZM10.0001 27.96C10.0001 25.739 10.5321 25.445 10.5551 25.434C10.6651 25.379 10.9761 25.424 11.4351 25.687C11.45 27.9841 11.6506 30.2762 12.0351 32.541C10.9901 31.918 10.0001 30.627 10.0001 27.96ZM15.5691 37.221C13.7771 33.395 13.4171 29.239 13.4171 23.775C13.4171 19.561 14.2751 16.553 16.0351 14.632C17.1531 16.505 19.5691 19 24.5001 19C31.4201 19 32.4521 19.105 35.5371 22.171C35.5681 22.689 35.5831 23.227 35.5831 23.771C35.5831 29.223 35.2191 33.371 33.4061 37.216C31.3061 41.687 28.3121 43.954 24.5001 43.954C20.6581 43.958 17.6541 41.692 15.5691 37.221ZM28.9941 52.006H20.0541C19.7643 52.0101 19.487 51.8882 19.294 51.672C19.101 51.4558 19.0113 51.1665 19.0481 50.879C19.0481 50.828 19.0371 51.594 19.0371 44.444C22.4027 46.4775 26.6205 46.4683 29.9771 44.42V51C29.9828 51.2645 29.8817 51.5201 29.6968 51.7094C29.5119 51.8986 29.2587 52.0055 28.9941 52.006ZM47.0001 43C53.0901 43 57.2311 44.264 57.9411 45C57.2311 45.736 53.0901 47 47.0001 47C40.9101 47 36.7691 45.736 36.0591 45C36.7691 44.264 40.9101 43 47.0001 43ZM55.0001 57C55.0001 57.5523 54.5524 58 54.0001 58H40.0001C39.4478 58 39.0001 57.5523 39.0001 57V56H49.0001C49.5524 56 50.0001 55.5523 50.0001 55C50.0001 54.4477 49.5524 54 49.0001 54H38.8201C38.1701 50.75 39.8541 59.171 37.5861 47.833C43.7683 49.3678 50.232 49.3678 56.4141 47.833C54.7281 56.262 55.0001 54.2 55.0001 57Z" fill="#B48E40"/>
</g>
<defs>
<clipPath id="clip0_164_115">
<rect width="60" height="60" fill="white"/>
</clipPath>
</defs>
</svg>
