<svg width="152" height="42" viewBox="0 0 152 42" fill="none" xmlns="http://www.w3.org/2000/svg">
<path d="M66.85 18.72C68.33 18.94 69.5 19.51 70.36 20.43C71.24 21.35 71.68 22.57 71.68 24.09C71.68 26.07 70.94 27.55 69.46 28.53C68 29.51 65.89 30 63.13 30H59.8C59.14 30 58.6 29.82 58.18 29.46C57.76 29.1 57.55 28.61 57.55 27.99V13.35C57.55 11.83 57.36 10.57 56.98 9.57C58.22 8.97 60.03 8.67 62.41 8.67C65.11 8.67 67.16 9.07 68.56 9.87C69.96 10.67 70.66 11.95 70.66 13.71C70.66 14.95 70.32 16.02 69.64 16.92C68.98 17.8 68.05 18.4 66.85 18.72ZM61.48 10.05V18.21H63.04C64.2 18.23 65.06 17.87 65.62 17.13C66.2 16.39 66.49 15.36 66.49 14.04C66.49 12.76 66.18 11.78 65.56 11.1C64.94 10.4 63.91 10.05 62.47 10.05H61.48ZM62.98 28.62C64.5 28.62 65.61 28.22 66.31 27.42C67.03 26.62 67.39 25.53 67.39 24.15C67.39 22.45 67.01 21.27 66.25 20.61C65.51 19.93 64.44 19.59 63.04 19.59H61.48V28.62H62.98ZM89.3683 27C89.6283 27.38 89.7583 27.79 89.7583 28.23C89.7583 28.81 89.5083 29.3 89.0083 29.7C88.5083 30.1 87.8383 30.3 86.9983 30.3C86.0383 30.3 85.2883 29.99 84.7483 29.37C84.2083 28.73 83.8983 27.7 83.8183 26.28C83.2583 27.5 82.4783 28.48 81.4783 29.22C80.4783 29.94 79.3183 30.3 77.9983 30.3C76.8183 30.3 75.8683 29.99 75.1483 29.37C74.4283 28.75 74.0683 27.88 74.0683 26.76C74.0683 25.48 74.5583 24.43 75.5383 23.61C76.5183 22.79 77.7583 22.16 79.2583 21.72C80.5583 21.36 81.9883 21.16 83.5483 21.12V20.37C83.5483 18.67 83.3483 17.42 82.9483 16.62C82.5483 15.82 81.8583 15.42 80.8783 15.42C80.2383 15.42 79.7183 15.61 79.3183 15.99C78.9183 16.35 78.7183 16.91 78.7183 17.67C78.7183 18.73 79.0783 19.47 79.7983 19.89C79.5783 20.11 79.2783 20.28 78.8983 20.4C78.5383 20.52 78.1483 20.58 77.7283 20.58C76.8083 20.58 76.0783 20.32 75.5383 19.8C75.0183 19.28 74.7583 18.62 74.7583 17.82C74.7583 16.64 75.3283 15.73 76.4683 15.09C77.6083 14.43 79.1583 14.1 81.1183 14.1C83.3383 14.1 84.9583 14.61 85.9783 15.63C87.0183 16.65 87.5383 18.31 87.5383 20.61V25.83C87.5383 26.89 87.8683 27.42 88.5283 27.42C88.6683 27.42 88.8183 27.39 88.9783 27.33C89.1383 27.25 89.2683 27.14 89.3683 27ZM79.7983 27.78C80.3783 27.78 80.9683 27.54 81.5683 27.06C82.1683 26.58 82.6683 25.93 83.0683 25.11C83.4683 24.27 83.6683 23.36 83.6683 22.38C82.0883 22.38 80.9083 22.6 80.1283 23.04C79.5683 23.32 79.1183 23.7 78.7783 24.18C78.4583 24.66 78.2983 25.21 78.2983 25.83C78.2983 26.37 78.4183 26.83 78.6583 27.21C78.9183 27.59 79.2983 27.78 79.7983 27.78ZM99.7312 14.1C100.871 14.1 101.791 14.41 102.491 15.03C103.211 15.63 103.571 16.46 103.571 17.52C103.571 18.28 103.341 18.91 102.881 19.41C102.421 19.91 101.841 20.17 101.141 20.19C100.341 20.19 99.7512 19.98 99.3712 19.56C99.5912 19.2 99.7412 18.87 99.8212 18.57C99.9012 18.27 99.9412 17.92 99.9412 17.52C99.9412 17 99.8312 16.61 99.6112 16.35C99.3912 16.07 99.0612 15.93 98.6212 15.93C97.8812 15.93 97.3012 16.52 96.8812 17.7C96.4612 18.86 96.2512 20.6 96.2512 22.92C96.2512 25.06 96.2812 26.51 96.3412 27.27C96.4012 28.01 96.5812 28.74 96.8812 29.46C96.6612 29.68 96.3612 29.87 95.9812 30.03C95.6012 30.21 95.1612 30.31 94.6612 30.33C94.0412 30.33 93.5112 30.13 93.0712 29.73C92.6312 29.33 92.4112 28.79 92.4112 28.11V18.6C92.4112 18.04 92.3412 17.64 92.2012 17.4C92.0812 17.14 91.8812 17.01 91.6012 17.01C91.2212 17.01 90.9612 17.13 90.8212 17.37C90.5812 16.97 90.4612 16.56 90.4612 16.14C90.4612 15.54 90.6612 15.06 91.0612 14.7C91.4812 14.32 92.0612 14.13 92.8012 14.13C93.6812 14.13 94.3812 14.4 94.9012 14.94C95.4212 15.48 95.7212 16.29 95.8012 17.37C96.4812 15.19 97.7912 14.1 99.7312 14.1ZM112.264 30.42C110.964 30.42 109.734 30.25 108.574 29.91C107.414 29.55 106.484 29.06 105.784 28.44V10.05C105.784 9.43 105.974 8.94 106.354 8.58C106.754 8.2 107.254 8.01 107.854 8.01C108.374 8.01 108.834 8.1 109.234 8.28C109.654 8.46 109.994 8.66 110.254 8.88C109.834 10.56 109.624 12.63 109.624 15.09V17.22C109.984 16.26 110.554 15.5 111.334 14.94C112.134 14.38 113.094 14.1 114.214 14.1C115.894 14.1 117.194 14.72 118.114 15.96C119.054 17.18 119.524 19.09 119.524 21.69C119.524 24.47 118.934 26.62 117.754 28.14C116.594 29.66 114.764 30.42 112.264 30.42ZM111.994 28.86C113.314 28.84 114.204 28.2 114.664 26.94C115.144 25.68 115.384 23.93 115.384 21.69C115.384 19.75 115.224 18.34 114.904 17.46C114.584 16.58 114.054 16.14 113.314 16.14C112.134 16.14 111.224 16.77 110.584 18.03C109.964 19.27 109.654 20.8 109.654 22.62V28.14C109.934 28.36 110.284 28.54 110.704 28.68C111.144 28.8 111.574 28.86 111.994 28.86ZM134.636 25.68C134.956 25.82 135.116 26.09 135.116 26.49C135.116 26.75 135.046 27.05 134.906 27.39C134.526 28.35 133.836 29.1 132.836 29.64C131.836 30.16 130.626 30.42 129.206 30.42C126.886 30.42 125.046 29.71 123.686 28.29C122.326 26.85 121.646 24.83 121.646 22.23C121.646 19.69 122.306 17.7 123.626 16.26C124.946 14.82 126.826 14.1 129.266 14.1C131.046 14.1 132.506 14.5 133.646 15.3C134.786 16.08 135.356 17.19 135.356 18.63C135.356 20.09 134.766 21.22 133.586 22.02C132.406 22.82 130.826 23.22 128.846 23.22C127.566 23.22 126.576 23.18 125.876 23.1C126.016 24.84 126.456 26.09 127.196 26.85C127.956 27.61 128.996 27.99 130.316 27.99C131.376 27.99 132.276 27.78 133.016 27.36C133.756 26.94 134.296 26.38 134.636 25.68ZM129.116 15.45C128.076 15.45 127.266 16.01 126.686 17.13C126.106 18.23 125.816 19.76 125.816 21.72V21.75L126.836 21.78C128.076 21.78 129.106 21.52 129.926 21C130.766 20.48 131.186 19.48 131.186 18C131.186 16.3 130.496 15.45 129.116 15.45ZM150.487 26.19C150.827 26.33 151.117 26.56 151.357 26.88C151.597 27.2 151.717 27.58 151.717 28.02C151.717 28.66 151.447 29.23 150.907 29.73C150.387 30.21 149.687 30.45 148.807 30.45C148.207 30.45 147.687 30.32 147.247 30.06C146.827 29.8 146.457 29.44 146.137 28.98C145.817 28.5 145.427 27.82 144.967 26.94L143.737 24.72L141.127 29.28C140.687 30.04 140.037 30.42 139.177 30.42C138.597 30.42 138.107 30.24 137.707 29.88C137.327 29.5 137.097 28.9 137.017 28.08C137.717 27.9 138.317 27.61 138.817 27.21C139.317 26.81 139.767 26.29 140.167 25.65L142.417 22.35L140.257 18.63C139.857 17.91 139.467 17.55 139.087 17.55C138.867 17.55 138.667 17.64 138.487 17.82C138.307 17.98 138.187 18.17 138.127 18.39C137.767 18.21 137.477 17.97 137.257 17.67C137.037 17.35 136.927 16.98 136.927 16.56C136.927 15.9 137.187 15.33 137.707 14.85C138.227 14.35 138.977 14.1 139.957 14.1C140.557 14.1 141.047 14.21 141.427 14.43C141.807 14.65 142.147 14.99 142.447 15.45C142.767 15.91 143.187 16.63 143.707 17.61L144.697 19.53L147.127 15.3C147.567 14.5 148.237 14.1 149.137 14.1C149.797 14.1 150.317 14.3 150.697 14.7C151.077 15.08 151.307 15.68 151.387 16.5C150.687 16.68 150.097 16.97 149.617 17.37C149.157 17.77 148.687 18.3 148.207 18.96L146.047 21.96L148.387 25.95C148.567 26.29 148.767 26.55 148.987 26.73C149.227 26.91 149.437 27 149.617 27C149.777 27 149.947 26.92 150.127 26.76C150.327 26.58 150.447 26.39 150.487 26.19Z" fill="white"/>
<path fill-rule="evenodd" clip-rule="evenodd" d="M20 36.3605C29.0106 36.3605 36.3958 29.0107 36.3958 19.9647C36.3958 10.9541 29.0459 3.56897 20 3.56897C10.9894 3.56897 3.60425 10.9188 3.60425 19.9647C3.60425 29.0107 10.9894 36.3605 20 36.3605Z" fill="#B48E40"/>
<path fill-rule="evenodd" clip-rule="evenodd" d="M23.3568 12.7915C23.3568 12.5795 23.1448 12.4382 22.8621 12.4382C22.5795 12.4382 22.3674 12.6148 22.3674 12.7915L22.5441 36.1484C22.8621 36.1131 23.2155 36.0424 23.5335 35.9717L23.3568 12.7915Z" fill="#0F1212"/>
<path fill-rule="evenodd" clip-rule="evenodd" d="M29.9293 13.1449C30.212 13.1449 30.424 12.9682 30.424 12.7915C30.424 12.5795 30.212 12.4382 29.9293 12.4382L22.8975 12.4735C22.6149 12.4735 22.4028 12.6502 22.4028 12.8269C22.4028 13.0389 22.6149 13.1802 22.8975 13.1802L29.9293 13.1449Z" fill="#0F1212"/>
<path fill-rule="evenodd" clip-rule="evenodd" d="M30.0707 30.0707C30.3534 30.0707 30.5654 29.894 30.5654 29.7173C30.5654 29.5053 30.3534 29.364 30.0707 29.364L23.0389 29.3993C22.7562 29.3993 22.5442 29.576 22.5442 29.7526C22.5442 29.9647 22.7562 30.106 23.0389 30.106L30.0707 30.0707Z" fill="#0F1212"/>
<path fill-rule="evenodd" clip-rule="evenodd" d="M29.8586 28.7985C29.9999 28.7985 30.1059 28.7279 30.1059 28.6219C30.1059 28.5159 29.9999 28.4452 29.8586 28.4452L23.0035 28.4805C22.8621 28.4805 22.7561 28.5512 22.7561 28.6572C22.7561 28.7632 22.8621 28.8339 23.0035 28.8339L29.8586 28.7985Z" fill="#0F1212"/>
<path fill-rule="evenodd" clip-rule="evenodd" d="M29.8586 27.8799C29.9999 27.8799 30.1059 27.8092 30.1059 27.7032C30.1059 27.5972 29.9999 27.5266 29.8586 27.5266L23.0035 27.5619C22.8621 27.5619 22.7561 27.6326 22.7561 27.7386C22.7561 27.8446 22.8621 27.9152 23.0035 27.9152L29.8586 27.8799Z" fill="#0F1212"/>
<path fill-rule="evenodd" clip-rule="evenodd" d="M29.8586 26.9611C29.9999 26.9611 30.1059 26.8905 30.1059 26.7845C30.1059 26.6785 29.9999 26.6078 29.8586 26.6078L23.0035 26.6431C22.8621 26.6431 22.7561 26.7138 22.7561 26.8198C22.7561 26.9258 22.8621 26.9965 23.0035 26.9965L29.8586 26.9611Z" fill="#0F1212"/>
<path fill-rule="evenodd" clip-rule="evenodd" d="M29.8586 26.0423C29.9999 26.0423 30.1059 25.9717 30.1059 25.8656C30.1059 25.7596 29.9999 25.689 29.8586 25.689L23.0035 25.7243C22.8621 25.7243 22.7561 25.795 22.7561 25.901C22.7561 26.007 22.8621 26.0777 23.0035 26.0777L29.8586 26.0423Z" fill="#0F1212"/>
<path fill-rule="evenodd" clip-rule="evenodd" d="M29.8586 25.1237C29.9999 25.1237 30.1059 25.0531 30.1059 24.9471C30.1059 24.8411 29.9999 24.7704 29.8586 24.7704L23.0035 24.8057C22.8621 24.8057 22.7561 24.8764 22.7561 24.9824C22.7561 25.0884 22.8621 25.1591 23.0035 25.1591L29.8586 25.1237Z" fill="#0F1212"/>
<path fill-rule="evenodd" clip-rule="evenodd" d="M29.8232 24.2049C29.9645 24.2049 30.0705 24.1342 30.0705 24.0282C30.0705 23.9222 29.9645 23.8515 29.8232 23.8515L22.9681 23.8868C22.8267 23.8868 22.7207 23.9575 22.7207 24.0635C22.7207 24.1695 22.8267 24.2402 22.9681 24.2402L29.8232 24.2049Z" fill="#0F1212"/>
<path fill-rule="evenodd" clip-rule="evenodd" d="M29.8232 23.2862C29.9645 23.2862 30.0705 23.2155 30.0705 23.1095C30.0705 23.0035 29.9645 22.9329 29.8232 22.9329L22.9681 22.9682C22.8267 22.9682 22.7207 23.0389 22.7207 23.1449C22.7207 23.2509 22.8267 23.3216 22.9681 23.3216L29.8232 23.2862Z" fill="#0F1212"/>
<path fill-rule="evenodd" clip-rule="evenodd" d="M29.8232 22.3322C29.9645 22.3322 30.0705 22.2615 30.0705 22.1555C30.0705 22.0495 29.9645 21.9788 29.8232 21.9788L22.9681 22.0142C22.8267 22.0142 22.7207 22.0848 22.7207 22.1908C22.7207 22.2968 22.8267 22.3675 22.9681 22.3675L29.8232 22.3322Z" fill="#0F1212"/>
<path fill-rule="evenodd" clip-rule="evenodd" d="M29.8232 21.4134C29.9645 21.4134 30.0705 21.3427 30.0705 21.2367C30.0705 21.1307 29.9645 21.06 29.8232 21.06L22.9681 21.0953C22.8267 21.0953 22.7207 21.166 22.7207 21.272C22.7207 21.378 22.8267 21.4487 22.9681 21.4487L29.8232 21.4134Z" fill="#0F1212"/>
<path fill-rule="evenodd" clip-rule="evenodd" d="M29.8232 20.4947C29.9645 20.4947 30.0705 20.424 30.0705 20.318C30.0705 20.212 29.9645 20.1414 29.8232 20.1414L22.9681 20.1767C22.8267 20.1767 22.7207 20.2474 22.7207 20.3534C22.7207 20.4594 22.8267 20.5301 22.9681 20.5301L29.8232 20.4947Z" fill="#0F1212"/>
<path fill-rule="evenodd" clip-rule="evenodd" d="M29.788 19.5759C29.9294 19.5759 30.0354 19.5052 30.0354 19.3992C30.0354 19.2932 29.9294 19.2225 29.788 19.2225L22.9329 19.2579C22.7915 19.2579 22.6855 19.3285 22.6855 19.4346C22.6855 19.5406 22.7915 19.6112 22.9329 19.6112L29.788 19.5759Z" fill="#0F1212"/>
<path fill-rule="evenodd" clip-rule="evenodd" d="M29.788 18.6573C29.9294 18.6573 30.0354 18.5866 30.0354 18.4806C30.0354 18.3746 29.9294 18.304 29.788 18.304L22.9329 18.3393C22.7915 18.3393 22.6855 18.41 22.6855 18.516C22.6855 18.622 22.7915 18.6926 22.9329 18.6926L29.788 18.6573Z" fill="#0F1212"/>
<path fill-rule="evenodd" clip-rule="evenodd" d="M29.788 17.7385C29.9294 17.7385 30.0354 17.6678 30.0354 17.5618C30.0354 17.4558 29.9294 17.3851 29.788 17.3851L22.9329 17.4205C22.7915 17.4205 22.6855 17.4911 22.6855 17.5971C22.6855 17.7032 22.7915 17.7738 22.9329 17.7738L29.788 17.7385Z" fill="#0F1212"/>
<path fill-rule="evenodd" clip-rule="evenodd" d="M29.788 16.8197C29.9294 16.8197 30.0354 16.7491 30.0354 16.643C30.0354 16.537 29.9294 16.4664 29.788 16.4664L22.9329 16.5017C22.7915 16.5017 22.6855 16.5724 22.6855 16.6784C22.6855 16.7844 22.7915 16.8551 22.9329 16.8551L29.788 16.8197Z" fill="#0F1212"/>
<path fill-rule="evenodd" clip-rule="evenodd" d="M29.7526 15.9011C29.894 15.9011 30 15.8304 30 15.7244C30 15.6184 29.894 15.5477 29.7526 15.5477L22.8975 15.5831C22.7562 15.5831 22.6501 15.6537 22.6501 15.7597C22.6501 15.8658 22.7562 15.9364 22.8975 15.9364L29.7526 15.9011Z" fill="#0F1212"/>
<path fill-rule="evenodd" clip-rule="evenodd" d="M29.7526 14.9823C29.894 14.9823 30 14.9117 30 14.8056C30 14.6996 29.894 14.629 29.7526 14.629L22.8975 14.6643C22.7562 14.6643 22.6501 14.735 22.6501 14.841C22.6501 14.947 22.7562 15.0177 22.8975 15.0177L29.7526 14.9823Z" fill="#0F1212"/>
<path fill-rule="evenodd" clip-rule="evenodd" d="M29.7526 14.0637C29.894 14.0637 30 13.993 30 13.887C30 13.781 29.894 13.7103 29.7526 13.7103L22.8975 13.7457C22.7562 13.7457 22.6501 13.8163 22.6501 13.9223C22.6501 14.0283 22.7562 14.099 22.8975 14.099L29.7526 14.0637Z" fill="#0F1212"/>
<path fill-rule="evenodd" clip-rule="evenodd" d="M10.4595 33.1803C17.5266 14.099 20.3181 6.60784 21.4135 3.63965C21.0602 3.60431 20.6715 3.60431 20.3181 3.56897C19.2934 5.68911 17.668 8.83398 16.5019 9.71738C14.6998 11.0601 13.9577 11.4488 13.9577 11.4488L10.4595 33.1803ZM15.5478 12.9329C16.1132 12.9329 16.5725 13.3923 16.5725 13.9577C16.5725 14.523 16.1132 14.9471 15.5478 14.9471C14.9824 14.9471 14.5584 14.4877 14.5584 13.9577C14.5231 13.3923 14.9824 12.9329 15.5478 12.9329Z" fill="#0F1212"/>
<path fill-rule="evenodd" clip-rule="evenodd" d="M20.6713 33.1801C15.2296 18.5158 12.2967 10.6713 10.7419 6.46636C11.0953 6.21901 11.484 5.97166 11.8727 5.75964C12.7914 7.45576 13.8161 9.15186 14.6289 9.75257C16.431 11.0953 17.173 11.484 17.173 11.484L20.6713 33.1801ZM15.5476 12.9328C14.9822 12.9328 14.5582 13.3921 14.5582 13.9575C14.5582 14.5229 15.0176 14.9469 15.5476 14.9469C16.113 14.9469 16.5723 14.4875 16.5723 13.9575C16.537 13.3921 16.113 12.9328 15.5476 12.9328Z" fill="#0F1212"/>
<path fill-rule="evenodd" clip-rule="evenodd" d="M20 2.26148C15.1237 2.26148 10.6714 4.24028 7.45582 7.45583C4.24027 10.6714 2.26147 15.0883 2.26147 20C2.26147 24.8763 4.24027 29.3286 7.45582 32.5442C10.6714 35.7597 15.0883 37.7385 20 37.7385C24.8763 37.7385 29.3286 35.7597 32.5442 32.5442C35.7597 29.3286 37.7385 24.9117 37.7385 20C37.7385 15.1237 35.7597 10.6714 32.5442 7.45583C29.3286 4.24028 24.9116 2.26148 20 2.26148ZM5.86572 5.86573C9.46995 2.26149 14.4876 0 20 0C25.5124 0 30.4947 2.22615 34.1343 5.86573C37.7385 9.46996 40 14.4876 40 20C40 25.5124 37.7738 30.4947 34.1343 34.1343C30.53 37.7385 25.5124 40 20 40C14.4876 40 9.50529 37.7738 5.86572 34.1343C2.26148 30.53 0 25.5124 0 20C0.0353357 14.4523 2.26148 9.46996 5.86572 5.86573Z" fill="#B48E40"/>
</svg>
