<svg width="70" height="70" viewBox="0 0 70 70" fill="none" xmlns="http://www.w3.org/2000/svg">
<rect width="70" height="70" fill="#212123"/>
<path d="M35.7812 46.7188C35.7812 47.1503 35.4315 47.5 35 47.5C34.5685 47.5 34.2188 47.1503 34.2188 46.7188C34.2188 46.2872 34.5685 45.9375 35 45.9375C35.4315 45.9375 35.7812 46.2872 35.7812 46.7188Z" fill="#B48E40"/>
<path d="M52.4219 39.6875C52.4219 37.1027 50.3192 35 47.7344 35C45.1495 35 43.0469 37.1027 43.0469 39.6875C43.0469 42.2723 45.1495 44.375 47.7344 44.375C50.3192 44.375 52.4219 42.2723 52.4219 39.6875ZM47.7344 42.8125C46.0114 42.8125 44.6094 41.4105 44.6094 39.6875C44.6094 37.9645 46.0114 36.5625 47.7344 36.5625C49.4574 36.5625 50.8594 37.9645 50.8594 39.6875C50.8594 41.4105 49.4574 42.8125 47.7344 42.8125Z" fill="#B48E40"/>
<path d="M47.7344 44.375C45.7657 44.375 43.8025 45.1923 42.4652 46.5173C40.705 44.2041 37.9907 42.8125 35 42.8125C32.1359 42.8125 29.3607 44.1193 27.5351 46.5173C26.1975 45.1926 24.2346 44.375 22.2656 44.375C18.3273 44.375 15 47.5949 15 51.4062V52.9688C15 53.4003 15.3497 53.75 15.7812 53.75H54.2188C54.6503 53.75 55 53.4003 55 52.9688V51.4062C55 47.5949 51.6727 44.375 47.7344 44.375ZM16.5625 51.4062C16.5625 48.4418 19.1742 45.9375 22.2656 45.9375C23.9572 45.9375 25.6348 46.687 26.6733 47.8784C25.9866 49.2047 25.625 50.683 25.625 52.1875H16.5625V51.4062ZM35 44.375C39.3472 44.375 42.8125 47.9022 42.8125 52.1875H27.1875C27.1875 47.8452 30.7236 44.375 35 44.375ZM53.4375 52.1875H44.375C44.375 50.683 44.0134 49.2047 43.3267 47.8784C44.3652 46.687 46.0428 45.9375 47.7344 45.9375C50.8258 45.9375 53.4375 48.4418 53.4375 51.4062V52.1875Z" fill="#B48E40"/>
<path d="M26.9531 39.6875C26.9531 37.1027 24.8505 35 22.2656 35C19.6808 35 17.5781 37.1027 17.5781 39.6875C17.5781 42.2723 19.6808 44.375 22.2656 44.375C24.8505 44.375 26.9531 42.2723 26.9531 39.6875ZM22.2656 42.8125C20.5426 42.8125 19.1406 41.4105 19.1406 39.6875C19.1406 37.9645 20.5426 36.5625 22.2656 36.5625C23.9886 36.5625 25.3906 37.9645 25.3906 39.6875C25.3906 41.4105 23.9886 42.8125 22.2656 42.8125Z" fill="#B48E40"/>
<path d="M41.25 36.5625C41.25 33.1161 38.4464 30.3125 35 30.3125C31.5536 30.3125 28.75 33.1161 28.75 36.5625C28.75 40.0089 31.5536 42.8125 35 42.8125C38.4464 42.8125 41.25 40.0089 41.25 36.5625ZM35 41.25C32.4152 41.25 30.3125 39.1473 30.3125 36.5625C30.3125 33.9777 32.4152 31.875 35 31.875C37.5848 31.875 39.6875 33.9777 39.6875 36.5625C39.6875 39.1473 37.5848 41.25 35 41.25Z" fill="#B48E40"/>
<path d="M41.1828 20.7938C41.0909 20.5109 40.8465 20.3049 40.552 20.2621L37.1822 19.7729L35.6734 16.6882C35.5425 16.42 35.2703 16.25 34.9718 16.25C34.6734 16.25 34.4012 16.42 34.2699 16.6879L32.7614 19.7729L29.3917 20.2618C29.0972 20.3046 28.8528 20.5109 28.7609 20.7938C28.669 21.0767 28.7456 21.387 28.9587 21.5945L31.3988 23.9728L30.823 27.3312C30.7726 27.6242 30.8932 27.9205 31.1339 28.0951C31.3732 28.269 31.6918 28.2938 31.9567 28.1546L34.9718 26.5692L37.9882 28.1546C38.2513 28.2932 38.5702 28.27 38.8109 28.0951C39.0514 27.9202 39.172 27.6242 39.1216 27.3309L38.5451 23.9728L40.985 21.5945C41.198 21.387 41.2746 21.0767 41.1828 20.7938ZM37.1599 23.1406C36.9759 23.32 36.8917 23.5788 36.9353 23.8321L37.3135 26.0352L35.3353 24.9951C35.1076 24.8755 34.8357 24.8755 34.6081 24.9951L32.6305 26.0352L33.0083 23.8321C33.0517 23.5785 32.9674 23.32 32.7834 23.1406L31.1831 21.5808L33.3941 21.2598C33.6498 21.2228 33.8705 21.0617 33.9837 20.8298L34.9718 18.8095L35.9597 20.8298C36.0732 21.062 36.2939 21.2228 36.5493 21.2598L38.7606 21.5808L37.1599 23.1406Z" fill="#B48E40"/>
<path d="M52.8602 26.6492C52.7683 26.3663 52.5238 26.1603 52.2294 26.1176L49.9463 25.7858L48.9255 23.7167C48.794 23.45 48.5227 23.2812 48.2251 23.2812C48.2251 23.2812 48.2251 23.2812 48.2248 23.2812C47.9276 23.2812 47.656 23.45 47.5245 23.7167L46.503 25.7858L44.2197 26.1176C43.9255 26.1603 43.6811 26.3663 43.5892 26.6492C43.4971 26.9321 43.5737 27.2424 43.7867 27.45L45.4386 29.061L45.0486 31.3345C44.9985 31.6275 45.1188 31.9235 45.3595 32.0984C45.6 32.2733 45.9189 32.2964 46.182 32.1582L48.2248 31.0849L50.2671 32.1582C50.5301 32.2964 50.8493 32.2733 51.0898 32.0984C51.3303 31.9238 51.4505 31.6275 51.4005 31.3345L51.0105 29.061L52.6627 27.45C52.8757 27.2424 52.952 26.9321 52.8602 26.6492ZM49.6259 28.2291C49.4416 28.4085 49.3576 28.667 49.4013 28.9203L49.5929 30.0385L48.5886 29.5108C48.3609 29.3912 48.089 29.3912 47.8617 29.5108L46.8564 30.0388L47.0484 28.9203C47.0917 28.667 47.0078 28.4085 46.8238 28.2291L46.0108 27.4362L47.1341 27.2733C47.3887 27.2363 47.6087 27.0764 47.7225 26.846L48.2248 25.8282L48.7268 26.8457C48.8407 27.0764 49.0607 27.2363 49.3152 27.2733L50.4386 27.4362L49.6259 28.2291Z" fill="#B48E40"/>
<path d="M26.2977 26.6492C26.2058 26.3663 25.9613 26.1603 25.6669 26.1176L23.3838 25.7858L22.363 23.7167C22.2315 23.45 21.9602 23.2812 21.6626 23.2812C21.3651 23.2812 21.0935 23.45 20.962 23.7167L19.9405 25.7858L17.6572 26.1176C17.363 26.1603 17.1186 26.3663 17.0267 26.6492C16.9346 26.9321 17.0112 27.2424 17.2242 27.45L18.8761 29.061L18.4864 31.3345C18.436 31.6275 18.5566 31.9235 18.797 32.0984C19.0375 32.2733 19.3564 32.2964 19.6198 32.1582L21.6623 31.0849L23.7046 32.1582C23.9695 32.2974 24.2881 32.2723 24.5273 32.0984C24.7678 31.9238 24.8883 31.6275 24.838 31.3345L24.448 29.061L26.1002 27.45C26.3132 27.2424 26.3895 26.9321 26.2977 26.6492ZM23.0631 28.2291C22.8791 28.4085 22.7951 28.667 22.8385 28.9203L23.0304 30.0385L22.0258 29.5108C21.7984 29.3912 21.5265 29.3912 21.2992 29.5108L20.2936 30.0388L20.4856 28.9203C20.5292 28.667 20.445 28.4085 20.261 28.2291L19.448 27.4362L20.5716 27.2733C20.8258 27.2363 21.0459 27.0764 21.1597 26.846L21.662 25.8282L22.164 26.8457C22.2779 27.0764 22.4979 27.2363 22.7524 27.2733L23.8758 27.4362L23.0631 28.2291Z" fill="#B48E40"/>
<path d="M38.4235 46.9605C38.0628 46.7234 37.5785 46.8238 37.3416 47.1845C37.1045 47.5449 37.2049 48.0293 37.5656 48.2664C38.288 48.7409 38.8654 49.4026 39.2353 50.1795C39.4202 50.5686 39.8859 50.735 40.2762 50.5491C40.6659 50.3639 40.8313 49.8975 40.6461 49.5081C40.1535 48.473 39.3848 47.5919 38.4235 46.9605Z" fill="#B48E40"/>
</svg>
