<svg width="70" height="70" viewBox="0 0 70 70" fill="none" xmlns="http://www.w3.org/2000/svg">
<rect width="70" height="70" fill="#212123"/>
<g clip-path="url(#clip0_167_1893)">
<path d="M49.5827 38.5777C49.0845 38.08 48.4227 37.8059 47.7188 37.8059C47.0145 37.8059 46.353 38.0803 45.8566 38.5777C45.3584 39.0756 45.084 39.737 45.084 40.4401C45.084 41.1432 45.3584 41.8046 45.8559 42.3017C46.353 42.7999 47.0146 43.0743 47.7188 43.0743C48.4226 43.0743 49.0845 42.8001 49.5835 42.3016C50.6077 41.2751 50.6076 39.605 49.5835 38.5786C49.5833 38.5783 49.583 38.5779 49.5827 38.5777ZM48.469 41.1877C48.2684 41.3881 48.002 41.4984 47.7189 41.4984C47.4362 41.4984 47.1707 41.3883 46.9705 41.1877C46.7702 40.9875 46.6598 40.7219 46.6598 40.44C46.6598 40.1581 46.7702 39.8926 46.9713 39.6915C47.1707 39.4916 47.4362 39.3816 47.7189 39.3816C48.0018 39.3816 48.2679 39.4918 48.4684 39.6918C48.88 40.1046 48.8798 40.776 48.469 41.1877Z" fill="#B48E40"/>
<path d="M33.2058 33.9207C32.502 33.9207 31.8401 34.1948 31.3419 34.6925C30.3158 35.7178 30.3154 37.3884 31.3428 38.4181C31.8569 38.9301 32.5314 39.1862 33.2058 39.1861C33.8805 39.1861 34.555 38.9298 35.0679 38.4173C35.5668 37.9189 35.8412 37.2565 35.8406 36.5521C35.8401 35.8493 35.5658 35.1891 35.0682 34.6928C34.5712 34.1949 33.9097 33.9207 33.2058 33.9207ZM33.9542 37.3025C33.5417 37.715 32.8691 37.7146 32.4565 37.3034C32.0441 36.8901 32.0437 36.2189 32.4557 35.8072C32.6562 35.6067 32.9226 35.4964 33.2058 35.4964C33.4884 35.4964 33.754 35.6065 33.9533 35.8063C33.9539 35.8069 33.9545 35.8075 33.9551 35.808C34.1547 36.0068 34.2647 36.2715 34.2649 36.5532C34.2651 36.836 34.1547 37.1021 33.9542 37.3025Z" fill="#B48E40"/>
<path d="M53.3537 38.9308C52.5892 36.0839 49.8315 34.2936 46.9842 34.6571L46.338 32.2454L52.5637 22.9067C53.6467 21.2819 53.6082 19.4929 52.465 18.3483C51.8715 17.7551 50.9057 17.7551 50.3121 18.3482L44.2377 24.4176L42.0143 16.1274C41.7979 15.3179 40.9628 14.8354 40.1523 15.0517C38.5899 15.4697 37.6611 17.0004 37.786 18.9514L38.1453 24.5616C35.3758 22.9508 33.9191 23.2295 31.9995 23.5979C30.8279 23.8229 29.5004 24.0776 27.4585 24.0046C24.3501 23.8911 22.9776 23.0166 21.9755 22.378C21.2904 21.9415 20.6431 21.5294 19.7753 21.6369C18.7653 21.7622 17.8201 23.3055 17.2724 24.7081C16.5809 26.4789 16.3098 28.5078 16.5092 30.4208C16.7609 32.8369 17.7166 35.0769 19.3503 37.0836V41.6057C19.3503 43.2358 19.8546 45.0394 20.8085 46.8214C20.9505 47.0866 21.2225 47.2375 21.5038 47.2375C21.6292 47.2375 21.7566 47.2074 21.8749 47.144C22.2585 46.9387 22.4031 46.4612 22.1977 46.0776C21.3658 44.5237 20.9261 42.9772 20.9261 41.6057V37.5883C24.2803 37.5836 25.0103 37.4362 27.3932 36.0717C27.3803 36.2308 27.3721 36.391 27.3721 36.5526C27.3717 38.1105 27.9789 39.5754 29.082 40.6776C30.2191 41.8138 31.7123 42.3819 33.206 42.3817C34.6994 42.3815 36.1932 41.8136 37.33 40.6776L40.3074 37.7028C40.4549 37.6311 40.5955 37.5626 40.7321 37.4959C40.7739 37.5576 40.816 37.6201 40.859 37.6834L40.9962 37.8863L42.0852 41.949C42.3498 42.9373 42.8584 43.8178 43.5581 44.5272C42.2339 48.139 38.9273 51.5144 35.3574 52.844C33.2711 53.6203 31.7949 53.6219 29.7156 52.8503C28.6469 52.454 27.5949 51.8757 26.589 51.1315C26.2392 50.8726 25.7458 50.9466 25.4871 51.2965C25.2283 51.6463 25.3021 52.1396 25.6519 52.3984C26.7771 53.2308 27.9599 53.8798 29.1676 54.3278C30.3753 54.776 31.4507 55.0001 32.5267 55.0001C33.608 55.0001 34.6899 54.7738 35.9071 54.3208C39.7301 52.8969 43.2815 49.3669 44.8609 45.5215C45.7443 46.0181 46.7201 46.2722 47.7088 46.2722C48.2158 46.2722 48.7264 46.2055 49.2291 46.0708C50.7342 45.6685 51.9921 44.7042 52.771 43.3554C53.5496 42.0069 53.7566 40.4358 53.3537 38.9308ZM40.5067 16.589L42.9511 25.703L39.9871 28.6646L39.3585 18.8507C39.33 18.4061 39.3308 16.9455 40.5067 16.589ZM27.5231 34.1725C24.4721 35.9679 24.3799 36.0212 20.5106 36.0127C17.6506 32.4419 17.8586 28.8159 18.2488 26.9449C18.7052 24.7556 19.6719 23.4162 20.0225 23.1964C20.2975 23.1865 20.587 23.3617 21.1288 23.7069C22.2182 24.4011 23.8646 25.4503 27.4017 25.5794C29.6221 25.6586 31.105 25.3743 32.2967 25.1454C34.3227 24.7564 35.3744 24.5551 38.2694 26.4972L38.5031 30.1473L36.7357 31.9133C34.4514 30.1757 31.1671 30.3487 29.0823 32.4319C28.6496 32.8639 28.2943 33.3524 28.0209 33.8799C27.847 33.9819 27.6812 34.0794 27.5231 34.1725ZM39.4996 36.3434C39.4209 36.3816 39.3491 36.4327 39.2872 36.4946L36.2164 39.5629C34.5564 41.2214 31.8556 41.2214 30.1957 39.5629C29.3906 38.7586 28.9474 37.6896 28.9478 36.5529C28.9481 35.4174 29.3912 34.35 30.1957 33.547C31.0257 32.7177 32.1158 32.3031 33.206 32.3031C34.2962 32.3031 35.3864 32.7178 36.2164 33.547C36.524 33.8542 37.0224 33.8544 37.3301 33.547L39.8398 31.0394C39.8613 31.02 39.8818 30.9997 39.901 30.9782L51.3879 19.5007C52.2285 20.3987 51.4993 21.6624 51.2526 22.0326L44.3397 32.4022C43.0053 34.4057 42.4545 34.8724 40.647 35.7804C40.6437 35.782 40.6404 35.7836 40.6371 35.7853C40.3284 35.9403 39.9841 36.1078 39.592 36.2984L39.4996 36.3434ZM51.4065 42.567C50.8382 43.5511 49.9204 44.2547 48.8216 44.5483C47.7228 44.8428 46.5752 44.6923 45.59 44.124C45.3734 43.999 45.1712 43.8563 44.9831 43.6994C44.982 43.6984 44.9809 43.6976 44.9797 43.6965C44.3145 43.1403 43.836 42.3959 43.6071 41.5411L42.4838 37.3504C42.4612 37.2661 42.4247 37.1862 42.3759 37.1139L42.1637 36.8001C42.1578 36.7912 42.152 36.7828 42.146 36.774C43.3874 36.0876 44.1244 35.4472 45.1703 33.9762L45.6522 35.7748C45.7064 35.9766 45.8384 36.1487 46.0193 36.2533C46.2003 36.3576 46.4154 36.3861 46.6172 36.3319C48.884 35.7244 51.2232 37.0735 51.8315 39.339C52.1256 40.4368 51.9746 41.5833 51.4065 42.567Z" fill="#B48E40"/>
<path d="M24.1379 48.876C23.8654 48.5368 23.3694 48.4827 23.0303 48.7553C22.6911 49.0278 22.637 49.5238 22.9096 49.8629L22.9185 49.874C23.0741 50.0678 23.3026 50.1685 23.5332 50.1685C23.7063 50.1685 23.8807 50.1117 24.0261 49.9947C24.3654 49.7222 24.4194 49.2262 24.1468 48.8871L24.1379 48.876Z" fill="#B48E40"/>
</g>
<defs>
<clipPath id="clip0_167_1893">
<rect width="40" height="40" fill="white" transform="translate(15 15)"/>
</clipPath>
</defs>
</svg>
