<svg width="70" height="70" viewBox="0 0 70 70" fill="none" xmlns="http://www.w3.org/2000/svg">
<rect width="70" height="70" fill="#212123"/>
<g clip-path="url(#clip0_167_1928)">
<path d="M18.4332 33.6669C18.623 33.6647 18.8126 33.6492 18.9999 33.6196V53C18.9999 54.1048 19.8953 55.0002 21.0001 55.0002H48.9999C50.1047 55.0002 51.0001 54.1048 51.0001 53V33.6196C51.1874 33.6492 51.377 33.6647 51.5668 33.6669C53.4082 33.7166 54.9429 32.2679 55 30.4268C55.0006 30.3743 54.9976 30.3215 54.9915 30.2693C54.9887 30.23 54.9826 30.1906 54.9734 30.1521H54.9768L52.9395 21.1568C52.399 18.72 50.2332 16.9896 47.7374 17H40.274C37.2635 14.3337 32.7365 14.3337 29.726 17H22.2626C19.7675 16.9905 17.6028 18.7209 17.0627 21.1568L15.1999 29.362C15.1071 29.6147 15.0482 29.8787 15.0247 30.1467V30.1595L15.0174 30.1927V30.2129C15.0174 30.2315 15.0107 30.2489 15.0101 30.2669V30.2709C15.0031 30.3224 15 30.3746 15 30.4268C15.0571 32.2679 16.5918 33.7166 18.4332 33.6669ZM23.6667 53.6669V39.0001H32.9999V53.6669H23.6667ZM49.6667 53C49.6667 53.3684 49.3683 53.6669 48.9999 53.6669H34.3332V39.0001C34.3332 38.2637 33.7363 37.6668 32.9999 37.6668H23.6667C22.9303 37.6668 22.3334 38.2637 22.3334 39.0001V53.6669H21.0001C20.6317 53.6669 20.3333 53.3684 20.3333 53V33.2002C20.8008 32.9732 21.2213 32.6604 21.5726 32.2774C22.2025 33.1319 23.1931 33.6461 24.2545 33.6693C25.3156 33.6928 26.3278 33.2228 26.9946 32.3967C27.6477 33.2024 28.6295 33.6702 29.6667 33.6702C30.7037 33.6702 31.6855 33.2024 32.3386 32.3967C32.9877 33.2018 33.9661 33.6699 35 33.6699C36.0339 33.6699 37.0126 33.2018 37.6614 32.3967C38.3145 33.2024 39.2963 33.6702 40.3333 33.6702C41.3705 33.6702 42.3523 33.2024 43.0054 32.3967C43.6722 33.2228 44.6844 33.6928 45.7455 33.6693C46.8069 33.6461 47.7975 33.1319 48.4274 32.2774C48.7787 32.6604 49.1992 32.9732 49.6667 33.2002V53ZM31.6666 30.2669V30.3334C31.6666 30.3481 31.6739 30.3603 31.6748 30.374C31.6736 30.3917 31.6736 30.4091 31.6748 30.4268C31.6187 31.4714 30.7733 32.3 29.7278 32.3348C28.6823 32.3692 27.7838 31.5987 27.6587 30.5602C27.6587 30.5162 27.6587 30.4714 27.6587 30.4268L28.1647 27.1382C28.9948 28.506 30.2142 29.5955 31.6666 30.2669ZM41.8393 27.1333L42.3419 30.3621C42.3407 30.3844 42.3407 30.4067 42.3419 30.4289C42.2861 31.4736 41.4407 32.3018 40.3952 32.3366C39.3497 32.3714 38.4509 31.6008 38.3261 30.562C38.3261 30.5181 38.3261 30.4735 38.3261 30.4289C38.3261 30.414 38.3221 30.4003 38.3228 30.3856C38.3234 30.3707 38.3334 30.3508 38.3334 30.3334V30.2669C39.7885 29.5937 41.0095 28.5011 41.8393 27.1294V27.1333ZM33.0325 30.7494C34.3207 31.0881 35.6741 31.0881 36.962 30.7494C36.7633 31.6759 35.9448 32.3375 34.9973 32.3375C34.05 32.3375 33.2312 31.6759 33.0325 30.7494ZM51.6388 21.4507L53.6572 30.3649C53.6572 30.3856 53.6627 30.4054 53.6667 30.4268C53.6096 31.5315 52.6718 32.383 51.5668 32.3335C50.4468 32.3335 49.086 31.5029 49.0048 30.5455C49.0048 30.5061 49.0048 30.4668 49.0048 30.4268C49.0164 30.3249 49.0036 30.2214 48.9673 30.1256L46.9833 21.5169C46.9296 21.2847 46.7563 21.0985 46.5283 21.0289C46.3007 20.959 46.0529 21.0164 45.8783 21.1788C45.704 21.3414 45.6299 21.5846 45.6833 21.8169L47.6727 30.4347C47.6624 30.9538 47.4445 31.4473 47.0673 31.8041C46.6901 32.1611 46.1856 32.3519 45.6668 32.3335C44.632 32.3799 43.7479 31.5956 43.6707 30.5629C43.6707 30.5174 43.6707 30.4723 43.6707 30.4296C43.67 30.4024 43.6679 30.3755 43.6639 30.3487C43.6691 30.3108 43.671 30.2724 43.6694 30.2342L42.8094 24.7121C43.3029 22.4944 42.8204 20.1714 41.4847 18.3333L47.7374 18.3336C49.6091 18.3254 51.2335 19.6233 51.6388 21.4507ZM41.6666 23C41.6666 26.682 38.6819 29.6669 35 29.6669C31.3181 29.6669 28.3334 26.682 28.3334 23C28.3334 19.3181 31.3181 16.3335 35 16.3335C38.6801 16.3374 41.6626 19.3199 41.6666 23ZM18.3612 21.4507C18.7665 19.6233 20.3909 18.3254 22.2626 18.3336L28.5153 18.3333C27.1777 20.1717 26.6949 22.4962 27.1899 24.7148L26.362 30.0948C26.3193 30.2004 26.3071 30.316 26.3266 30.428C26.3266 30.949 26.1136 31.4467 25.737 31.8065C25.3607 32.1663 24.8535 32.3567 24.3332 32.3335C23.2959 32.3702 22.4118 31.5871 22.3233 30.5528C22.3233 30.5107 22.3267 30.4689 22.3267 30.4268C22.3267 30.414 22.3227 30.4015 22.3267 30.3887L24.3185 21.8187C24.4022 21.4601 24.1794 21.1019 23.8208 21.0182C23.4619 20.9346 23.1036 21.1574 23.02 21.516L21.0199 30.1161C20.9839 30.2168 20.975 30.3255 20.994 30.4308C20.9933 31.4534 19.5859 32.3335 18.4332 32.3335C17.3398 32.3839 16.4053 31.5535 16.3272 30.4616C16.3324 30.4378 16.3358 30.4137 16.3373 30.3896L16.51 29.6355C16.51 29.6315 16.51 29.6275 16.51 29.6236L18.3612 21.4507Z" fill="#B48E40"/>
<path d="M47.0003 37.6665H37.6668C36.9304 37.6665 36.3335 38.2634 36.3335 38.9998V46.9997C36.3335 47.7361 36.9304 48.3333 37.6668 48.3333H47.0003C47.7367 48.3333 48.3336 47.7361 48.3336 46.9997V38.9998C48.3336 38.2634 47.7367 37.6665 47.0003 37.6665ZM43.0001 46.9997V44.3331C43.0001 43.965 42.7016 43.6666 42.3336 43.6666C41.9652 43.6666 41.6667 43.965 41.6667 44.3331V46.9997H37.6668V43.6666H40.3334C40.7018 43.6666 41.0002 43.3681 41.0002 42.9998C41.0002 42.6317 40.7018 42.3333 40.3334 42.3333H37.6668V38.9998H41.6667V41.6664C41.6667 42.0348 41.9652 42.3333 42.3336 42.3333C42.7016 42.3333 43.0001 42.0348 43.0001 41.6664V38.9998H47.0003V42.3333H44.3334C43.9653 42.3333 43.6669 42.6317 43.6669 42.9998C43.6669 43.3681 43.9653 43.6666 44.3334 43.6666H47.0003V46.9997H43.0001Z" fill="#B48E40"/>
<path d="M31.6663 46.3333C31.6663 46.7014 31.3679 46.9998 30.9998 46.9998C30.6315 46.9998 30.333 46.7014 30.333 46.3333C30.333 45.965 30.6315 45.6665 30.9998 45.6665C31.3679 45.6665 31.6663 45.965 31.6663 46.3333Z" fill="#B48E40"/>
<path d="M32.9997 27.6667C33.7684 27.6643 34.4984 27.328 34.9998 26.7454C35.7786 27.6442 37.0595 27.9161 38.1361 27.4113C39.2128 26.9066 39.8231 25.7478 39.6303 24.5744C39.4374 23.401 38.4886 22.4986 37.3073 22.3646L35.88 20.9373L37.5331 18.7333C37.754 18.4388 37.6945 18.0211 37.3997 17.8001C37.1052 17.5792 36.6874 17.639 36.4665 17.9335L34.9998 19.8887L33.5332 17.9335C33.3122 17.639 32.8944 17.5792 32.5999 17.8001C32.3054 18.0211 32.2456 18.4388 32.4666 18.7333L34.1197 20.9373L32.6924 22.3646C31.2886 22.5227 30.2528 23.7507 30.3346 25.1613C30.4164 26.5718 31.587 27.6722 32.9997 27.6667ZM38.3333 25.0001C38.3333 25.7365 37.7363 26.3334 36.9999 26.3334C36.2636 26.3334 35.6666 25.7365 35.6666 25.0001C35.6666 24.2637 36.2636 23.6668 36.9999 23.6668C37.7363 23.6668 38.3333 24.2637 38.3333 25.0001ZM34.272 22.6707L34.9998 21.9429L35.728 22.6707C35.4527 22.8212 35.2064 23.0189 34.9998 23.2548C34.7935 23.0189 34.5469 22.8212 34.272 22.6707ZM32.9997 23.6668C33.7361 23.6668 34.333 24.2637 34.333 25.0001C34.333 25.7365 33.7361 26.3334 32.9997 26.3334C32.2633 26.3334 31.6664 25.7365 31.6664 25.0001C31.6664 24.2637 32.2633 23.6668 32.9997 23.6668Z" fill="#B48E40"/>
</g>
<defs>
<clipPath id="clip0_167_1928">
<rect width="40" height="40" fill="white" transform="translate(15 15)"/>
</clipPath>
</defs>
</svg>
