<svg width="21" height="20" viewBox="0 0 21 20" fill="none" xmlns="http://www.w3.org/2000/svg">
<g clip-path="url(#clip0_171_221)">
<path d="M19.6907 13.9242L14.5725 11.6461C14.3479 11.5461 14.085 11.5967 13.9133 11.7728C13.5733 12.1218 12.7706 12.9404 12.2794 13.4228C11.3023 12.7369 10.2582 11.8352 9.23557 10.7923C9.23282 10.7896 9.23006 10.7868 9.22731 10.7841C8.20007 9.77672 7.33121 8.76935 6.63971 7.784C7.2323 7.18575 8.2759 6.15576 8.2889 6.14292C8.46273 5.97138 8.51226 5.71009 8.41304 5.48673L6.14543 0.379248C6.02862 0.115977 5.73783 -0.0237609 5.45927 0.0497775L1.51985 1.08772C0.324274 1.39197 -0.259294 2.6438 0.109927 3.84213C1.24939 7.54106 2.88956 10.6945 6.09161 13.9403C6.09268 13.9413 6.09375 13.9424 6.09482 13.9435L6.11531 13.964C6.11638 13.965 6.11745 13.9661 6.11852 13.9672C10.3493 18.1413 14.1662 19.3173 16.2167 19.949C17.4031 20.3144 18.6635 19.7455 18.9711 18.5399L20.0193 14.6119C20.0936 14.333 19.9543 14.0415 19.6907 13.9242ZM17.8356 18.2405C17.835 18.243 17.8344 18.2454 17.8338 18.2479C17.6954 18.7946 17.108 18.995 16.5623 18.8268C14.4709 18.1824 10.9705 17.1041 6.94472 13.133L6.92591 13.1141C2.95453 9.08797 1.79122 5.31152 1.23196 3.49645C1.06379 2.95019 1.26468 2.36326 1.81094 2.2252C1.81278 2.22474 1.81461 2.22428 1.81645 2.22367L5.2752 1.31262L7.17542 5.59252C6.6894 6.07351 5.73798 7.01743 5.45774 7.31372C5.27061 7.51156 5.24416 7.81228 5.39399 8.03993C6.16851 9.21685 7.18032 10.4208 8.40111 11.6184C9.61595 12.8568 10.8673 13.9105 12.0199 14.6656C12.2424 14.8113 12.535 14.7893 12.7332 14.6121C13.0427 14.335 13.9871 13.376 14.4683 12.8848L18.7555 14.7932L17.8356 18.2405Z" fill="#B48E40"/>
<path d="M10.0197 1.1937C14.8969 1.1937 18.8649 5.14413 18.8649 9.99981C18.8649 10.3239 19.1278 10.5869 19.4519 10.5869C19.7762 10.5869 20.039 10.3239 20.039 9.99981C20.039 4.49666 15.5444 0.0195312 10.0197 0.0195312C9.69543 0.0195312 9.43262 0.282343 9.43262 0.606615C9.43262 0.930888 9.69543 1.1937 10.0197 1.1937Z" fill="#B48E40"/>
<path d="M10.0197 3.54233C13.5804 3.54233 16.4775 6.43923 16.4775 10.0001C16.4775 10.3242 16.7403 10.5872 17.0646 10.5872C17.3887 10.5872 17.6516 10.3242 17.6516 10.0001C17.6516 5.79175 14.2279 2.36816 10.0197 2.36816C9.69543 2.36816 9.43262 2.63098 9.43262 2.95525C9.43262 3.27937 9.69543 3.54233 10.0197 3.54233Z" fill="#B48E40"/>
<path d="M10.0197 5.88999C12.2856 5.88999 14.1291 7.73349 14.1291 9.99958C14.1291 10.3237 14.3919 10.5867 14.7162 10.5867C15.0405 10.5867 15.3033 10.3237 15.3033 9.99958C15.3033 7.08617 12.9331 4.71582 10.0197 4.71582C9.69543 4.71582 9.43262 4.97879 9.43262 5.3029C9.43262 5.62718 9.69543 5.88999 10.0197 5.88999Z" fill="#B48E40"/>
</g>
<defs>
<clipPath id="clip0_171_221">
<rect width="20.0391" height="20" fill="white"/>
</clipPath>
</defs>
</svg>
