<svg width="20" height="20" viewBox="0 0 20 20" fill="none" xmlns="http://www.w3.org/2000/svg">
<g clip-path="url(#clip0_171_194)">
<path d="M19.9996 8.77297C19.9996 8.6932 19.9758 8.6127 19.9252 8.54324C19.9077 8.51922 19.8879 8.49801 19.8664 8.47922C19.8665 8.47918 19.8665 8.47914 19.8666 8.47906L18.5185 7.29926C18.809 7.06535 18.9953 6.70715 18.9953 6.30605V5.66504C18.9953 3.94191 17.5934 2.54004 15.8703 2.54004C14.1472 2.54004 12.7453 3.94191 12.7453 5.66504C12.7453 7.38816 14.1472 8.79004 15.8703 8.79004C16.0861 8.79004 16.2609 8.61516 16.2609 8.39941C16.2609 8.18367 16.0861 8.00879 15.8703 8.00879C14.578 8.00879 13.5266 6.95738 13.5266 5.66504C13.5266 4.3727 14.578 3.32129 15.8703 3.32129C17.1627 3.32129 18.2141 4.3727 18.2141 5.66504V6.30605C18.2141 6.57832 17.9926 6.7998 17.7203 6.7998C17.448 6.7998 17.2265 6.57832 17.2265 6.30605V5.76629V4.64324C17.2265 4.53582 17.1823 4.43316 17.1043 4.35937C16.7692 4.04262 16.331 3.86816 15.8703 3.86816C14.8795 3.86816 14.0734 4.67426 14.0734 5.66504C14.0734 6.65582 14.8795 7.46191 15.8703 7.46191C16.2055 7.46191 16.5287 7.3691 16.8091 7.19668C17.0333 7.42598 17.3429 7.57106 17.686 7.5802C17.707 7.61684 17.7339 7.65082 17.7675 7.6802L18.9841 8.74488L15.8594 11.0181V9.99977C15.8594 9.78402 15.6845 9.60914 15.4688 9.60914C15.253 9.60914 15.0781 9.78402 15.0781 9.99977V11.5865L12.162 13.708L10.2298 12.3024C10.0928 12.2027 9.90719 12.2027 9.7702 12.3024L7.83805 13.708L1.03289 8.75719L3.25566 6.81191C3.41801 6.66984 3.43441 6.42305 3.29234 6.2607C3.15023 6.09836 2.90348 6.08195 2.74113 6.22402L0.144063 8.47008C0.143906 8.47023 0.14375 8.47035 0.143594 8.47051C0.0559766 8.54215 0 8.65102 0 8.77301V19.6091C0 19.8248 0.174883 19.9997 0.390625 19.9997H19.6094C19.8251 19.9997 20 19.8248 20 19.6091V8.77301C19.9999 8.77301 19.9997 8.77297 19.9996 8.77297ZM16.4453 5.76633V6.30609V6.50199C16.277 6.61805 16.0777 6.68066 15.8704 6.68066C15.3104 6.68066 14.8547 6.22504 14.8547 5.66504C14.8547 5.10504 15.3104 4.64941 15.8704 4.64941C16.0777 4.64941 16.277 4.71203 16.4453 4.82809V5.76633ZM0.78125 9.54023L7.17406 14.1911L0.78125 18.8419V9.54023ZM1.59156 19.2185L10 13.1013L18.4084 19.2185H1.59156ZM19.2188 18.8419L12.8259 14.1911L19.2188 9.54023V18.8419Z" fill="#B48E40"/>
<path d="M13.1776 2.62644L10.2558 0.0951892C10.1073 -0.0334437 9.88984 -0.0298499 9.74543 0.0947204C9.74531 0.0946032 9.74523 0.0945251 9.74512 0.0944079L8.33887 1.30535C8.17539 1.44613 8.15699 1.69277 8.29777 1.85624C8.37504 1.94597 8.48414 1.99199 8.59395 1.99199C8.68422 1.99199 8.77492 1.96089 8.84867 1.89738L9.9993 0.906556L11.8849 2.54007H4.53125C4.31551 2.54007 4.14062 2.71495 4.14062 2.9307V8.55449C4.14062 8.77023 4.31551 8.94511 4.53125 8.94511C4.74699 8.94511 4.92188 8.77023 4.92188 8.55449V3.32136H12.9218C12.9205 3.31812 12.9196 3.31531 12.9183 3.31214C12.9194 3.31214 12.9205 3.3123 12.9216 3.3123C13.031 3.3123 13.1398 3.2666 13.2171 3.17745C13.3583 3.01441 13.3407 2.76769 13.1776 2.62644Z" fill="#B48E40"/>
<path d="M10.0542 6.48438H6.14893C5.93318 6.48438 5.7583 6.65926 5.7583 6.875C5.7583 7.09074 5.93318 7.26562 6.14893 7.26562H10.0542C10.27 7.26562 10.4449 7.09074 10.4449 6.875C10.4449 6.65926 10.27 6.48438 10.0542 6.48438Z" fill="#B48E40"/>
<path d="M9.99982 4.53125H6.14893C5.93318 4.53125 5.7583 4.70613 5.7583 4.92188C5.7583 5.13762 5.93318 5.3125 6.14893 5.3125H9.99982C10.2156 5.3125 10.3904 5.13762 10.3904 4.92188C10.3904 4.70613 10.2156 4.53125 9.99982 4.53125Z" fill="#B48E40"/>
<path d="M4.80742 9.85371C4.73477 9.78105 4.63398 9.73926 4.53125 9.73926C4.42852 9.73926 4.32773 9.78105 4.25508 9.85371C4.18242 9.92637 4.14062 10.0271 4.14062 10.1299C4.14062 10.233 4.18242 10.3334 4.25508 10.4061C4.32773 10.4791 4.42852 10.5205 4.53125 10.5205C4.63398 10.5205 4.73477 10.4791 4.80742 10.4061C4.88008 10.3334 4.92188 10.233 4.92188 10.1299C4.92188 10.0271 4.88008 9.92637 4.80742 9.85371Z" fill="#B48E40"/>
<path d="M12.6402 8.41016H11.875C11.6593 8.41016 11.4844 8.58504 11.4844 8.80078C11.4844 9.01652 11.6593 9.19141 11.875 9.19141H12.6402C12.8559 9.19141 13.0308 9.01652 13.0308 8.80078C13.0308 8.58504 12.8559 8.41016 12.6402 8.41016Z" fill="#B48E40"/>
<path d="M10.1488 8.41016H10.1445C9.92879 8.41016 9.75391 8.58504 9.75391 8.80078C9.75391 9.01652 9.92879 9.19141 10.1445 9.19141H10.1488C10.3645 9.19141 10.5395 9.01652 10.5395 8.80078C10.5395 8.58504 10.3646 8.41016 10.1488 8.41016Z" fill="#B48E40"/>
<path d="M8.28156 8.41016H6.14746C5.93172 8.41016 5.75684 8.58504 5.75684 8.80078C5.75684 9.01652 5.93172 9.19141 6.14746 9.19141H8.28156C8.4973 9.19141 8.67219 9.01652 8.67219 8.80078C8.67219 8.58504 8.4973 8.41016 8.28156 8.41016Z" fill="#B48E40"/>
</g>
<defs>
<clipPath id="clip0_171_194">
<rect width="20" height="20" fill="white"/>
</clipPath>
</defs>
</svg>
