<svg width="40" height="40" viewBox="0 0 40 40" fill="none" xmlns="http://www.w3.org/2000/svg">
<circle cx="20" cy="20" r="19.5" stroke="#333334"/>
<path d="M18 16.4062C18.625 16.4062 19.2188 16.5938 19.7812 16.9062C20.3438 17.2188 20.7812 17.6562 21.0938 18.2188C21.4062 18.7812 21.5938 19.375 21.5938 20C21.5938 20.6562 21.4062 21.25 21.0938 21.8125C20.7812 22.375 20.3438 22.8125 19.7812 23.125C19.2188 23.4375 18.625 23.5938 18 23.5938C17.3438 23.5938 16.75 23.4375 16.1875 23.125C15.625 22.8125 15.1875 22.375 14.875 21.8125C14.5625 21.25 14.4062 20.6562 14.4062 20C14.4062 19.375 14.5625 18.7812 14.875 18.2188C15.1875 17.6562 15.625 17.2188 16.1875 16.9062C16.75 16.5938 17.3438 16.4062 18 16.4062ZM18 22.3438C18.625 22.3438 19.1875 22.125 19.6562 21.6562C20.0938 21.2188 20.3438 20.6562 20.3438 20C20.3438 19.375 20.0938 18.8125 19.6562 18.3438C19.1875 17.9062 18.625 17.6562 18 17.6562C17.3438 17.6562 16.7812 17.9062 16.3438 18.3438C15.875 18.8125 15.6562 19.375 15.6562 20C15.6562 20.6562 15.875 21.2188 16.3438 21.6562C16.7812 22.125 17.3438 22.3438 18 22.3438ZM22.5938 16.25C22.5938 16.0312 22.5 15.8438 22.3438 15.6562C22.1562 15.5 21.9688 15.4062 21.75 15.4062C21.5 15.4062 21.3125 15.5 21.1562 15.6562C20.9688 15.8438 20.9062 16.0312 20.9062 16.25C20.9062 16.5 20.9688 16.6875 21.1562 16.8438C21.3125 17.0312 21.5 17.0938 21.75 17.0938C21.9688 17.0938 22.1562 17.0312 22.3125 16.8438C22.4688 16.6875 22.5625 16.5 22.5938 16.25ZM24.9688 17.0938C24.9688 17.6875 25 18.6562 25 20C25 21.375 24.9688 22.3438 24.9375 22.9375C24.9062 23.5312 24.8125 24.0312 24.6875 24.4688C24.5 25 24.1875 25.4688 23.8125 25.8438C23.4375 26.2188 22.9688 26.5 22.4688 26.6875C22.0312 26.8438 21.5 26.9375 20.9062 26.9688C20.3125 27 19.3438 27 18 27C16.625 27 15.6562 27 15.0625 26.9688C14.4688 26.9375 13.9688 26.8438 13.5312 26.6562C13 26.5 12.5312 26.2188 12.1562 25.8438C11.7812 25.4688 11.5 25 11.3125 24.4688C11.1562 24.0312 11.0625 23.5312 11.0312 22.9375C11 22.3438 11 21.375 11 20C11 18.6562 11 17.6875 11.0312 17.0938C11.0625 16.5 11.1562 15.9688 11.3125 15.5312C11.5 15.0312 11.7812 14.5625 12.1562 14.1875C12.5312 13.8125 13 13.5 13.5312 13.3125C13.9688 13.1875 14.4688 13.0938 15.0625 13.0625C15.6562 13.0312 16.625 13 18 13C19.3438 13 20.3125 13.0312 20.9062 13.0625C21.5 13.0938 22.0312 13.1875 22.4688 13.3125C22.9688 13.5 23.4375 13.8125 23.8125 14.1875C24.1875 14.5625 24.5 15.0312 24.6875 15.5312C24.8125 15.9688 24.9062 16.5 24.9688 17.0938ZM23.4688 24.125C23.5938 23.7812 23.6562 23.2188 23.7188 22.4375C23.7188 22 23.75 21.3438 23.75 20.5V19.5C23.75 18.6562 23.7188 18 23.7188 17.5625C23.6562 16.7812 23.5938 16.2188 23.4688 15.875C23.2188 15.25 22.75 14.7812 22.125 14.5312C21.7812 14.4062 21.2188 14.3438 20.4375 14.2812C19.9688 14.2812 19.3125 14.25 18.5 14.25H17.5C16.6562 14.25 16 14.2812 15.5625 14.2812C14.7812 14.3438 14.2188 14.4062 13.875 14.5312C13.2188 14.7812 12.7812 15.25 12.5312 15.875C12.4062 16.2188 12.3125 16.7812 12.2812 17.5625C12.25 18.0312 12.25 18.6875 12.25 19.5V20.5C12.25 21.3438 12.25 22 12.2812 22.4375C12.3125 23.2188 12.4062 23.7812 12.5312 24.125C12.7812 24.7812 13.25 25.2188 13.875 25.4688C14.2188 25.5938 14.7812 25.6875 15.5625 25.7188C16 25.75 16.6562 25.75 17.5 25.75H18.5C19.3438 25.75 20 25.75 20.4375 25.7188C21.2188 25.6875 21.7812 25.5938 22.125 25.4688C22.75 25.2188 23.2188 24.75 23.4688 24.125Z" fill="#666667"/>
</svg>
