<svg width="40" height="40" viewBox="0 0 40 40" fill="none" xmlns="http://www.w3.org/2000/svg">
<circle cx="20" cy="20" r="19.5" stroke="#333334"/>
<path d="M16.125 27V17.6562H13.2188V27H16.125ZM14.6875 16.375C15.125 16.375 15.5312 16.2188 15.875 15.875C16.1875 15.5625 16.375 15.1562 16.375 14.6875C16.375 14.25 16.1875 13.8438 15.875 13.5C15.5312 13.1875 15.125 13 14.6875 13C14.2188 13 13.8125 13.1875 13.5 13.5C13.1562 13.8438 13 14.25 13 14.6875C13 15.1562 13.1562 15.5625 13.5 15.875C13.8125 16.2188 14.2188 16.375 14.6875 16.375ZM27 27V21.875C27 20.4375 26.7812 19.375 26.375 18.6875C25.8125 17.8438 24.875 17.4062 23.5312 17.4062C22.8438 17.4062 22.2812 17.5938 21.7812 17.9062C21.3125 18.1875 20.9688 18.5312 20.7812 18.9375H20.75V17.6562H17.9688V27H20.8438V22.375C20.8438 21.6562 20.9375 21.0938 21.1562 20.7188C21.4062 20.2188 21.875 19.9688 22.5625 19.9688C23.2188 19.9688 23.6562 20.25 23.9062 20.8125C24.0312 21.1562 24.0938 21.6875 24.0938 22.4375V27H27Z" fill="#666667"/>
</svg>
