<svg width="40" height="40" viewBox="0 0 40 40" fill="none" xmlns="http://www.w3.org/2000/svg">
<circle cx="20" cy="20" r="19.5" stroke="#333334"/>
<path d="M26.3438 16.75C26.9688 16.2812 27.5312 15.7188 28 15.0312C27.375 15.3125 26.75 15.5 26.125 15.5625C26.8125 15.125 27.3125 14.5312 27.5625 13.75C26.9062 14.125 26.2188 14.4062 25.4688 14.5312C25.1562 14.2188 24.7812 13.9688 24.375 13.7812C23.9688 13.5938 23.5312 13.5 23.0625 13.5C22.4688 13.5 21.9375 13.6562 21.4375 13.9375C20.9375 14.25 20.5312 14.6562 20.25 15.1562C19.9375 15.6562 19.8125 16.2188 19.8125 16.7812C19.8125 17.0312 19.8125 17.2812 19.875 17.5312C18.5312 17.4688 17.2812 17.1562 16.0938 16.5312C14.9062 15.9375 13.9375 15.125 13.125 14.0938C12.8125 14.625 12.6562 15.1875 12.6562 15.75C12.6562 16.3125 12.7812 16.8438 13.0625 17.3125C13.3125 17.8125 13.6875 18.1875 14.125 18.5C13.5938 18.5 13.0938 18.3438 12.6562 18.0625V18.125C12.6562 18.9062 12.9062 19.5938 13.4062 20.1875C13.9062 20.8125 14.5312 21.1875 15.2812 21.3438C14.9688 21.4062 14.6875 21.4375 14.4062 21.4375C14.2188 21.4375 14 21.4375 13.8125 21.4062C14 22.0625 14.375 22.5938 14.9375 23.0312C15.5 23.4688 16.125 23.6562 16.875 23.6562C15.6562 24.5938 14.2812 25.0625 12.7812 25.0625C12.4688 25.0625 12.2188 25.0625 12 25.0312C13.5 26.0312 15.1875 26.5 17.0312 26.5C18.9375 26.5 20.625 26.0312 22.125 25.0312C23.4688 24.1562 24.5312 23 25.2812 21.5C26 20.125 26.375 18.6562 26.375 17.1562C26.375 16.9688 26.3438 16.8438 26.3438 16.75Z" fill="#666667"/>
</svg>
