<svg width="70" height="70" viewBox="0 0 70 70" fill="none" xmlns="http://www.w3.org/2000/svg">
<g opacity="0.9992">
<path opacity="0.9992" d="M67.248 21.378C65.4869 17.2133 62.9621 13.4707 59.7493 10.2511C56.5365 7.03781 52.7935 4.51125 48.6213 2.75338C44.3039 0.926192 39.7214 0 35 0C30.2723 0 25.6898 0.926192 21.3787 2.75338C17.2128 4.51755 13.4698 7.03781 10.2507 10.2511C7.03787 13.4644 4.51307 17.207 2.75203 21.378C0.927861 25.694 0 30.2745 0 35C0 39.7255 0.927861 44.306 2.75203 48.622C4.51307 52.7867 7.03787 56.5293 10.2507 59.7489C13.4635 62.9622 17.2065 65.4888 21.3787 67.2466C25.6961 69.0738 30.2786 70 35 70C39.7277 70 44.3102 69.0738 48.6213 67.2466C52.7872 65.4825 56.5302 62.9622 59.7493 59.7489C62.9621 56.5356 65.4869 52.793 67.248 48.622C69.0721 44.306 70 39.7255 70 35C70 30.2745 69.0721 25.694 67.248 21.378ZM35 69.4267C16.0135 69.4267 0.568079 53.9838 0.568079 35C0.568079 16.0162 16.0135 0.573358 35 0.573358C53.9865 0.573358 69.4319 16.0162 69.4319 35C69.4319 53.9838 53.9865 69.4267 35 69.4267Z" fill="#999999"/>
<path opacity="0.9992" d="M9.37318 29.6507C9.39211 29.657 9.41105 29.657 9.4363 29.657C9.56885 29.657 9.68246 29.5688 9.71402 29.4364C12.2956 17.6606 22.9313 9.11691 34.9999 9.11691C40.9395 9.11691 46.7402 11.1772 51.3353 14.9198C51.4552 15.0206 51.6383 15.0017 51.733 14.882C51.834 14.7623 51.815 14.5796 51.6951 14.485C49.3849 12.6075 46.8033 11.1394 44.0134 10.1313C41.1288 9.08541 38.0991 8.55615 34.9999 8.55615C31.907 8.55615 28.8709 9.08541 25.9863 10.1313C23.1964 11.1394 20.6148 12.6075 18.3046 14.485C13.6716 18.2528 10.4273 23.5202 9.15226 29.323C9.12701 29.4616 9.22169 29.6129 9.37318 29.6507Z" fill="#999999"/>
<path opacity="0.9992" d="M9.03874 35.6868C9.5721 35.6868 10.0045 35.2552 10.0045 34.7228C10.0045 34.1904 9.5721 33.7588 9.03874 33.7588C8.50538 33.7588 8.073 34.1904 8.073 34.7228C8.073 35.2552 8.50538 35.6868 9.03874 35.6868Z" fill="#999999"/>
<path opacity="0.9992" d="M64.5085 48.4835H64.5022C64.4959 48.4835 64.4959 48.4835 64.4896 48.4835H64.4833C62.9684 48.6599 61.403 49.0127 60.109 49.8696C60.1154 49.8633 60.1217 49.8633 60.128 49.857C59.1875 50.443 58.3795 51.1864 57.5148 51.8669C57.5211 51.8606 57.5274 51.8543 57.5337 51.848C55.7538 53.2341 54.2704 54.9542 52.541 56.3845C51.6068 56.8192 50.5211 56.92 49.4986 57.1216C50.5527 56.4286 51.5626 55.6599 52.522 54.8156C52.5915 54.7526 52.623 54.6644 52.6167 54.5762C53.0081 54.2296 53.3805 53.8579 53.7276 53.461L53.7213 53.4673C53.7276 53.4673 53.7276 53.461 53.7339 53.4547C54.6302 52.5537 55.5265 51.6149 56.2461 50.569C56.2461 50.5753 56.2398 50.5753 56.2398 50.5816C56.4733 50.2224 56.7321 49.8759 57.0162 49.5546C57.7925 48.9056 58.6005 48.2944 59.541 47.8912C60.5067 47.4565 61.2768 46.6815 62.0026 45.9254C63.4796 44.4196 63.6122 42.2269 63.7826 40.2422C63.9909 38.7994 64.1866 37.344 64.3065 35.8948C64.3128 35.8696 64.3254 35.8381 64.3002 35.8192C64.2686 35.8066 64.256 35.8444 64.2371 35.8696C64.2371 35.8696 64.2371 35.8759 64.2308 35.8759C64.2245 35.8885 64.2181 35.9011 64.2055 35.9074C64.2055 35.9074 64.2055 35.9011 64.2118 35.9011C63.972 36.2476 63.8647 36.6635 63.6564 37.0226C63.4102 37.4007 63.0694 37.7157 62.7979 38.0811C62.6969 38.2134 62.6023 38.3394 62.5076 38.4718C62.5139 38.1882 62.5265 37.911 62.5392 37.6275C62.5392 37.6338 62.5392 37.6401 62.5392 37.6464C62.5707 36.8651 62.3498 36.046 62.6149 35.2899C62.6149 35.2962 62.6086 35.3025 62.6086 35.3088C62.9873 34.0424 63.9783 33.1288 64.5085 31.9443C64.862 31.1252 64.7484 30.2179 64.5779 29.3737C64.5338 27.9938 63.9026 26.7652 63.3155 25.5492C62.6338 24.3016 62.2867 22.9281 62.1667 21.5168C62.1541 21.2836 62.1289 21.0505 62.1667 20.8237C62.1667 20.8174 62.1731 20.8111 62.1731 20.8048C62.1857 20.7859 62.1541 20.7544 62.1415 20.7733C62.1415 20.7733 62.1415 20.7733 62.1352 20.7796L62.1289 20.7859C62.1289 20.7859 62.1289 20.7859 62.1289 20.7922C61.6744 21.9515 61.3146 23.2116 61.4346 24.4718C61.4346 24.4655 61.4346 24.4592 61.4346 24.4592C61.4914 25.3602 61.7123 26.2296 61.8701 27.1117C61.8701 27.1054 61.8701 27.0991 61.8638 27.0928C62.1668 28.9074 62.8358 30.6338 63.1956 32.4295C63.1451 33.3683 62.7096 34.2881 62.4571 35.2017C62.4508 35.2206 62.4445 35.2395 62.4382 35.2584C62.2551 33.6392 62.1289 31.9884 61.5482 30.4511V30.4574C61.5482 30.4511 61.5482 30.4511 61.5482 30.4448C61.2452 29.4556 60.917 28.4475 60.4436 27.5213C60.4436 27.5276 60.4499 27.5276 60.4499 27.5339C60.2858 27.2251 60.1343 26.9101 60.0144 26.5825C59.8439 25.776 59.724 24.9569 59.7997 24.1252C59.8629 23.262 59.6041 22.4115 59.339 21.5987C58.8277 19.9542 57.3065 19.0154 55.9431 18.127C54.9837 17.4214 54.018 16.7157 53.0207 16.0667C53.0017 16.0541 52.9891 16.0289 52.9639 16.0415C52.9449 16.0604 52.9639 16.0856 52.9765 16.1045V16.1108C52.9828 16.1234 52.9891 16.1297 52.9891 16.1423V16.136C53.1469 16.4385 53.4057 16.6779 53.5824 16.9677C53.7592 17.2953 53.8539 17.6545 54.0117 17.9947C54.4787 19.0217 55.0468 20.0109 55.8421 20.8237C55.8484 20.83 55.8548 20.8363 55.8611 20.8426C55.8611 20.8426 55.8611 20.8426 55.8547 20.8363C56.5491 21.4412 57.3696 21.8696 58.0829 22.443C58.2533 22.5942 58.4427 22.7643 58.55 22.9722C58.6825 23.2305 58.7267 23.5204 58.8403 23.7913C58.9918 24.0874 59.2506 24.3268 59.3705 24.6419C59.5915 25.19 59.6293 25.7823 59.7745 26.3557C58.1334 23.4448 55.9116 20.7607 53.0207 19.0406C53.0144 19.0406 53.008 19.0343 53.008 19.0343C53.008 19.0343 53.0144 19.0343 53.0144 19.0406C52.7303 18.8516 52.4715 18.6311 52.2317 18.398C52.1559 18.3286 52.0865 18.253 52.0107 18.1837C50.8178 17.037 48.7601 16.0289 47.1063 16.6464C47.1063 16.6464 47.1063 16.6464 47.1126 16.6464C46.9864 16.6842 46.8602 16.7094 46.7402 16.7409C46.7465 16.7409 46.7465 16.7409 46.7529 16.7346C46.5887 16.7724 46.4373 16.8354 46.2795 16.8795H46.2858C46.2605 16.8858 46.2353 16.8921 46.2163 16.8984C46.2226 16.8984 46.2226 16.8984 46.229 16.8921C46.1721 16.911 46.1153 16.911 46.0585 16.9173H46.0649C46.0459 16.9173 46.027 16.9236 46.008 16.9236H46.0144C45.8755 16.9488 45.3768 16.8165 45.8061 17.0181C45.8061 17.0181 45.8061 17.0181 45.7998 17.0181C45.8061 17.0244 45.8187 17.0244 45.825 17.0307C45.8439 17.037 45.8629 17.0496 45.8881 17.0559H45.8944C46.2858 17.1693 46.7087 17.1126 47.1063 17.0559C47.7249 17.1063 48.3498 17.1819 48.9305 17.4277C49.8015 17.8183 50.4896 18.5618 51.4679 18.6878C51.4805 18.6941 51.4995 18.6941 51.5121 18.7004C53.0522 19.1477 54.3273 20.1054 55.4823 21.1891C54.3525 20.8993 53.1848 20.7292 52.1496 20.1369C51.0324 19.4376 49.8142 19.2737 48.5202 19.2107C48.4382 19.2233 47.8196 19.2044 48.0342 19.3304C49.9783 20.0109 50.4896 21.9326 52.9891 21.8192C52.9954 21.8192 53.0017 21.8192 53.008 21.8192C53.0144 21.8192 53.0144 21.8192 53.0207 21.8192C53.0144 21.8192 53.0144 21.8192 53.008 21.8192C53.5572 21.7688 54.1063 21.7499 54.6365 21.5798C54.889 21.5231 55.1541 21.5231 55.4129 21.5042C55.4003 21.5042 55.394 21.5042 55.3813 21.5042C55.4255 21.5042 55.4697 21.4979 55.5139 21.4979C55.5076 21.4979 55.5076 21.4979 55.5013 21.4979C55.5139 21.4979 55.5202 21.4979 55.5328 21.4979C55.5265 21.4979 55.5202 21.4979 55.5202 21.4979C56.1451 21.4412 57.0477 22.8084 57.4706 23.2746C58.8845 25.1144 60.1217 27.1054 60.917 29.298C59.9765 27.4205 58.2786 26.9038 56.8962 25.5429C56.8962 25.5429 56.8962 25.5429 56.9025 25.5492C56.8962 25.5429 56.8899 25.5366 56.8899 25.5366C56.8836 25.5303 56.8773 25.524 56.871 25.524L56.8647 25.5177L56.871 25.524C56.5554 25.19 56.1451 24.9821 55.7727 24.7301C55.4066 24.434 55.0468 24.1063 54.605 23.9299C53.9044 23.6401 53.1153 23.6401 52.4337 23.2872C52.4337 23.2872 52.44 23.2872 52.44 23.2935C51.55 22.8588 51.9855 23.136 52.3832 23.5582C52.8376 24.1189 53.2542 24.7238 53.7529 25.2467C53.7529 25.253 53.7592 25.253 53.7592 25.2593C53.7592 25.2656 53.7655 25.2656 53.7655 25.2719C54.6618 26.1351 55.4823 27.2188 56.852 27.1684C57.6158 27.1369 58.3985 27.0361 59.0612 27.5213L59.0676 27.5276C59.0802 27.5339 59.0991 27.5465 59.1117 27.5528C59.1054 27.5528 59.1054 27.5465 59.0991 27.5465C59.1054 27.5528 59.1181 27.5591 59.1244 27.5654C59.1244 27.5654 59.1244 27.5654 59.1181 27.5654C59.2506 27.6788 59.3832 27.7922 59.5094 27.9119C59.5031 27.9056 59.4968 27.8993 59.4905 27.893C59.4968 27.8993 59.5094 27.9119 59.5157 27.9182L59.5094 27.9119C59.5157 27.9182 59.522 27.9245 59.5283 27.9308C60.1974 28.5483 60.6392 29.3485 61.0937 30.1297C61.0937 30.1234 61.0874 30.1234 61.0874 30.1171C61.504 30.8102 61.6365 31.6545 61.807 32.4421V32.4358C61.807 32.4421 61.807 32.4547 61.8133 32.461C61.8133 32.4547 61.8133 32.4484 61.807 32.4421C62.1036 34.2944 62.3498 36.1594 62.2299 38.0307C62.2804 38.289 62.1667 38.6041 62.2614 38.8435C61.6492 39.7319 61.1316 40.6833 60.8097 41.7229C60.8097 41.7229 60.8097 41.7229 60.8097 41.7166C60.8097 41.7292 60.8034 41.7355 60.8034 41.7481V41.7418C60.5572 42.8381 60.5635 43.9722 60.3678 45.0811C60.3047 45.3521 60.229 45.6545 60.0649 45.8939C59.8629 46.19 59.5725 46.4043 59.3516 46.6815C59.1181 47.0217 59.0108 47.4313 58.7393 47.7463C58.2723 48.3007 57.66 48.6914 57.1235 49.1765C59.3074 45.7175 60.917 41.7607 61.0937 37.6401C61.0937 37.6338 61.0937 37.6275 61.0937 37.6212C61.0937 37.6275 61.0937 37.6275 61.0937 37.6338C61.1316 37.2179 61.2199 36.8084 61.3336 36.4115C61.3651 36.2917 61.403 36.172 61.4346 36.0523C61.9837 34.0928 61.8701 31.289 60.2479 29.8651C60.2479 29.8651 60.2479 29.8651 60.2479 29.8714C60.1406 29.758 60.0333 29.6383 59.926 29.5249C59.9323 29.5312 59.9323 29.5312 59.9386 29.5375C59.8061 29.3863 59.6483 29.2602 59.5031 29.1153L59.5094 29.1216C59.4905 29.1027 59.4652 29.0775 59.4463 29.0586C59.4526 29.0649 59.4526 29.0649 59.4589 29.0712C59.4084 29.0271 59.3768 28.9578 59.3327 28.9074L59.339 28.9137C59.3264 28.8948 59.3074 28.8759 59.2948 28.857L59.3011 28.8633C59.1938 28.7247 59.0486 28.1135 59.0739 28.6932V28.6869C59.0739 28.6995 59.0739 28.7121 59.0739 28.7184C59.0739 28.7436 59.0802 28.7688 59.0802 28.8003V28.8066C59.1812 29.298 59.4905 29.7202 59.7808 30.1171C60.0901 30.8165 60.3678 31.5348 60.4373 32.3034C60.5193 33.4691 60.1154 34.641 60.5509 35.7751C60.5572 35.794 60.5635 35.8129 60.5635 35.8255C60.9738 37.7472 60.6834 39.6815 60.1848 41.5528C59.8376 40.1666 59.3516 38.8057 59.3832 37.3503C59.4905 35.7373 58.9603 34.3259 58.2722 32.8957C58.2091 32.8138 57.8746 32.1333 57.8557 32.4421C58.2533 34.9308 56.4733 36.6068 58.0513 39.2341C58.0576 39.2404 58.0576 39.2467 58.0639 39.253C58.0639 39.2593 58.0703 39.2593 58.0703 39.2656C58.0703 39.2593 58.0639 39.2593 58.0639 39.253C58.4364 39.8201 58.7772 40.3998 59.2632 40.8723C59.4715 41.118 59.623 41.3953 59.7997 41.6662C59.7934 41.6536 59.7871 41.6473 59.7808 41.6347C59.8061 41.6788 59.8376 41.7292 59.8629 41.7733C59.8629 41.767 59.8566 41.767 59.8566 41.7607C59.8629 41.7733 59.8692 41.7796 59.8755 41.7922C59.8692 41.7859 59.8692 41.7796 59.8692 41.7733C60.2984 42.416 59.339 44.1864 59.0865 44.911C57.9188 47.5006 56.4923 50.0019 54.586 52.1252C56.0694 50.0208 55.6401 47.8849 56.3029 45.6104V45.6167C56.3029 45.6104 56.3092 45.5978 56.3092 45.5915C56.3092 45.5915 56.3092 45.5915 56.3092 45.5978C56.3092 45.5915 56.3155 45.5789 56.3155 45.5726C56.3155 45.5663 56.3155 45.5663 56.3155 45.56C56.3155 45.5663 56.3155 45.5726 56.3092 45.5726C56.4923 45.037 56.4733 44.4763 56.5238 43.9218C56.6311 43.3548 56.7763 42.7814 56.7132 42.1954C56.6185 41.2692 56.164 40.4187 56.1451 39.4799V39.4862C56.0946 38.2764 56.0504 38.9065 55.8295 39.5807C55.4887 40.3998 55.0784 41.1936 54.8006 42.0379C54.8006 42.0442 54.7943 42.0505 54.7943 42.0505C54.7943 42.0568 54.788 42.0631 54.788 42.0631C54.3777 43.5312 53.6771 45.0433 54.5292 46.4925C55.0026 47.2926 55.5707 48.0865 55.4318 49.082C55.4318 49.0883 55.4318 49.0883 55.4318 49.0946C55.4318 49.1135 55.4319 49.1387 55.4255 49.1576C55.4255 49.1513 55.4255 49.145 55.4255 49.145C55.4255 49.1576 55.4255 49.1702 55.4255 49.1828V49.1765C55.3814 49.3845 55.3309 49.5924 55.274 49.8003C55.274 49.7877 55.2804 49.7814 55.2804 49.7688C55.2741 49.7814 55.2741 49.8003 55.2677 49.8129C55.2677 49.8066 55.2677 49.8066 55.2677 49.8003C55.2677 49.8066 55.2614 49.8192 55.2614 49.8255C54.9837 50.9029 54.3778 51.848 53.797 52.7868C53.797 52.7805 53.8034 52.7805 53.8034 52.7742C53.4373 53.3854 52.9134 53.8831 52.3642 54.3494C52.2759 54.3242 52.1749 54.3431 52.0991 54.4124C47.3651 58.596 41.2804 60.902 34.9557 60.902C22.5842 60.902 11.898 52.1063 9.54366 39.9839C9.5121 39.8327 9.36692 39.7319 9.20912 39.7571C9.05763 39.7886 8.95665 39.9335 8.98189 40.091C10.137 46.0325 13.3498 51.4511 18.027 55.3512C20.3561 57.2917 22.9693 58.8039 25.797 59.8435C28.7258 60.9209 31.8061 61.4691 34.9557 61.4691C39.9359 61.4691 44.7772 60.0703 48.9494 57.4682C48.9936 57.4619 49.0378 57.4493 49.082 57.443C49.0757 57.443 49.063 57.443 49.0567 57.4493C50.641 57.1216 52.2064 57.6572 53.7907 57.5438C54.8764 57.4493 55.7916 56.8003 56.6059 56.1261C58.0703 55.2756 59.0297 53.8831 60.0017 52.5411C60.9549 51.0793 62.2299 49.9074 63.6816 48.9623C63.9215 48.8174 64.1613 48.6473 64.4328 48.5654C64.4391 48.5654 64.4454 48.5591 64.458 48.5654C64.5337 48.5402 64.5401 48.4961 64.5085 48.4835ZM63.0315 30.5582C62.9368 30.2494 62.7727 29.9596 62.6843 29.6446C62.6843 29.6509 62.6906 29.6572 62.6906 29.6635C62.6654 29.5879 62.6465 29.5123 62.6212 29.4304C62.6023 29.3737 62.5833 29.3106 62.5644 29.2539C62.5644 29.2602 62.5707 29.2665 62.5707 29.2728C62.5518 29.2161 62.5328 29.1594 62.5139 29.1027C62.5139 29.109 62.5202 29.1153 62.5202 29.1216C62.5076 29.0901 62.5013 29.0586 62.4887 29.0271C62.4887 29.0334 62.4887 29.0334 62.495 29.0397C62.009 27.1495 61.5545 25.2215 61.6492 23.2557C61.6492 23.2557 61.6492 23.2557 61.6492 23.262C61.6492 23.2557 61.6492 23.2494 61.6492 23.2494V23.2557C61.7123 22.8399 61.788 22.4241 61.8701 22.0145C61.8701 22.0523 61.8638 22.0901 61.8638 22.1342C61.8322 22.7454 61.8764 23.3692 61.99 23.974V23.9803C61.99 23.9803 61.99 23.9803 61.99 23.974C61.9963 24.0055 62.0026 24.037 62.0089 24.0622C62.0089 24.0622 62.0089 24.0622 62.0089 24.0559C62.0216 24.1315 62.0405 24.2008 62.0594 24.2764C62.0594 24.2701 62.0594 24.2638 62.0531 24.2575C62.1668 24.9002 62.4129 25.5114 62.5707 26.1414C62.5707 26.1351 62.5707 26.1288 62.5644 26.1288C62.5644 26.1351 62.5644 26.1414 62.5707 26.1477V26.1414C62.5707 26.1477 62.577 26.1603 62.577 26.1666V26.1603C62.577 26.1666 62.577 26.1729 62.5833 26.1792V26.1729C62.5833 26.1792 62.5833 26.1792 62.5833 26.1855C62.5833 26.1918 62.5833 26.1981 62.5897 26.2044C62.5897 26.1981 62.5833 26.1918 62.5833 26.1855C62.8863 27.8363 62.9873 29.506 63.2209 31.163C63.2209 31.1567 63.2145 31.1441 63.2145 31.1378C63.2145 31.1441 63.2209 31.1504 63.2209 31.1567C63.1451 30.9488 63.0946 30.7472 63.0315 30.5582C63.0252 30.5582 63.0252 30.5582 63.0315 30.5582ZM63.1893 29.6194C63.1136 28.4349 62.9242 27.2566 62.7222 26.0847C62.5202 25.3539 62.2488 24.6419 62.1099 23.8921C62.1099 23.8858 62.1099 23.8858 62.1099 23.8795C62.1099 23.8795 62.1099 23.8795 62.1099 23.8858C61.9648 23.136 61.9458 22.3674 61.99 21.605C61.99 21.6239 61.99 21.6428 61.99 21.6617C62.1352 23.0667 62.5202 24.434 63.1956 25.6815C63.1893 25.6752 63.1893 25.6689 63.183 25.6626C63.4039 26.0847 63.5554 26.5384 63.7763 26.9605C63.77 26.9542 63.77 26.9479 63.7637 26.9416C64.3759 28.1891 64.4959 29.632 64.5464 30.9992C64.4833 32.0955 63.7195 32.9587 63.082 33.7904C63.6501 32.4358 63.3787 31.0181 63.1893 29.6194ZM56.3092 20.9623C55.0531 19.9983 54.403 18.4925 53.816 17.0685C55.3309 18.7823 56.871 20.4898 58.2659 22.3043C57.6158 21.8507 56.9467 21.4286 56.3092 20.9623ZM59.0739 23.9047C58.8656 23.6527 58.7709 23.3377 58.6951 23.0226C58.8529 23.3503 59.0044 23.6779 59.1685 23.9992C59.1307 23.9677 59.1054 23.9362 59.0739 23.9047ZM59.5725 23.7472V23.7409C59.5473 23.9362 59.5346 24.1315 59.5094 24.3205C59.5031 24.3016 59.4968 24.2827 59.4905 24.2638C58.9034 22.5753 57.7231 21.2206 56.5364 19.9164C55.6338 18.9335 54.8322 17.8624 53.8791 16.9236C54.1758 17.1252 54.4535 17.3584 54.7628 17.5348C54.7817 17.5474 54.8007 17.5537 54.8196 17.5663C56.1893 18.6248 57.8809 19.3683 58.8025 20.8993C59.2506 21.731 59.5031 22.695 59.5788 23.6338C59.5725 23.6716 59.5725 23.7094 59.5725 23.7472ZM47.586 16.8732C47.5924 16.8732 47.5924 16.8732 47.586 16.8732C47.4661 16.8732 47.3525 16.8858 47.2326 16.8921H47.2389C47.2326 16.8921 47.2263 16.8921 47.2263 16.8921C47.2263 16.8921 47.2263 16.8921 47.2326 16.8921C46.9927 16.8795 46.7592 16.9488 46.5319 16.9992C46.7276 16.9299 46.9422 16.9047 47.1442 16.848H47.1379C47.201 16.8291 47.2704 16.8102 47.3336 16.7913C48.5328 16.3818 49.6942 16.9425 50.761 17.4592C51.2722 17.7364 51.6951 18.1396 52.118 18.5303C51.8971 18.4106 51.7078 18.2467 51.4995 18.1081C50.8998 17.7238 50.3065 17.2827 49.5996 17.1315C49.5301 17.1126 49.4607 17.1 49.3913 17.0874H49.3976C49.3913 17.0874 49.385 17.0811 49.3787 17.0811C48.9053 16.9992 48.4382 16.8354 47.9458 16.8606H47.9521C47.9458 16.8606 47.9395 16.8606 47.9395 16.8606H47.9458C47.9206 16.8606 47.8953 16.8606 47.8701 16.8606C47.8764 16.8606 47.8827 16.8606 47.889 16.8606C47.7943 16.8606 47.706 16.8669 47.6113 16.8669C47.6113 16.8669 47.6113 16.8669 47.6176 16.8669C47.5987 16.8732 47.5924 16.8732 47.586 16.8732ZM52.1496 18.8012C51.6573 18.5681 51.0955 18.524 50.6095 18.2908C49.7195 17.7301 48.8484 17.0496 47.7502 16.9929C48.3372 16.9425 48.8863 17.1567 49.4481 17.2764C49.7132 17.3458 49.9783 17.4277 50.2245 17.5537C50.2181 17.5474 50.2118 17.5474 50.1992 17.5411C50.9062 17.9065 51.5184 18.4106 52.1938 18.8138C52.1812 18.8138 52.1622 18.8075 52.1496 18.8012ZM54.5103 21.3971C54.504 21.3971 54.4977 21.4034 54.4851 21.4034C54.4977 21.4034 54.504 21.3971 54.5103 21.3971C54.5166 21.3971 54.5166 21.3971 54.5103 21.3971C54.5166 21.3971 54.5166 21.3971 54.5166 21.3971H54.5103ZM54.6239 21.3656C53.0838 21.8318 51.2154 21.7121 50.0919 20.4331C49.7763 20.1495 49.4102 19.9227 49.0694 19.6644C49.183 19.6959 49.3029 19.7148 49.4228 19.7526C49.4165 19.7526 49.4102 19.7463 49.4102 19.7463C49.467 19.7652 49.5238 19.7778 49.5806 19.7967H49.5743C50.0982 19.9479 50.6537 20.0172 51.1018 20.3575C51.1018 20.3575 51.1018 20.3575 51.0955 20.3575C52.137 21.1324 53.4057 21.2836 54.6555 21.3593C54.6365 21.3593 54.6302 21.3656 54.6239 21.3656ZM51.1776 20.2251C50.4517 19.6896 49.4859 19.7715 48.6906 19.4187C49.4291 19.5447 50.2118 19.4691 50.9188 19.7589C52.1749 20.3575 53.4183 21.0064 54.8196 21.1954C53.5572 21.1009 52.2632 20.9623 51.1776 20.2251ZM53.5635 23.8291C53.5698 23.8291 53.5698 23.8291 53.5761 23.8291C54.3588 23.9488 55.0468 24.3079 55.6212 24.8435C56.0252 25.1207 56.467 25.335 56.8015 25.7004C56.8079 25.7067 56.8079 25.7067 56.8142 25.713L56.8079 25.7067C56.8962 25.7949 56.9846 25.8831 57.073 25.965L57.0667 25.9587L57.073 25.965C56.9152 25.8831 56.7574 25.8075 56.5996 25.7256C55.8611 25.3602 55.1099 25.0262 54.3967 24.6167C54.403 24.623 54.4093 24.623 54.4156 24.6293C53.8854 24.3458 53.3741 24.0307 52.8944 23.6653C53.1153 23.7535 53.3489 23.7787 53.5635 23.8291C53.5698 23.8291 53.5698 23.8291 53.5635 23.8291ZM52.9323 24.0307C52.926 24.0307 52.926 24.0307 52.9323 24.0307C52.926 24.0307 52.9323 24.0307 52.9323 24.0307C52.9323 24.037 52.9323 24.0307 52.9323 24.0307ZM58.1839 26.9227C57.4517 26.8156 56.7132 27.0739 55.9873 26.8156C55.5392 26.6896 55.2173 26.3557 54.889 26.0532C54.1568 25.4736 53.5446 24.7679 52.9512 24.0559C52.8187 23.9173 52.6924 23.7724 52.5788 23.6149C54.302 25.0199 56.4418 25.7193 58.2722 26.9416C58.247 26.9353 58.2154 26.929 58.1839 26.9227ZM60.9485 42.2899C61.2578 40.3683 62.5076 38.7994 63.7069 37.3376C62.7285 39.965 61.788 42.6239 60.6392 45.1819C60.7529 44.2179 60.816 43.2476 60.9485 42.2899ZM59.3768 46.9839C59.5283 46.6122 59.8187 46.3286 60.109 46.0577C59.8503 46.4169 59.5851 46.7697 59.3327 47.1288C59.3453 47.0847 59.3642 47.0343 59.3768 46.9839ZM59.2317 47.6392C60.715 46.0262 61.4914 43.9659 62.2046 41.9308C62.7411 40.3809 63.4291 38.9002 63.8962 37.3251C63.8521 37.7598 63.7574 38.1945 63.7447 38.6293C63.7447 38.6545 63.7447 38.6797 63.7447 38.7049C63.3976 40.7967 63.5743 43.0586 62.4634 44.9425C61.8259 45.9128 60.9296 46.7382 59.9639 47.3683C59.9197 47.3872 59.8755 47.4061 59.8313 47.4313C59.8313 47.4313 59.8376 47.4313 59.8376 47.425C59.6167 47.5132 59.3958 47.6077 59.1685 47.6959C59.1938 47.677 59.2127 47.6581 59.2317 47.6392ZM60.0712 30.1234C59.9449 29.8588 59.7366 29.6509 59.5473 29.4304C59.7366 29.6068 59.8881 29.8147 60.0649 29.9974L60.0585 29.9911C60.1153 30.0541 60.1722 30.1108 60.2353 30.1675C61.3714 31.2197 61.4472 32.8012 61.504 34.2503C61.504 34.9623 61.3083 35.6554 61.1316 36.3359C61.1379 36.0271 61.201 35.7247 61.2326 35.4223C61.302 34.5528 61.4346 33.6581 61.1821 32.8012C61.1631 32.7193 61.1379 32.6374 61.1126 32.5492V32.5555C61.1126 32.5492 61.1063 32.5366 61.1063 32.5303C60.9233 31.9695 60.8286 31.371 60.513 30.8543C60.513 30.8543 60.513 30.8606 60.5193 30.8606C60.5193 30.8543 60.513 30.848 60.513 30.848V30.8543C60.5004 30.8291 60.4814 30.7976 60.4688 30.7724C60.4751 30.7787 60.4751 30.785 60.4814 30.7913C60.4246 30.6905 60.3678 30.596 60.311 30.5015C60.311 30.5015 60.311 30.5015 60.311 30.5078C60.3047 30.5015 60.3047 30.4952 60.2984 30.4889C60.229 30.3629 60.1406 30.2368 60.0712 30.1108L60.0775 30.1171C60.0775 30.1297 60.0712 30.1297 60.0712 30.1234ZM60.5256 34.5843C60.614 33.2926 60.8475 31.9632 60.2668 30.7409C60.6645 31.3458 60.7529 32.064 60.9485 32.7445C61.0306 33.0721 61.0937 33.4061 61.1 33.7463C61.1 33.7337 61.1 33.7274 61.1 33.7148C61.119 34.6851 60.9296 35.6428 60.8854 36.6068C60.8791 36.5879 60.8791 36.5627 60.8728 36.5438C60.8286 35.8759 60.5572 35.2458 60.5256 34.5843ZM59.4337 40.6014C59.4273 40.5951 59.421 40.5888 59.4147 40.5825C59.4273 40.5888 59.4337 40.5951 59.4337 40.6014C59.44 40.6077 59.44 40.6077 59.4337 40.6014C59.44 40.6077 59.44 40.6077 59.44 40.6077C59.44 40.6077 59.44 40.6014 59.4337 40.6014ZM59.5346 40.7022C58.1397 39.3097 57.1803 37.2242 57.9061 35.2647C58.0324 34.7544 58.0576 34.2314 58.1397 33.7148C58.1713 33.8597 58.2217 33.9983 58.2533 34.1432C58.2533 34.1369 58.2533 34.1306 58.247 34.1243C58.2596 34.1936 58.2786 34.2629 58.2912 34.3386V34.3323C58.4364 34.9875 58.6825 35.6239 58.5689 36.3043V36.298C58.3417 37.8732 58.9098 39.3286 59.5536 40.7211C59.5473 40.7148 59.541 40.7085 59.5346 40.7022ZM58.7646 36.3295C58.9224 35.2395 58.2722 34.2377 58.1902 33.1792C58.4869 34.0487 59.0171 34.8489 59.1181 35.7814C59.2001 37.4889 59.219 39.2089 59.8313 40.8219C59.2064 39.398 58.6005 37.9173 58.7646 36.3295ZM56.265 40.9983V40.992C56.265 40.9983 56.265 41.0046 56.2713 41.0109C56.5933 41.9245 56.6059 42.8759 56.366 43.8084C56.3029 44.4007 56.3282 45.0055 56.1262 45.5789C56.1262 45.5852 56.1199 45.5915 56.1199 45.6041C56.1199 45.5978 56.1199 45.5978 56.1199 45.5915C56.082 45.7364 56.0315 45.8813 55.9936 46.0262C55.9936 46.0199 55.9936 46.0199 55.9999 46.0136C55.9999 46.0199 55.9999 46.0199 55.9936 46.0262C55.9873 45.8057 55.981 45.5915 55.9747 45.371C55.9431 44.3629 55.8674 43.3611 55.8926 42.353C55.8926 42.3656 55.8926 42.3719 55.8926 42.3845C55.8926 41.6473 55.9305 40.9101 56.0504 40.1792C56.082 40.4628 56.1893 40.7274 56.265 40.9983ZM55.6717 40.425C55.6717 40.425 55.678 40.425 55.6717 40.425C55.678 40.425 55.6717 40.425 55.6717 40.425ZM54.4472 45.3458C54.3209 44.7913 54.4914 44.2494 54.6365 43.7139C54.8385 42.5861 55.2425 41.5213 55.6654 40.4628C55.6654 40.4628 55.6654 40.4628 55.6654 40.4565C55.6654 40.4565 55.6654 40.4565 55.6654 40.4628C55.7411 40.2422 55.8232 40.0217 55.9242 39.8075C55.4129 42.479 55.8989 45.2008 55.6401 47.8849C55.6338 47.8471 55.6212 47.8156 55.6149 47.7778C55.293 46.9272 54.5924 46.2782 54.4472 45.3458ZM53.9801 55.6284C53.9738 55.6347 53.9738 55.641 53.9675 55.641C54.1442 55.4646 54.3273 55.2944 54.4914 55.1117C54.7691 54.8282 54.9837 54.488 55.274 54.2107C55.2677 54.217 55.2614 54.2233 55.2614 54.2296C55.3309 54.1603 55.4003 54.091 55.4697 54.0217C55.5202 53.965 55.577 53.9146 55.6275 53.8579C55.6212 53.8642 55.6149 53.8705 55.6149 53.8768C55.6654 53.8264 55.7159 53.7697 55.7664 53.7193C55.7601 53.7256 55.7538 53.7319 55.7538 53.7382C55.779 53.7067 55.8106 53.6815 55.8358 53.65C55.8295 53.6563 55.8295 53.6563 55.8232 53.6626C57.5842 52.0433 59.4021 50.4241 61.5797 49.3908C61.5797 49.3908 61.5797 49.3908 61.5734 49.3908C61.5797 49.3908 61.586 49.3845 61.5924 49.3845C61.5924 49.3845 61.586 49.3845 61.586 49.3908C62.0721 49.2143 62.5644 49.0631 63.0567 48.9056C63.0126 48.9245 62.9684 48.9434 62.9242 48.9686C62.2425 49.2962 61.5924 49.6995 61.0117 50.1783L61.0053 50.1846C61.0053 50.1846 61.0053 50.1846 61.0117 50.1846C60.9801 50.2098 60.9548 50.235 60.9233 50.2602C60.9233 50.2602 60.9233 50.2602 60.9296 50.2539C60.8602 50.3106 60.7907 50.3737 60.7213 50.4367C60.7276 50.4304 60.7339 50.4241 60.7402 50.4241C60.109 50.9218 59.5978 51.5393 59.0044 52.0748C59.0108 52.0685 59.0171 52.0685 59.0171 52.0622C59.0107 52.0685 59.0044 52.0748 58.9981 52.0811C58.9981 52.0811 59.0044 52.0811 59.0044 52.0748C58.9981 52.0811 58.9855 52.0874 58.9792 52.0937L58.9855 52.0874C58.9792 52.0937 58.9729 52.1 58.9666 52.1L58.9729 52.0937C58.9666 52.1 58.9666 52.1 58.9603 52.1063C58.9539 52.1126 58.9476 52.1189 58.9413 52.1189C58.9476 52.1126 58.9539 52.1063 58.9603 52.1C57.357 53.3854 55.6086 54.4691 53.9548 55.6788C53.9675 55.6473 53.9738 55.641 53.9801 55.6284ZM63.4923 48.8237C62.0594 49.794 60.8097 51.0037 59.8566 52.4529C59.8629 52.4466 59.8629 52.4403 59.8692 52.434C59.541 52.9191 59.1433 53.3476 58.8088 53.8264C58.8151 53.8201 58.8214 53.8138 58.8277 53.8012C57.8367 55.181 56.3471 56.1576 54.9016 57.0019C53.6771 57.569 52.3074 57.2413 51.0387 57.0397C52.8313 56.8696 54.2073 55.7481 55.6086 54.7337C56.8457 53.965 58.0071 53.0766 59.1496 52.1756C59.8187 51.533 60.4309 50.8273 61.1568 50.2413C61.1631 50.235 61.1631 50.235 61.1695 50.2287C61.1695 50.2287 61.1695 50.2287 61.1631 50.235C61.889 49.6428 62.7096 49.1765 63.5491 48.7796C63.5301 48.8048 63.5112 48.8111 63.4923 48.8237Z" fill="#999999"/>
</g>
<g opacity="0.9992">
<path opacity="0.9992" d="M27.0723 42.1891C27.0723 41.2945 27.7098 40.6581 28.6629 40.6581C29.5024 40.6581 30.1967 41.2945 30.1967 42.1891C30.1967 43.0838 29.616 43.4871 29.616 44.01C29.616 44.5582 30.2851 44.8165 31.5285 44.8165C35.1516 44.8165 35.3789 41.4898 35.3789 38.2828V30.0793C35.3789 26.1162 35.1201 25.7697 33.6999 25.713L33.0939 25.6815V25.335H40.3022V25.6815L39.6963 25.713C38.2761 25.7697 38.0173 26.1162 38.0173 30.0793V38.0559C38.0173 42.0757 36.1931 45.1945 31.5285 45.1945C28.3725 45.1945 27.0723 43.6068 27.0723 42.1891Z" fill="#999999"/>
</g>
</svg>
