<svg width="70" height="70" viewBox="0 0 70 70" fill="none" xmlns="http://www.w3.org/2000/svg">
<g opacity="0.9992">
<path opacity="0.9992" d="M1.4206 27.7776C1.44015 27.7839 1.45971 27.7839 1.47925 27.7839C1.59654 27.7839 1.7073 27.7018 1.73337 27.588C5.278 11.8984 19.8931 0.505506 36.4825 0.505506C44.6404 0.505506 52.6158 3.2542 58.9297 8.23976C59.0404 8.32822 59.2033 8.30926 59.2945 8.20184C59.3858 8.09442 59.3662 7.93645 59.2554 7.84798C56.1018 5.35837 52.5767 3.41849 48.7779 2.08521C44.8424 0.70139 40.7048 0 36.4825 0C32.2602 0 28.1226 0.70139 24.1871 2.08521C20.3818 3.41849 16.8567 5.35837 13.7095 7.84798C10.5884 10.3123 7.92344 13.2443 5.80578 16.5553C3.64252 19.9296 2.10477 23.6072 1.22513 27.4806C1.19255 27.6133 1.28377 27.7523 1.4206 27.7776Z" fill="#999999"/>
<path opacity="0.9992" d="M0.957845 35.5496C1.48684 35.5496 1.91567 35.1338 1.91567 34.6208C1.91567 34.1078 1.48684 33.6919 0.957845 33.6919C0.428849 33.6919 0 34.1078 0 34.6208C0 35.1338 0.428849 35.5496 0.957845 35.5496Z" fill="#999999"/>
<path opacity="0.9992" d="M68.3318 47.0186C68.3381 47.0186 68.3381 47.0186 68.3318 47.0186C68.3318 47.0186 68.3318 47.0249 68.3254 47.0312C68.3318 47.0312 68.3318 47.0249 68.3318 47.0186Z" fill="#999999"/>
<path opacity="0.9992" d="M66.4487 50.3232C66.8723 49.7292 66.0643 50.7782 65.9014 51.0183C66.8853 49.6408 65.6277 51.3216 65.2172 51.884C64.116 53.2172 65.4518 51.7386 65.8362 51.1194C66.0447 50.8603 66.2533 50.5886 66.4487 50.3232Z" fill="#999999"/>
<path opacity="0.9992" d="M66.2988 50.1022C66.8592 49.2365 65.745 50.8415 65.4387 51.189C65.745 50.8604 66.0577 50.494 66.2988 50.1022Z" fill="#999999"/>
<path opacity="0.9992" d="M65.445 51.1953C65.4387 51.2016 65.4324 51.2079 65.4324 51.2143C65.4324 51.2079 65.4387 51.2016 65.445 51.1953Z" fill="#999999"/>
<path opacity="0.9992" d="M65.1262 51.2329C63.8882 52.6609 65.6996 50.7211 66.0319 50.0323C66.0971 49.8933 65.3543 50.9738 65.1262 51.2329Z" fill="#999999"/>
<path opacity="0.9992" d="M66.9441 49.5462C66.9246 49.5841 66.8985 49.622 66.879 49.6599C66.5336 50.235 66.1622 50.791 65.7582 51.3281C65.7582 51.3281 65.7582 51.3281 65.7582 51.3344C65.1132 52.1496 65.8104 51.3218 66.2665 50.7026C66.0319 51.0501 65.7648 51.4292 65.654 51.5619C66.0384 51.1385 66.3707 50.6267 66.677 50.1339C66.7878 49.9506 66.6965 50.077 66.5271 50.3171C66.5401 50.2981 66.5467 50.2792 66.5597 50.2665C66.6639 50.1149 66.703 50.0391 66.5662 50.2286C66.6314 50.1212 66.6965 50.0138 66.7617 49.9064C66.8073 49.8305 67.0028 49.4577 66.9441 49.5462Z" fill="#999999"/>
<path opacity="0.9992" d="M68.7292 38.9175C68.7292 38.9238 68.7292 38.9301 68.7229 38.9364C68.7292 38.9301 68.7292 38.9238 68.7292 38.9175Z" fill="#999999"/>
<path opacity="0.9992" d="M69.9869 42.5637C69.9869 42.57 69.9869 42.57 69.9869 42.5637C69.9869 42.5384 69.9804 42.589 69.9804 42.5953C69.9804 42.5574 69.9739 42.6332 69.9674 42.6521C69.9609 42.6585 69.9609 42.6774 69.9543 42.6837C69.9543 42.6711 69.9674 42.6269 69.9543 42.6458C69.9478 42.6774 69.9348 42.728 69.9218 42.7532C69.9087 42.7975 69.8827 42.8291 69.8631 42.867C69.0943 43.7832 68.5404 44.8321 68.0061 45.8874C68.0126 45.8811 68.0126 45.8684 68.0191 45.8621C67.0026 48.1685 65.3606 50.0705 63.8294 52.0482C62.9042 53.3436 62.5197 54.9423 61.7248 56.2692C61.9724 55.0686 61.829 53.8365 61.9594 52.6296C61.9854 52.3452 62.0571 52.0419 62.207 51.7828C63.6535 49.9188 64.1422 47.6946 65.0023 45.5588C66.5531 43.5431 68.0843 41.3884 68.7294 38.9051C69.0226 37.3886 69.1333 35.6761 68.8988 34.2039C68.8988 34.1912 68.8923 34.1849 68.8923 34.1786C68.8923 34.1786 68.8857 34.1723 68.8857 34.1786C68.8857 34.2923 68.9313 34.7283 68.8988 34.9621V34.9748C68.8922 35.0948 68.8857 35.1643 68.8597 35.2844C68.8532 35.3286 68.8336 35.4044 68.8336 35.4234C68.7554 35.8025 68.6903 36.1817 68.5534 36.5418C67.361 39.935 63.2691 41.9065 61.0928 44.8195C60.2718 45.6789 60.4803 47.2775 60.5454 48.4907C60.4347 50.0199 60.7344 51.4416 61.3794 52.8444C61.3794 52.8444 61.3794 52.8444 61.3794 52.8381C61.5033 53.1224 61.6662 53.4005 61.6596 53.7164C61.6596 53.7101 61.6596 53.7038 61.6596 53.7038C61.6596 53.748 61.6661 53.7986 61.6727 53.8428V53.8365C61.6922 54.639 61.614 55.473 61.4642 56.2566C61.4642 56.2439 61.4707 56.225 61.4707 56.2123C61.1318 58.8979 56.5838 63.2326 56.5512 63.2831C56.8509 62.885 57.2744 61.8361 57.4634 61.5138C57.4634 61.5202 57.4569 61.5202 57.4569 61.5265C57.4699 61.5075 57.4895 61.457 57.5025 61.4317C57.5025 61.4317 57.5025 61.4317 57.5025 61.438C57.5677 61.3243 57.6393 61.1663 57.698 61.0526L57.6915 61.0589C57.711 61.021 57.7371 60.9767 57.7566 60.9388C57.7631 60.9262 57.7697 60.9199 57.7762 60.9072C58.0303 60.4333 58.4669 59.4792 58.4604 59.4792C59.6071 57.1475 59.2618 55.3277 58.7861 53.3436C58.721 52.8886 58.4669 51.7323 58.2518 50.5886C57.9977 49.1984 58.2388 48.0484 57.5677 47.208C57.6589 47.3218 57.8283 48.0358 57.8348 49.0278C57.8479 51.3658 57.4373 55.3088 57.698 57.217C57.8153 58.0638 57.7371 58.9926 57.7371 59.833C57.7371 60.0479 57.7566 60.2817 57.6915 60.4902C57.522 61.0273 56.9422 62.4996 56.1472 63.4095C55.841 63.7633 55.6194 63.9656 55.2545 64.2499C54.9743 64.4711 54.6877 64.648 54.3423 64.8565C54.3293 64.8628 54.3162 64.8692 54.3032 64.8755C48.9146 67.9022 42.7636 69.5009 36.5019 69.5009C19.502 69.5009 4.81521 57.7731 1.57682 41.6158C1.55075 41.4768 1.41391 41.3884 1.27056 41.4137C1.12721 41.4389 1.03599 41.5716 1.06206 41.7106C2.6389 49.5713 7.01757 56.7431 13.4031 61.8993C16.5763 64.4647 20.147 66.4678 24.0044 67.8453C27.9987 69.2734 32.2014 70 36.4954 70C42.8483 70 49.0971 68.3761 54.5574 65.3051C54.5704 65.2988 54.5834 65.2862 54.5964 65.2799C54.9743 65.065 55.4696 64.6669 55.8084 64.3763C56.2124 64.0287 56.4926 63.7886 56.864 63.4158C57.7762 62.4933 58.4669 61.7476 59.2488 60.8188C60.3434 59.5045 61.2882 58.0132 61.9724 56.3008C65.2564 52.4716 66.5922 53.1856 68.1755 47.7135C68.2276 47.6187 68.2928 47.5303 68.3449 47.4355V47.4418C69.1659 46.3866 69.3679 45.0786 69.4917 43.7958C69.5438 43.6379 69.596 43.4799 69.6937 43.3409C69.6937 43.3409 69.6937 43.3409 69.6937 43.3472C69.798 43.1324 69.9544 42.8859 70 42.6711C69.9934 42.6395 69.9869 42.6016 69.9869 42.5637ZM68.9509 35.2781C68.9509 35.297 68.9509 35.3223 68.9509 35.3412C68.9509 35.3602 68.9444 35.3792 68.9444 35.3981C68.9444 35.3539 68.9509 35.316 68.9509 35.2781ZM68.9379 35.8783C68.9379 35.9226 68.9379 35.9605 68.9379 36.0047C68.9379 35.9921 68.9313 35.9858 68.9313 35.9731C68.9379 35.9479 68.9379 35.9099 68.9379 35.8783ZM57.9717 59.7699C57.9782 59.7509 57.9847 59.7319 57.9912 59.713C57.9847 59.7383 57.9782 59.7572 57.9717 59.7699ZM57.9391 59.1001C57.9261 59.2012 57.9065 59.3023 57.8739 59.4034C57.9 59.3023 57.8935 59.1948 57.9391 59.1001ZM57.8869 50.9677C57.8869 50.9677 57.8869 50.974 57.8935 50.974C57.8869 50.974 57.8869 50.974 57.8869 50.9677C57.8869 50.974 57.8869 50.974 57.8869 50.974V50.9677ZM57.9195 59.119C57.9651 58.8283 58.0042 58.5377 58.0433 58.247C58.0564 58.1522 58.0759 58.0574 58.0824 57.9627C58.0629 58.3418 57.9977 58.7399 57.9195 59.119ZM58.343 57.3497C58.2844 57.8047 58.2258 58.266 58.0824 58.702C58.1932 58.2596 58.2649 57.8047 58.343 57.3497ZM58.1737 55.7384C58.2649 56.4335 58.2062 57.1349 58.1215 57.83C58.115 57.8805 58.1085 57.9374 58.0955 57.9879C58.1411 57.2423 58.1867 56.4904 58.1737 55.7384ZM58.1215 53.5774C58.1085 53.5142 58.1085 53.4447 58.0564 53.4068C58.0694 53.2615 58.0759 53.1161 58.0759 52.9708C58.0824 53.0529 58.0955 53.1414 58.102 53.2235C58.0629 53.1035 58.1606 53.4826 58.1215 53.5774ZM58.0629 53.4131C58.0694 53.4194 58.0694 53.4257 58.0759 53.4257C58.089 53.4447 58.0955 53.47 58.0955 53.4953C58.1932 54.4999 58.3822 55.5173 58.2649 56.5283C58.2779 56.0165 58.2844 55.1508 58.2388 56.1618C58.2193 55.8332 58.1997 55.511 58.1802 55.1824C58.1606 54.5884 58.0889 54.0008 58.0629 53.4131C58.0564 53.4131 58.0629 53.4131 58.0629 53.4131ZM58.2062 54.0513C58.2062 54.0829 58.2062 54.1082 58.2062 54.1398C58.1932 53.9312 58.128 53.7227 58.1346 53.5142C58.1541 53.6911 58.1802 53.8744 58.2062 54.0513ZM58.1997 52.718C58.2388 52.9266 58.2779 53.1351 58.3105 53.3499C58.3105 53.5963 58.304 53.8428 58.304 54.0829C58.1997 53.6153 58.2127 53.1351 58.1867 52.6612C58.1932 52.6991 58.1997 52.8002 58.1997 52.718ZM58.1997 52.1809C58.2388 52.3958 58.2909 52.6106 58.2975 52.8254C58.2649 52.6612 58.2323 52.4906 58.2062 52.3199C58.1932 52.2757 58.1997 52.2315 58.1997 52.1809ZM58.3756 53.7227C58.4538 54.2156 58.4604 54.7148 58.4929 55.214C58.506 55.4414 58.5125 55.6753 58.5255 55.9027C58.519 55.8395 58.5125 55.7763 58.5059 55.7195C58.4734 55.4099 58.4278 55.1002 58.3821 54.7906C58.6558 56.3198 58.2388 54.1461 58.343 53.5332C58.3691 53.6216 58.3821 53.9755 58.3756 53.7227ZM58.5776 57.8616C58.5841 57.7289 58.5907 57.5962 58.6167 57.4698C58.6167 57.4572 58.6167 57.4508 58.6232 57.4382C58.6102 57.5772 58.6102 57.7226 58.5776 57.8616ZM58.6493 58.1712C58.6493 58.1838 58.6493 58.1901 58.6428 58.2028C58.6363 58.247 58.6232 58.2849 58.6167 58.3292C58.6298 58.2723 58.6428 58.2217 58.6493 58.1712ZM58.5776 58.5503C58.5776 58.5566 58.5776 58.5566 58.5776 58.563C58.5711 58.5882 58.5646 58.6135 58.5581 58.6388C58.5581 58.6388 58.5581 58.6451 58.5516 58.6451C58.5581 58.6135 58.5646 58.5819 58.5776 58.5503ZM58.4538 57.7352C58.4799 57.4193 58.532 57.1096 58.5581 56.7937C58.5646 57.0212 58.5125 57.2423 58.4929 57.4635V57.4572C58.4799 57.5519 58.4669 57.6404 58.4538 57.7352ZM58.3756 57.7478C58.4408 57.1159 58.3366 57.9058 58.2975 58.1586C58.2975 57.9563 58.4473 57.1286 58.4147 57.2423C58.4408 57.0401 58.4603 56.6231 58.4734 56.3451C58.4799 56.8126 58.4538 57.2802 58.3756 57.7478ZM58.3496 58.3355C58.3105 58.5819 58.2844 58.8347 58.1932 59.0621C58.2518 58.8284 58.304 58.5882 58.3496 58.3481C58.3431 58.3418 58.3496 58.3355 58.3496 58.3355ZM58.3756 56.8253C58.3691 56.8821 58.3561 56.939 58.3496 56.9959C58.3626 56.7747 58.3756 56.5536 58.3821 56.3324C58.4082 56.4967 58.4082 56.661 58.3756 56.8253ZM58.5059 57.0338C58.5255 56.8632 58.519 56.8822 58.4929 57.0401C58.506 56.7179 58.5059 56.3893 58.5059 56.067C58.5646 56.3893 58.5776 56.7115 58.5059 57.0338ZM58.4278 55.6247C58.4147 55.5362 58.4082 55.5868 58.4343 55.9217C58.4408 56.1112 58.4343 56.3071 58.4147 56.4967C58.3756 56.1934 58.3691 54.8096 58.3561 55.5868C58.3365 55.1129 58.2518 54.639 58.2193 54.1651C58.3105 54.6453 58.3822 55.1381 58.4278 55.6247ZM58.1737 58.0511C58.1802 57.9879 58.1867 57.9311 58.1932 57.8679C58.2779 57.2044 58.3235 56.5283 58.3366 55.8585C58.3561 56.5852 58.2779 57.3245 58.1737 58.0511ZM58.1867 58.6009C58.1736 58.7336 58.1346 58.8599 58.0955 58.9863C58.115 58.9042 58.1345 58.8157 58.1541 58.7272C58.1671 58.6893 58.1736 58.6451 58.1867 58.6009ZM58.102 59.7951C58.102 59.8014 58.0955 59.8078 58.0955 59.8141H58.0889C58.0955 59.8014 58.102 59.7888 58.1085 59.7762C58.1085 59.7825 58.102 59.7888 58.102 59.7951ZM58.1215 59.7003C58.1345 59.6435 58.1606 59.5929 58.1802 59.5361C58.1606 59.5929 58.1411 59.6435 58.1215 59.7003ZM58.128 59.3212C58.1346 59.2833 58.1476 59.2454 58.1541 59.2075C58.1606 59.1885 58.1671 59.1696 58.1737 59.1506C58.1606 59.2075 58.1476 59.2643 58.128 59.3212ZM58.1802 59.5045C58.1802 59.4981 58.1802 59.4981 58.1802 59.4918C58.1867 59.4665 58.1932 59.4413 58.2062 59.4097C58.1997 59.4413 58.1932 59.4729 58.1802 59.5045ZM58.3105 59.1316C58.304 59.1506 58.2975 59.1632 58.2975 59.1822C58.317 59.1001 58.3366 59.0242 58.3626 58.9421C58.3626 58.9421 58.3626 58.9421 58.3691 58.9421C58.3496 59.0053 58.33 59.0685 58.3105 59.1316ZM58.3691 58.9294C58.3626 58.9294 58.3626 58.9294 58.3691 58.9294C58.3691 58.9168 58.3756 58.9042 58.3756 58.8915C58.3756 58.9042 58.3691 58.9168 58.3691 58.9294ZM58.3626 58.6767C58.3756 58.6198 58.3887 58.5629 58.4017 58.5124C58.3952 58.5629 58.3756 58.6198 58.3626 58.6767ZM58.4082 58.9926C58.4212 58.961 58.4212 58.9168 58.4408 58.8852C58.4408 58.8915 58.4408 58.8979 58.4408 58.9042C58.4343 58.9358 58.4212 58.961 58.4082 58.9926ZM58.4473 58.8789C58.4473 58.8726 58.4473 58.8726 58.4473 58.8789C58.4473 58.8726 58.4473 58.8726 58.4473 58.8726C58.4473 58.8726 58.4473 58.8726 58.4473 58.8789ZM58.4473 58.8473C58.4473 58.8536 58.4473 58.8536 58.4408 58.8599C58.4408 58.822 58.4603 58.7841 58.4734 58.7525C58.4669 58.7778 58.4669 58.8157 58.4473 58.8473ZM58.4734 58.8663C58.4864 58.822 58.4929 58.7715 58.5125 58.7272C58.5125 58.7778 58.5059 58.822 58.4734 58.8663ZM58.5581 57.8426C58.5581 57.8363 58.5581 57.8236 58.5646 57.8173C58.5646 57.9184 58.5516 58.0132 58.5255 58.108C58.532 58.0195 58.5451 57.9311 58.5581 57.8426ZM58.532 58.7652C58.532 58.7462 58.5385 58.7272 58.545 58.7083C58.545 58.702 58.545 58.702 58.545 58.6957C58.5646 58.683 58.5776 58.6641 58.5907 58.6451C58.5711 58.6893 58.5516 58.7272 58.532 58.7652ZM58.9621 56.7052C58.8773 57.3624 58.8187 58.0574 58.5646 58.6767C58.5581 58.683 58.5516 58.6893 58.545 58.6957C58.949 57.5709 58.8839 56.3703 58.8708 55.195C58.9425 55.6879 58.9946 56.1997 58.9621 56.7052ZM58.4734 52.9708C58.4734 52.9708 58.4734 52.9645 58.4734 52.9708C58.519 53.6027 58.5516 54.1777 58.5255 53.1919C58.5711 53.4637 58.6428 53.729 58.7014 54.0008C58.7145 54.0576 58.7275 54.1145 58.7405 54.1777V54.1714C58.8252 54.5189 58.8187 54.8791 58.8122 55.2329C58.747 54.6769 58.6363 54.1335 58.5711 53.5774C58.6623 54.7022 58.9491 55.8143 58.7275 56.9453C58.721 56.4904 58.7079 57.4256 58.6363 57.5899C58.6428 57.1286 58.8318 55.4099 58.6819 56.5788C58.6884 56.4461 58.7275 55.7258 58.6949 56.086C58.6949 55.5805 58.6623 54.6326 58.6037 54.3609C58.6428 55.0497 58.6688 55.7448 58.6102 56.4335C58.6102 56.3134 58.6102 56.1934 58.6037 56.067C58.6363 55.1887 58.4213 53.293 58.2909 52.0861C58.3952 52.3768 58.4538 52.6675 58.4734 52.9708ZM58.1737 51.6186C58.1997 51.7702 58.2127 51.9219 58.2323 52.0735V52.0798C58.2388 52.143 58.2453 52.2062 58.2518 52.2694C58.1997 52.0735 58.1867 51.8776 58.1737 51.6817C58.1802 51.707 58.1737 51.6375 58.1737 51.6186ZM58.1476 52.9582C58.115 52.6675 58.0824 52.3768 58.0694 52.0798C58.0955 52.3642 58.1215 52.6422 58.1476 52.9266C58.1476 52.9329 58.1476 52.9455 58.1476 52.9582ZM58.1085 51.7576C58.0955 51.6691 58.0759 51.587 58.0629 51.4985C58.0694 51.5111 58.0694 51.5301 58.0759 51.549C58.089 51.5996 58.0955 51.6565 58.102 51.707C58.1085 51.726 58.1085 51.7386 58.1085 51.7576ZM58.0694 51.2521C58.0824 51.3721 58.0889 51.4922 58.102 51.6059C58.0889 51.568 58.0889 51.5175 58.0629 51.4859C58.0498 51.4037 58.0499 51.3153 58.0433 51.2331C58.0499 51.2457 58.0564 51.2521 58.0694 51.2521ZM57.9912 52.3705C58.0042 52.4463 57.9912 52.0925 57.9977 52.0293C58.0238 52.2631 58.0238 53.4321 58.0433 53.0719C58.0433 53.1477 58.0433 53.2235 58.0368 53.3057V53.312C58.0042 52.9961 57.9586 52.6864 57.9912 52.3705ZM57.9912 53.0782C58.0107 53.2299 58.0238 53.8175 58.0303 53.7543C58.0889 54.639 58.1671 55.5236 58.128 56.4145C58.1085 55.6184 58.0368 54.8222 57.9782 54.0197C57.9521 53.7101 58.0042 53.3941 57.9912 53.0782ZM57.9521 53.5521C57.9521 53.5711 57.9521 53.59 57.9521 53.609C57.9456 53.4889 57.9391 53.3752 57.9326 53.2551C57.9391 53.2551 57.9456 53.2551 57.9521 53.2551C57.9456 53.3562 57.9521 53.4573 57.9521 53.5521ZM57.9456 53.0845C57.9456 53.1161 57.9456 53.1477 57.9456 53.1856C57.9391 53.1856 57.9391 53.1856 57.9326 53.1856C57.9391 53.1477 57.9391 53.1161 57.9456 53.0845ZM57.926 52.9708C57.926 53.0087 57.926 53.0466 57.9195 53.0845C57.9065 52.895 57.913 52.7117 57.9326 52.5222C57.9391 52.6738 57.9326 52.8191 57.926 52.9708ZM57.926 51.707C57.9195 51.6186 57.9195 51.5364 57.913 51.448C57.9195 51.5364 57.926 51.6186 57.926 51.707ZM57.8935 50.993C57.8935 50.9867 57.8935 50.9804 57.8935 50.974C57.8935 50.9804 57.8935 50.9867 57.8935 50.993ZM57.8869 50.854C57.8869 50.8919 57.8869 50.9235 57.8935 50.9614C57.8935 50.9551 57.8869 50.9551 57.8869 50.9488C57.8804 50.9172 57.8869 50.8856 57.8869 50.854ZM57.8739 51.1636C57.8804 51.41 57.8739 51.6628 57.8739 51.9092C57.8739 51.7765 57.8674 51.6438 57.8674 51.5111C57.8674 51.3974 57.8674 51.2837 57.8739 51.1636ZM57.9717 59.416C57.9261 59.5676 57.887 59.7193 57.8348 59.8709C57.8739 59.713 57.913 59.5613 57.9717 59.416ZM61.6727 48.5918C61.6727 48.4528 61.6987 48.3201 61.7183 48.1874C61.7769 48.0042 61.8551 47.8209 61.9268 47.6377C61.9789 47.4987 62.0311 47.3597 62.0832 47.2207C62.0115 47.4355 61.9463 47.6503 61.8942 47.8652C61.8746 47.8083 61.7639 48.4275 61.6727 48.5918ZM61.6922 48.6234C61.6857 48.6613 61.6727 48.7056 61.6661 48.7435C61.6661 48.7245 61.6661 48.7056 61.6661 48.6866C61.6727 48.6613 61.6857 48.6424 61.6922 48.6234ZM61.7769 47.8209C61.8616 47.5555 61.9659 47.2965 62.0636 47.0311C61.9659 47.2965 61.8681 47.5619 61.7769 47.8209ZM62.1158 47.3218C62.0636 47.4797 62.018 47.644 61.9659 47.802C62.0115 47.644 62.0636 47.4797 62.1158 47.3218ZM61.8942 48.2443C61.8812 48.2885 61.8746 48.3328 61.8616 48.377C61.8616 48.3644 61.8616 48.3517 61.8616 48.3391C61.8746 48.3075 61.8812 48.2759 61.8942 48.2443ZM61.7965 48.5539C61.7899 48.6234 61.7769 48.6929 61.7704 48.7625C61.7704 48.7877 61.7639 48.8067 61.7574 48.832C61.7509 48.7309 61.7574 48.6424 61.7965 48.5539ZM61.7769 51.0372C61.79 50.9867 61.7965 50.9361 61.8095 50.8793C61.8291 50.8161 61.8421 50.7466 61.8616 50.6834C61.829 50.9235 61.79 51.1636 61.7443 51.3974C61.7378 51.2837 61.7509 51.1573 61.7769 51.0372ZM61.829 52.1746C61.8486 52.023 61.8551 51.8713 61.9007 51.726C61.9333 51.6122 61.9659 51.4985 61.9985 51.3784C61.9463 51.6438 61.8746 51.9029 61.829 52.1746ZM62.3177 49.249C62.4546 48.4844 62.2656 49.4322 62.1483 49.7292C62.2656 48.9394 62.624 48.2064 62.8846 47.4544C62.8977 47.4102 62.9172 47.366 62.9302 47.3281C62.7152 47.9663 62.5132 48.6045 62.3177 49.249ZM62.624 48.9204C62.7282 48.4402 62.5523 49.1542 62.4741 49.3311C62.5132 49.1605 62.5523 48.9836 62.5849 48.813C62.6109 48.7561 62.6305 48.7056 62.6566 48.655C62.9107 48.1053 63.1453 47.5429 63.3473 46.9679C63.1518 47.6314 62.8651 48.2696 62.624 48.9204ZM63.4254 46.7404C63.458 46.6456 63.4971 46.5509 63.5297 46.4561C63.4385 46.791 63.3472 47.1196 63.2365 47.4481C63.3081 47.2207 63.3668 46.9805 63.4254 46.7404ZM62.2656 49.9125C62.2526 49.963 62.233 50.0136 62.22 50.0704C62.2656 49.8872 62.3112 49.704 62.3568 49.527C62.3373 49.6597 62.3047 49.7924 62.2656 49.9251C62.2656 49.9125 62.2656 49.9125 62.2656 49.9125ZM62.4871 49.6344C62.4481 49.805 62.409 49.9693 62.3503 50.1336C62.4024 49.9693 62.4285 49.7924 62.4871 49.6344ZM62.3829 49.5081C62.3959 49.3185 62.4415 49.1289 62.5262 48.952C62.4806 49.1353 62.435 49.3185 62.3829 49.5081ZM62.1614 50.4306C62.1288 50.576 62.1092 50.7213 62.0832 50.8603C62.0897 50.7718 62.1027 50.6771 62.1092 50.5886C62.1288 50.538 62.1418 50.4875 62.1614 50.4306ZM62.0701 50.0325C62.0767 50.0009 62.0767 49.9693 62.0832 49.9377C62.0897 49.9125 62.0962 49.8872 62.1027 49.8619C62.1027 49.8746 62.0962 49.8872 62.0962 49.8998C62.0962 49.8998 62.0962 49.8998 62.0962 49.8935C62.0832 49.9378 62.0832 49.9883 62.0701 50.0325ZM62.1288 48.9204C62.1223 48.9394 62.1158 48.9583 62.1092 48.9773C62.1158 48.952 62.1223 48.9204 62.1288 48.8951C62.1288 48.9078 62.1288 48.9141 62.1288 48.9204ZM62.1092 49.1163C62.0897 49.3627 62.0441 49.6092 61.9985 49.8493C62.005 49.6724 61.9659 50.0578 61.9463 50.1273C61.9659 49.8051 61.9919 49.4765 62.0897 49.1732C62.0962 49.1479 62.1027 49.1289 62.1092 49.1163ZM61.9854 50.1905C61.9724 50.2726 61.9594 50.3548 61.9463 50.4433C61.9529 50.3927 61.9528 50.3485 61.9594 50.2979C61.9659 50.26 61.9789 50.2284 61.9854 50.1905ZM61.9724 51.0183C61.9659 51.0183 61.9659 51.0183 61.9724 51.0183C62.0115 50.8919 62.0506 50.7655 62.0962 50.6391C62.0701 50.9551 61.9789 51.2584 61.9007 51.568C61.9203 51.3848 61.9398 51.2015 61.9724 51.0183ZM61.8747 50.4306C61.8877 50.3737 61.8942 50.3169 61.9072 50.2537C61.9203 50.1842 61.9268 50.1147 61.9398 50.0515C61.9268 50.1842 61.9072 50.3106 61.8747 50.4306ZM62.1158 51.5111C62.1158 51.4985 62.1223 51.4922 62.1223 51.4796C62.1223 51.4669 62.1288 51.4606 62.1353 51.448C62.1288 51.4732 62.1288 51.4922 62.1158 51.5111ZM62.005 51.7133C62.0897 51.41 62.1613 51.0941 62.2526 50.7908C62.233 50.8982 62.207 51.0056 62.1744 51.1067C62.1158 51.3089 62.0636 51.5175 62.005 51.7133ZM62.2005 51.3532C62.4806 50.1842 62.8846 49.0405 63.2886 47.9094C63.1844 48.2822 63.0866 48.655 62.9824 49.0215C63.1322 48.3075 62.8651 49.4954 62.7413 49.7545C62.7543 49.6724 62.8651 49.2996 62.8325 49.3627C62.9433 48.8951 62.7478 49.6218 62.6891 49.8051C62.5588 50.2284 62.4155 50.6455 62.2917 51.0688C62.2917 51.0688 62.2917 51.0688 62.2917 51.0625C62.2656 51.1573 62.233 51.2584 62.2005 51.3532ZM62.422 50.9867C62.4285 50.9614 62.4415 50.9424 62.4546 50.9235C62.4415 50.9424 62.4285 50.9677 62.422 50.9867ZM62.4416 50.9298C62.4481 50.9172 62.4546 50.9045 62.4546 50.8919C62.4676 50.8603 62.4741 50.835 62.4871 50.8034C62.4741 50.8413 62.4741 50.8919 62.4416 50.9298ZM63.2365 48.6866C63.2495 48.6424 63.2691 48.5982 63.2821 48.5476C63.0606 49.2995 62.8977 50.0894 62.5393 50.7908C62.7608 50.0831 63.0084 49.388 63.2365 48.6866ZM63.0996 49.7482C63.1583 49.6155 63.23 49.4828 63.2886 49.3501C63.1778 49.6408 63.0671 49.9378 62.8977 50.1968C62.9042 50.1842 62.9042 50.1716 62.9107 50.1652C62.9758 50.0262 63.041 49.8872 63.0996 49.7482ZM68.4296 39.4359C68.3645 39.6381 68.2798 39.8339 68.1951 40.0298C68.3189 39.7265 68.4296 39.4169 68.5274 39.1073C68.4948 39.2147 68.4622 39.3284 68.4296 39.4359ZM68.788 36.6872C68.7815 36.7251 68.775 36.763 68.7619 36.8009C68.7554 36.8262 68.7489 36.8578 68.7359 36.8831C68.7554 36.8199 68.7685 36.7567 68.788 36.6872ZM68.7424 37.6982C68.7293 37.7487 68.7228 37.7993 68.7098 37.8561C68.7228 37.8056 68.7359 37.755 68.7424 37.6982ZM68.6968 37.9067C68.4101 39.379 67.6477 40.7312 66.8854 42.0013C67.5826 40.9461 68.2472 39.8466 68.586 38.627C68.0387 40.7375 66.931 42.7532 65.5105 44.4341C64.8068 45.1102 64.4745 46.0201 64.1748 46.911C64.4549 45.5462 63.673 48.9457 63.3082 49.4702C63.4645 49.1353 63.9402 47.4797 63.6405 48.3833C63.8164 47.4102 64.0314 46.4371 64.4354 45.5335C64.4354 45.5335 64.4354 45.5335 64.4354 45.5399C65.3672 43.8274 64.1226 45.8621 63.9337 46.7278C64.1226 45.5272 63.5101 48.8383 63.1713 49.4386V49.4449C63.3472 48.8951 63.4776 48.3328 63.5753 47.7704C63.3668 48.6171 63.1518 49.4828 62.7934 50.2853C62.9758 49.7861 63.7317 47.1954 63.4189 48.08C63.5753 47.6187 63.6731 47.1448 63.7773 46.6772C63.5883 47.366 63.4059 48.0674 63.1257 48.7309C63.3407 47.7135 63.7186 46.7467 63.9858 45.7484C63.8424 46.1844 63.7056 46.633 63.5427 47.069C63.7447 46.3234 63.3863 47.5808 63.2365 47.8399C63.5948 46.8478 62.6566 49.23 62.4937 49.6787C62.8129 48.7814 63.647 46.475 63.5818 46.2539C63.6144 46.1149 63.5036 46.475 63.4645 46.5382C63.4971 46.4118 63.1518 47.347 63.041 47.5871V47.5808C62.9367 47.8146 62.839 48.0484 62.7348 48.2759C63.0801 47.2206 63.3929 46.1591 63.875 45.1481C64.4093 43.9664 63.5688 45.6852 63.1192 46.8478C63.2691 46.4118 63.3929 46.0769 63.1778 46.6014C62.9693 47.0816 62.5132 48.1874 62.2917 48.9015C62.3373 48.6866 62.409 48.4781 62.4741 48.2696C62.5067 48.1685 62.5328 48.0674 62.5653 47.9726C62.7152 47.4987 63.0996 46.3107 62.7152 47.3976C62.9563 46.6709 62.2982 48.4402 62.1809 48.7688C63.0931 44.9964 65.2825 41.7801 67.765 38.8229C67.5044 39.3158 67.2242 39.7897 66.944 40.2699C67.3871 39.6254 67.8106 38.9177 68.156 38.2037C68.0843 38.4628 67.3806 39.676 67.6998 39.1515C67.3219 39.8845 68.1364 38.4501 68.3254 38.0394C67.8627 39.1199 67.2046 40.1309 66.5596 41.1103C66.8984 40.6933 67.2372 40.2826 67.5304 39.8403C66.944 40.984 68.0713 38.9683 68.2602 38.507C68.0387 39.4169 66.2468 42.0329 67.5695 40.0867C67.3545 40.529 67.1265 40.9713 66.8984 41.4137C67.2503 40.8639 67.6021 40.2699 67.8953 39.6696C67.8758 39.7265 67.8497 39.7771 67.8302 39.8276C67.1395 41.3631 67.778 40.093 68.1234 39.2589C68.2211 39.082 68.397 38.5954 68.5143 38.3111C68.3449 38.8798 68.1234 39.4359 67.9344 40.0045C68.2407 39.3411 68.5339 38.627 68.6968 37.9067ZM62.1548 49.1479C62.1483 48.9267 62.2591 48.7372 62.3242 48.5286C62.3503 48.4591 62.3764 48.3833 62.4025 48.3138C62.3112 48.5918 62.22 48.8635 62.1548 49.1479ZM67.4978 38.924C67.5109 38.9051 67.5239 38.8861 67.5369 38.8608C67.55 38.8419 67.563 38.8293 67.5695 38.8103C67.55 38.8482 67.5239 38.8861 67.4978 38.924ZM68.5013 37.4454C68.4818 37.5276 68.4557 37.6034 68.4231 37.6792C68.4557 37.5971 68.4818 37.5212 68.5013 37.4454ZM68.169 37.5592C68.169 37.5655 68.169 37.5655 68.1625 37.5655C68.1755 37.5339 68.1951 37.5086 68.2081 37.477C68.1951 37.5086 68.182 37.5465 68.1625 37.5781C68.1364 37.6287 68.1038 37.6729 68.0778 37.7234C68.1104 37.6729 68.1429 37.616 68.169 37.5592ZM68.0452 37.8688C67.9084 38.1405 67.7846 38.4248 67.6152 38.6776C67.4913 38.8482 67.3675 39.0188 67.2437 39.1831C67.5304 38.7597 67.7911 38.3174 68.0452 37.8688ZM61.4577 44.8132C61.601 44.611 61.7378 44.4088 61.9072 44.2192C61.7834 44.5162 61.6271 44.8005 61.5293 45.1102C61.6075 44.3709 61.3469 45.9127 61.1905 46.2033C61.2231 46.0264 61.2491 45.8431 61.2752 45.6599C61.2296 45.8431 61.197 46.0454 61.1514 46.2349C61.1644 45.9316 61.184 45.622 61.1905 45.3187C61.197 45.1102 61.3534 44.9712 61.4577 44.8132ZM60.8061 46.0454C60.8321 45.9253 60.8777 45.8116 60.9299 45.6978C60.8712 45.9822 60.8061 46.2665 60.7604 46.5572C60.767 46.3802 60.78 46.2096 60.8061 46.0454ZM60.793 47.6756C60.78 47.5871 60.7735 47.4987 60.767 47.4102C60.7409 47.05 60.767 46.6899 60.8452 46.336C60.8452 46.336 60.8452 46.336 60.8452 46.3423C60.9429 45.9569 60.9429 45.5462 61.1905 45.2113C61.1775 45.2871 61.1644 45.3566 61.1514 45.4324C61.1253 45.5778 61.0928 45.7294 61.0667 45.8747V45.8684C61.0537 45.9253 61.0406 45.9822 61.0341 46.0454V46.0517C60.9299 46.5635 60.8582 47.088 60.7995 47.6061C60.78 47.4545 60.793 47.5935 60.793 47.6756ZM60.8061 47.8525C60.8061 47.8462 60.8061 47.8399 60.8061 47.8336C60.8061 47.8273 60.8061 47.8273 60.8061 47.8209C60.8061 47.8336 60.8061 47.8399 60.8061 47.8525ZM60.8126 47.7641C60.8973 46.9616 61.0732 46.1717 61.1905 45.3756C61.1384 45.8052 61.1449 46.2476 61.0602 46.6709C61.1449 45.919 61.0667 46.4182 61.0081 46.8668C60.982 47.0501 60.8908 47.3786 60.8517 47.6187C60.8386 47.6756 60.8321 47.7325 60.8191 47.7893C60.8191 47.783 60.8126 47.7704 60.8126 47.7641ZM60.8191 48.0674C60.8321 48.2443 60.8386 48.4212 60.8386 48.5918V48.5855C60.8386 48.6424 60.8386 48.6993 60.8386 48.7561C60.8321 48.7624 60.8321 48.7624 60.8321 48.7688C60.8126 48.5413 60.8191 48.3075 60.8191 48.0674ZM60.8452 50.2031C60.8386 50.2031 60.8321 50.2095 60.8321 50.2095C60.8452 50.1652 60.8451 50.1147 60.8517 50.0641C60.8517 50.1147 60.8452 50.1589 60.8452 50.2031ZM60.8842 48.7245C60.8777 48.4655 60.8582 48.2064 60.8321 47.941C60.8712 47.7578 60.9103 47.5745 60.9494 47.3849C60.9103 47.8336 60.8973 48.2759 60.8842 48.7245ZM61.0471 51.3848C61.0471 51.3974 61.0537 51.41 61.0537 51.4227C61.0471 51.4164 61.0471 51.3974 61.0471 51.3848ZM60.982 48.4655C61.008 47.9979 60.9885 47.524 61.0211 47.05C61.0406 46.9679 61.0537 46.8921 61.0732 46.8099C61.0211 47.366 61.0341 47.922 60.982 48.4655ZM61.0797 51.4606C61.0862 51.4859 61.0928 51.5111 61.0928 51.5301C61.0862 51.5111 61.0797 51.4859 61.0797 51.4606ZM61.0993 48.3833C61.0993 48.3328 61.0993 48.2759 61.0993 48.2254C61.0993 48.1811 61.1188 48.1369 61.1253 48.0927C61.1253 48.1938 61.1123 48.2885 61.0993 48.3833ZM61.1449 48.7814C61.1449 48.7751 61.1449 48.7688 61.1449 48.7625C61.1449 48.7688 61.1449 48.7751 61.1449 48.7814ZM61.1579 49.4006C61.1579 49.3943 61.1579 49.388 61.1579 49.388C61.1579 49.388 61.1579 49.3943 61.1579 49.4006ZM61.1514 48.5982C61.1709 48.3896 61.1514 48.1811 61.184 47.9789C61.197 47.8968 61.21 47.8083 61.2231 47.7262C61.21 48.0231 61.1709 48.3138 61.1514 48.5982ZM61.1644 49.3059C61.1644 49.3122 61.1644 49.3248 61.1644 49.3311C61.1644 49.3248 61.1644 49.3122 61.1644 49.3059ZM61.197 49.982C61.1905 49.9441 61.197 49.9062 61.197 49.8682C61.2035 49.9062 61.197 49.9441 61.197 49.982ZM61.2231 51.4227C61.2166 51.3911 61.2166 51.3658 61.2166 51.3342C61.2231 51.3848 61.2296 51.4353 61.2361 51.4796C61.2361 51.4606 61.2296 51.4416 61.2231 51.4227ZM61.2426 48.6866C61.2361 48.8319 61.2231 48.971 61.2166 49.1163C61.2166 48.9583 61.197 48.794 61.2426 48.6424C61.2426 48.655 61.2426 48.6677 61.2426 48.6866ZM61.1579 47.6883C61.1449 47.4734 61.1449 47.3533 61.1449 47.3028C61.1449 47.3976 61.1449 47.7009 61.0993 47.9536C61.1253 47.366 61.0602 46.7531 61.2426 46.1907C61.3338 45.919 61.4185 45.6473 61.5032 45.3819C61.4772 45.9759 61.3469 46.5509 61.2557 47.1385C61.2491 46.5951 61.2426 47.4924 61.1579 47.6883ZM61.3078 47.3597C61.2882 47.4671 61.2752 47.5682 61.2557 47.6756C61.2491 47.5619 61.2817 47.4608 61.3078 47.3597ZM61.3143 47.802C61.3143 47.7767 61.3208 47.7514 61.3273 47.7262C61.3078 47.9157 61.3013 48.1053 61.2557 48.2885C61.2687 48.1243 61.2947 47.96 61.3143 47.802ZM61.3143 49.0657C61.3143 49.0342 61.3143 49.0026 61.3143 48.971C61.3143 48.952 61.3143 48.9331 61.3143 48.9141C61.3143 48.9647 61.3273 49.0152 61.3143 49.0657ZM61.3078 49.9125C61.3078 49.8998 61.3013 49.8935 61.3078 49.8809C61.3078 49.8935 61.3078 49.8998 61.3078 49.9125ZM61.3078 49.8493C61.3078 49.8114 61.3078 49.7671 61.3078 49.7292C61.3078 49.6913 61.3143 49.6471 61.3208 49.6092C61.3143 49.685 61.3208 49.7671 61.3078 49.8493ZM61.3078 49.2743C61.3078 49.2553 61.3078 49.23 61.3078 49.2111C61.3078 49.1858 61.3078 49.1542 61.3208 49.1353C61.3273 49.1795 61.3208 49.23 61.3078 49.2743ZM61.3208 52.1114C61.3273 52.1114 61.3273 52.1114 61.3208 52.1114C61.3273 52.1367 61.3339 52.1683 61.3339 52.1936C61.3273 52.1683 61.3273 52.143 61.3208 52.1114ZM61.3403 50.5696C61.3403 50.5633 61.3403 50.5633 61.3403 50.557C61.3403 50.557 61.3403 50.5633 61.3403 50.5696ZM61.3664 52.2883C61.3664 52.2694 61.3599 52.2441 61.3599 52.2252C61.3599 52.2125 61.3599 52.1999 61.3534 52.1809C61.3664 52.2315 61.3794 52.282 61.3794 52.3326C61.3794 52.32 61.373 52.301 61.3664 52.2883ZM61.3403 48.9899C61.3143 48.7309 61.3339 48.4718 61.3599 48.2064C61.3729 48.1558 61.386 48.1053 61.399 48.0547C61.373 48.3644 61.4511 48.6993 61.3403 48.9899ZM61.3794 48.0042C61.3794 47.9536 61.3925 47.9031 61.4055 47.8525C61.4055 47.9094 61.399 47.96 61.3794 48.0042ZM61.4316 51.1952C61.4316 51.2331 61.4251 51.271 61.4251 51.3089C61.4251 51.271 61.4316 51.2331 61.4316 51.1952ZM61.4381 51.1383C61.4381 51.1383 61.4381 51.132 61.4381 51.1383C61.4381 51.132 61.4381 51.132 61.4381 51.1383C61.4381 51.132 61.4381 51.1383 61.4381 51.1383ZM61.4446 52.3705C61.4446 52.3768 61.4511 52.3895 61.4511 52.3958C61.4511 52.4021 61.4511 52.4021 61.4511 52.4084C61.4511 52.3958 61.4446 52.3831 61.4446 52.3705ZM61.4446 48.1811C61.4316 47.9915 61.4446 48.3138 61.4316 48.396C61.4251 48.2569 61.4251 48.1179 61.4186 47.9726C61.4316 47.922 61.4446 47.8652 61.4642 47.8146C61.4577 47.941 61.4511 48.0611 61.4446 48.1811ZM61.4186 47.8841C61.4186 47.8589 61.4186 47.8273 61.4186 47.802C61.4381 47.7072 61.4642 47.6124 61.4837 47.5176C61.4772 47.644 61.4707 47.7641 61.4186 47.8841ZM61.6205 50.1589C61.6205 50.1273 61.6206 50.0957 61.6271 50.0641C61.6271 50.0515 61.6336 50.0389 61.6336 50.0199C61.627 50.0704 61.6271 50.1147 61.6205 50.1589ZM61.4968 48.2759C61.4642 48.1116 61.5945 47.2649 61.5163 47.6061C61.5684 46.8542 61.8812 46.1338 62.0245 45.3945C61.8551 45.9379 61.6987 46.494 61.5423 47.05C61.5684 46.6393 61.5098 47.3091 61.4446 47.4544C61.5033 47.05 61.5033 46.633 61.6401 46.2476C61.8747 45.5335 62.1874 44.8321 62.4741 44.1434C62.1549 44.7942 61.8421 45.4577 61.601 46.1464C61.7183 45.5082 61.8682 44.8764 62.0115 44.2508C61.8942 44.6552 61.79 45.0722 61.6857 45.483C61.6727 45.4008 61.4641 46.633 61.3403 46.9805C61.5358 46.2412 61.4055 45.4451 61.7183 44.7373C61.8421 44.4909 61.8812 44.2002 62.1027 44.0107C62.0962 44.017 62.0897 44.0233 62.0832 44.0296C63.5753 42.6016 65.1587 41.2557 66.6247 39.796C66.6964 39.7265 66.7681 39.6507 66.8332 39.5686C66.527 40.0298 67.0222 39.3158 67.1721 39.1641C66.742 40.0045 63.9598 42.8543 65.6343 41.1609C63.7447 43.5115 62.5328 46.4055 61.7639 49.2743C62.0441 47.2965 62.9628 45.4514 63.6209 43.5873C63.1061 44.7563 62.6305 45.9379 62.22 47.1448C62.2917 46.911 62.3633 46.6835 62.4155 46.4434C62.4937 46.0011 62.8586 45.2302 62.9107 44.9775C62.7608 45.3503 62.5979 45.7168 62.4546 46.0959C62.5067 45.9506 62.5458 45.8052 62.5914 45.6662C62.5523 45.8305 62.624 45.5967 62.637 45.5335C62.7739 45.0975 62.9563 44.6678 63.1387 44.2508C62.8129 44.8448 62.6175 45.4956 62.3568 46.1212C62.4481 45.7736 61.9985 47.0753 61.8747 47.347C62.207 46.3297 62.3438 45.2302 62.8129 44.2634C62.4676 44.8132 62.3438 45.464 62.1548 46.077C62.3112 45.3629 61.7639 47.4924 61.6401 47.9031C61.8095 46.9616 61.9464 46.0074 62.1809 45.0786C61.8616 46.1275 61.7053 47.208 61.4968 48.2759ZM62.2396 46.9363C62.2982 46.7215 62.3699 46.5066 62.4416 46.2981V46.3044C62.3764 46.5129 62.3112 46.7215 62.2396 46.9363ZM61.6531 52.0735C61.6531 52.023 61.6531 51.9787 61.6531 51.9282C61.6596 51.8334 61.6596 51.7386 61.6727 51.6502C61.6857 51.7892 61.6662 51.9282 61.6531 52.0735ZM61.6727 51.9914C61.6727 51.9661 61.6727 51.9408 61.6727 51.9092C61.6727 51.9282 61.6727 51.9471 61.6727 51.9598C61.6792 51.9724 61.6792 51.9787 61.6727 51.9914ZM61.6922 52.8507C61.6857 52.8128 61.6857 52.7749 61.6922 52.737C61.6922 52.7559 61.6987 52.7749 61.6987 52.7939C61.6987 52.8128 61.6987 52.8318 61.6922 52.8507ZM61.6596 49.3311C61.6662 49.1226 61.6531 48.9141 61.7443 48.7182C61.7443 48.8067 61.7313 48.8951 61.7183 48.9773C61.7053 49.0973 61.6792 49.2111 61.6596 49.3311ZM69.1724 43.9665C69.1789 43.9538 69.192 43.9412 69.1985 43.9285C69.192 43.9475 69.1789 43.9601 69.1724 43.9791C69.1659 43.9728 69.1724 43.9728 69.1724 43.9665ZM62.6175 54.8728C62.8064 54.4873 63.0671 54.1398 63.2951 53.7733C63.3081 53.7606 63.3147 53.7417 63.3277 53.729C63.0996 54.1208 62.8846 54.5126 62.6175 54.8728ZM63.054 54.3546C63.028 54.3925 63.0084 54.4304 62.9824 54.462C62.9889 54.4494 63.0019 54.4304 63.0084 54.4178C63.0215 54.3988 63.0345 54.3799 63.054 54.3546ZM62.409 55.334C62.4546 55.2266 62.5067 55.1255 62.5523 55.0181C62.5849 54.9675 62.624 54.917 62.6566 54.8664C62.5719 55.0244 62.5002 55.1824 62.409 55.334ZM63.1127 54.5126C63.2039 54.4052 63.2886 54.2914 63.3733 54.1777C63.2039 54.462 63.0345 54.7464 62.7934 54.9802C62.8977 54.8222 63.0084 54.6706 63.1127 54.5126ZM67.7455 47.8146C67.2242 49.9946 66.2664 52.1051 64.3572 53.4637C64.3116 53.5016 64.266 53.5395 64.2204 53.5774C65.0805 52.6169 65.9275 51.6312 66.5661 50.5254C65.9666 51.4543 65.2303 52.2884 64.5396 53.154C64.3507 53.3878 64.1617 53.6343 63.9206 53.8238C64.1552 53.5142 64.3833 53.1983 64.5853 52.876C64.1943 53.3752 63.8424 53.9123 63.3928 54.3673C63.7577 53.8049 65.2694 51.7133 64.2399 53.0656C64.4028 52.8002 63.8099 53.6469 63.6926 53.8175C63.6926 53.8175 63.6926 53.8112 63.6991 53.8112C63.5558 54.0134 63.432 54.2282 63.2821 54.4241C63.5036 54.0197 63.7903 53.6469 64.0314 53.2551C63.875 53.4763 63.6926 53.6911 63.5427 53.9186C63.8946 53.312 63.4906 53.9944 63.2886 54.2219C63.5362 53.7606 63.875 53.3689 64.1617 52.9392C64.1617 52.9392 64.1617 52.9455 64.1552 52.9455C64.3702 52.5917 64.6374 52.2631 64.872 51.9282C64.6504 52.2125 64.4028 52.4906 64.2008 52.7875C64.1683 52.8318 64.1422 52.876 64.1096 52.9266C63.9337 53.1667 63.7578 53.4005 63.5753 53.6343C64.3051 52.5917 64.4224 52.4653 63.5557 53.5584C63.9467 52.8191 63.634 53.4005 63.3798 53.7733C63.4515 53.609 63.3342 53.8554 63.2756 53.8997C63.4906 53.5332 63.7186 53.1667 63.9532 52.8128C64.7156 51.7576 63.9402 52.7812 63.5362 53.2615C64.5201 51.5806 63.5297 53.1604 63.054 53.9692C63.1387 53.7922 63.2235 53.6216 63.3147 53.4447C63.3147 53.451 63.3082 53.451 63.3082 53.4573C64.1813 51.6312 65.8037 50.3042 66.8202 48.5602C66.9245 48.4023 67.0222 48.2317 67.1199 48.0611C66.9375 48.377 66.7681 48.6929 66.5726 49.0026C66.5726 49.0026 66.5726 49.0026 66.5726 48.9962C65.7581 50.2095 66.7811 48.7814 67.1199 48.2759C66.8593 48.7751 66.5661 49.3691 67.0678 48.5539C66.6704 49.3122 67.4197 47.9916 67.563 47.6883C67.4457 47.9789 67.3415 48.2759 67.1916 48.5539C67.4523 48.2317 67.5956 47.802 67.7911 47.4292C67.5956 48.2064 67.133 49.1479 67.7455 47.8146ZM63.1778 54.2093C63.23 54.1145 63.2691 54.0134 63.3342 53.9249C63.4059 53.8302 63.4841 53.729 63.5623 53.6343C63.4515 53.8301 63.3147 54.026 63.1778 54.2093ZM63.3928 53.6469C63.3994 53.6406 63.3994 53.6279 63.4059 53.6216C63.4254 53.59 63.4515 53.5648 63.4711 53.5332C63.445 53.5648 63.4189 53.609 63.3928 53.6469ZM63.4776 53.4573C63.4841 53.451 63.4841 53.4447 63.4906 53.4384C63.4906 53.4384 63.4906 53.4447 63.4841 53.4447C63.4776 53.451 63.4776 53.4573 63.4776 53.4573ZM63.5167 53.4068C63.6274 53.2172 63.7773 53.0529 63.9141 52.8823C63.8685 52.9455 63.8229 53.0024 63.7773 53.0656C63.6926 53.1793 63.6014 53.2867 63.5167 53.4068ZM67.9996 47.7767V47.7704C68.0061 47.7641 68.0061 47.7641 68.0126 47.7578C68.0061 47.7641 67.9996 47.7704 67.9996 47.7767ZM69.2962 44.2255C69.2832 44.2761 69.2702 44.333 69.2636 44.3835C69.2636 44.3772 69.2637 44.3709 69.2702 44.3645C69.2506 44.4593 69.2311 44.5604 69.2115 44.6552C69.2115 44.6489 69.2115 44.6426 69.2181 44.6363C69.1203 45.0533 68.99 45.4577 68.8727 45.8684C68.7489 46.2412 68.586 46.6077 68.3905 46.9553C68.3905 46.9553 68.3905 46.9553 68.3905 46.9489C68.384 46.9553 68.384 46.9616 68.3775 46.9742C68.3775 46.9742 68.3775 46.9742 68.3775 46.9679C68.3123 47.0816 68.2537 47.1954 68.1951 47.3091C68.1951 47.3028 68.2016 47.2965 68.2016 47.2902C68.1429 47.3976 68.0778 47.505 68.0191 47.6061C68.0256 47.5619 68.0257 47.524 68.0387 47.4797C68.0387 47.486 68.0387 47.4924 68.0322 47.4987C68.0322 47.4924 68.0387 47.4797 68.0387 47.4734V47.4797C68.1625 47.1132 68.2081 46.7215 68.3449 46.3613C68.3579 46.3107 68.3775 46.2602 68.397 46.216C68.5013 45.9822 68.6186 45.742 68.6121 45.483C68.6381 45.3882 68.6772 45.2997 68.7098 45.2049C68.7098 45.2049 68.7098 45.2049 68.7098 45.2113C68.7293 45.1544 68.7359 45.0975 68.7619 45.0407C68.9183 44.7184 69.0617 44.3835 69.2702 44.0802C69.0552 44.611 68.9835 44.75 69.2832 44.156C69.2962 44.1497 69.3028 44.1244 69.3158 44.1055C69.2572 44.3013 69.1464 44.5794 69.2962 44.2255ZM69.2311 44.036C69.218 44.0549 69.205 44.0676 69.192 44.0865C69.2311 44.0233 69.2637 43.9538 69.3027 43.8843C69.2832 43.9349 69.2571 43.9854 69.2311 44.036ZM69.3484 43.9665C69.3484 43.9728 69.3484 43.9728 69.3484 43.9665C69.3484 43.9601 69.3549 43.9475 69.3614 43.9349C69.3549 43.9475 69.3549 43.9601 69.3484 43.9665ZM69.9478 42.728C69.9478 42.728 69.9478 42.7217 69.9478 42.728C69.9543 42.7153 69.9543 42.6964 69.9609 42.6837C69.9609 42.6964 69.9543 42.7153 69.9478 42.728Z" fill="#999999"/>
</g>
<path d="M23.4181 37.3064C23.1184 36.6303 22.9816 35.7203 22.9816 34.4376C22.9816 33.1423 23.1314 31.651 23.2813 30.2103C23.4246 28.7886 23.5745 27.3226 23.5745 26.0652C23.5745 25.1047 23.5028 24.0811 22.6558 24.0811C21.9846 24.0811 21.1897 24.814 20.6424 25.427C18.2054 28.1125 16.583 33.6857 16.0617 38.0141C16.0031 38.5133 15.9379 38.5954 15.9184 38.608C15.8858 38.608 15.7424 38.5133 15.547 38.0899C15.143 37.1863 14.9475 36.0995 14.9475 34.7599C14.9475 31.8911 15.8923 28.3842 16.8175 25.3385C16.8436 25.2627 16.8436 25.2121 16.8436 25.1869C16.8436 25.0857 16.785 25.0415 16.7263 25.0415C16.6286 25.0415 16.5634 25.1489 16.5504 25.2248C15.4753 28.5295 14.4849 31.9859 14.4849 34.8736C14.4849 36.1247 14.6869 37.2179 15.0778 38.1278C15.4492 38.9682 15.6968 39.3094 15.9509 39.3094C16.2246 39.3094 16.3875 38.8987 16.5048 37.9319C17.1564 32.6304 18.8896 28.005 21.131 25.5597C21.6588 24.9783 22.1801 24.6308 22.5255 24.6308C22.6427 24.6308 22.7274 24.6624 22.7991 24.7319C23.0337 24.9594 23.0337 25.5533 23.0337 26.1726V26.2926C23.0337 27.5438 22.9164 28.9213 22.7991 30.2482C22.6818 31.5562 22.5645 32.9148 22.5645 34.128C22.5645 35.5118 22.7144 36.5355 23.0337 37.3506C23.1966 37.7045 23.3399 37.8751 23.4898 37.8751C23.5875 37.8751 23.6592 37.7866 23.6592 37.6665C23.6592 37.5402 23.581 37.3885 23.4181 37.3064Z" fill="#999999"/>
<path d="M59.0793 34.9746C59.0663 34.9746 59.0467 34.9747 59.0337 34.9873H59.0142L58.9881 35.0189C58.4017 35.6571 57.2353 36.725 55.9843 36.725C55.1307 36.725 54.3879 36.1942 53.7754 35.1579C53.7754 35.1579 53.7754 35.1516 53.7689 35.1516C55.9647 32.9779 58.3169 28.9275 58.3169 26.0904C58.3169 24.3274 57.5155 23.3164 56.1211 23.3164C54.9613 23.3164 53.9578 24.0936 53.2346 25.5722C52.596 26.8676 52.2311 28.6116 52.2311 30.3619C52.2311 32.2765 52.596 33.932 53.2932 35.1705C52.8371 35.5749 52.3484 35.7898 51.8597 35.7898C51.2081 35.7898 50.6543 35.3917 50.2894 34.6714C50.2112 34.5071 50.1395 34.3617 50.0157 34.3238C50.0027 34.3175 49.9962 34.3175 49.9832 34.3175C49.9766 34.2922 49.9636 34.2669 49.944 34.2417C49.8333 34.0711 49.5596 33.951 49.2859 33.951C48.5431 33.951 47.8525 34.4818 47.442 35.0758C46.4776 35.9288 45.3373 36.5417 44.7053 36.5417C44.588 36.5417 44.4968 36.2953 44.4707 35.8846C44.4512 35.5623 44.3534 35.3285 44.1775 35.1895C44.0342 35.0694 43.8322 35.0126 43.5911 35.0315C43.4999 35.0442 43.3891 35.0442 43.2783 35.0442C43.1089 35.0442 42.933 35.0378 42.7962 35.0315C43.3044 34.4628 43.6888 33.5972 43.6888 32.9779C43.6888 32.4724 43.4412 32.1944 42.9981 32.1944C42.0924 32.1944 41.3561 33.2686 41.3561 34.1595C41.3561 34.7345 41.6493 35.1137 42.1836 35.2401C41.2519 36.1752 40.5417 36.6491 40.0725 36.6491C39.7988 36.6491 39.7532 36.567 39.7532 36.3079C39.7532 36.15 39.7728 35.9541 39.8119 35.7329L39.8184 35.7013C39.8249 35.6318 39.8379 35.5686 39.8379 35.5244C39.8379 35.2085 39.6685 35.1895 39.6164 35.1895C39.5317 35.1895 39.3884 35.2274 39.1082 35.5307C39.0626 35.5813 39.0169 35.6255 38.9713 35.676C38.5283 36.15 38.0656 36.6365 37.7073 36.6365C37.6616 36.6365 37.5444 36.6365 37.5444 36.3901C37.5444 36.0741 37.6291 35.7266 37.7138 35.398C37.7464 35.259 37.7855 35.1263 37.8115 34.9999C37.8376 34.8988 37.8245 34.7409 37.7398 34.6271C37.6812 34.5513 37.5965 34.5134 37.4987 34.5134C37.2837 34.5134 36.9579 34.8167 36.7755 35.0062L36.7494 35.0378C36.7429 35.0442 36.7429 35.0442 36.7364 35.0505C36.1435 35.6887 34.9901 36.7439 33.7456 36.7439C32.892 36.7439 32.1492 36.2132 31.5367 35.1769C31.5367 35.1769 31.5367 35.1705 31.5302 35.1705C33.107 33.6161 34.6448 31.2276 35.4658 29.0349H35.6482C36.58 29.0349 37.6877 29.0097 38.8866 28.8138C39.5578 28.7 40.0399 28.4789 40.3918 28.1061C40.4569 28.0303 40.4895 27.9608 40.4895 27.9039C40.4895 27.7965 40.3983 27.7206 40.2745 27.7206C40.1377 27.7206 40.0008 27.8091 40.0008 27.9544C40.0008 27.9608 40.0008 27.9671 40.0008 27.9734C39.7011 28.2577 39.3362 28.4283 38.8866 28.4978C37.6226 28.6937 36.5474 28.719 35.6613 28.719H35.5766C35.9089 27.7522 36.0783 26.8802 36.0783 26.1157C36.0783 24.3527 35.2768 23.3417 33.8824 23.3417C32.8855 23.3417 31.9928 23.9293 31.3021 25.0415C30.7027 26.0082 30.2661 27.3415 30.0837 28.8075C29.0281 28.8959 27.9465 29.0602 26.7736 29.3004C26.3566 29.3825 25.8093 29.5089 25.288 29.7111C25.2033 29.7364 25.0795 29.7995 24.9296 29.9449L24.5061 30.3556L25.0404 30.0965C25.0925 30.0712 25.1838 30.0333 25.262 30.0081C25.301 29.9954 25.3336 29.9765 25.3532 29.9701C25.7897 29.8185 26.2458 29.6921 26.7476 29.5973C27.8683 29.3825 28.9499 29.2372 30.0511 29.1424C30.012 29.5278 29.9925 29.9449 29.9925 30.3809C29.9925 32.2955 30.3574 33.951 31.0546 35.1895C30.5984 35.5939 30.1098 35.8087 29.6211 35.8087C28.9695 35.8087 28.4156 35.4106 28.0507 34.6903C27.9725 34.526 27.9009 34.3807 27.7771 34.3428C27.764 34.3364 27.7575 34.3365 27.7445 34.3365C27.738 34.3112 27.7249 34.2859 27.7054 34.2606C27.5946 34.09 27.321 33.97 27.0473 33.97C25.8614 33.97 24.8254 35.3096 24.8254 36.1184C24.8254 36.3332 24.8971 36.5101 25.0274 36.6302C25.1577 36.7503 25.3532 36.8134 25.5943 36.8134C25.6203 36.8134 25.6529 36.8134 25.679 36.8134C26.3566 36.7818 27.0343 36.1816 27.6989 35.0189C28.1876 35.7835 28.8261 36.1879 29.5494 36.1879C30.1032 36.1879 30.6701 35.9414 31.2044 35.4675C31.8821 36.5417 32.7096 37.0915 33.6739 37.0915C35.1791 37.0915 36.4627 35.8151 36.9449 35.259L36.9514 35.2527L36.9579 35.2401C37.0948 35.101 37.3424 34.842 37.4531 34.823C37.4597 34.8293 37.4727 34.8546 37.4727 34.8925C37.4727 34.8988 37.4727 34.9115 37.4727 34.9115L37.4662 34.9241C37.4466 34.9999 37.414 35.0821 37.3815 35.1769C37.2642 35.5181 37.1078 35.9857 37.1078 36.3774C37.1078 36.7187 37.3359 36.9461 37.6747 36.9461C38.1569 36.9461 38.6651 36.4153 39.245 35.7961L39.2645 35.7708C39.3297 35.7013 39.3753 35.6634 39.4079 35.6381C39.4079 35.6824 39.3949 35.7519 39.3818 35.834C39.3558 35.9857 39.3362 36.131 39.3362 36.2763C39.3362 36.7629 39.5382 36.9777 39.9943 36.9777C40.6199 36.9777 41.4734 36.4154 42.529 35.3159C42.8027 35.3475 43.1415 35.3601 43.4868 35.3601C43.8517 35.3601 43.982 35.3601 44.0016 35.9667V36.0678C44.0211 36.5796 44.0276 36.9209 44.575 36.9209C45.2591 36.9209 46.2561 36.3901 47.0901 35.7582C47.051 35.8846 47.0315 36.0109 47.0315 36.1247C47.0315 36.3395 47.1031 36.5164 47.2334 36.6365C47.3638 36.7566 47.5592 36.8198 47.8003 36.8198C47.8264 36.8198 47.859 36.8198 47.885 36.8198C48.5627 36.7882 49.2403 36.1879 49.9049 35.0252C50.3936 35.7898 51.0322 36.1942 51.7555 36.1942C52.3093 36.1942 52.8762 35.9478 53.4105 35.4738C54.0882 36.548 54.9157 37.0978 55.88 37.0978C57.3852 37.0978 58.6688 35.8214 59.151 35.2653C59.1836 35.2337 59.1836 35.1958 59.1836 35.1832C59.2357 35.0631 59.1705 34.9746 59.0793 34.9746ZM53.619 34.8736C53.026 33.6983 52.7133 32.1375 52.7133 30.343C52.7133 27.0445 54.0034 23.6323 56.1602 23.6323C57.6719 23.6323 57.9911 24.9593 57.9911 26.0777C57.9911 28.7443 55.6976 32.8326 53.619 34.8736ZM49.312 34.2796C49.4293 34.2796 49.5726 34.3365 49.6183 34.4439V34.4502C49.6378 34.4818 49.6639 34.5387 49.716 34.5702L49.6769 34.6524L49.729 34.6208C49.7356 34.6334 49.7355 34.6398 49.7421 34.6524C49.4032 35.3412 48.7256 36.4406 47.9046 36.4406C47.6374 36.4406 47.5006 36.3143 47.5006 36.0615C47.5071 35.3854 48.3803 34.2796 49.312 34.2796ZM42.9916 32.4661C43.2588 32.4661 43.3956 32.6304 43.3956 32.9589C43.3956 33.5529 42.9525 34.4691 42.4443 34.9494C42.0273 34.8609 41.7666 34.6777 41.7666 34.1027C41.7666 33.3697 42.4443 32.4661 42.9916 32.4661ZM30.4877 30.343C30.4877 29.9006 30.5072 29.4773 30.5528 29.0855C31.3738 29.0286 32.1948 29.0034 33.1201 29.0034C33.8368 29.0034 34.4949 29.0097 35.127 29.0223C34.3255 31.1265 32.8399 33.4581 31.3934 34.8736C30.8004 33.6983 30.4877 32.1312 30.4877 30.343ZM34.5536 28.6874C34.0193 28.6811 33.4654 28.6685 32.8855 28.6685C32.0515 28.6685 31.3152 28.6937 30.5789 28.7506C30.9112 26.1852 32.0645 23.6323 33.9281 23.6323C35.4397 23.6323 35.759 24.9593 35.759 26.0777C35.759 26.8234 35.5831 27.7017 35.2378 28.7001C35.0097 28.6937 34.7816 28.6937 34.5536 28.6874ZM27.3861 34.4375V34.4439C27.4057 34.4755 27.4317 34.5323 27.4839 34.5639L27.4448 34.6461L27.4969 34.6145C27.5034 34.6271 27.5034 34.6334 27.5099 34.6461C27.1711 35.3348 26.4934 36.4343 25.6724 36.4343C25.4053 36.4343 25.2685 36.3079 25.2685 36.0552C25.2685 35.3854 26.1416 34.2796 27.0668 34.2796C27.1972 34.2796 27.347 34.3364 27.3861 34.4375Z" fill="#999999"/>
<g opacity="0.9992">
<g opacity="0.9992">
<g opacity="0.9992">
<path opacity="0.9992" d="M28.9174 43.6377C28.9695 43.8589 29.1324 43.96 29.3996 43.96C29.6667 43.96 29.7775 43.8588 29.7775 43.6946C29.7775 43.5113 29.6667 43.4355 29.2758 43.347C28.6568 43.208 28.5004 42.9868 28.5004 42.6835C28.5004 42.2981 28.8001 42.0327 29.3409 42.0327C29.9469 42.0327 30.188 42.3486 30.2206 42.6709H29.7254C29.6993 42.5319 29.6211 42.3866 29.3279 42.3866C29.1259 42.3866 29.0086 42.4687 29.0086 42.6267C29.0086 42.7783 29.1064 42.8415 29.4778 42.9237C30.1424 43.0753 30.2857 43.3154 30.2857 43.6251C30.2857 44.0295 29.973 44.3075 29.367 44.3075C28.7871 44.3075 28.4808 44.0295 28.4287 43.6251H28.9174V43.6377Z" fill="#999999"/>
<path opacity="0.9992" d="M33.0225 42.0708H33.5176V42.9365H34.4364V42.0708H34.9316V44.2887H34.4364V43.3283H33.5176V44.2887H33.0225V42.0708Z" fill="#999999"/>
<path opacity="0.9992" d="M39.903 43.1701C39.903 43.7893 39.5186 44.3201 38.7758 44.3201C38.0591 44.3201 37.6812 43.8146 37.6812 43.1764C37.6812 42.5319 38.0982 42.0327 38.8084 42.0327C39.4795 42.039 39.903 42.494 39.903 43.1701ZM38.1959 43.1701C38.1959 43.6061 38.3914 43.9284 38.7953 43.9284C39.2319 43.9284 39.3883 43.5682 39.3883 43.1764C39.3883 42.7594 39.2124 42.4245 38.7823 42.4245C38.3783 42.4308 38.1959 42.7404 38.1959 43.1701Z" fill="#999999"/>
<path opacity="0.9992" d="M42.6594 42.0708H43.6042C44.0929 42.0708 44.4187 42.3362 44.4187 42.7596C44.4187 43.2398 44.0408 43.4609 43.5912 43.4609H43.1546V44.2887H42.6594V42.0708ZM43.1546 43.0818H43.5325C43.7606 43.0818 43.9235 42.9934 43.9235 42.7722C43.9235 42.5447 43.7541 42.4563 43.5456 42.4563H43.1611V43.0818H43.1546Z" fill="#999999"/>
</g>
</g>
</g>
<g opacity="0.9992">
<path opacity="0.9992" d="M30.7159 63.0745L30.4878 64.2877C30.566 64.2687 30.7354 64.275 30.8136 64.2877L30.768 64.5341C30.6116 64.5341 30.4162 64.591 30.3054 64.6794L30.0513 64.6352L30.3575 63.0176L30.7159 63.0745Z" fill="#999999"/>
<path opacity="0.9992" d="M26.1875 62.809C26.3178 62.4046 26.598 62.0318 27.0801 62.1771C27.5428 62.3161 27.5753 62.7521 27.432 63.1818C27.3017 63.5736 27.0019 63.94 26.5393 63.7947C26.0962 63.6557 26.0571 63.2197 26.1875 62.809ZM27.0801 63.0744C27.1844 62.7584 27.1974 62.5057 26.9889 62.4425C26.7804 62.3793 26.6436 62.6068 26.5393 62.9164C26.4416 63.2197 26.4155 63.4661 26.624 63.5293C26.8325 63.5925 26.9694 63.4156 27.0801 63.0744Z" fill="#999999"/>
<path opacity="0.9992" d="M22.4606 61.2928C22.6495 60.9136 22.9753 60.5787 23.4314 60.7873C23.868 60.9895 23.8419 61.4191 23.6465 61.8235C23.464 62.1964 23.1187 62.5186 22.6756 62.3164C22.2455 62.1205 22.2651 61.6908 22.4606 61.2928ZM23.3076 61.6782C23.451 61.3812 23.5031 61.1285 23.3076 61.04C23.1122 60.9515 22.9427 61.1537 22.7994 61.4507C22.656 61.7414 22.6039 61.9815 22.7994 62.07C22.9883 62.1584 23.1512 62.0005 23.3076 61.6782Z" fill="#999999"/>
<path opacity="0.9992" d="M20.193 59.0935L18.4662 59.8644L18.2512 59.7254L19.9844 58.9545L20.193 59.0935ZM18.5444 58.5374C18.7008 58.3163 18.9354 58.2468 19.17 58.3984C19.3915 58.5374 19.4436 58.7649 19.2742 59.0114C19.1309 59.2199 18.8898 59.302 18.6487 59.1504C18.4402 59.005 18.375 58.7839 18.5444 58.5374ZM19.0462 58.8597C19.1374 58.7333 19.1374 58.6259 19.0462 58.569C18.9549 58.5122 18.8637 58.5374 18.766 58.6765C18.6682 58.8155 18.6878 58.9103 18.7725 58.9608C18.8572 59.0177 18.9549 58.9924 19.0462 58.8597ZM19.1634 59.8075C19.3198 59.5864 19.5609 59.5169 19.789 59.6685C20.004 59.8075 20.0626 60.035 19.8932 60.2814C19.7499 60.49 19.5088 60.5721 19.2677 60.4205C19.0592 60.2814 18.994 60.054 19.1634 59.8075ZM19.6652 60.1361C19.7564 60.0097 19.7564 59.9023 19.6652 59.8454C19.5739 59.7886 19.4827 59.8138 19.385 59.9529C19.2872 60.0919 19.3068 60.1867 19.3915 60.2372C19.4762 60.2941 19.5739 60.2688 19.6652 60.1361Z" fill="#999999"/>
<path opacity="0.9992" d="M12.856 53.9502C13.2079 53.6469 13.7031 53.59 14.068 53.9881C14.4199 54.3735 14.3156 54.8222 13.9572 55.1381C13.5858 55.454 13.0971 55.4793 12.7518 55.0939C12.4195 54.7337 12.4651 54.2851 12.856 53.9502ZM13.6966 54.8664C13.9442 54.6516 14.0354 54.3862 13.8334 54.1713C13.6184 53.9375 13.3382 54.026 13.1102 54.2219C12.8691 54.4304 12.7713 54.6895 12.9798 54.9169C13.1818 55.1381 13.449 55.0812 13.6966 54.8664Z" fill="#999999"/>
<path opacity="0.9992" d="M11.0836 51.3723L11.6505 51.0058L11.846 51.2965L10.432 52.2064L10.0215 51.6061C9.81954 51.3091 9.87818 51.0374 10.0932 50.8984C10.2822 50.7783 10.4516 50.8099 10.5623 50.8858C10.5428 50.8036 10.5428 50.652 10.7969 50.4877L10.8686 50.4434C10.9663 50.3802 11.0706 50.3107 11.1227 50.2476L11.3117 50.5256C11.2661 50.5888 11.1618 50.6646 11.0119 50.7594L10.9924 50.772C10.836 50.8731 10.7904 50.9553 10.9403 51.1764L11.0836 51.3723ZM10.836 51.524L10.6666 51.2775C10.5558 51.1132 10.4516 51.0943 10.3278 51.1701C10.2105 51.2459 10.1975 51.3597 10.2952 51.505L10.4711 51.7578L10.836 51.524Z" fill="#999999"/>
<path opacity="0.9992" d="M9.15497 46.6455L9.27226 46.8793C9.23316 46.9109 9.18105 46.9488 9.13543 46.9741C9.29182 47.0057 9.42213 47.1194 9.52639 47.3279C9.73489 47.7576 9.51987 48.1557 9.0833 48.3579C8.62068 48.5727 8.14501 48.4716 7.91695 47.9977C7.72799 47.6123 7.84529 47.29 8.08637 47.1321L8.24275 47.4543C8.15804 47.5301 8.07334 47.6691 8.17759 47.884C8.32745 48.1873 8.63371 48.1557 8.90086 48.0293C9.16149 47.9093 9.37652 47.6881 9.23317 47.3974C9.09634 47.1194 8.87479 47.1636 8.73796 47.2268L8.72493 47.2331L8.88131 47.5617L8.60764 47.6881L8.29488 47.0436L9.15497 46.6455Z" fill="#999999"/>
<path opacity="0.9992" d="M7.66933 43.9097L8.07981 43.9223L8.18407 44.2572L6.39221 44.2067L6.25537 43.777L7.70191 42.7407L7.81267 43.1009L7.48036 43.341L7.66933 43.9097ZM7.22625 43.4927C6.92 43.7075 6.72452 43.8402 6.58769 43.9223C6.7571 43.916 7.03728 43.916 7.36307 43.9223L7.22625 43.4927Z" fill="#999999"/>
<path opacity="0.9992" d="M7.12855 40.2509L5.45397 40.5037L5.38229 40.0677C5.72763 39.8086 6.34663 39.3284 6.51604 39.2273V39.221C6.34663 39.2652 6.05343 39.3095 5.77976 39.3474L5.28455 39.4232L5.23242 39.1072L6.907 38.8545L6.97216 39.2652C6.67243 39.4864 5.95569 40.0235 5.77976 40.1309V40.1372C5.92311 40.1056 6.26845 40.0487 6.56817 40.0045L7.07642 39.9287L7.12855 40.2509Z" fill="#999999"/>
<path opacity="0.9992" d="M4.98462 35.8025L6.67875 35.7583L6.68527 36.1121L4.99114 36.1564L4.98462 35.8025Z" fill="#999999"/>
<path opacity="0.9992" d="M6.37251 31.594C6.67876 31.6887 6.88727 31.9415 6.84817 32.3522C6.79604 32.8704 6.39207 33.0789 5.90989 33.0346C5.44727 32.9904 5.05631 32.6998 5.10844 32.169C5.15405 31.733 5.44075 31.5497 5.72745 31.5308L5.68834 31.8846C5.55151 31.9036 5.41468 31.9794 5.39513 32.2069C5.36255 32.4976 5.62318 32.6366 5.92943 32.6682C6.21613 32.6934 6.52238 32.6239 6.55496 32.308C6.58102 32.0742 6.42465 31.9857 6.33342 31.9478L6.37251 31.594Z" fill="#999999"/>
<path opacity="0.9992" d="M7.89081 25.8122L8.2166 26.0586L8.09281 26.3872L6.69189 25.3067L6.84827 24.8833L8.64666 24.8896L8.51634 25.2435H8.09931L7.89081 25.8122ZM7.79307 25.2245C7.41515 25.2182 7.17407 25.2119 7.01769 25.1992C7.16104 25.294 7.38258 25.4583 7.6367 25.6416L7.79307 25.2245Z" fill="#999999"/>
<path opacity="0.9992" d="M9.71545 22.5645L8.2168 21.7936L8.43182 21.4019C8.86839 21.3956 9.6568 21.3703 9.85879 21.3892V21.3829C9.6959 21.3197 9.43526 21.187 9.18765 21.0607L8.74459 20.8332L8.90096 20.5488L10.3996 21.3197L10.1976 21.6862C9.81969 21.6925 8.92051 21.7052 8.70549 21.6862V21.6925C8.84232 21.7494 9.15508 21.9011 9.42223 22.0401L9.87834 22.2739L9.71545 22.5645Z" fill="#999999"/>
<path opacity="0.9992" d="M10.5298 18.0215L10.9273 17.4971C11.2205 17.1116 11.6701 17.0421 12.0806 17.3328C12.478 17.6171 12.5953 18.0784 12.2891 18.4828L11.8981 18.9946L10.5298 18.0215ZM11.8786 18.5397L12.0415 18.3248C12.2369 18.0721 12.1262 17.8193 11.859 17.6297C11.6375 17.4718 11.3508 17.4275 11.1553 17.6929L10.9924 17.9078L11.8786 18.5397Z" fill="#999999"/>
<path opacity="0.9992" d="M16.7198 13.7938L15.6382 12.5237L15.9901 12.2457C16.394 12.3974 17.1368 12.6691 17.3128 12.7575H17.3193C17.189 12.6375 17.0065 12.4163 16.8241 12.2078L16.5048 11.835L16.7589 11.6265L17.8406 12.8965L17.5083 13.1619C17.1564 13.0292 16.3158 12.707 16.1269 12.6122H16.1204C16.2246 12.7133 16.4527 12.9724 16.6416 13.1999L16.9674 13.5853L16.7198 13.7938Z" fill="#999999"/>
<path opacity="0.9992" d="M20.1995 10.8303L20.2907 11.222L19.9845 11.4053L19.5935 9.71182L19.9845 9.47803L21.3788 10.5775L21.0465 10.7734L20.7207 10.5206L20.1995 10.8303ZM20.5057 10.3058C20.219 10.072 20.0301 9.92034 19.9193 9.81292C19.9714 9.97089 20.0366 10.2363 20.1148 10.5396L20.5057 10.3058Z" fill="#999999"/>
<path d="M23.2748 8.13245L22.8057 8.33466L22.6819 8.06927L23.959 7.51953L24.0828 7.78492L23.6137 7.98713L24.1805 9.22562L23.8482 9.37094L23.2748 8.13245Z" fill="#999999"/>
<path opacity="0.9992" d="M27.0084 6.464L27.2886 7.40551C27.3798 7.70882 27.5688 7.75305 27.7447 7.7025C27.9467 7.64563 28.0444 7.50661 27.9597 7.21595L27.6796 6.27444L28.0314 6.17334L28.3051 7.09589C28.468 7.63931 28.1813 7.86679 27.8229 7.96789C27.458 8.06899 27.0931 8.01212 26.9367 7.48766L26.6631 6.55879L27.0084 6.464Z" fill="#999999"/>
<path opacity="0.9992" d="M31.4912 6.50858L31.5825 7.15942L31.2241 7.20997L30.9895 5.57971L31.7258 5.47861C32.0907 5.42806 32.3187 5.59867 32.3513 5.85142C32.3839 6.07258 32.2796 6.20528 32.1624 6.26847C32.2471 6.28742 32.3904 6.35693 32.4295 6.6476L32.4425 6.72974C32.4556 6.83716 32.4751 6.96354 32.5142 7.03937L32.1689 7.0836C32.1298 7.01409 32.1037 6.89403 32.0842 6.72343L32.0777 6.69815C32.0516 6.52122 31.9929 6.43908 31.7258 6.47699L31.4912 6.50858ZM31.4456 6.22424L31.7519 6.18C31.9539 6.15473 32.019 6.06627 31.9995 5.93357C31.9799 5.80088 31.8822 5.73768 31.6997 5.76296L31.387 5.8072L31.4456 6.22424Z" fill="#999999"/>
<path opacity="0.9992" d="M35.5899 6.47031L35.4531 6.84944H35.0947L35.6812 5.20654H36.1438L36.7302 6.85576H36.3458L36.2089 6.47663L35.5899 6.47031ZM36.1373 6.17964C36.02 5.8321 35.9418 5.61095 35.9027 5.4593C35.8571 5.62359 35.7724 5.87633 35.6746 6.17332L36.1373 6.17964Z" fill="#999999"/>
<path opacity="0.9992" d="M39.5905 5.41504L39.9554 5.46559L39.7665 6.80518L40.6005 6.91892L40.5158 7.20327L39.356 7.05162L39.5905 5.41504Z" fill="#999999"/>
</g>
</svg>
