<svg width="70" height="70" viewBox="0 0 70 70" fill="none" xmlns="http://www.w3.org/2000/svg">
<g opacity="0.9992">
<path opacity="0.9992" d="M0.630095 27.7714C0.649188 27.7778 0.668283 27.7778 0.687376 27.7778C0.801934 27.7778 0.910127 27.6943 0.935585 27.5787C4.34051 11.8882 18.3866 0.507388 34.3229 0.507388C42.1638 0.507388 49.8201 3.25627 55.8917 8.24021C55.9999 8.33012 56.159 8.31086 56.2481 8.20167C56.3372 8.09249 56.3181 7.93192 56.2099 7.842C53.1805 5.35645 49.7947 3.41683 46.1415 2.08093C42.3611 0.700066 38.3834 0 34.3229 0C30.2625 0 26.2911 0.700066 22.5043 2.08093C18.8512 3.41683 15.459 5.35645 12.436 7.842C9.43198 10.3083 6.87988 13.237 4.83693 16.5511C2.75579 19.9294 1.27926 23.6031 0.439165 27.4759C0.407343 27.6044 0.490079 27.7392 0.630095 27.7714Z" fill="#999999"/>
<path opacity="0.9992" d="M56.9608 60.8351C50.7111 66.4099 42.6729 69.4864 34.3229 69.4864C17.992 69.4864 3.88222 57.7651 0.770057 41.6122C0.744599 41.4709 0.610947 41.381 0.470932 41.4067C0.330916 41.4324 0.241817 41.5673 0.267274 41.7086C1.78199 49.5698 5.99518 56.7439 12.124 61.9013C15.1726 64.4639 18.6029 66.4677 22.3134 67.8486C26.1511 69.2744 30.1924 70.0002 34.3229 70.0002C42.8002 70.0002 50.9593 66.8852 57.2982 61.2205C57.4063 61.1241 57.4127 60.9636 57.3173 60.8608C57.2218 60.7516 57.0627 60.7388 56.9608 60.8351Z" fill="#999999"/>
<path opacity="0.9992" d="M45.4034 4.11702C41.8584 2.81965 38.1289 2.16455 34.3231 2.16455C30.5172 2.16455 26.7877 2.81965 23.2427 4.11702C19.8187 5.36943 16.6365 7.18703 13.798 9.51844C10.985 11.8306 8.58565 14.5794 6.66998 17.688C4.72249 20.8543 3.3287 24.3033 2.54588 27.932C2.53315 28.0027 2.57134 28.0669 2.64135 28.0862C2.64771 28.0862 2.66044 28.0862 2.6668 28.0862C2.72408 28.0862 2.775 28.0477 2.79409 27.9834C6.01445 13.1665 19.2714 2.41503 34.3231 2.41503C41.7248 2.41503 48.961 5.00976 54.6889 9.71754C54.7462 9.76249 54.8226 9.75607 54.8672 9.69826C54.9117 9.64046 54.9053 9.56339 54.8481 9.51844C52.0032 7.18703 48.8274 5.36943 45.4034 4.11702Z" fill="#999999"/>
<path opacity="0.9992" d="M1.23468 35.8704C1.91658 35.8704 2.46937 35.3125 2.46937 34.6244C2.46937 33.9363 1.91658 33.3784 1.23468 33.3784C0.552786 33.3784 0 33.9363 0 34.6244C0 35.3125 0.552786 35.8704 1.23468 35.8704Z" fill="#999999"/>
<path opacity="0.9992" d="M58.5901 56.384C58.5965 56.3776 58.5965 56.3776 58.6029 56.3712C58.6029 56.3712 58.6029 56.3647 58.6094 56.3647C58.6029 56.3712 58.5965 56.3776 58.5901 56.384Z" fill="#999999"/>
<path opacity="0.9992" d="M69.9761 47.8226C69.9697 47.8226 69.9697 47.8226 69.9633 47.8226C68.5123 48.2593 67.0357 48.8823 65.9156 49.9549C65.922 49.9485 65.9283 49.9485 65.9283 49.9421C65.1137 50.6807 64.4454 51.5542 63.7199 52.3762C60.9896 55.3563 60.6841 58.0731 56.3627 59.1328C57.7692 57.7199 59.2585 56.3454 60.2832 54.6177L60.2768 54.6242C61.0023 53.5773 61.7151 52.4854 62.2434 51.3229C62.2434 51.3294 62.237 51.3358 62.237 51.3358C62.7589 49.9806 63.8345 48.9337 64.9991 48.1116C67.6658 46.2298 68.3786 42.9093 67.8313 39.8265C67.7676 38.3428 67.7485 36.8207 67.5767 35.3692C67.5449 35.3628 67.5385 35.4013 67.5258 35.427V35.4334C67.5194 35.4463 67.5131 35.4591 67.5067 35.4719C67.5067 35.4719 67.5067 35.4655 67.5131 35.4655C66.9339 37.6428 65.3746 39.4604 65.1837 41.7854C65.1837 41.7854 65.1837 41.7854 65.1837 41.7789C65.1837 41.7918 65.1837 41.7982 65.1837 41.8111V41.8046C65.0628 43.2048 65.5847 44.6627 65.1773 46.0307C64.7191 46.6665 64.4645 47.3602 64.1972 48.0924C63.8345 48.7218 63.2999 49.2163 62.8671 49.7815C64.4136 45.9793 65.3046 41.7854 64.7573 37.6749C64.7573 37.6813 64.7573 37.6813 64.7573 37.6877C64.8973 35.1444 65.0564 31.7019 62.5934 30.1604C62.5934 30.1604 62.5934 30.1604 62.5998 30.1604C62.4725 30.0705 62.3516 29.9678 62.2243 29.8714C62.2306 29.8778 62.2307 29.8778 62.237 29.8843C62.0779 29.7558 61.9061 29.6595 61.7406 29.5374C61.7406 29.5374 61.747 29.5375 61.747 29.5439C61.7215 29.5246 61.696 29.5118 61.6706 29.4925C61.677 29.4989 61.6769 29.4989 61.6833 29.5053C61.626 29.4668 61.5815 29.409 61.5306 29.364L61.5369 29.3705C61.5178 29.3512 61.5051 29.3384 61.486 29.3191L61.4924 29.3255C61.3651 29.2099 61.1169 28.6254 61.2442 29.197C61.2442 29.197 61.2442 29.1971 61.2442 29.1906C61.2442 29.2035 61.2505 29.2099 61.2505 29.2227C61.2569 29.2484 61.2633 29.2741 61.2696 29.2998C61.8997 30.3788 62.9371 31.2202 63.2044 32.5175C63.4844 33.6736 63.2999 34.9196 63.9363 35.9729C64.6682 37.7969 64.7191 39.7558 64.5536 41.6954C63.9745 40.3852 63.2617 39.1264 63.0453 37.6813C62.8671 36.0692 62.1097 34.7654 61.1933 33.4809C61.1169 33.4103 60.6714 32.7937 60.7096 33.102C61.5242 35.4912 60.0731 37.4565 62.0715 39.7751C62.0779 39.7815 62.0843 39.7879 62.0843 39.7944L62.0906 39.8008C62.0906 39.7944 62.0843 39.7944 62.0843 39.7879C62.708 40.5715 63.5544 41.111 64.1972 41.8689C64.1909 41.8624 64.1845 41.8496 64.1718 41.8432C64.2036 41.8881 64.2418 41.9267 64.28 41.9652C64.28 41.9588 64.2736 41.9588 64.2736 41.9524C64.28 41.9588 64.2863 41.9716 64.2927 41.978C64.2863 41.9716 64.2863 41.9716 64.28 41.9652C65.0691 44.3416 62.2625 50.9055 60.9005 53.1084C61.9888 50.7706 61.1996 48.7346 61.4606 46.3775V46.384C61.4606 46.3775 61.4606 46.3647 61.4606 46.3583C61.4606 46.3583 61.4606 46.3583 61.4606 46.3647C61.4606 46.3583 61.4606 46.3518 61.4606 46.339C61.4669 45.2086 61.4478 44.0525 61.276 42.935C61.0278 42.0358 60.4295 41.2715 60.2513 40.3531V40.3595C59.9968 39.1714 60.0604 39.8008 59.9586 40.5073C59.7676 41.3807 59.5003 42.2414 59.3731 43.1277C59.3731 43.1341 59.3731 43.1341 59.3731 43.1405C58.5011 48.1694 60.4104 46.6473 61.2187 49.9678C61.2187 49.987 61.2251 50.0063 61.2251 50.0256C61.2251 50.0191 61.2251 50.0127 61.2251 50.0127C61.2251 50.0256 61.2251 50.0384 61.2314 50.0513V50.0448C61.2251 50.2568 61.2124 50.4752 61.1933 50.6871C61.1933 50.6743 61.1933 50.6678 61.1933 50.655C61.1933 50.6678 61.1933 50.6871 61.1869 50.6999C61.1869 50.6935 61.1869 50.6935 61.1869 50.6871C61.1869 50.6935 61.1869 50.7064 61.1869 50.7128C61.1869 50.7128 61.1869 50.7128 61.1869 50.7064C61.0978 51.8239 60.6714 52.8579 60.2641 53.8856C60.2641 53.8791 60.2704 53.8791 60.2704 53.8727C59.9204 54.804 59.2203 55.5747 58.5902 56.3326C58.5902 56.3326 58.5902 56.3262 58.5966 56.3262C58.5902 56.3326 58.5902 56.3326 58.5839 56.339C56.9482 58.285 54.9626 59.8907 53.0342 61.4835C47.5927 65.4013 41.0565 67.5272 34.3039 67.5272C18.8831 67.5272 5.55616 56.4546 2.6222 41.2009C2.60947 41.1303 2.53946 41.0853 2.47582 41.0981C2.40581 41.111 2.36126 41.1816 2.37399 41.2459C3.79324 48.619 7.7455 55.3435 13.4925 60.1797C16.3565 62.5882 19.5704 64.4636 23.0454 65.7545C26.6476 67.0969 30.4344 67.7712 34.3039 67.7712C41.031 67.7712 47.5417 65.6775 52.9896 61.8175C53.0151 61.8111 53.0405 61.8046 53.0596 61.7854C53.0469 61.7918 53.0405 61.7918 53.0278 61.7982C53.0405 61.7918 53.0596 61.7854 53.0724 61.7789H53.066C53.1105 61.7597 53.1487 61.734 53.1869 61.7083L53.1806 61.7147C53.5115 61.4707 53.8615 61.1688 54.1925 60.9312C54.1861 60.9376 54.1798 60.9376 54.1734 60.944C54.358 60.8091 54.5298 60.6614 54.6953 60.5137C55.0199 60.2504 55.3381 59.9806 55.6563 59.7044C55.8981 59.531 56.1591 59.3833 56.4518 59.2806C56.4455 59.2806 56.4327 59.287 56.4264 59.287C57.9156 58.6897 59.5449 58.9466 61.0723 58.5548C65.7692 56.7051 65.9665 50.4816 69.957 47.829C70.0142 47.8804 70.0079 47.8226 69.9761 47.8226ZM67.2712 36.962C66.7684 39.7301 66.3038 42.5111 65.6228 45.2407C65.5719 44.2709 65.4637 43.3011 65.4319 42.3313C65.4001 40.3788 66.3547 38.6062 67.2712 36.962ZM67.4558 36.917C67.4876 37.3538 67.4749 37.7969 67.5322 38.2337C67.8504 41.5927 68.245 45.305 65.2283 47.5914C65.0246 47.7134 64.8273 47.8483 64.6236 47.9703C66.603 44.6691 66.6921 40.6164 67.4558 36.917ZM63.6563 40.9247C63.6499 40.9183 63.6435 40.9119 63.6308 40.9055C63.6435 40.9119 63.6499 40.9247 63.6563 40.9247C63.6626 40.9312 63.6626 40.9312 63.6563 40.9247C63.6626 40.9312 63.6626 40.9311 63.669 40.9311C63.6626 40.9311 63.6563 40.9247 63.6563 40.9247ZM59.9459 41.4064V41.4C59.9459 41.4064 59.9459 41.4064 59.9459 41.4064ZM59.5894 46.4803C59.2139 44.8425 59.6531 43.0763 59.9395 41.445C59.9395 41.445 59.9395 41.445 59.9395 41.4514C59.9777 41.2202 60.0159 40.9825 60.0795 40.7577C60.035 43.4873 60.9832 46.0821 61.1933 48.786C60.7732 47.9318 59.9013 47.4116 59.5894 46.4803ZM61.2187 46.8849C61.2187 46.8785 61.2187 46.8785 61.2187 46.8721C61.2187 46.8721 61.2187 46.8785 61.2187 46.8849C60.9832 45.6775 60.6714 44.4893 60.4868 43.2754C60.4868 43.2818 60.4932 43.2947 60.4932 43.3011C60.3659 42.5689 60.2768 41.8367 60.2641 41.0981C60.3468 41.3679 60.4995 41.612 60.6205 41.8689V41.8624C61.3842 43.2433 61.2633 44.9003 61.2696 46.4353C61.2505 46.5895 61.2314 46.7372 61.2187 46.8849Z" fill="#999999"/>
</g>
<g opacity="0.9992">
<g opacity="0.9992">
<g opacity="0.9992">
<path opacity="0.9992" d="M27.0865 49.1715C27.1374 49.3963 27.2965 49.4926 27.5511 49.4926C27.8056 49.4926 27.9138 49.3899 27.9138 49.2293C27.9138 49.0495 27.8056 48.9724 27.4301 48.8825C26.8319 48.7412 26.6855 48.5228 26.6855 48.2209C26.6855 47.8356 26.9719 47.5723 27.4938 47.5723C28.0793 47.5723 28.3084 47.887 28.3402 48.2145H27.8629C27.8375 48.0797 27.7675 47.9319 27.4811 47.9319C27.2901 47.9319 27.1692 48.009 27.1692 48.1696C27.1692 48.3237 27.2647 48.3879 27.6147 48.4714C28.2511 48.6256 28.3912 48.8632 28.3912 49.1779C28.3912 49.5825 28.0857 49.8587 27.5065 49.8587C26.9465 49.8587 26.6537 49.5825 26.6028 49.1779H27.0865V49.1715Z" fill="#999999"/>
<path opacity="0.9992" d="M30.3896 47.6045H30.867V48.4715H31.7516V47.6045H32.2289V49.8203H31.7516V48.8633H30.867V49.8203H30.3896V47.6045Z" fill="#999999"/>
<path opacity="0.9992" d="M36.3596 48.7026C36.3596 49.3192 35.9905 49.8523 35.2777 49.8523C34.5903 49.8523 34.2275 49.3449 34.2275 48.7155C34.2275 48.0732 34.6285 47.5787 35.3095 47.5787C35.9523 47.5723 36.3596 48.0283 36.3596 48.7026ZM34.7176 48.7026C34.7176 49.133 34.9085 49.4605 35.2967 49.4605C35.7168 49.4605 35.8695 49.1008 35.8695 48.7091C35.8695 48.2916 35.6977 47.9576 35.2904 47.9576C34.8958 47.964 34.7176 48.2723 34.7176 48.7026Z" fill="#999999"/>
<path opacity="0.9992" d="M38.3643 47.6045H39.2744C39.739 47.6045 40.0572 47.8678 40.0572 48.2917C40.0572 48.7734 39.6944 48.9918 39.2616 48.9918H38.8416V49.8203H38.3643V47.6045ZM38.8416 48.6128H39.2044C39.4271 48.6128 39.5798 48.5293 39.5798 48.3046C39.5798 48.0733 39.4144 47.9898 39.2171 47.9898H38.8479V48.6128H38.8416Z" fill="#999999"/>
</g>
</g>
<path opacity="0.9992" d="M42.5901 51.4771H23.8599V46.2041H42.5901V51.4771ZM24.0508 51.2844H42.3992V46.3968H24.0508V51.2844Z" fill="#999999"/>
</g>
<g opacity="0.9992">
<g opacity="0.9992">
<g opacity="0.9992">
<path opacity="0.9992" d="M42.9849 36.9622C42.9849 36.4613 43.3349 36.1144 43.8631 36.1144C44.3214 36.1144 44.7032 36.4677 44.7032 36.9622C44.7032 37.4568 44.385 37.6816 44.385 37.977C44.385 38.2853 44.7542 38.4266 45.4351 38.4266C47.4208 38.4266 47.5481 36.5769 47.5481 34.7978V30.2378C47.5481 28.0412 47.4081 27.8486 46.6253 27.81L46.2943 27.7972V27.6045H50.2529V27.7972L49.922 27.81C49.1456 27.8421 48.9992 28.0348 48.9992 30.2378V34.6694C48.9992 36.9044 47.9936 38.6385 45.4351 38.6385C43.6977 38.6321 42.9849 37.7522 42.9849 36.9622Z" fill="#999999"/>
</g>
</g>
<g opacity="0.9992">
<g opacity="0.9992">
<path opacity="0.9992" d="M15.5352 38.2532V38.0606L15.8661 38.0477C16.6426 38.0156 16.7889 37.8229 16.7889 35.62V30.0644C16.7889 27.8679 16.6489 27.6752 15.8661 27.6367L15.5352 27.6238V27.4312H23.3315V30.3342H23.1915L23.0133 29.7882C22.3896 27.8936 21.244 27.6367 19.7674 27.6367H18.991C18.2909 27.6367 18.24 27.8936 18.24 30.0644V32.6014H19.1437C19.8756 32.6014 20.6712 32.505 21.0212 31.2205L21.1167 30.8672H21.2567V34.5281H21.1167L21.0212 34.1749C20.6712 32.8904 19.8756 32.794 19.1437 32.794H18.24V35.62C18.24 37.7908 18.2909 38.0477 18.991 38.0477H20.0857C21.7086 38.0477 22.5996 37.6624 23.3315 35.4145L23.5097 34.8685H23.6497V38.2597H15.5352V38.2532Z" fill="#999999"/>
</g>
</g>
<path opacity="0.9992" d="M30.3388 41.683L30.1606 41.6059L38.1033 23.1602L38.2752 23.2372L30.3388 41.683Z" fill="#999999"/>
</g>
</svg>
