<svg width="70" height="70" viewBox="0 0 70 70" fill="none" xmlns="http://www.w3.org/2000/svg">
<path opacity="0.9992" d="M53.4331 9.73495C54.3222 10.638 55.5758 10.5491 56.6526 10.7748C56.8183 10.7611 56.9729 10.9527 57.122 10.9048C58.116 11.6231 58.9222 12.622 59.6953 13.655C58.6351 12.9025 56.1004 12.5399 55.5923 14.2776C55.9016 15.0575 56.6747 15.0096 57.2656 14.8249C58.1602 14.6401 59.0051 13.9902 59.8941 13.9355C60.1923 14.3597 60.4795 14.7907 60.7666 15.2217C60.7611 15.2148 60.7556 15.208 60.7501 15.2011C61.109 15.7484 61.3907 16.3642 61.6778 16.973C60.612 15.94 58.9885 15.6116 57.6797 16.0084C56.4428 16.4941 56.8569 17.8692 58.0331 17.7461H58.0276C58.0331 17.7461 58.0387 17.7461 58.0442 17.7461C58.0552 17.7461 58.0663 17.7461 58.0773 17.7461H58.0718C58.0828 17.7461 58.0939 17.7461 58.1049 17.7461C58.0994 17.7461 58.0939 17.7461 58.0939 17.7461C62.6663 17.1714 61.8214 15.9605 63.467 22.7813C62.6387 21.0778 61.1587 19.5864 59.4855 19.6685C58.9278 19.8258 58.5301 20.4347 59.0658 20.9889C59.0658 20.9889 59.0658 20.9889 59.0658 20.9957C59.0603 20.9889 59.0603 20.982 59.0548 20.982C59.0603 20.9889 59.0658 20.9957 59.0713 21.0025C59.0713 21.0025 59.0713 21.0025 59.0658 20.9957C60.0653 22.8086 62.1859 22.2271 63.5388 23.308C63.7431 25.2783 63.9806 27.2555 63.9861 29.2531C63.3897 27.4675 60.485 23.7733 58.9222 25.5109C58.8891 25.5315 58.8781 25.593 58.8946 25.6341C58.8836 25.7983 58.9719 25.9419 59.0161 26.0856V26.0788C59.0161 26.0856 59.0216 26.0924 59.0216 26.0924C59.7395 28.3569 62.1582 28.0559 63.5498 29.3421C63.583 29.3763 63.6161 29.4105 63.6492 29.4378C63.7597 29.5678 63.9033 29.6704 63.9916 29.8209C63.9861 31.586 63.848 33.3579 63.6216 35.1024C63.5609 34.8972 63.4946 34.6988 63.4284 34.4935C63.4284 34.5004 63.4339 34.5072 63.4339 34.5141V34.5072C63.4228 34.4799 63.4173 34.4525 63.4063 34.4251C63.4118 34.432 63.4118 34.4456 63.4173 34.4525C62.1859 28.8905 57.6411 28.7811 60.0488 32.3864C61.1587 33.3921 62.3626 34.2199 63.4118 35.3282C63.4007 35.3213 63.3952 35.3077 63.3842 35.3008C63.4284 35.3487 63.4781 35.3966 63.5167 35.4513C63.3787 37.5516 62.7326 39.5903 62.1251 41.5469C61.7827 34.7398 57.746 33.912 59.491 38.222C60.3028 39.5561 61.3575 40.6507 61.8932 42.2173C61.7772 42.5799 61.6557 42.9357 61.5177 43.2914C61.3796 43.6403 61.236 43.9824 61.0814 44.3245C60.9268 44.6597 60.7611 44.9949 60.5844 45.3164C60.4077 45.638 60.2476 45.9595 60.0543 46.2742C59.8665 46.5821 59.6401 46.9515 59.4358 47.2457C59.3364 47.3893 59.3585 47.492 59.4082 47.5467C59.4579 47.6014 59.5297 47.6288 59.7064 47.362C59.8444 47.1499 60.1758 46.671 60.3083 46.4179C60.4077 46.24 60.4905 46.0895 60.612 45.8979C60.6175 45.8911 60.6286 45.8706 60.6341 45.8706C66.322 46.11 66.6092 38.8035 62.3129 43.6814C62.3073 43.6882 62.3073 43.6882 62.3018 43.6951C62.2908 43.7087 62.2853 43.7156 62.2742 43.7293C62.2742 43.7293 62.2742 43.7293 62.2797 43.7224C62.2742 43.7293 62.2687 43.7361 62.2576 43.7429C62.2576 43.7429 62.2521 43.743 62.2521 43.7498C62.2576 43.743 62.2577 43.7429 62.2632 43.7429C61.8711 44.1329 61.5066 44.5571 61.1311 44.9675C61.5177 44.1603 61.8159 43.2983 62.1196 42.4363C62.1748 42.4021 62.2079 42.3131 62.1859 42.2447C62.5779 41.1022 62.9258 39.9324 63.224 38.7488C64.8973 38.1605 67.5369 37.3737 67.7909 34.8151C67.813 34.1925 67.432 33.5426 66.8908 33.6042C65.5986 33.8026 64.9083 35.5197 64.218 36.7101C64.218 36.7101 64.218 36.7033 64.2236 36.7033L64.218 36.7101C64.2236 36.7033 64.2236 36.7033 64.2291 36.6964C64.2236 36.7033 64.2236 36.7101 64.218 36.717L64.2236 36.7101C64.218 36.7238 64.207 36.7375 64.2015 36.7443C64.207 36.7375 64.2125 36.7306 64.218 36.7238C64.2125 36.7375 64.2015 36.7443 64.1959 36.758C64.1904 36.7717 64.1849 36.7785 64.1739 36.7854L64.1794 36.7785C63.9033 37.1753 63.6161 37.5721 63.3952 38.0236C63.7597 36.2996 64.0137 34.5414 64.1407 32.7627C64.1407 32.7764 64.1407 32.7901 64.1352 32.8037C64.1407 32.7627 64.1407 32.7216 64.1462 32.6806C64.1462 32.6874 64.1462 32.6943 64.1462 32.6943C64.1683 32.4069 64.1904 32.1265 64.207 31.8391C64.5383 31.4697 64.9746 31.2987 65.3169 30.9498C65.3335 30.9361 65.3446 30.9224 65.3611 30.9087C65.3611 30.9087 65.3556 30.9087 65.3556 30.9155C65.3611 30.9087 65.3666 30.9019 65.3722 30.895C65.3722 30.895 65.3722 30.895 65.3667 30.895C66.1729 30.163 66.9902 29.171 67.1669 27.8986C67.2552 27.0023 66.5981 26.2498 66.0017 27.0092C65.2286 28.3022 64.9083 29.8962 64.2291 31.2645C64.2953 29.6089 64.2733 27.9464 64.1131 26.3045C65.4495 24.7447 66.8687 22.4529 66.5318 20.0516C66.4048 19.5111 65.9465 18.7791 65.4716 19.2785C64.7592 20.12 64.8697 21.5019 64.6764 22.6171C64.6709 22.6513 64.6709 22.6855 64.6653 22.7129V22.706C64.6653 22.7197 64.6598 22.7334 64.6598 22.7471C64.6598 22.7607 64.6543 22.7744 64.6543 22.7881C64.6543 22.7881 64.6543 22.7881 64.6543 22.7813C64.6543 22.7881 64.6543 22.7881 64.6543 22.795C64.6543 22.795 64.6543 22.7949 64.6543 22.7881C64.4665 23.8006 64.4113 24.8884 64.0634 25.8393C63.8922 24.1358 63.7707 22.405 63.2793 20.7836C65.7146 15.6321 63.4118 11.8079 62.8154 15.119C62.7105 16.8088 63.2848 18.4439 63.1081 20.1405C62.7546 18.5123 62.0147 17.0893 61.2857 15.68C61.3078 15.5637 61.3575 15.4543 61.3796 15.338C61.3796 15.3448 61.3796 15.3448 61.3741 15.3516C62.9203 9.99491 59.7782 9.31763 60.8605 14.1544V14.1476C60.8605 14.1613 60.866 14.1749 60.866 14.1886C60.866 14.1818 60.866 14.1818 60.866 14.1749C60.866 14.1818 60.866 14.1886 60.8716 14.1955C60.8716 14.2023 60.8716 14.2023 60.8716 14.2091C60.9489 14.6401 61.098 15.0438 61.1587 15.4748C60.6065 14.6128 60.0322 13.7645 59.3971 12.9982C59.375 12.6835 59.3419 12.3346 59.3806 12.0063V12.0131C59.3806 12.0063 59.3806 12.0063 59.3806 11.9994C59.4192 10.8159 59.8941 7.60047 58.37 7.75782C58.37 7.75782 58.3755 7.75782 58.3755 7.75098C58.37 7.75782 58.359 7.75782 58.3534 7.76466C58.359 7.76466 58.359 7.76466 58.3645 7.75782C57.5085 8.58561 58.359 10.467 58.6019 11.5137C58.6019 11.5068 58.5964 11.5 58.5964 11.4932C58.613 11.5411 58.6296 11.5958 58.6461 11.6437C58.6406 11.63 58.6406 11.6231 58.6351 11.6095C58.6406 11.6368 58.6516 11.6573 58.6572 11.6847C58.6516 11.671 58.6516 11.6642 58.6461 11.6505C58.6737 11.7394 58.7013 11.8284 58.729 11.9173C58.7234 11.9036 58.7234 11.8968 58.7179 11.8831C58.7676 12.0336 58.8173 12.1773 58.867 12.3278C58.3976 11.6916 57.7902 11.2537 57.2269 10.7748C56.4704 9.81705 55.515 8.99609 54.5045 8.483H54.51C53.7866 8.11357 52.5109 8.77033 53.4331 9.73495ZM59.3253 13.915C58.5578 14.1476 57.8288 14.5444 57.0502 14.7359C57.0447 14.7359 57.0391 14.7359 57.0336 14.7359C57.0336 14.7359 57.0336 14.7359 57.0392 14.7359C56.5698 14.8522 56.0231 14.8659 55.7304 14.3186C56.2329 14.4007 56.7575 14.2844 57.2545 14.1818C57.249 14.1818 57.2379 14.1886 57.2324 14.1886C57.5527 14.1202 57.873 14.0723 58.1878 14.0107C58.1933 14.0107 58.1988 14.0107 58.2099 14.0039H58.2043C58.6019 13.8876 59.0106 13.7918 59.4192 13.8808C59.3861 13.8944 59.3585 13.9013 59.3253 13.915ZM59.5297 13.7508C58.9388 13.6618 58.359 13.8055 57.7681 13.8534C57.7736 13.8534 57.7847 13.8466 57.7902 13.8466C57.1054 13.9218 56.4151 14.2091 55.7304 14.1065C55.758 14.045 55.7911 13.9834 55.8298 13.9218C56.8348 12.8135 58.4749 13.0461 59.6015 13.7439C59.5849 13.7508 59.5573 13.7508 59.5297 13.7508ZM61.1863 17.1098C61.1863 17.1098 61.1919 17.1098 61.1863 17.1098C61.1422 17.1098 61.0925 17.1098 61.0428 17.1167C60.0819 17.2535 59.1431 17.5614 58.1767 17.6161C58.1823 17.6161 58.1878 17.6161 58.1878 17.6161C57.8951 17.6298 57.5858 17.6435 57.3153 17.4724H57.3208C57.3153 17.4724 57.3153 17.4656 57.3097 17.4656C57.1496 17.3767 57.0668 17.1646 57.0171 16.9662C58.4308 17.3151 59.9107 16.5831 61.3133 17.1167C61.2747 17.1098 61.2305 17.1098 61.1863 17.1098ZM57.8399 16.8499C57.6852 16.8294 57.5251 16.8636 57.3705 16.8499C57.376 16.8499 57.3815 16.8499 57.3926 16.8499C57.3594 16.8499 57.3318 16.843 57.2987 16.843C57.3042 16.843 57.3042 16.843 57.3097 16.843C57.2435 16.8362 57.1772 16.8362 57.1165 16.8088H57.122C57.1165 16.8088 57.1109 16.802 57.1109 16.802C57.1109 16.802 57.1109 16.802 57.1165 16.802C57.0833 16.7883 57.0502 16.7746 57.0171 16.7678C57.0226 16.7473 57.0281 16.7267 57.0392 16.6994C57.989 15.2969 60.5402 16.0152 61.5729 16.9867C60.3414 16.5694 59.0824 16.9046 57.8399 16.8499ZM62.8099 22.576C61.5177 22.1382 59.4634 22.1587 58.994 20.3184C59.1873 20.421 59.3419 20.6194 59.5518 20.6878C59.5462 20.6878 59.5462 20.6878 59.5407 20.681C59.734 20.7699 59.9273 20.8452 60.1261 20.9204C60.1979 20.9546 60.2696 20.9889 60.3414 21.0162C60.3414 21.0162 60.3414 21.0162 60.3359 21.0162C60.358 21.0231 60.3801 21.0367 60.4022 21.0436C60.4298 21.0573 60.4519 21.0641 60.4795 21.0778C60.474 21.0778 60.474 21.071 60.4685 21.071C60.4905 21.0778 60.5071 21.0915 60.5292 21.0983C60.5347 21.0983 60.5347 21.0983 60.5402 21.1052C60.5899 21.1257 60.6396 21.1462 60.6893 21.1667C60.6949 21.1667 60.6949 21.1667 60.7004 21.1736H60.6949C60.7004 21.1736 60.7114 21.1804 60.717 21.1804C60.7114 21.1804 60.7059 21.1736 60.7059 21.1736C61.2802 21.4472 61.86 21.7346 62.3681 22.1792C62.3681 22.1792 62.3681 22.1792 62.3626 22.1792C62.3791 22.1929 62.3902 22.2066 62.4067 22.2134C62.4012 22.2066 62.3957 22.2066 62.3957 22.1998C62.5945 22.3776 62.8375 22.4734 63.0363 22.6513C62.959 22.6308 62.8872 22.6034 62.8099 22.576ZM60.3138 20.9068C60.1482 20.8315 59.977 20.7768 59.8058 20.7084H59.8003C59.745 20.681 59.6843 20.6605 59.6291 20.6399C59.6346 20.6399 59.6346 20.6399 59.6401 20.6468C59.6015 20.6331 59.5683 20.6194 59.5297 20.5989C59.5352 20.5989 59.5352 20.5989 59.5407 20.6057C59.5297 20.5989 59.5186 20.5989 59.5076 20.5921C59.5131 20.5921 59.5131 20.5921 59.5186 20.5989C59.4192 20.5579 59.3254 20.4894 59.237 20.4142L59.2425 20.421C59.1762 20.3595 59.1045 20.3116 59.0271 20.2705C59.0437 20.2363 59.0713 20.209 59.0934 20.1816C60.5458 19.258 62.2632 21.112 63.1467 22.4666C63.1467 22.4666 63.1467 22.4666 63.1467 22.4734C63.1467 22.4803 63.1522 22.4803 63.1522 22.4871L63.1467 22.4802L63.1522 22.4871C63.1522 22.4871 63.1522 22.4871 63.1522 22.4802C63.1688 22.5145 63.1909 22.5418 63.2075 22.576C63.213 22.5897 63.2185 22.5966 63.2296 22.6102C63.2296 22.6102 63.2296 22.6034 63.224 22.6034C63.2351 22.6239 63.2461 22.6445 63.2572 22.665C62.335 21.9398 61.3796 21.2557 60.3138 20.9068ZM63.2627 28.8426C61.9318 27.8985 59.85 28.0764 59.1431 26.113C59.1045 25.983 59.0548 25.8598 59.0161 25.7299C59.7616 26.414 60.6562 26.756 61.5066 27.2007C62.1417 27.7617 62.8099 28.2953 63.4007 28.9247C63.3566 28.8974 63.3124 28.87 63.2627 28.8426ZM60.866 26.6603C60.8716 26.6671 60.8771 26.6671 60.8881 26.674C60.2531 26.325 59.6235 25.983 59.0382 25.5246C59.0437 25.5109 59.0492 25.4973 59.0603 25.4836C60.7335 24.2795 62.959 27.3649 63.7431 29.0205C62.9203 28.0217 61.9263 27.2076 60.866 26.6603ZM62.7602 34.2951C61.6778 33.1185 59.618 32.5985 59.5407 30.5256C60.8108 31.586 61.849 33.0432 62.8982 34.4114C62.8541 34.3704 62.8044 34.3294 62.7602 34.2951ZM61.2416 31.8733C61.236 31.8665 61.2305 31.8596 61.225 31.8528C61.225 31.8596 61.2305 31.8596 61.2416 31.8733C61.236 31.8665 61.236 31.8733 61.2416 31.8733C61.236 31.8665 61.225 31.8597 61.2195 31.846C61.2195 31.846 61.225 31.846 61.225 31.8528L61.2195 31.846C61.225 31.846 61.225 31.8528 61.2305 31.8528C61.225 31.846 61.2139 31.8391 61.2084 31.8254C61.2084 31.8254 61.2084 31.8254 61.214 31.8323C60.7114 31.2918 60.2531 30.7035 59.6732 30.293C59.7119 30.2588 59.7561 30.2246 59.8003 30.1972C61.595 29.9236 62.6387 32.489 63.1633 34.2541C62.5779 33.3921 61.8877 32.6532 61.2416 31.8733ZM62.1914 44.0713C62.9534 43.3256 63.721 42.1763 64.7758 42.231C64.0192 43.4898 62.6773 44.0371 61.5784 44.7349C61.7717 44.5023 61.976 44.2834 62.1914 44.0713ZM62.2853 44.5639C63.2019 43.9482 64.3119 43.4419 64.9249 42.3542C64.9856 42.4636 65.0077 42.6073 65.0132 42.7441C64.7426 44.7213 62.462 45.4327 61.0648 45.4054C61.4459 45.0702 61.8656 44.817 62.2853 44.5639ZM61.5729 40.9038C60.8219 39.303 58.8173 38.0647 59.3585 35.9302C59.9383 37.2027 60.4298 38.5778 61.2029 39.7134C61.1974 39.7066 61.1974 39.7066 61.1919 39.6998C61.4514 40.1786 61.6447 40.7259 61.7496 41.2869C61.6944 41.1638 61.6336 41.0338 61.5729 40.9038ZM61.5563 40.2607C60.7943 38.8378 60.0874 37.3737 59.4634 35.8413C59.5352 35.8139 59.6125 35.8208 59.6843 35.8344C61.3907 36.6143 61.7275 39.6519 61.965 41.6358C61.8656 41.1638 61.7551 40.6849 61.5563 40.2607ZM67.5258 34.993C67.1172 36.8401 65.328 37.7226 63.9419 38.0852C64.9967 37.2095 66.0404 36.2381 66.8577 35.0135C66.8577 35.0203 66.8521 35.0203 66.8466 35.0272C66.8632 34.9998 66.8797 34.9793 66.8963 34.9519C66.8963 34.9519 66.8963 34.9519 66.8908 34.9587C67.073 34.6988 67.2332 34.4114 67.3547 34.0967C67.5203 34.343 67.559 34.6783 67.5258 34.993ZM63.8591 37.5311C64.8752 36.3749 65.5599 33.57 67.2221 33.9462C66.322 35.6702 64.8862 36.8675 63.5609 38.0442C63.6493 37.8663 63.7542 37.7021 63.8591 37.5311ZM66.8742 27.0365C67.5148 28.829 65.571 30.5188 64.4721 31.2781C65.317 29.8962 66.2502 28.5211 66.7527 26.8792C66.8024 26.9271 66.8411 26.9818 66.8742 27.0365ZM64.7592 30.2246C65.074 29.6704 65.2341 29.0342 65.4274 28.4048C65.4274 28.398 65.4329 28.3911 65.4329 28.3911C65.4329 28.3911 65.4329 28.398 65.4274 28.398C65.7145 27.7959 65.952 26.7834 66.6312 26.8108C66.3993 27.6386 66.0072 28.3638 65.6152 29.0889C65.6207 29.0821 65.6207 29.0752 65.6262 29.0684C65.5931 29.13 65.5599 29.1915 65.5268 29.2531C65.5268 29.2531 65.5268 29.2531 65.5268 29.2463C65.5213 29.2531 65.5213 29.26 65.5158 29.2668C65.5213 29.26 65.5213 29.2531 65.5268 29.2463C65.5213 29.26 65.5158 29.2736 65.5047 29.2805C65.5102 29.2736 65.5102 29.2668 65.5158 29.26C65.5102 29.2736 65.5047 29.2805 65.4992 29.2942C65.5047 29.2873 65.5047 29.2805 65.5102 29.2736C65.3887 29.4926 65.2672 29.7046 65.1513 29.9236C65.1568 29.9167 65.1568 29.9099 65.1623 29.903C64.8862 30.3204 64.6488 30.7787 64.3671 31.1892C64.4941 30.8813 64.6156 30.5461 64.7592 30.2246ZM65.8747 19.4427C65.8747 19.4496 65.8747 19.4496 65.8747 19.4427C65.8747 19.4017 65.8802 19.3538 65.8857 19.2991C65.9134 19.3059 65.9354 19.3264 65.952 19.3469C67.189 20.9546 65.5213 24.1974 64.4886 25.4494C65.1844 23.5543 65.7256 21.5293 65.8747 19.4427ZM64.3892 25.1689C64.8365 23.7938 64.6985 19.7437 65.7698 19.2991C65.698 20.7289 65.3501 22.104 65.0298 23.4654C64.7979 24.1769 64.6101 24.9226 64.2843 25.5862C64.334 25.4494 64.3616 25.3057 64.3892 25.1689ZM63.5719 14.0518C65.0298 15.5227 63.9751 18.526 63.3179 20.2568C63.6548 18.2045 63.5167 16.1179 63.4891 14.0381C63.5167 14.0313 63.5443 14.045 63.5719 14.0518ZM62.9148 15.9195C62.9093 15.2901 62.8761 14.387 63.3952 14.0655C63.3842 16.0631 63.5498 18.0882 63.2075 20.0584C63.2461 19.3538 63.2737 18.6423 63.1467 17.9445C63.0694 17.2672 62.9424 16.5968 62.9148 15.9195ZM61.236 11.069C61.2471 11.069 61.2636 11.0758 61.2747 11.0758C61.3354 11.0964 61.3851 11.1511 61.4293 11.2058C61.9926 12.4236 61.5619 14.0586 61.2692 15.3311C61.2692 15.338 61.2636 15.3448 61.2636 15.3448C61.2195 13.9218 61.2195 12.4851 61.236 11.069ZM61.0925 14.777C60.8992 13.6687 60.3138 11.9515 61.109 11.0758C61.0759 12.3552 61.0648 13.6413 61.1256 14.9206C61.109 14.8728 61.1035 14.8249 61.0925 14.777ZM58.6019 7.91517C59.6346 8.66087 59.1818 10.5627 59.1873 11.7942C59.1873 11.7805 59.1873 11.7736 59.1928 11.76C59.1873 11.7805 59.1873 11.801 59.1818 11.8284C59.1818 11.8147 59.1818 11.8079 59.1873 11.7942C59.1873 11.8079 59.1818 11.8215 59.1818 11.8352C59.1707 11.7463 59.1542 11.6574 59.1321 11.5684C59.0271 11.1716 58.9774 10.7543 58.8891 10.3507C58.8891 10.3507 58.8891 10.3507 58.8891 10.3575C58.6461 9.57076 58.7455 8.69507 58.5081 7.91517C58.5412 7.90833 58.5688 7.91517 58.6019 7.91517ZM58.7234 11.1853C58.7179 11.1716 58.7124 11.1511 58.7069 11.1374V11.1442C58.7013 11.1374 58.7013 11.1237 58.6958 11.1169C58.6958 11.1237 58.7013 11.1306 58.7013 11.1374C58.7013 11.1306 58.6958 11.1169 58.6958 11.11C58.6903 11.0964 58.6848 11.0758 58.6792 11.0622C58.6792 11.069 58.6793 11.069 58.6848 11.0758C58.4584 10.1659 57.8509 8.74981 58.4363 7.94938C58.4639 8.06568 58.5136 8.17514 58.5357 8.29144V8.2846C58.5357 8.29144 58.5357 8.29144 58.5357 8.29828C58.5357 8.29828 58.5357 8.29828 58.5357 8.29144C58.5909 9.0645 58.6461 9.83073 58.8283 10.5764C58.8283 10.5696 58.8284 10.5627 58.8228 10.5627C58.8836 10.8911 58.9112 11.2263 58.994 11.5479C58.994 11.541 58.994 11.541 58.994 11.5342C58.994 11.541 58.994 11.5479 58.9995 11.5547C59.0548 11.8284 59.0713 12.102 59.0989 12.3825C59.0548 12.2525 59.0161 12.1157 58.9719 11.9857V11.9926C58.8891 11.7189 58.8063 11.4453 58.7179 11.1785C58.7234 11.1785 58.7234 11.1785 58.7234 11.1853ZM55.9789 10.4191C55.3162 10.2686 53.1515 10.1044 53.3834 8.97557C54.4051 9.15344 55.2886 9.94019 56.2219 10.4464C56.139 10.4396 56.0617 10.4328 55.9789 10.4191ZM56.5145 10.2822C56.4207 10.2344 56.3268 10.2002 56.2329 10.1523C55.2941 9.65285 54.3443 8.72244 53.2951 8.78401C54.4713 8.01778 55.6144 9.48182 56.5145 10.2822Z" fill="#999999"/>
<path opacity="0.9992" d="M6.78702 38.7283C7.08522 39.9119 7.43865 41.0817 7.8252 42.2242C7.80311 42.2995 7.83624 42.3884 7.89147 42.4158C8.19519 43.2778 8.49339 44.1398 8.87994 44.947C8.50443 44.5366 8.13997 44.1124 7.74789 43.7224C7.75341 43.7224 7.75341 43.7293 7.75893 43.7293C7.75893 43.7293 7.75341 43.7293 7.75341 43.7224C7.74789 43.7156 7.73684 43.7088 7.73132 43.7019C7.73132 43.7019 7.73132 43.7019 7.73684 43.7088C7.7258 43.6951 7.72027 43.6882 7.70923 43.6746C7.70371 43.6677 7.70371 43.6677 7.69819 43.6609C3.4019 38.783 3.68354 46.0895 9.37694 45.8501C9.38247 45.8501 9.39351 45.8706 9.39903 45.8774C9.52052 46.069 9.60336 46.2127 9.70275 46.3974C9.83529 46.6437 10.1666 47.1294 10.3047 47.3415C10.4759 47.6083 10.5477 47.5809 10.6029 47.5262C10.6526 47.4783 10.6691 47.3689 10.5753 47.2252C10.3709 46.931 10.15 46.5616 9.95677 46.2537C9.76901 45.9459 9.60336 45.6243 9.42664 45.2959C9.25546 44.9744 9.08979 44.6392 8.92965 44.304C8.7695 43.9687 8.62592 43.6267 8.49339 43.2709C8.35533 42.922 8.23384 42.5594 8.11788 42.1969C8.65353 40.6302 9.70828 39.5356 10.52 38.2015C12.2651 33.8984 8.22832 34.7193 7.88594 41.5264C7.2785 39.563 6.6324 37.5311 6.49434 35.4308C6.533 35.3761 6.57718 35.3282 6.62688 35.2803C6.61583 35.2872 6.61031 35.3008 6.59927 35.3077C7.64849 34.1994 8.85785 33.3716 9.9623 32.3659C12.37 28.7606 7.81968 28.87 6.59374 34.432C6.59927 34.4252 6.59926 34.4115 6.60479 34.4046C6.59374 34.432 6.58822 34.4594 6.57718 34.4867V34.4936C6.57718 34.4867 6.5827 34.4799 6.5827 34.473C6.51644 34.6714 6.44465 34.8767 6.38943 35.0819C6.16301 33.3374 6.02495 31.5723 6.01943 29.8004C6.10779 29.6499 6.24585 29.5473 6.36181 29.4173C6.39495 29.3831 6.42808 29.3558 6.46121 29.3216C7.84729 28.0354 10.2715 28.3364 10.9894 26.0719C10.9894 26.0651 10.9949 26.0583 10.9949 26.0583V26.0651C11.0336 25.9146 11.1275 25.7709 11.1164 25.6136C11.133 25.5725 11.122 25.5178 11.0888 25.4904C9.52604 23.7459 6.62135 27.4402 6.02495 29.2326C6.03048 27.2418 6.26794 25.2647 6.47226 23.2875C7.81968 22.2066 9.94021 22.7813 10.9453 20.9752C10.9453 20.9752 10.9452 20.9752 10.9397 20.982C10.9452 20.9752 10.9508 20.9684 10.9563 20.9615C10.9508 20.9684 10.9508 20.9752 10.9453 20.9752C10.9453 20.9752 10.9453 20.9752 10.9453 20.9684C11.4864 20.4142 11.0833 19.8122 10.5256 19.648C8.85233 19.5659 7.37238 21.0573 6.54404 22.7608C8.18966 15.94 7.34476 17.1509 11.9172 17.7256C11.9116 17.7256 11.9061 17.7256 11.9061 17.7256C11.9172 17.7256 11.9282 17.7256 11.9393 17.7256H11.9337C11.9448 17.7256 11.9558 17.7256 11.9669 17.7256C11.9724 17.7256 11.9779 17.7256 11.9834 17.7256H11.9779C13.1541 17.8556 13.5683 16.4805 12.3313 15.9879C11.0226 15.5911 9.39903 15.9195 8.33324 16.9525C8.6204 16.3437 8.90203 15.7279 9.26098 15.1806C9.25546 15.1875 9.24993 15.1943 9.24441 15.2012C9.53156 14.7702 9.81872 14.3392 10.1169 13.915C11.0115 13.9697 11.8564 14.6196 12.7455 14.8044C13.3308 14.9891 14.1095 15.037 14.4187 14.2571C13.9107 12.5194 11.376 12.882 10.3157 13.6345C11.0888 12.5946 11.8951 11.6026 12.8891 10.8843C13.0437 10.9322 13.1928 10.7406 13.3585 10.7543C14.4353 10.5286 15.6888 10.6175 16.5779 9.71446C17.4946 8.74984 16.2245 8.09307 15.5011 8.44882H15.5066C14.496 8.95507 13.5407 9.78287 12.7842 10.7406C12.2154 11.2264 11.6134 11.6642 11.144 12.2936C11.1937 12.1431 11.2435 11.9994 11.2932 11.8489C11.2876 11.8626 11.2876 11.8695 11.2821 11.8831C11.3097 11.7942 11.3373 11.7053 11.3649 11.6163C11.3594 11.63 11.3594 11.6369 11.3539 11.6505C11.3594 11.6232 11.3705 11.6026 11.376 11.5753C11.3705 11.589 11.3705 11.5958 11.3649 11.6095C11.3815 11.5616 11.3981 11.5069 11.4146 11.459C11.4146 11.4658 11.4091 11.4727 11.4091 11.4795C11.6576 10.4328 12.508 8.54459 11.6466 7.72364C11.6521 7.72364 11.6521 7.72364 11.6576 7.73048C11.6521 7.72364 11.6411 7.72364 11.6355 7.7168C11.6355 7.7168 11.641 7.7168 11.641 7.72364C10.1169 7.56629 10.5918 10.7817 10.6305 11.9652C10.6305 11.9721 10.6305 11.9721 10.6305 11.9789V11.9721C10.6747 12.3073 10.6415 12.6494 10.6139 12.9641C9.97887 13.7371 9.40455 14.5786 8.85233 15.4406C8.9186 15.0096 9.0677 14.606 9.13949 14.175C9.13949 14.1681 9.13949 14.1681 9.13949 14.1613C9.13949 14.1544 9.13948 14.1476 9.14501 14.1408C9.14501 14.1476 9.14501 14.1476 9.14501 14.1544C9.14501 14.1408 9.15053 14.1271 9.15053 14.1134V14.1202C10.2329 9.27661 7.09074 9.96073 8.63696 15.3175C8.63696 15.3106 8.63697 15.3106 8.63144 15.3038C8.65906 15.4201 8.70323 15.5295 8.72532 15.6458C7.99639 17.0551 7.26193 18.4781 6.90299 20.1064C6.72075 18.4097 7.29507 16.7747 7.19567 15.0849C6.59927 11.7737 4.2965 15.5911 6.7318 20.7494C6.24032 22.3708 6.11884 24.1017 5.94765 25.8051C5.59423 24.8542 5.54452 23.7664 5.35677 22.7539C5.35677 22.7539 5.35677 22.7539 5.35677 22.7608C5.35677 22.7539 5.35677 22.7539 5.35677 22.7471C5.35677 22.7471 5.35677 22.7471 5.35677 22.7539C5.35677 22.7402 5.35125 22.7266 5.35125 22.7129C5.35125 22.6992 5.34572 22.6855 5.34572 22.6718V22.6787C5.3402 22.6445 5.3402 22.6103 5.33468 22.5829C5.1414 21.4746 5.25185 20.0927 4.53948 19.2444C4.07009 18.7449 3.61175 19.477 3.47921 20.0174C3.13684 22.4187 4.55605 24.7105 5.89795 26.2704C5.74332 27.9123 5.71571 29.5747 5.78198 31.2303C5.10275 29.862 4.78245 28.2612 4.00934 26.975C3.41294 26.2156 2.7558 26.975 2.84416 27.8644C3.02087 29.13 3.83816 30.1288 4.6444 30.8608C4.6444 30.8608 4.6444 30.8608 4.63888 30.8608C4.6444 30.8677 4.64993 30.8745 4.65545 30.8814C4.65545 30.8814 4.64993 30.8814 4.64993 30.8745C4.66649 30.8882 4.67753 30.9019 4.6941 30.9156C5.042 31.2645 5.47825 31.4355 5.80406 31.8049C5.82063 32.0923 5.84273 32.3796 5.86481 32.6601C5.86481 32.6533 5.86481 32.6464 5.86481 32.6464C5.87034 32.6875 5.87033 32.7285 5.87586 32.7696C5.87586 32.7559 5.87586 32.7422 5.87034 32.7285C5.99735 34.5072 6.25689 36.2655 6.61583 37.9895C6.39495 37.5379 6.10779 37.1411 5.83168 36.7443L5.8372 36.7512C5.83168 36.7443 5.82616 36.7307 5.81511 36.7238C5.80959 36.7101 5.79855 36.7033 5.79302 36.6896C5.79855 36.6965 5.80407 36.7033 5.80959 36.7101C5.80407 36.6965 5.79302 36.6828 5.7875 36.6759L5.79302 36.6828C5.7875 36.6759 5.7875 36.6691 5.78198 36.6622C5.7875 36.6691 5.7875 36.6691 5.79302 36.6759L5.7875 36.6691C5.7875 36.6691 5.7875 36.6759 5.79302 36.6759C5.10275 35.4855 4.41247 33.7684 3.12027 33.57C2.57909 33.5084 2.19806 34.1515 2.22015 34.7809C2.4797 37.3464 5.11931 38.1331 6.78702 38.7283ZM7.80863 44.0714C8.024 44.2834 8.22832 44.5024 8.4216 44.735C7.32268 44.0371 5.98078 43.4899 5.22423 42.2311C6.27898 42.1695 7.04657 43.3257 7.80863 44.0714ZM8.93517 45.4054C7.53804 45.4328 5.25737 44.7213 4.98678 42.7442C4.9923 42.6073 5.01439 42.4705 5.07513 42.3542C5.6881 43.442 6.79807 43.9482 7.71476 44.5639C8.13445 44.8171 8.54861 45.0702 8.93517 45.4054ZM8.4216 40.9038C8.35533 41.027 8.30011 41.157 8.24489 41.287C8.34981 40.726 8.54309 40.1718 8.80263 39.6998C8.79711 39.7066 8.79711 39.7066 8.79159 39.7135C9.57022 38.5847 10.0562 37.2096 10.636 35.9302C11.1772 38.0647 9.17814 39.3098 8.4216 40.9038ZM10.3102 35.8345C10.382 35.8276 10.4593 35.8139 10.5311 35.8413C9.90708 37.3669 9.20023 38.8378 8.43817 40.2608C8.23937 40.6849 8.12892 41.1638 8.03504 41.6359C8.26697 39.6519 8.60383 36.6144 10.3102 35.8345ZM7.23432 34.2952C7.19014 34.3362 7.14597 34.3704 7.09626 34.4115C8.14549 33.0364 9.17814 31.586 10.4538 30.5256C10.3765 32.5917 8.31668 33.1185 7.23432 34.2952ZM10.2108 30.2041C10.255 30.2315 10.2992 30.2588 10.3378 30.2999C9.75246 30.7035 9.29963 31.2987 8.79711 31.8391C8.79711 31.8391 8.79711 31.8392 8.80263 31.8323C8.79711 31.8392 8.78606 31.846 8.78054 31.8597C8.78606 31.8597 8.78607 31.8528 8.79159 31.8528L8.78606 31.8597C8.78606 31.8597 8.79159 31.8597 8.79159 31.8528C8.78607 31.8597 8.77502 31.8665 8.7695 31.8802L8.77502 31.8734C8.78054 31.8665 8.78606 31.8665 8.78606 31.8597C8.78054 31.8665 8.77502 31.8734 8.7695 31.8802C8.1234 32.6601 7.43312 33.399 6.85881 34.2678C7.37238 32.4959 8.41608 29.9304 10.2108 30.2041ZM10.8514 26.113C10.1445 28.0764 8.06265 27.8986 6.7318 28.8427C6.68762 28.87 6.64344 28.8974 6.59927 28.9248C7.19014 28.2954 7.85833 27.7617 8.49339 27.2008C9.33829 26.7561 10.2384 26.414 10.9839 25.7299C10.9397 25.8599 10.89 25.983 10.8514 26.113ZM10.9397 25.4836C10.9452 25.4973 10.9508 25.511 10.9618 25.5246C10.3765 25.983 9.74693 26.3251 9.11187 26.674C9.1174 26.6671 9.12292 26.6671 9.13396 26.6603C8.07922 27.2076 7.0797 28.0286 6.26241 29.0205C7.03552 27.365 9.26097 24.2795 10.9397 25.4836ZM7.18462 22.5761C7.10731 22.6034 7.03552 22.6308 6.96373 22.665C7.16805 22.4871 7.40551 22.3913 7.60431 22.2135C7.59879 22.2203 7.59326 22.2203 7.59326 22.2271C7.60983 22.2135 7.62088 22.1998 7.63744 22.1929C7.63744 22.1929 7.63745 22.1929 7.63192 22.1929C8.13445 21.7483 8.71428 21.4609 9.29411 21.1873C9.28859 21.1873 9.28858 21.1873 9.28306 21.1941C9.28858 21.1941 9.29963 21.1873 9.30515 21.1873H9.29963C9.30515 21.1873 9.30515 21.1873 9.31067 21.1804C9.36037 21.1599 9.41008 21.1394 9.45978 21.1189C9.4653 21.1189 9.4653 21.1189 9.47082 21.112C9.49291 21.1052 9.50947 21.0983 9.53156 21.0847C9.52604 21.0847 9.52604 21.0915 9.52052 21.0915C9.54813 21.0778 9.57021 21.071 9.59783 21.0573C9.61991 21.0505 9.64201 21.0368 9.6641 21.0299C9.6641 21.0299 9.6641 21.0299 9.65857 21.0299C9.73036 21.0026 9.80215 20.9615 9.87394 20.9342C10.0727 20.8589 10.266 20.7836 10.4593 20.6947C10.4538 20.6947 10.4538 20.6947 10.4483 20.7015C10.6581 20.6331 10.8072 20.4347 11.006 20.3321C10.5311 22.1656 8.47682 22.1382 7.18462 22.5761ZM6.77045 22.5966C6.76493 22.5966 6.76493 22.5966 6.77045 22.5966C6.77598 22.5897 6.7815 22.5829 6.78702 22.5692C6.80359 22.535 6.82568 22.5076 6.84224 22.4734C6.84224 22.4734 6.84224 22.4734 6.84224 22.4803L6.84777 22.4734L6.84224 22.4803C6.84224 22.4734 6.84777 22.4734 6.84777 22.4666C6.84777 22.4666 6.84776 22.4666 6.85329 22.4598C7.73132 21.0983 9.44874 19.2512 10.9066 20.1748C10.9287 20.2021 10.9563 20.2295 10.9729 20.2637C10.8956 20.2979 10.8238 20.3526 10.7575 20.4142L10.763 20.4074C10.6747 20.4826 10.5808 20.5442 10.4814 20.5921C10.4869 20.5921 10.4869 20.5921 10.4924 20.5852C10.4814 20.5921 10.4703 20.5921 10.4593 20.5989C10.4648 20.5989 10.4648 20.5989 10.4703 20.5921C10.4317 20.6058 10.3985 20.6195 10.3599 20.64C10.3654 20.64 10.3654 20.64 10.3709 20.6331C10.3157 20.6537 10.255 20.681 10.1998 20.7015H10.1942C10.023 20.77 9.85185 20.8247 9.68619 20.8999C8.61488 21.2489 7.66505 21.933 6.73732 22.6513C6.74837 22.6376 6.75941 22.6171 6.77045 22.5966ZM12.6792 17.4588C12.6847 17.4588 12.6847 17.4588 12.6792 17.4588C12.6792 17.4588 12.6737 17.4656 12.6682 17.4656C12.6737 17.4656 12.6737 17.4656 12.6792 17.4588C12.4086 17.6298 12.0994 17.6161 11.8067 17.6093C11.8122 17.6093 11.8178 17.6093 11.8178 17.6093C10.8514 17.5614 9.90707 17.2467 8.95173 17.1099C8.90203 17.1099 8.85233 17.1099 8.80263 17.103H8.80815C8.76397 17.103 8.7198 17.103 8.67562 17.103C10.0838 16.5763 11.5582 17.3014 12.9719 16.9525C12.9222 17.1578 12.8449 17.3698 12.6792 17.4588ZM12.9664 16.7131C12.9719 16.7336 12.983 16.7541 12.9885 16.7815C12.9553 16.7883 12.9222 16.802 12.8891 16.8157C12.8891 16.8157 12.8891 16.8157 12.8946 16.8157C12.8891 16.8157 12.8835 16.8225 12.8835 16.8225H12.8891C12.8283 16.8567 12.7621 16.8567 12.6958 16.8567C12.7013 16.8567 12.7013 16.8567 12.7068 16.8567C12.6737 16.8567 12.6461 16.8636 12.613 16.8636C12.6185 16.8636 12.624 16.8636 12.635 16.8636C12.4804 16.8773 12.3203 16.8431 12.1657 16.8636C10.9232 16.9183 9.65858 16.5831 8.43817 17.0073C9.4653 16.0221 12.011 15.3106 12.9664 16.7131ZM12.9553 14.7359C12.9553 14.7359 12.9498 14.7359 12.9443 14.7359C12.1657 14.5512 11.4367 14.1544 10.6691 13.915C10.6415 13.9013 10.6084 13.8945 10.5808 13.8808C10.9894 13.7987 11.3925 13.8876 11.7957 14.0039H11.7902C11.7957 14.0039 11.8012 14.0039 11.8122 14.0108C12.1325 14.0723 12.4528 14.1202 12.7676 14.1886C12.7621 14.1886 12.751 14.1818 12.7455 14.1818C13.2425 14.2844 13.7671 14.4007 14.2696 14.3186C13.9659 14.8659 13.4247 14.8522 12.9553 14.7359ZM14.1592 13.9287C14.1978 13.9834 14.231 14.045 14.2586 14.1134C13.5738 14.216 12.8835 13.9287 12.1988 13.8534C12.2043 13.8534 12.2154 13.8603 12.2209 13.8603C11.6355 13.8055 11.0502 13.6619 10.4593 13.7576C10.4317 13.7576 10.4096 13.7576 10.382 13.7576C11.514 13.0462 13.1486 12.8136 14.1592 13.9287ZM14.0156 10.4191C13.9328 10.4328 13.8499 10.4396 13.7726 10.4465C14.7059 9.94021 15.5894 9.15347 16.611 8.97559C16.8485 10.1044 14.6838 10.2686 14.0156 10.4191ZM16.6939 8.78403C15.6447 8.72246 14.7004 9.65288 13.7561 10.1523C13.6622 10.2002 13.5683 10.2344 13.4744 10.2823C14.3801 9.48185 15.5232 8.01781 16.6939 8.78403ZM11.5582 7.94256C12.1436 8.74299 11.5306 10.1591 11.3097 11.069C11.3097 11.0622 11.3097 11.0622 11.3152 11.0553C11.3097 11.069 11.3042 11.0895 11.2987 11.1032C11.2987 11.1101 11.2932 11.1169 11.2932 11.1306C11.2932 11.1238 11.2987 11.1169 11.2987 11.1101C11.2931 11.1169 11.2932 11.1306 11.2876 11.1374V11.1306C11.2821 11.1443 11.2766 11.1648 11.2711 11.1785V11.1716C11.1827 11.4385 11.0999 11.7121 11.017 11.9858V11.9789C10.9729 12.1089 10.9397 12.2457 10.89 12.3757C10.9176 12.1021 10.9342 11.8216 10.9894 11.5479C10.9894 11.5411 10.9894 11.5342 10.9949 11.5274C10.9949 11.5342 10.9949 11.5342 10.9949 11.5411C11.0778 11.2195 11.0999 10.8775 11.1661 10.5559C11.1661 10.5628 11.1661 10.5696 11.1606 10.5696C11.3428 9.82392 11.3981 9.05085 11.4533 8.28463C11.4533 8.28463 11.4533 8.28462 11.4533 8.29147C11.4533 8.28462 11.4533 8.28463 11.4533 8.27779V8.28463C11.4809 8.16832 11.5306 8.05886 11.5582 7.94256ZM11.3925 7.9152C11.4202 7.9152 11.4533 7.90835 11.4809 7.9152C11.2379 8.6951 11.3429 9.57078 11.0999 10.3575C11.0999 10.3575 11.0999 10.3575 11.0999 10.3507C11.0115 10.7543 10.9563 11.1648 10.8569 11.5684C10.8403 11.6574 10.8238 11.7463 10.8072 11.8353C10.8072 11.8216 10.8017 11.8079 10.8017 11.7942C10.8017 11.8079 10.8072 11.8147 10.8072 11.8284C10.8017 11.8079 10.8017 11.7805 10.7962 11.76C10.7962 11.7737 10.7961 11.7805 10.8017 11.7942C10.8127 10.5628 10.3654 8.6609 11.3925 7.9152ZM8.89099 11.069C9.68618 11.9447 9.09531 13.6687 8.90756 14.7702C8.89651 14.818 8.88547 14.8659 8.87994 14.9138C8.93517 13.6413 8.92964 12.3483 8.89099 11.069ZM8.56517 11.2058C8.60935 11.1511 8.65353 11.0964 8.7198 11.0759C8.73084 11.069 8.74741 11.069 8.75845 11.069C8.77502 12.4852 8.77502 13.9218 8.73084 15.3448C8.73084 15.338 8.72532 15.3311 8.72532 15.3311C8.43264 14.0587 8.00191 12.4236 8.56517 11.2058ZM6.42808 14.0518C6.45569 14.045 6.4833 14.0381 6.51091 14.0381C6.4833 16.1179 6.34524 18.2045 6.6821 20.2569C6.01943 18.5192 4.97021 15.5159 6.42808 14.0518ZM6.59927 14.0587C7.11835 14.3802 7.08522 15.2901 7.0797 15.9127C7.05209 16.5968 6.92508 17.2604 6.84777 17.9377C6.72075 18.6355 6.74837 19.347 6.78702 20.0516C6.45017 18.0813 6.61031 16.0632 6.59927 14.0587ZM4.04248 19.347C4.06457 19.3264 4.08666 19.3128 4.10875 19.2991C4.11427 19.347 4.11427 19.3949 4.11979 19.4496V19.4428C4.26889 21.5225 4.81007 23.5544 5.50587 25.4494C4.47322 24.1974 2.80551 20.9547 4.04248 19.347ZM4.95917 23.4654C4.63888 22.0972 4.29098 20.7221 4.21919 19.2991C5.29602 19.7438 5.15245 23.7938 5.59975 25.1689C5.62736 25.3126 5.65497 25.4494 5.69915 25.5862C5.37886 24.9295 5.1911 24.1769 4.95917 23.4654ZM3.12027 27.0366C3.15892 26.9818 3.19758 26.9271 3.24176 26.8792C3.73876 28.5211 4.67753 29.8962 5.52243 31.2782C4.42351 30.5188 2.47969 28.829 3.12027 27.0366ZM4.8432 29.9168C4.84873 29.9236 4.84872 29.9304 4.85425 29.9373C4.73828 29.7183 4.61127 29.5063 4.4953 29.2873C4.50082 29.2942 4.50082 29.301 4.50634 29.3079C4.50082 29.2942 4.4953 29.2873 4.48978 29.2737C4.4953 29.2805 4.4953 29.2874 4.50082 29.2942C4.4953 29.2805 4.48978 29.2668 4.47873 29.26C4.48425 29.2668 4.48426 29.2737 4.48978 29.2805C4.48426 29.2737 4.48425 29.2668 4.47873 29.26C4.47873 29.26 4.47873 29.26 4.47873 29.2668C4.4456 29.2053 4.41247 29.1437 4.37934 29.0821C4.38486 29.0889 4.38486 29.0958 4.39038 29.1026C3.9983 28.3843 3.60622 27.6523 3.37429 26.8245C4.05352 26.804 4.29098 27.8096 4.57814 28.4117C4.57814 28.4117 4.57814 28.4048 4.57261 28.4048C4.57261 28.4117 4.57814 28.4185 4.57814 28.4185C4.77141 29.0411 4.93156 29.6842 5.24632 30.2383C5.3899 30.5598 5.51139 30.8951 5.64945 31.2166C5.35677 30.7924 5.11932 30.3341 4.8432 29.9168ZM6.14093 37.5311C6.24585 37.6953 6.35076 37.8663 6.43912 38.0442C5.11379 36.8675 3.67802 35.6703 2.77789 33.9463C4.44008 33.57 5.12484 36.3749 6.14093 37.5311ZM2.64536 34.0899C2.76685 34.4046 2.92699 34.692 3.10923 34.9519C3.10923 34.9519 3.10923 34.9519 3.10371 34.9451C3.12027 34.9725 3.13683 34.993 3.1534 35.0203C3.14788 35.0135 3.14788 35.0135 3.14236 35.0067C3.95965 36.2313 4.99783 37.2027 6.05809 38.0784C4.66649 37.7158 2.88282 36.8333 2.47417 34.9861C2.43552 34.6783 2.47417 34.3431 2.64536 34.0899Z" fill="#999999"/>
<path opacity="0.9992" d="M11.4477 48.6894C11.3648 48.7578 11.3427 48.9015 11.4035 49.0041C14.0155 53.622 17.5111 57.4668 21.5202 60.1143C23.5634 61.4621 25.7336 62.5019 27.9757 63.1998C30.2839 63.9249 32.6695 64.2875 35.0717 64.2875C37.4849 64.2875 39.8871 63.9181 42.2009 63.1861C44.454 62.4746 46.6297 61.4279 48.684 60.0664C52.7097 57.3915 56.2163 53.5193 58.8228 48.8536C58.878 48.751 58.8614 48.6141 58.7786 48.5389C58.6958 48.4705 58.5853 48.491 58.5246 48.5936C53.1956 58.1304 44.4263 63.8291 35.0717 63.8291C25.7723 63.8291 17.0361 58.1851 11.7017 48.7373C11.6409 48.6415 11.5305 48.6141 11.4477 48.6894Z" fill="#999999"/>
<path opacity="0.9992" d="M69.7347 28.2546C69.5801 28.2478 69.4531 28.3915 69.4476 28.583C68.6358 50.7488 54.5155 68.2419 36.6014 69.2749C27.4014 69.8017 18.5825 65.8611 11.7736 58.1784C4.96467 50.4956 0.977622 39.9806 0.552411 28.583C0.546889 28.3915 0.414358 28.2478 0.265258 28.2546C0.110636 28.2615 -0.00533298 28.4257 0.000189237 28.6104C0.221078 34.4665 1.35866 40.09 3.38531 45.3305C5.34018 50.393 8.04054 54.8809 11.4036 58.6778C14.7666 62.4747 18.6266 65.3822 22.8787 67.332C26.7608 69.1039 30.8142 70.0001 34.9613 70.0001C35.5136 70.0001 36.0713 69.9864 36.6291 69.9522C45.4094 69.446 53.6596 64.917 59.85 57.1932C66.0017 49.5173 69.6077 39.3649 69.9998 28.6035C70.0053 28.4257 69.8894 28.2615 69.7347 28.2546Z" fill="#999999"/>
<path opacity="0.9992" d="M35.1103 3.448C35.8789 3.448 36.502 2.67614 36.502 1.724C36.502 0.771859 35.8789 0 35.1103 0C34.3418 0 33.7188 0.771859 33.7188 1.724C33.7188 2.67614 34.3418 3.448 35.1103 3.448Z" fill="#999999"/>
<path d="M30.9632 26.1612C30.8086 26.0654 30.5656 26.0175 30.2454 26.0175C29.1961 26.0175 27.556 26.5101 26.3356 27.1942C25.6564 26.8316 24.8557 26.6469 24.0108 26.6469C23.199 26.6469 22.3872 26.8111 21.6031 26.9684C20.8631 27.1189 20.1618 27.2626 19.4991 27.2626C17.9971 27.2626 17.3013 26.599 17.3013 25.176C17.3013 23.2878 18.9579 20.5513 21.6197 18.0406C24.2041 15.5982 27.048 14.0247 28.8538 14.0247C30.4552 14.0247 31.2338 14.7978 31.2338 16.3918C31.2338 17.9037 30.4221 19.9903 29.1078 20.7155L29.1023 20.7223C28.9752 20.8113 28.9642 20.9002 28.9642 20.9618C28.9642 21.1054 29.0305 21.1944 29.1354 21.1944C29.1685 21.1944 29.2072 21.1807 29.2458 21.1602L29.2624 21.1533C30.5601 20.2434 31.5762 18.1295 31.5762 16.3439C31.5762 14.5378 30.6595 13.6279 28.8427 13.6279C26.8823 13.6279 23.8893 15.2356 21.211 17.7259C18.4002 20.3392 16.7214 23.1373 16.7214 25.1965C16.7214 26.8658 17.6713 27.7141 19.5488 27.7141C20.2888 27.7141 21.0343 27.5568 21.7577 27.3994C22.4756 27.2489 23.2156 27.0847 23.939 27.0847C24.5299 27.0847 25.3085 27.2626 25.8 27.5089C24.2869 28.4803 22.7462 30.1428 21.5534 32.0994C20.344 34.0834 19.6482 36.0878 19.6482 37.5998C19.6482 39.3101 20.5428 40.2474 22.1774 40.2474C25.4521 40.2474 29.0415 35.8484 29.0415 31.8463C29.0415 29.9718 28.3015 28.5693 26.7166 27.4542C27.6609 26.9069 29.2182 26.428 30.0797 26.428C30.4 26.428 30.5546 26.4827 30.6264 26.5374C30.665 26.5922 30.7424 26.6537 30.8638 26.6537C31.0185 26.6537 31.1289 26.5648 31.1289 26.428C31.14 26.3254 31.0737 26.2296 30.9632 26.1612ZM22.205 39.8027C20.7582 39.8027 19.9961 39.0296 19.9961 37.5587C19.9961 34.5622 23.0775 29.7049 26.2307 27.721C27.8432 28.7472 28.6218 30.1017 28.6218 31.8599C28.6218 33.5634 27.8211 35.5611 26.4792 37.203C25.1484 38.8381 23.5524 39.8027 22.205 39.8027Z" fill="#999999"/>
<path d="M42.6923 28.9387C42.8911 28.9387 43.0457 28.7471 43.0457 28.5008C43.0457 28.2682 42.8856 28.0767 42.6923 28.0767C42.499 28.0767 42.3389 28.2682 42.3389 28.5008C42.3444 28.7471 42.499 28.9387 42.6923 28.9387Z" fill="#999999"/>
<path d="M52.7871 30.4163C52.7595 30.3206 52.7374 30.2248 52.6545 30.2248C52.6159 30.2248 52.5993 30.2385 52.5717 30.2727C52.0526 30.9431 51.4783 31.292 50.9095 31.292C50.2303 31.292 49.6504 30.7652 49.2749 29.8006C49.1921 29.5885 49.1203 29.4038 49.0044 29.3559C48.9933 29.3491 48.9767 29.3491 48.9657 29.3423C48.9602 29.308 48.9436 29.267 48.927 29.2328C48.8166 29.0207 48.535 28.8565 48.2644 28.8565C47.4913 28.8565 46.7789 29.568 46.3647 30.3548C45.1775 31.8256 44.1006 32.5782 43.1508 32.5782C42.698 32.5782 42.4992 32.3319 42.4992 31.7504C42.4992 31.463 42.5434 31.1484 42.5875 30.8405C42.6262 30.56 42.6648 30.2932 42.6648 30.0674C42.6648 29.657 42.5268 29.4449 42.2507 29.4449C41.9304 29.4449 41.6101 29.869 41.3947 30.1495C41.3726 30.1837 41.3506 30.2111 41.3285 30.2316L41.3064 30.2658C39.8761 32.1745 38.3299 33.4128 36.8279 33.8575C36.4413 32.8997 36.1045 31.6957 35.8615 30.3548C37.7887 27.9193 39.4067 23.924 39.4067 21.5979C39.4067 20.0586 38.6171 19.3745 37.8384 19.3745C37.2531 19.3745 36.6732 19.7234 36.2039 20.3528C35.4142 21.3995 34.9779 23.3767 34.9779 25.9285C34.9779 27.4062 35.127 28.966 35.3866 30.4095C34.8343 31.0594 34.1165 31.4425 33.4372 31.4425C33.4262 31.4425 33.4096 31.4425 33.3986 31.4425C33.6084 30.9157 33.7299 30.2864 33.7299 29.6912C33.7299 28.6581 33.2053 28.2955 32.7525 28.2955C32.1782 28.2955 31.5597 28.8565 31.5597 29.7596C31.5597 29.9648 31.5928 30.1701 31.6536 30.389C31.4768 30.6216 31.3774 30.9363 31.3774 31.2783C31.3774 31.9214 31.7198 32.6055 32.2223 32.6055C32.5979 32.6055 32.9513 32.3319 33.2219 31.8256C33.2936 31.8325 33.3544 31.8325 33.4262 31.8325C34.1441 31.8325 34.884 31.4562 35.4639 30.8063C35.6958 31.983 36.0051 33.0708 36.3695 33.9601C36.0548 34.0217 35.7179 34.0422 35.359 34.0285C34.8399 34.008 34.5472 34.0764 34.4036 34.2474C34.3374 34.3295 34.3042 34.4253 34.3042 34.5416C34.3042 34.6921 34.4147 34.8563 34.7294 34.8563C34.9558 34.8563 35.232 34.7742 35.5357 34.61C35.8394 34.4458 36.1763 34.3569 36.5297 34.3501C37.1813 35.7457 37.9268 36.4846 38.6999 36.4846C39.1306 36.4846 39.3846 36.1904 39.473 35.9441C39.5172 35.8141 39.5448 35.6773 39.5448 35.5541C39.5448 34.699 38.4956 34.1927 37.3414 34.0285C39.4454 33.1734 41.0413 31.1347 41.4997 30.5053C41.5328 30.4642 41.5659 30.4232 41.5991 30.3753C41.7702 30.1495 42.0077 29.8417 42.212 29.8417C42.2396 29.8417 42.2452 29.9238 42.2452 29.9922C42.2452 30.1427 42.2175 30.3548 42.1789 30.6011C42.1347 30.9294 42.0795 31.3057 42.0795 31.6615C42.0795 32.5235 42.4108 32.9613 43.068 32.9613C43.9902 32.9613 44.9842 32.3729 46.0279 31.2168C45.9948 31.3741 45.9782 31.5178 45.9782 31.6546C45.9782 31.9283 46.05 32.154 46.1825 32.3114C46.315 32.4687 46.5083 32.5508 46.7513 32.5508C46.7789 32.5508 46.812 32.5508 46.8396 32.5508C47.5354 32.5098 48.2368 31.7093 48.927 30.1632C49.4296 31.1826 50.0922 31.723 50.8433 31.723C51.4894 31.723 52.1575 31.2989 52.765 30.5053L52.7981 30.4574L52.7871 30.4163ZM46.8286 32.1472C46.5415 32.1472 46.3923 31.9693 46.3923 31.6204C46.3923 30.731 47.3035 29.2533 48.2699 29.2533C48.3969 29.2533 48.5515 29.3286 48.6012 29.4791L48.6068 29.4859C48.6233 29.5338 48.6565 29.6022 48.7117 29.6364C48.7117 29.6433 48.7117 29.6501 48.7172 29.657L48.7006 29.7048L48.7282 29.6843C48.7338 29.7117 48.7448 29.7322 48.7559 29.7527C48.3914 30.6831 47.6901 32.1472 46.8286 32.1472ZM39.1748 35.8209C39.1141 35.9646 38.9429 36.0467 38.722 36.0467C38.1422 36.0467 37.5678 35.4789 37.0488 34.398C38.1311 34.4937 39.23 34.9179 39.23 35.5678C39.23 35.6362 39.2135 35.732 39.1748 35.8209ZM37.8274 19.7371C38.606 19.7371 39.1141 20.476 39.1141 21.6185C39.1141 23.8213 37.601 27.5909 35.7786 29.9443C35.5467 28.5076 35.4252 27.0436 35.4252 25.689C35.4252 23.3972 35.7731 21.6116 36.4082 20.6744C36.7947 20.086 37.3249 19.7371 37.8274 19.7371ZM32.2389 32.2293C31.9076 32.2293 31.6867 31.7367 31.6867 31.2783C31.6867 31.162 31.7032 30.9636 31.7861 30.7926C32.0346 31.292 32.4156 31.6341 32.8905 31.7709C32.7359 32.0035 32.515 32.2293 32.2389 32.2293ZM32.0125 30.5189C32.0346 30.4916 32.0512 30.4711 32.0953 30.4163C32.134 30.3684 32.1506 30.3206 32.1506 30.2658C32.1506 30.1632 32.0898 30.0948 32.0015 30.0948C31.9738 30.0948 31.9352 30.1085 31.9021 30.129C31.88 30.0195 31.8744 29.9101 31.8744 29.8075C31.8744 29.0891 32.3383 28.6444 32.769 28.6444C33.1004 28.6444 33.4483 28.9181 33.4483 29.6912C33.4483 30.2795 33.3157 30.9158 33.0893 31.422C32.6034 31.3194 32.2279 31.0047 32.0125 30.5189Z" fill="#999999"/>
<g opacity="0.9992">
<path opacity="0.9992" d="M16.5392 46.4936C16.1968 46.8015 15.7495 46.8152 15.4624 46.3226C15.1807 45.8437 15.3133 45.3374 15.6667 45.0227C16.0256 44.7012 16.4619 44.7286 16.7435 45.2006C17.0031 45.6453 16.9147 46.1516 16.5392 46.4936ZM15.871 45.3511C15.6336 45.57 15.5286 45.8642 15.6833 46.131C15.8544 46.4252 16.114 46.3499 16.3349 46.1516C16.5668 45.9395 16.6828 45.659 16.5116 45.3717C16.3514 45.1048 16.1085 45.139 15.871 45.3511Z" fill="#999999"/>
<path opacity="0.9992" d="M17.5443 48.2655L17.097 48.7786L16.8816 48.4844L18.0026 47.2051L18.4554 47.8139C18.6818 48.115 18.6653 48.4365 18.4941 48.6281C18.345 48.7991 18.1848 48.7923 18.0799 48.7307C18.113 48.8196 18.1296 48.9907 17.9308 49.2233L17.8756 49.2848C17.7983 49.3738 17.7154 49.4695 17.6768 49.5448L17.4669 49.2575C17.5001 49.1754 17.5774 49.0796 17.6989 48.9428L17.7154 48.9222C17.8369 48.7854 17.8701 48.676 17.6989 48.457L17.5443 48.2655ZM17.7375 48.0466L17.9253 48.2997C18.0468 48.4639 18.1462 48.4707 18.24 48.3612C18.3339 48.2586 18.3284 48.1287 18.218 47.9781L18.0247 47.7182L17.7375 48.0466Z" fill="#999999"/>
<path opacity="0.9992" d="M19.7477 51.9256L19.5654 51.7272C19.5875 51.6725 19.6152 51.6177 19.6428 51.563C19.5047 51.604 19.3501 51.5356 19.1899 51.3646C18.8586 51.0089 18.8862 50.4958 19.1734 50.0853C19.4716 49.6543 19.9023 49.5517 20.2612 49.9416C20.5594 50.2632 20.5871 50.6531 20.4435 50.9268L20.195 50.66C20.2392 50.5368 20.2557 50.3589 20.0901 50.1811C19.8526 49.9279 19.6152 50.099 19.4384 50.3521C19.2673 50.5984 19.1734 50.9199 19.4053 51.1662C19.6207 51.392 19.7863 51.2551 19.8747 51.1252L19.8857 51.1115L19.6317 50.8378L19.8084 50.5847L20.3054 51.1183L19.7477 51.9256Z" fill="#999999"/>
<path opacity="0.9992" d="M21.4485 52.9584L21.1503 53.2321L20.8853 53.0063L22.1719 51.8091L22.5143 52.0964L22.1001 54.0325L21.813 53.7931L21.9069 53.3484L21.4485 52.9584ZM22.0007 53.0268C22.0946 52.6232 22.1498 52.3632 22.1995 52.199C22.0836 52.329 21.8848 52.5206 21.6584 52.7395L22.0007 53.0268Z" fill="#999999"/>
<path opacity="0.9992" d="M23.3149 54.9422L24.0218 53.2729L24.3807 53.5055C24.3918 53.9913 24.4139 54.867 24.3973 55.0927H24.4028C24.4636 54.908 24.585 54.6207 24.701 54.347L24.9109 53.8545L25.1759 54.0255L24.4691 55.6948L24.1267 55.469C24.1212 55.0517 24.1046 54.046 24.1212 53.8134H24.1157C24.066 53.9639 23.9224 54.3128 23.7954 54.607L23.58 55.1132L23.3149 54.9422Z" fill="#999999"/>
<path opacity="0.9992" d="M26.7941 54.9015L26.2197 56.6528L25.916 56.5023L26.4903 54.751L26.7941 54.9015Z" fill="#999999"/>
<path opacity="0.9992" d="M29.0525 57.2136C28.9144 57.5283 28.6493 57.6993 28.2849 57.5625C27.821 57.3914 27.6995 56.9057 27.8265 56.3926C27.948 55.9 28.2793 55.5374 28.7487 55.7085C29.1353 55.8521 29.2568 56.201 29.2181 56.5226L28.9034 56.4063C28.9089 56.2558 28.8592 56.0847 28.6659 56.0163C28.4064 55.9206 28.2352 56.1737 28.1579 56.5021C28.0861 56.8099 28.0916 57.1588 28.3732 57.2683C28.5775 57.3435 28.688 57.1999 28.7377 57.1041L29.0525 57.2136Z" fill="#999999"/>
<path opacity="0.9992" d="M32.377 58.1442L32.2224 58.5615L31.9021 58.5204L32.5813 56.7144L32.99 56.7691L33.3655 58.7189L33.0231 58.671L32.9348 58.2194L32.377 58.1442ZM32.8906 57.8774C32.8188 57.4669 32.7691 57.2069 32.747 57.029C32.6918 57.2069 32.5924 57.4943 32.4764 57.8226L32.8906 57.8774Z" fill="#999999"/>
<path opacity="0.9992" d="M34.7847 58.8076L34.7571 56.9195L35.1657 56.9126C35.359 57.3299 35.7235 58.0893 35.7953 58.2946H35.8008C35.7787 58.0962 35.7787 57.7678 35.7732 57.4599L35.7676 56.8989L36.0658 56.8921L36.0935 58.7803L35.7069 58.7871C35.5357 58.4245 35.1381 57.5557 35.0608 57.3368H35.0553C35.0663 57.501 35.0774 57.8909 35.0829 58.2261L35.0884 58.8008L34.7847 58.8076Z" fill="#999999"/>
<path opacity="0.9992" d="M37.4851 56.7896L38.087 56.7007C38.5288 56.6323 38.8491 56.947 38.9043 57.5011C38.9596 58.0484 38.7221 58.5068 38.2582 58.5752L37.6729 58.6641L37.4851 56.7896ZM37.9656 58.281L38.2085 58.2468C38.4957 58.2057 38.6006 57.9184 38.5619 57.549C38.5343 57.2411 38.3852 56.9812 38.087 57.029L37.8385 57.0632L37.9656 58.281Z" fill="#999999"/>
<path opacity="0.9992" d="M42.1348 57.5965L41.6709 55.7973L42.0575 55.6399C42.3446 55.9683 42.8637 56.5635 42.9852 56.7345H42.9907C42.9244 56.5567 42.8471 56.242 42.7698 55.9478L42.6318 55.4142L42.9134 55.3047L43.3773 57.1039L43.0073 57.2476C42.7588 56.9603 42.1734 56.2693 42.0464 56.0914H42.0409C42.0906 56.2419 42.19 56.6114 42.2728 56.9329L42.4164 57.4802L42.1348 57.5965Z" fill="#999999"/>
<path opacity="0.9992" d="M44.9676 55.8523L45.0063 56.3107L44.7136 56.4749L44.5535 54.4909L44.929 54.2788L46.05 55.7223L45.7352 55.9002L45.4757 55.565L44.9676 55.8523ZM45.299 55.2982C45.067 54.9903 44.9179 54.7919 44.8296 54.6619C44.8572 54.8535 44.8848 55.1613 44.9235 55.5102L45.299 55.2982Z" fill="#999999"/>
<path opacity="0.9992" d="M46.7568 53.4918L46.3537 53.7791L46.2212 53.4918L47.3035 52.7119L47.4361 52.9992L47.0385 53.2866L47.668 54.6275L47.3809 54.8327L46.7568 53.4918Z" fill="#999999"/>
<path opacity="0.9992" d="M48.6177 51.6246L49.1533 52.5276C49.3245 52.8218 49.5012 52.7944 49.6338 52.6781C49.7829 52.5413 49.8215 52.3497 49.6559 52.0761L49.1202 51.173L49.3853 50.9336L49.9154 51.823C50.2247 52.3429 50.059 52.6986 49.7884 52.9449C49.5123 53.1981 49.192 53.2733 48.8883 52.7671L48.3582 51.8708L48.6177 51.6246Z" fill="#999999"/>
<path opacity="0.9992" d="M51.3071 50.386L51.7213 50.9401L51.4838 51.2137L50.4512 49.825L50.9427 49.264C51.1856 48.9835 51.4397 49.004 51.5998 49.2161C51.7379 49.4008 51.7323 49.5992 51.6826 49.7292C51.7544 49.6881 51.8925 49.6676 52.0802 49.9139L52.1299 49.9823C52.2017 50.0781 52.279 50.1807 52.3453 50.2286L52.1134 50.4886C52.0471 50.4475 51.9698 50.3518 51.8593 50.2012L51.8428 50.1807C51.7323 50.0302 51.644 49.996 51.4673 50.2012L51.3071 50.386ZM51.1304 50.1465L51.3347 49.9139C51.4673 49.7634 51.4728 49.6402 51.3844 49.5239C51.3016 49.4145 51.1912 49.4145 51.0752 49.5513L50.8653 49.7908L51.1304 50.1465Z" fill="#999999"/>
<path opacity="0.9992" d="M53.3282 48.3063L53.516 48.7031L53.3061 49.0041L52.4944 47.2869L52.765 46.897L54.267 47.629L54.0406 47.9505L53.6927 47.7795L53.3282 48.3063ZM53.4442 47.6358C53.1294 47.4785 52.9306 47.3759 52.8036 47.3006C52.892 47.458 53.0245 47.7248 53.1736 48.0258L53.4442 47.6358Z" fill="#999999"/>
<path opacity="0.9992" d="M53.875 45.1594L54.0628 44.8242L55.0899 45.7136L55.5206 44.9405L55.7194 45.1731L55.1175 46.2404L53.875 45.1594Z" fill="#999999"/>
</g>
</svg>
