<svg width="70" height="70" viewBox="0 0 70 70" fill="none" xmlns="http://www.w3.org/2000/svg">
<path d="M8.18837 23.2703C8.09126 23.2703 7.99415 23.3176 7.99415 23.3649C7.99415 23.4121 7.99415 23.5067 7.99415 23.6013C8.0427 23.8378 8.09126 24.0743 8.13982 24.3108C8.18837 24.5 8.18837 24.7365 8.13982 24.9729C8.09126 25.2094 8.04271 25.4932 7.94559 25.7297C7.70282 26.3919 7.31437 26.9121 6.82881 27.2905C6.34325 27.6689 5.76058 27.9054 5.08079 27.9527C4.40101 28 3.67268 27.9054 2.89578 27.5743C2.11889 27.2905 1.48766 26.9121 1.0021 26.3919C0.516546 25.8716 0.22521 25.3513 0.0795421 24.7365C-0.0661255 24.1216 -0.0175689 23.5067 0.273766 22.8446C0.419434 22.4189 0.613656 22.0878 0.856435 21.8513C1.09921 21.6148 1.39055 21.3783 1.68189 21.1892C1.779 21.1419 1.82756 21.0946 1.87611 21C1.92467 20.8581 1.779 20.7162 1.34199 20.527L1.43911 20.2905C1.87611 20.4797 2.70156 20.8108 3.8669 21.2365L3.76979 21.473C3.4299 21.4257 3.18712 21.3784 2.99289 21.3311C2.79867 21.2838 2.653 21.2838 2.50734 21.3311C2.36167 21.3311 2.216 21.3783 2.02178 21.4256C1.68189 21.5202 1.34199 21.7094 1.09921 21.9932C0.856435 22.277 0.613658 22.5608 0.46799 22.9392C0.273767 23.3648 0.273767 23.8378 0.46799 24.2635C0.662214 24.6892 0.953549 25.1148 1.43911 25.5405C1.92467 25.9189 2.55589 26.25 3.28423 26.5338C4.06112 26.8176 4.74091 26.9594 5.37213 26.9594C6.00336 26.9594 6.53747 26.8648 6.92592 26.5811C7.36292 26.3446 7.65426 26.0135 7.79993 25.5405C7.94559 25.2094 7.99415 24.8311 7.99415 24.4527C7.99415 24.0743 7.89704 23.7432 7.70282 23.4595C7.55715 23.2703 7.41148 23.0811 7.21726 22.9392C7.02303 22.7973 6.68314 22.6081 6.24614 22.3716L6.34325 22.1351C7.55715 22.6081 8.3826 22.8919 8.86815 23.0338L8.77104 23.2703C8.47971 23.3175 8.33404 23.2703 8.18837 23.2703Z" fill="white"/>
<path d="M7.94569 11.73C8.52836 11.5408 9.15958 11.5408 9.83936 11.6827C10.5191 11.8719 11.1504 12.203 11.7816 12.7232C12.4128 13.2435 12.8984 13.8111 13.1897 14.4259C13.4811 15.0408 13.5782 15.703 13.4811 16.3178C13.3839 16.9327 13.1412 17.5003 12.7042 18.0205C12.2186 18.5408 11.733 18.9192 11.1018 19.1084C10.5191 19.2976 9.88792 19.2975 9.20814 19.1557C8.52835 18.9665 7.89713 18.6354 7.2659 18.1151C6.63467 17.5948 6.14912 17.0273 5.85778 16.4124C5.56645 15.7976 5.46933 15.1354 5.56645 14.5205C5.66356 13.9057 5.90634 13.3381 6.34334 12.8178C6.8289 12.2503 7.36302 11.9192 7.94569 11.73ZM6.052 14.2368C6.052 14.7097 6.24623 15.23 6.58612 15.7502C6.92601 16.2705 7.36301 16.7908 7.99424 17.2638C8.57691 17.7367 9.20814 18.1151 9.79081 18.3043C10.3735 18.4935 10.9562 18.5881 11.4417 18.4935C11.9273 18.3989 12.3157 18.2097 12.607 17.8786C12.8984 17.5002 13.0441 17.1219 13.0441 16.6016C13.0441 16.1286 12.8498 15.6084 12.5099 15.0881C12.17 14.5678 11.733 14.0476 11.1018 13.5746C10.5191 13.1016 9.88792 12.7232 9.30525 12.534C8.72258 12.3448 8.18846 12.2503 7.65435 12.3449C7.16879 12.4395 6.78035 12.6286 6.48901 12.9597C6.19768 13.3381 6.052 13.7638 6.052 14.2368Z" fill="white"/>
<path d="M17.6083 12.3918C18.1425 12.6283 18.6766 12.5337 19.2593 12.2026C19.4535 12.0607 19.6477 11.9188 19.7934 11.6824C19.939 11.4932 19.9876 11.2567 19.9876 10.9729C19.9876 10.7364 19.8905 10.4526 19.6963 10.1688C19.5506 9.93235 19.3564 9.74318 19.1136 9.64858C18.8708 9.55399 18.5795 9.45939 18.2881 9.41209C17.9968 9.3648 17.6083 9.36478 17.1228 9.36478C16.5887 9.36478 16.1517 9.36479 15.8118 9.31749C15.4719 9.2702 15.132 9.17561 14.8407 9.03372C14.5493 8.89183 14.258 8.65534 14.0638 8.32426C13.821 7.99318 13.7239 7.6148 13.7239 7.28372C13.7239 6.95264 13.821 6.62155 14.0152 6.33777C14.2094 6.05399 14.4522 5.8175 14.7921 5.62831C14.9863 5.48642 15.1806 5.4391 15.3262 5.34451C15.4719 5.29721 15.6176 5.24994 15.7632 5.24994C15.9089 5.24994 16.006 5.24994 16.2002 5.24994C16.3945 5.24994 16.5401 5.24992 16.5887 5.20262C16.6372 5.15533 16.6858 5.10805 16.6372 5.01345C16.6372 4.91886 16.5887 4.82424 16.4916 4.63505L16.7343 4.49316C16.9286 4.87154 17.317 5.53372 17.8997 6.43237L17.6569 6.57426C17.4141 6.29047 17.1713 6.00667 16.88 5.81748C16.5887 5.62829 16.2973 5.48642 15.9574 5.48642C15.6176 5.43913 15.2777 5.53371 14.9378 5.7702C14.695 5.91209 14.5493 6.05397 14.4037 6.29046C14.3066 6.47964 14.2094 6.71615 14.258 6.90534C14.258 7.14183 14.3551 7.331 14.4522 7.56749C14.6464 7.89857 14.9378 8.08775 15.2777 8.18235C15.6176 8.27694 16.006 8.27695 16.3459 8.27695C16.7343 8.27695 16.9771 8.27695 17.1228 8.27695C17.7055 8.27695 18.1425 8.27697 18.4824 8.32426C18.8222 8.37156 19.1621 8.46614 19.4535 8.60803C19.7448 8.74993 19.9876 8.98641 20.1818 9.31749C20.4246 9.69587 20.5703 10.0743 20.5217 10.4526C20.5217 10.831 20.376 11.1621 20.1818 11.4932C19.939 11.8242 19.6477 12.108 19.3078 12.3445C19.0165 12.5337 18.7251 12.6756 18.4824 12.7229C18.2396 12.7702 17.9968 12.8175 17.754 12.8175C17.5598 12.8175 17.4141 12.8175 17.3656 12.8648C17.317 12.9121 17.2685 12.9594 17.317 13.054C17.317 13.1486 17.3656 13.2432 17.4627 13.4324L17.2199 13.5743C17.0257 13.2432 16.5401 12.4864 15.8118 11.304L16.0546 11.1621C16.5887 11.777 17.0742 12.1553 17.6083 12.3918Z" fill="white"/>
<path d="M30.0385 0.520414C29.9414 0.615008 29.8443 0.709591 29.8443 0.804186C29.8443 0.946078 29.8443 1.13526 29.9414 1.41905L31.2038 6.71635C31.2524 7.00013 31.3495 7.18933 31.3981 7.28392C31.4952 7.37852 31.5923 7.47309 31.6894 7.47309C31.8351 7.47309 32.0293 7.47311 32.2721 7.42581L32.3206 7.66229C31.9807 7.70959 31.4952 7.80417 30.9125 7.94607C30.2813 8.08796 29.7957 8.22986 29.5044 8.27715L29.4558 8.04067C29.6986 7.99337 29.8928 7.89878 29.9899 7.80418C30.087 7.70959 30.1356 7.615 30.1842 7.52041C30.1842 7.37852 30.1842 7.18933 30.087 6.90555L28.7275 1.18256L27.7564 8.70284L27.5621 8.75013L23.1436 2.45959L24.5031 8.08798C24.5517 8.37177 24.6488 8.56095 24.7459 8.70284C24.843 8.84473 24.9401 8.89203 25.0858 8.93933C25.2315 8.98662 25.4742 8.93931 25.7656 8.89201L25.8141 9.1285C25.5714 9.1758 25.1829 9.22309 24.6973 9.36499C24.2603 9.45958 23.9204 9.55419 23.6777 9.64879L23.6291 9.4123C23.8719 9.365 24.0661 9.27041 24.1632 9.17581C24.2603 9.08122 24.3089 8.98663 24.3575 8.79744C24.3575 8.65555 24.3575 8.41904 24.2603 8.18255L22.9979 2.97985C22.9493 2.69607 22.8522 2.5069 22.8037 2.41231C22.7066 2.31771 22.6094 2.2231 22.5123 2.2231C22.3667 2.2231 22.1724 2.22309 21.9297 2.27039L21.8811 2.0339C22.1239 1.98661 22.4638 1.93933 22.9008 1.84473C23.2892 1.75014 23.5806 1.65554 23.8233 1.60825L27.7078 7.28392L28.5818 0.5677L29.1159 0.425813C29.6986 0.283922 30.1842 0.189321 30.524 0.0947266L30.5726 0.331213C30.3298 0.37851 30.1356 0.473116 30.0385 0.520414Z" fill="white"/>
<path d="M40.915 6.99999C40.8665 7.42567 40.8179 7.89864 40.8179 8.41891C40.3324 8.32432 39.4583 8.22975 38.2445 8.08786C36.7878 7.94596 35.7195 7.80407 34.9912 7.75677L35.0398 7.52028C35.3311 7.52028 35.5253 7.52028 35.6224 7.52028C35.7681 7.47298 35.8652 7.42569 35.9138 7.2838C35.9623 7.1419 36.0109 6.95271 36.0594 6.71622L36.6907 1.27703C36.7392 0.993249 36.7392 0.804066 36.6907 0.662174C36.6421 0.520282 36.5936 0.42567 36.4479 0.378373C36.3508 0.331075 36.1566 0.283784 35.8652 0.236486L35.9138 0C36.6421 0.0945946 37.7103 0.236481 39.167 0.378373C40.2838 0.520265 41.0607 0.567562 41.4977 0.614859C41.4006 1.08783 41.3035 1.51351 41.2549 1.89189C41.2064 2.17568 41.2064 2.41217 41.2064 2.55407L40.9636 2.50675C40.9636 2.03378 40.915 1.65541 40.8665 1.41892C40.8179 1.18243 40.6722 0.993237 40.5266 0.851346C40.3324 0.709454 40.041 0.662156 39.6526 0.614859L38.73 0.520288C38.4387 0.47299 38.2445 0.47299 38.1473 0.520288C38.0017 0.567585 37.9046 0.614882 37.856 0.756774C37.8074 0.851369 37.7589 1.08783 37.7103 1.32432L37.419 3.87838L38.1473 3.97298C38.5358 4.02028 38.7786 3.92569 38.9242 3.7365C39.0699 3.54731 39.167 3.31081 39.2156 3.07432C39.2641 2.83784 39.3127 2.69596 39.3127 2.64867L39.5555 2.69595C39.5069 3.07433 39.4584 3.40542 39.4098 3.7365L39.3612 4.25676C39.3127 4.63514 39.2641 5.1554 39.2641 5.81756L39.0213 5.77028C39.0213 5.72298 39.0213 5.5338 39.0213 5.25002C39.0213 4.96623 38.9242 4.68245 38.7786 4.54056C38.6329 4.39867 38.3901 4.25677 38.0988 4.20947L37.3704 4.11487L37.0791 6.71622C37.0306 7.00001 37.0306 7.18919 37.0791 7.33108C37.1277 7.47297 37.1762 7.56758 37.3219 7.61488C37.419 7.66218 37.6132 7.70947 37.9046 7.75677L38.73 7.85137C39.2156 7.89867 39.5555 7.89865 39.7982 7.80405C40.041 7.70946 40.2352 7.52028 40.3809 7.2838C40.5266 7.04731 40.6237 6.66892 40.7694 6.14865L41.0121 6.19596C40.9636 6.43245 40.915 6.66891 40.915 6.99999Z" fill="white"/>
<path d="M46.0134 3.21641C46.2076 2.83803 46.3533 2.36506 46.4989 1.89209C47.0816 2.17587 48.0527 2.60156 49.4123 3.16912C50.7718 3.73669 51.743 4.16235 52.3256 4.39884C52.0829 4.87181 51.8401 5.2975 51.6944 5.67587C51.5487 6.00695 51.4516 6.29073 51.3545 6.52722L51.1117 6.43265C51.306 5.86508 51.4031 5.48668 51.4031 5.2029C51.4516 4.91912 51.3545 4.68264 51.2089 4.44616C51.0632 4.25697 50.7719 4.06777 50.3349 3.87858L49.7522 3.6421L47.1787 9.36506C47.0331 9.64884 46.9845 9.83804 46.9845 10.0272C46.9845 10.1691 47.0331 10.311 47.1787 10.4056C47.2758 10.5002 47.5186 10.6421 47.8099 10.784L47.7128 10.9732C47.3729 10.784 46.8388 10.5948 46.2076 10.311C45.5278 10.0272 44.9937 9.79074 44.6538 9.69614L44.7509 9.50697C45.0423 9.64886 45.285 9.69614 45.4793 9.69614C45.6249 9.69614 45.7706 9.64885 45.9163 9.55426C46.0134 9.45966 46.159 9.27047 46.2562 8.98668L48.8296 3.26372L48.2469 3.02724C47.8099 2.83805 47.4701 2.79075 47.2273 2.79075C46.9845 2.83805 46.7417 2.93264 46.5475 3.16912C46.3533 3.40561 46.1105 3.73668 45.8192 4.25695L45.5764 4.16235C45.722 3.83127 45.8677 3.54749 46.0134 3.21641Z" fill="white"/>
<path d="M57.7638 8.46595C57.6181 8.41865 57.521 8.46594 57.4239 8.51324C57.3268 8.60783 57.1811 8.74974 56.9869 8.93893L53.5394 13.243C53.3452 13.4795 53.2481 13.6214 53.1996 13.7633C53.151 13.9051 53.151 13.9997 53.2481 14.1416C53.2967 14.2362 53.4423 14.3781 53.6851 14.5673L53.5394 14.7565C53.2967 14.52 52.9082 14.2362 52.4227 13.8578C51.8885 13.4794 51.5487 13.1957 51.2573 13.0065L51.403 12.8173C51.6458 12.9592 51.7914 13.0538 51.9371 13.1011C52.0828 13.1484 52.1799 13.1011 52.277 13.0538C52.3741 12.9592 52.5198 12.8173 52.714 12.6281L56.1615 8.32407C56.3557 8.08758 56.4528 7.94567 56.5014 7.80378C56.5499 7.66189 56.5499 7.5673 56.4528 7.42541C56.4042 7.33081 56.2586 7.18891 56.0158 6.99972L56.1615 6.81055C56.4042 6.99974 56.7441 7.3308 57.2782 7.70918C57.7638 8.08756 58.1523 8.37136 58.4436 8.56055L58.2979 8.74972C58.1037 8.56054 57.9095 8.46595 57.7638 8.46595Z" fill="white"/>
<path d="M59.7547 20.8579C59.8032 20.7634 59.8032 20.6688 59.7547 20.6215C59.7061 20.5742 59.6576 20.5268 59.5605 20.4795C59.3177 20.385 59.0749 20.3377 58.8807 20.2431C58.6864 20.1485 58.4922 20.0539 58.298 19.912C58.1038 19.7701 57.9096 19.5809 57.7153 19.3444C57.2783 18.7769 57.0355 18.2093 56.9384 17.5944C56.8899 16.9796 56.987 16.3647 57.2783 15.7971C57.5697 15.1823 58.0552 14.662 58.735 14.1417C59.4148 13.6688 60.0946 13.3377 60.7744 13.1958C61.4541 13.0539 62.1339 13.1012 62.7166 13.2904C63.3478 13.4796 63.8334 13.8579 64.2704 14.4255C64.5617 14.7566 64.7074 15.0877 64.8045 15.4188C64.9016 15.7498 64.9502 16.0809 64.9502 16.4593C64.9502 16.5539 64.9502 16.6485 64.9987 16.6958C65.0958 16.8377 65.3386 16.7431 65.7271 16.5066L65.8727 16.6958C65.4843 16.9795 64.7559 17.4525 63.7848 18.2093L63.6391 18.0201C63.8819 17.7836 64.0762 17.5944 64.1733 17.4525C64.2704 17.3106 64.3675 17.1687 64.4646 17.0269C64.5132 16.885 64.6103 16.7431 64.6103 16.6012C64.7074 16.2701 64.7074 15.8917 64.6103 15.5606C64.5132 15.1823 64.3675 14.8512 64.0761 14.5674C63.7848 14.189 63.3964 13.9525 62.9108 13.8579C62.4253 13.7633 61.8911 13.8107 61.3085 13.9998C60.7258 14.189 60.0946 14.5201 59.4633 14.9931C58.8321 15.466 58.298 15.9863 58.0067 16.5066C57.6668 17.0269 57.5211 17.5471 57.4726 18.0201C57.4726 18.4931 57.6182 18.9187 57.9096 19.2971C58.1523 19.5809 58.3951 19.8174 58.735 20.0066C59.0749 20.1958 59.4148 20.2904 59.7547 20.2904C59.9975 20.2904 60.2402 20.2431 60.483 20.1485C60.7258 20.0539 61.0657 19.8647 61.5027 19.6282L61.6484 19.8174C60.6287 20.5742 59.9003 21.1417 59.5119 21.4728L59.3662 21.2836C59.5605 21.0944 59.7061 20.9525 59.7547 20.8579Z" fill="white"/>
<path d="M61.9884 24.6891C61.6485 25.162 61.6 25.6823 61.8427 26.2972C61.9398 26.5337 62.0855 26.7229 62.2312 26.912C62.4254 27.1012 62.6196 27.1958 62.8624 27.2431C63.1052 27.2904 63.3965 27.2431 63.7364 27.1485C64.0277 27.0539 64.222 26.912 64.4162 26.6756C64.5619 26.4864 64.7075 26.2026 64.8046 25.9188C64.9017 25.635 64.9989 25.2566 65.096 24.831C65.1931 24.3107 65.2902 23.9323 65.3873 23.6012C65.4844 23.2702 65.6301 22.9864 65.8729 22.7499C66.0671 22.5134 66.407 22.2769 66.7469 22.135C67.1353 21.9931 67.5238 21.9458 67.8637 22.0404C68.2036 22.135 68.4949 22.2769 68.7377 22.5134C68.9804 22.7499 69.1747 23.0337 69.3203 23.412C69.4175 23.6012 69.466 23.7904 69.466 23.9796C69.466 24.1688 69.5146 24.3107 69.466 24.4053C69.466 24.5472 69.4174 24.6418 69.3689 24.831C69.3203 25.0201 69.3203 25.162 69.3689 25.2566C69.3689 25.3039 69.466 25.3512 69.5146 25.3512C69.6117 25.3512 69.7088 25.3512 69.903 25.3039L70.0001 25.5404C69.5631 25.635 68.8348 25.9188 67.8151 26.2499L67.718 26.0134C68.0579 25.8715 68.3978 25.6823 68.6405 25.4458C68.8833 25.2093 69.0776 24.9256 69.1747 24.6418C69.2718 24.3107 69.2718 23.9796 69.1261 23.6485C69.029 23.412 68.8833 23.2229 68.7377 23.0337C68.5434 22.8918 68.3492 22.7972 68.155 22.7499C67.9122 22.7026 67.718 22.7499 67.4752 22.7972C67.0868 22.9391 66.844 23.1756 66.6983 23.4594C66.5527 23.7904 66.4555 24.1215 66.3584 24.4526C66.2613 24.831 66.2128 25.0674 66.2128 25.2093C66.1156 25.7296 65.97 26.1553 65.8729 26.4864C65.7758 26.8174 65.5815 27.1012 65.3873 27.3377C65.1931 27.5742 64.9018 27.7634 64.5133 27.9053C64.0763 28.0472 63.6879 28.0945 63.2994 27.9999C62.911 27.9053 62.6196 27.7161 62.3283 27.4796C62.037 27.1958 61.8427 26.8647 61.6971 26.4391C61.5514 26.108 61.5028 25.8242 61.5028 25.5877C61.5028 25.3512 61.5028 25.1148 61.5514 24.8783C61.5999 24.6891 61.5999 24.5472 61.5514 24.4526C61.5514 24.4053 61.4543 24.358 61.4057 24.358C61.3086 24.358 61.2115 24.358 61.0173 24.4053L60.9202 24.1688C61.3086 24.0742 62.1826 23.7431 63.4936 23.3174L63.5907 23.5539C62.8624 23.885 62.3283 24.2634 61.9884 24.6891Z" fill="white"/>
<path d="M4.3525 44.5067L3.81838 44.6486C4.30394 44.7432 4.59527 45.027 4.74094 45.5C4.83805 45.8311 4.83805 46.1621 4.69238 46.4932C4.54672 46.8243 4.20683 47.0135 3.76982 47.1554L1.82759 47.7702L1.68192 47.3919L3.52704 46.8243C3.86693 46.7297 4.10971 46.5405 4.25538 46.304C4.40105 46.0675 4.40105 45.831 4.30394 45.5473C4.20683 45.2635 4.06116 45.0743 3.81838 44.9324C3.5756 44.8378 3.28427 44.8378 2.89582 44.9324L1.05069 45.5L0.905029 45.0743L4.15827 44.0811L4.3525 44.5067Z" fill="white"/>
<path d="M4.25519 51.9324C4.40086 51.5067 4.69219 51.1757 5.1292 50.8919C5.5662 50.6554 6.0032 50.5608 6.4402 50.6554C6.87721 50.75 7.2171 51.0338 7.45988 51.4121C7.60555 51.6486 7.70266 51.9324 7.6541 52.2162C7.6541 52.5 7.55699 52.7365 7.41132 52.9257L8.04255 52.5473L8.28533 52.9257L5.32342 54.6283L5.08064 54.25L5.71186 53.8716C5.46909 53.8716 5.17775 53.8243 4.93498 53.7297C4.6922 53.5878 4.49797 53.3986 4.30375 53.1621C4.15808 52.7838 4.10952 52.3581 4.25519 51.9324ZM5.5662 53.6351C5.90609 53.7297 6.24598 53.6351 6.63443 53.4459C6.97432 53.2567 7.2171 52.9729 7.31421 52.6419C7.41132 52.3108 7.36276 51.9797 7.16854 51.6959C6.97432 51.4121 6.73154 51.223 6.39165 51.1284C6.05176 51.0338 5.71186 51.081 5.32342 51.3175C4.98353 51.5067 4.74075 51.7905 4.64364 52.1216C4.54653 52.4527 4.59508 52.7838 4.74075 53.0675C4.93497 53.3513 5.2263 53.5405 5.5662 53.6351Z" fill="white"/>
<path d="M11.4417 57.3241L10.8105 56.6147L9.11101 58.0809C8.96535 58.1755 8.91679 58.2701 8.91679 58.3647C8.91679 58.4593 8.96535 58.5539 9.06246 58.6958L9.40235 59.0742L9.15957 59.3106L8.77112 58.885C8.43123 58.5066 8.43124 58.1282 8.81968 57.7971L10.5191 56.3309L10.1792 55.9998L10.422 55.7633L10.7619 56.0944L11.3931 55.5269L11.6845 55.8579L11.0532 56.4255L11.6845 57.1349L11.4417 57.3241Z" fill="white"/>
<path d="M16.2484 60.9663L16.5883 61.2501L14.5004 63.8987L14.1605 63.6149L14.5004 63.1893C14.0634 63.3784 13.6264 63.2838 13.2379 63.0001C12.9466 62.7636 12.7524 62.4798 12.7038 62.1487C12.6553 61.8176 12.7524 61.4392 13.0437 61.1082L14.3062 59.5474L14.6461 59.7838L13.4322 61.2974C13.1894 61.5812 13.0923 61.8649 13.1408 62.1014C13.1408 62.3379 13.2865 62.5744 13.5293 62.7636C13.772 62.9528 14.0148 63.0001 14.3062 63.0001C14.5489 62.9528 14.8403 62.8109 15.0345 62.4798L16.2484 60.9663Z" fill="white"/>
<path d="M20.3759 63.4259L20.1331 63.8989C20.473 63.6151 20.91 63.5678 21.347 63.8043L21.1528 64.1827L21.0556 64.1354C20.7643 63.9935 20.5215 63.9935 20.3273 64.0408C20.1331 64.1354 19.8903 64.3246 19.7446 64.6557L18.8706 66.3583L18.4822 66.1692L20.036 63.1895L20.3759 63.4259Z" fill="white"/>
<path d="M24.2116 68.108C24.0174 67.7296 23.9688 67.2566 24.1145 66.7837C24.2602 66.3107 24.5029 65.9323 24.8914 65.6958C25.2798 65.4593 25.7168 65.412 26.1538 65.5539C26.4452 65.6485 26.6879 65.7904 26.8822 65.9796C27.0764 66.1688 27.1735 66.4053 27.2221 66.6418L27.4163 65.9323L27.8533 66.0269L26.9307 69.2431L26.4937 69.1485L26.6879 68.4391C26.4937 68.6283 26.2995 68.7702 26.0082 68.8647C25.7654 68.9593 25.474 68.9593 25.1827 68.8647C24.7457 68.7702 24.4058 68.4864 24.2116 68.108ZM26.348 68.4391C26.6394 68.2499 26.8822 67.9661 26.9793 67.5877C27.0764 67.2093 27.0764 66.831 26.8822 66.5472C26.6879 66.2634 26.4452 66.0269 26.1053 65.9323C25.7654 65.8377 25.4255 65.885 25.1342 66.0269C24.8428 66.2161 24.6 66.4526 24.5029 66.8783C24.4058 67.2566 24.4058 67.635 24.6 67.9188C24.7457 68.2499 25.037 68.4391 25.3769 68.5337C25.7168 68.6283 26.0082 68.581 26.348 68.4391Z" fill="white"/>
<path d="M31.4465 69.9527L31.835 65.4595L32.272 65.5068L31.8835 70L31.4465 69.9527Z" fill="white"/>
<path d="M42.6629 65.6961C43.1485 65.6016 43.5369 65.6488 43.9254 65.838C44.3138 66.0745 44.5566 66.4056 44.7023 66.9259C44.8479 67.3988 44.7994 67.8718 44.5566 68.2502C44.3138 68.6286 43.9739 68.9124 43.5369 69.007C43.2456 69.1016 42.9542 69.0543 42.7115 69.007C42.4687 68.9124 42.2259 68.7705 42.0802 68.5813L42.2745 69.2907L41.8375 69.3853L40.6721 64.9867L41.1091 64.8921L41.5947 66.7367C41.6432 66.5002 41.7404 66.2637 41.9346 66.0745C42.1288 65.9326 42.3716 65.7907 42.6629 65.6961ZM43.3913 68.7232C43.7311 68.6286 43.9739 68.4394 44.1681 68.1083C44.3624 67.7772 44.3624 67.4461 44.2653 67.0678C44.1681 66.6894 43.9739 66.4056 43.6826 66.2164C43.3912 66.0272 43.0514 65.9799 42.7115 66.0745C42.3716 66.1691 42.1288 66.3583 41.9346 66.6421C41.7404 66.9259 41.7404 67.3043 41.8375 67.6826C41.9346 68.061 42.1288 68.3448 42.4687 68.534C42.7115 68.7232 43.0514 68.7705 43.3913 68.7232Z" fill="white"/>
<path d="M50.5775 66.4054C50.1405 66.6419 49.7035 66.6419 49.315 66.5C48.878 66.3581 48.5867 66.027 48.3439 65.6013C48.1011 65.1284 48.0526 64.7027 48.1497 64.277C48.2953 63.8513 48.5867 63.5203 49.0237 63.3311C49.4607 63.0946 49.8977 63.0473 50.2861 63.1892C50.6746 63.3311 50.9659 63.5675 51.2087 63.9932C51.2572 64.0878 51.3058 64.1824 51.3544 64.277L48.8295 65.5067C49.0237 65.8378 49.2665 66.0743 49.5578 66.1689C49.8491 66.2635 50.1405 66.2162 50.4804 66.0743C50.7231 65.9797 50.8688 65.7905 51.0145 65.6013C51.1116 65.4122 51.1601 65.223 51.1601 65.0338L51.5971 64.8446C51.6457 65.1284 51.5971 65.4595 51.4515 65.6959C51.2087 66.027 50.9659 66.2635 50.5775 66.4054ZM50.7717 64.1824C50.5775 63.8513 50.3832 63.6622 50.0434 63.5676C49.752 63.473 49.4607 63.5203 49.1208 63.6622C48.8295 63.8041 48.6352 64.0405 48.5381 64.3243C48.441 64.6081 48.4896 64.9392 48.6352 65.2703L50.7717 64.1824Z" fill="white"/>
<path d="M55.6276 62.7634C55.1906 62.7161 54.7536 62.4796 54.4622 62.1012C54.1223 61.7228 53.9767 61.2971 54.0252 60.8715C54.0738 60.4458 54.268 60.0674 54.6079 59.7836C54.8507 59.5944 55.0934 59.4998 55.3848 59.4525C55.6761 59.4052 55.9189 59.4526 56.1617 59.5471L55.6761 58.9796L56.016 58.6958L58.201 61.2498L57.8611 61.5336L57.3756 60.9661C57.4241 61.2026 57.4241 61.4863 57.327 61.7228C57.2299 61.9593 57.0842 62.1958 56.8415 62.385C56.5016 62.7161 56.1131 62.8107 55.6276 62.7634ZM57.1328 61.2498C57.1814 60.9188 57.0357 60.5877 56.7929 60.2566C56.5016 59.9255 56.2102 59.7836 55.8703 59.7363C55.5305 59.689 55.1906 59.7836 54.9478 60.0201C54.6564 60.2566 54.5108 60.5404 54.5108 60.8715C54.4622 61.2025 54.6079 61.5336 54.8507 61.8647C55.142 62.1958 55.4333 62.3377 55.7732 62.385C56.1131 62.4323 56.453 62.3377 56.6958 62.1485C56.9871 61.8647 57.1328 61.5809 57.1328 61.2498Z" fill="white"/>
<path d="M60.2401 54.061L60.5315 53.73L63.2506 55.7638L62.9593 56.0948L62.5222 55.7638C62.7165 56.1894 62.6194 56.6151 62.328 56.9935C62.0852 57.2773 61.7939 57.4665 61.454 57.5138C61.1141 57.5611 60.7257 57.4665 60.3858 57.1827L58.7834 55.9529L59.0262 55.6219L60.58 56.8043C60.8713 57.0408 61.1627 57.1354 61.4055 57.0881C61.6482 57.0881 61.891 56.9462 62.0852 56.7097C62.2795 56.4732 62.3766 56.2367 62.328 55.9529C62.2795 55.7164 62.1338 55.4327 61.7939 55.2435L60.2401 54.061Z" fill="white"/>
<path d="M63.4934 49.2366L63.0564 50.0407L65.0958 51.0339C65.2414 51.1285 65.3871 51.1285 65.4842 51.1285C65.5813 51.0812 65.6784 51.0339 65.727 50.8447L65.9698 50.4191L66.2611 50.561L66.0183 51.0812C65.7756 51.5542 65.4357 51.6488 64.9501 51.4123L62.9108 50.4191L62.7165 50.8447L62.4252 50.7028L62.6194 50.2772L61.8425 49.8988L62.0367 49.5204L62.8136 49.8988L63.2506 49.0947L63.4934 49.2366Z" fill="white"/>
<path d="M68.0577 45.8782L64.416 46.2093L64.5617 45.7836L67.6693 45.5471L65.1929 43.7025L65.3386 43.2769L69.5629 46.5404L69.4173 46.966L68.0577 45.8782Z" fill="white"/>
<path d="M52.6656 34.9055C52.617 34.5271 52.3743 34.1487 51.9858 34.0069C50.869 33.5339 49.2667 32.7771 48.247 32.2568C48.7811 31.2636 49.6551 29.7028 50.2378 28.6623C50.432 28.3312 50.432 27.9055 50.2378 27.5271C50.0436 27.196 49.6551 26.9595 49.2667 26.9595L43.5371 26.8177C43.003 26.8177 42.4689 26.7704 41.9347 26.8177C41.7891 26.2974 41.5949 25.8244 41.4006 25.3515L39.507 20.1014C39.3613 19.7231 39.0214 19.4393 38.6329 19.392C38.2445 19.2974 37.8075 19.4393 37.5647 19.7231C36.7393 20.5744 35.5254 21.8514 34.6999 22.6555C33.8745 21.8514 32.6606 20.5744 31.8351 19.7231C31.5438 19.4393 31.1553 19.2974 30.7669 19.392C30.3784 19.4866 30.0386 19.7704 29.8929 20.1014L27.9992 25.3515C27.805 25.8244 27.6593 26.3447 27.4651 26.8177C26.931 26.8177 26.3483 26.8177 25.8627 26.8177L20.1332 26.9595C19.7447 26.9595 19.3563 27.196 19.162 27.5271C18.9678 27.8582 18.9678 28.2839 19.162 28.6623C19.7447 29.7028 20.6187 31.2163 21.1528 32.2568C20.0846 32.7771 18.4823 33.5339 17.414 34.0069C17.0256 34.1487 16.7828 34.5271 16.7342 34.9055C16.6857 35.2839 16.8799 35.7095 17.1712 35.946L21.6869 39.3514C22.0754 39.6352 22.5124 39.9663 22.998 40.2974C22.8037 40.8177 22.6581 41.2906 22.5124 41.8109L20.9101 47.1555C20.8129 47.5339 20.9101 47.9595 21.1528 48.2433C21.4442 48.5271 21.8326 48.669 22.2211 48.5744C23.3864 48.3379 25.183 48.0542 26.2998 47.8177C26.4454 48.9528 26.6882 50.6555 26.8339 51.8379C26.8824 52.2163 27.1252 52.5947 27.5137 52.7366C27.6593 52.7839 27.8535 52.8312 27.9992 52.8312C28.242 52.8312 28.4362 52.7839 28.679 52.642L33.3889 49.4731C33.8259 49.1893 34.2629 48.9055 34.6999 48.5744C35.1369 48.9055 35.5739 49.1893 36.0109 49.4731L40.7208 52.642C40.9151 52.7839 41.1578 52.8312 41.4006 52.8312C41.5463 52.8312 41.7405 52.7839 41.8862 52.7366C42.2746 52.5947 42.5174 52.2163 42.566 51.8379C42.7116 50.6555 42.9544 48.9528 43.1001 47.8177C44.2654 48.0069 46.0134 48.3379 47.1788 48.5744C47.5672 48.669 48.0042 48.5271 48.247 48.2433C48.5383 47.9595 48.6355 47.5339 48.4898 47.1555L46.8874 41.8109C46.7418 41.3379 46.5961 40.8177 46.4019 40.2974C46.8389 39.9663 47.2759 39.6825 47.7129 39.3514L52.2286 35.946C52.5685 35.7095 52.7141 35.3312 52.6656 34.9055ZM30.1357 26.1082L31.3981 22.6082C32.5635 23.7906 33.7774 25.0204 33.8259 25.0677C34.0201 25.3041 34.36 25.3987 34.6514 25.3987C34.9427 25.3987 35.2826 25.2568 35.4768 25.0677C35.5254 25.0204 36.7393 23.7906 37.9046 22.6082L39.1671 26.1082C39.2642 26.4393 39.4098 26.7703 39.507 27.1014C39.3127 27.1487 39.1671 27.196 38.9728 27.2433C37.1277 27.7636 35.6225 29.0406 34.6028 30.696C33.5831 29.0406 32.0779 27.7636 30.2328 27.2433C30.0386 27.196 29.8929 27.1487 29.6987 27.1014C29.8929 26.7703 29.99 26.4393 30.1357 26.1082ZM40.1382 29.7028C40.1867 31.642 38.9243 33.5812 37.0792 34.6217C36.7393 34.669 36.3508 34.7636 36.0109 34.8582C36.0109 34.4798 35.9624 34.1487 35.9138 33.7704C36.3994 31.7366 37.8561 29.9866 39.7497 29.419C39.8954 29.3717 39.9925 29.3717 40.1382 29.3244C40.0896 29.419 40.0896 29.5609 40.1382 29.7028ZM34.9427 45.2163C34.8456 45.3109 34.797 45.4055 34.6999 45.5001C34.6028 45.4055 34.5057 45.3109 34.4571 45.2163C33.2432 43.6555 33.1461 41.3852 33.9716 39.4933C34.2144 39.2568 34.4571 38.9731 34.6999 38.6893C34.9427 38.9731 35.1855 39.2568 35.4283 39.4933C36.2537 41.3852 36.1566 43.6555 34.9427 45.2163ZM29.2617 29.2771C29.4073 29.3244 29.5044 29.3244 29.6501 29.3717C31.5923 29.9393 33.049 31.6893 33.486 33.7231C33.4375 34.0541 33.3889 34.4325 33.3889 34.8109C33.049 34.7163 32.6606 34.6217 32.3207 34.5744C30.4756 33.5339 29.2131 31.642 29.2617 29.6555C29.2131 29.5609 29.2617 29.419 29.2617 29.2771ZM31.5923 36.7974C31.9322 36.9866 32.2721 37.1285 32.612 37.2231C32.4178 37.5068 32.2236 37.8379 32.0779 38.169C30.4756 39.5406 28.242 40.1555 26.3483 39.4933C26.2026 39.446 26.1055 39.3987 25.9599 39.3514C26.0084 39.2568 26.1055 39.1149 26.1541 39.0204C27.2709 37.3649 29.4559 36.5609 31.5923 36.7974ZM36.7393 37.2231C37.0792 37.0812 37.419 36.9393 37.7589 36.7974C39.8954 36.6082 42.0804 37.4122 43.1972 39.0204C43.2943 39.1149 43.3429 39.2568 43.3914 39.3514C43.2458 39.3987 43.1486 39.446 43.003 39.4933C41.1093 40.1555 38.8757 39.5406 37.2734 38.169C37.1277 37.8379 36.982 37.5068 36.7393 37.2231ZM23.0465 37.5541L20.036 35.2839C21.5413 34.5744 23.0951 33.8177 23.1922 33.7704C23.4835 33.6285 23.6777 33.392 23.7748 33.1082C23.872 32.8244 23.8234 32.4933 23.6777 32.2568C23.6292 32.1623 22.8523 30.696 22.0268 29.2298L25.8627 29.1352C26.2026 29.1352 26.5911 29.1352 26.931 29.1352C26.931 29.3244 26.8824 29.5136 26.8824 29.6555C26.8339 31.5001 27.6108 33.2974 28.9218 34.7636C27.0281 35.1893 25.2801 36.2298 24.2119 37.7433C24.1147 37.8852 24.0176 38.0271 23.9205 38.2163C23.6292 37.9798 23.3378 37.7433 23.0465 37.5541ZM28.9218 49.7096C28.679 48.0542 28.4362 46.3987 28.4362 46.3041C28.3877 46.0204 28.242 45.7366 27.9507 45.5474C27.7564 45.4055 27.5137 45.3109 27.2709 45.3109C27.2223 45.3109 27.1252 45.3109 27.0766 45.3109C26.9795 45.3109 25.2801 45.5947 23.6292 45.9258L24.6974 42.3785C24.7945 42.0474 24.8916 41.7163 24.9887 41.3852C25.1344 41.4325 25.3286 41.5271 25.5229 41.5744C26.2512 41.8109 27.0766 41.9528 27.8535 41.9528C28.9703 41.9528 30.0871 41.7163 31.1068 41.2906C30.9126 43.1825 31.3981 45.0744 32.5635 46.5879C32.6606 46.7298 32.8062 46.8717 32.9033 47.0136C32.612 47.2028 32.3207 47.392 32.0293 47.6285L28.9218 49.7096ZM44.6539 42.4258L45.7221 45.9731C44.0712 45.6893 42.3717 45.4055 42.2746 45.3582C41.9833 45.3109 41.6434 45.3582 41.4006 45.5474C41.1578 45.7366 40.9636 45.9731 40.9151 46.3041C40.9151 46.3987 40.6723 48.0542 40.4295 49.7096L37.2734 47.5812C36.982 47.392 36.6907 47.2028 36.3994 46.9663C36.4965 46.8244 36.6422 46.6825 36.7393 46.5406C37.9046 45.0744 38.3416 43.1352 38.1959 41.2433C39.2642 41.669 40.381 41.9055 41.4492 41.9055C42.2261 41.9055 43.0515 41.7636 43.7799 41.5271C43.9741 41.4798 44.1198 41.3852 44.314 41.3379C44.4596 41.7636 44.5568 42.0947 44.6539 42.4258ZM46.2562 37.5541C45.9649 37.7433 45.6735 37.9798 45.3822 38.169C45.2851 38.0271 45.188 37.8852 45.0909 37.696C44.0226 36.1825 42.2746 35.142 40.381 34.7163C41.6434 33.2974 42.4203 31.4528 42.4203 29.6082C42.4203 29.419 42.4203 29.2298 42.3717 29.0879C42.7116 29.0879 43.1001 29.0879 43.44 29.0879L47.2759 29.1825C46.4504 30.6487 45.6735 32.115 45.625 32.2096C45.4793 32.4933 45.4308 32.7771 45.5279 33.0609C45.625 33.3447 45.8192 33.5812 46.1105 33.7231C46.2077 33.7703 47.7614 34.5271 49.2667 35.2366L46.2562 37.5541Z" fill="white"/>
</svg>
