<svg width="80" height="70" viewBox="0 0 80 70" fill="none" xmlns="http://www.w3.org/2000/svg">
<path d="M15.6862 23.3625C15.6862 23.4063 15.7298 23.4938 15.7734 23.4938C15.817 23.5375 15.9041 23.5813 16.0348 23.625L18.6928 24.675L18.6492 24.7625L15.0327 25.4625L17.3856 26.3812C17.5163 26.425 17.6035 26.4688 17.647 26.4688C17.7342 26.4688 17.7778 26.4688 17.8213 26.425C17.8649 26.3813 17.9085 26.2937 17.952 26.1625L18.0392 26.2063C17.9956 26.2938 17.9085 26.4688 17.8649 26.6438C17.7778 26.8188 17.7342 26.95 17.7342 27.0813L17.647 27.0375C17.6906 26.95 17.6906 26.8625 17.6906 26.775C17.6906 26.7313 17.647 26.6438 17.6035 26.6438C17.5599 26.6 17.4727 26.5563 17.342 26.5125L15.207 25.6375C15.0762 25.5938 15.0326 25.55 14.9455 25.55C14.9019 25.55 14.8584 25.55 14.8148 25.5938C14.7712 25.6375 14.7276 25.725 14.6841 25.8125L14.5969 25.7688C14.6405 25.6813 14.6841 25.55 14.7712 25.375C14.8148 25.2438 14.8584 25.1125 14.9019 25.025L17.952 24.4125L16.0348 23.6688C15.9041 23.625 15.817 23.5813 15.7734 23.5813C15.6863 23.5813 15.6427 23.5813 15.5991 23.625C15.5555 23.6687 15.512 23.7563 15.4684 23.8875L15.3812 23.8438C15.4248 23.7563 15.512 23.5813 15.5555 23.4062C15.6427 23.2312 15.6862 23.1 15.6862 22.9688L15.7734 23.0125C15.6863 23.1875 15.6862 23.275 15.6862 23.3625Z" fill="#999999"/>
<path d="M20.6973 20.7812L20.7844 20.825C20.6973 20.9125 20.6101 21.0875 20.5229 21.2625C20.3922 21.4813 20.2615 21.6562 20.218 21.7875L20.1308 21.7438C20.1744 21.6563 20.218 21.5688 20.218 21.4813C20.218 21.4375 20.218 21.3937 20.1308 21.35C20.0872 21.3062 20.0001 21.3063 19.9129 21.2625L19.085 21.0875L18.475 22.0938L18.8236 22.5312C18.9108 22.6625 19.0415 22.75 19.1286 22.8375C19.2158 22.8813 19.3029 22.8812 19.3465 22.8812C19.4336 22.8375 19.4772 22.75 19.5644 22.6625L19.6515 22.7063C19.5643 22.8375 19.4336 23.0125 19.3465 23.1875C19.2594 23.3187 19.2158 23.4063 19.1722 23.4938L19.085 23.45C19.1286 23.275 19.0851 23.1 18.9108 22.925L17.0371 20.4313L17.0807 20.3438L20.2615 20.9125C20.4794 20.9562 20.6537 20.9125 20.6973 20.7812ZM17.5164 20.825L18.4315 22.05L18.9979 21.1312L17.5164 20.825Z" fill="#999999"/>
<path d="M19.1287 18.4624C18.998 18.3312 18.8237 18.1999 18.6494 18.1124C18.8237 17.9374 19.1287 17.5874 19.5209 17.1062C19.913 16.6249 20.218 16.2749 20.3923 16.0562C20.5666 16.2312 20.6973 16.3624 20.8281 16.4937C20.9588 16.5812 21.0459 16.6686 21.1331 16.7561L21.0459 16.8436C20.8281 16.7124 20.6974 16.6249 20.5666 16.5812C20.4359 16.5374 20.3488 16.5374 20.2181 16.5812C20.1309 16.6249 20.0002 16.7124 19.8695 16.8436L19.6952 17.0624L21.7867 18.8124C21.8738 18.8999 21.961 18.9437 22.0481 18.9874C22.0917 18.9874 22.1788 18.9874 22.2224 18.9874C22.266 18.9437 22.3531 18.8999 22.4403 18.7687L22.5274 18.8124C22.3967 18.9436 22.266 19.1187 22.0481 19.3374C21.8302 19.5999 21.6995 19.7749 21.6124 19.9061L21.5252 19.8624C21.6124 19.7312 21.656 19.6436 21.6995 19.5999C21.7431 19.5561 21.6995 19.4687 21.6995 19.4249C21.656 19.3812 21.6124 19.2937 21.4817 19.2062L19.3902 17.4562L19.2159 17.6749C19.0851 17.8062 18.998 17.9374 18.998 18.0686C18.998 18.1561 18.998 18.2874 19.0851 18.3749C19.1723 18.4624 19.2594 18.6374 19.4337 18.8124L19.3466 18.8999C19.3466 18.6374 19.2595 18.5499 19.1287 18.4624Z" fill="#999999"/>
<path d="M23.7037 13.1688C23.6601 13.2125 23.6601 13.3 23.7037 13.3438C23.7473 13.3875 23.7908 13.475 23.878 13.5625L24.793 14.6562C24.9237 14.8312 25.0544 15.0063 25.1416 15.1375C25.2287 15.2688 25.2723 15.4438 25.3159 15.575C25.3594 15.75 25.3159 15.8813 25.2723 16.0563C25.1852 16.2313 25.098 16.3625 24.9673 16.4938C24.7059 16.7125 24.4444 16.8438 24.183 16.8C24.0523 16.8 23.9216 16.7563 23.8344 16.7125C23.7473 16.6688 23.6165 16.5813 23.5294 16.4938C23.4422 16.4063 23.3115 16.275 23.1372 16.1L22.1786 14.9625C22.0915 14.875 22.0479 14.8312 22.0043 14.7875C21.9608 14.7437 21.9172 14.7437 21.83 14.7875C21.7865 14.7875 21.6993 14.8313 21.6122 14.9188L21.5686 14.8313C21.6993 14.7438 21.83 14.6125 22.0479 14.4375C22.2222 14.2625 22.3965 14.1313 22.4836 14.0438L22.5272 14.1312C22.4401 14.2187 22.3965 14.2625 22.3529 14.3063C22.3093 14.35 22.3093 14.3938 22.3529 14.4813C22.3529 14.525 22.4401 14.6125 22.4836 14.7L23.4858 15.925C23.6601 16.1 23.7908 16.275 23.9216 16.3625C24.0523 16.45 24.183 16.5375 24.3573 16.5375C24.5316 16.5375 24.6623 16.4937 24.8366 16.3187C25.098 16.1 25.1852 15.8813 25.1852 15.6188C25.1416 15.3563 25.0109 15.0937 24.7494 14.7875L23.7908 13.65C23.7037 13.5625 23.6601 13.5187 23.573 13.475C23.5294 13.4312 23.4422 13.4312 23.3987 13.475C23.3551 13.475 23.268 13.5188 23.1808 13.6063L23.1372 13.5188C23.2244 13.4313 23.3551 13.3438 23.5294 13.2125C23.6601 13.0813 23.7908 12.9937 23.878 12.9062L23.9216 12.9938C23.7908 13.0375 23.7473 13.125 23.7037 13.1688Z" fill="#999999"/>
<path d="M29.2809 13.4312C29.2374 13.5187 29.1502 13.5625 29.0631 13.65C28.9324 13.7375 28.8452 13.7374 28.7145 13.6937C28.5838 13.6499 28.4966 13.6062 28.3659 13.4312L28.0173 13.0812C27.8866 12.95 27.7994 12.8624 27.7123 12.8187C27.6251 12.7749 27.538 12.7312 27.4944 12.7312C27.4073 12.7312 27.3201 12.7312 27.233 12.8187L26.8408 13.0374L27.4073 14C27.4509 14.0875 27.538 14.175 27.5816 14.2187C27.6252 14.2625 27.6687 14.2625 27.7123 14.2625C27.7559 14.2625 27.843 14.2187 27.9302 14.175L27.9737 14.2625C27.843 14.35 27.6687 14.4374 27.4509 14.5687C27.233 14.6999 27.0587 14.8312 26.928 14.875L26.8844 14.7874C26.9716 14.7437 27.0587 14.6562 27.1023 14.6125C27.1459 14.5687 27.1459 14.525 27.1459 14.4812C27.1459 14.4375 27.1023 14.35 27.0587 14.2625L25.8387 12.2062C25.7951 12.1187 25.708 12.0312 25.6644 11.9875C25.6208 11.9437 25.5772 11.9437 25.5336 11.9437C25.4901 11.9437 25.4029 11.9875 25.3158 12.0312L25.2722 11.9437C25.4029 11.8999 25.5772 11.7687 25.7951 11.6375C25.8822 11.5937 26.013 11.5062 26.1437 11.4187C26.2744 11.3312 26.3615 11.2875 26.4051 11.2437C26.623 11.1125 26.7973 11.025 27.0151 11.025C27.1894 10.9812 27.3637 11.0249 27.4944 11.0687C27.6251 11.1124 27.7559 11.2437 27.843 11.375C27.8866 11.4625 27.9302 11.5937 27.9737 11.7249C27.9737 11.8562 27.9737 12.0312 27.8866 12.1624C27.7995 12.3374 27.7123 12.4687 27.538 12.5999H27.5816C27.7123 12.5562 27.843 12.5125 27.9302 12.5125C28.0173 12.5125 28.1045 12.5125 28.1916 12.5562C28.2788 12.6 28.3659 12.6875 28.453 12.775L28.8016 13.125C28.8888 13.2125 28.9323 13.2562 28.9759 13.3C29.0195 13.3437 29.0631 13.3437 29.1066 13.3875C29.1502 13.3875 29.1938 13.3875 29.2373 13.3875C29.2809 13.3437 29.3245 13.3437 29.3245 13.3C29.3245 13.2562 29.3681 13.2125 29.3681 13.125H29.4552C29.3681 13.2562 29.3245 13.3437 29.2809 13.4312ZM27.4509 12.425C27.538 12.2937 27.538 12.1625 27.538 12.075C27.538 11.9437 27.4509 11.8125 27.4073 11.6812C27.2766 11.4625 27.1023 11.3312 26.928 11.2437C26.7537 11.2 26.5358 11.2437 26.318 11.375C26.2308 11.4187 26.1872 11.4624 26.1437 11.5062C26.1001 11.5499 26.1001 11.5937 26.1001 11.6812C26.1001 11.725 26.1437 11.8125 26.1872 11.9L26.7973 12.9062L27.0587 12.7312C27.2766 12.6437 27.4073 12.5562 27.4509 12.425Z" fill="#999999"/>
<path d="M32.9848 11.8124L33.0284 11.8999C32.8977 11.9437 32.7234 11.9874 32.5491 12.0749C32.2877 12.1624 32.1134 12.2499 31.9827 12.2937L31.9391 12.2062C32.0698 12.1624 32.1134 12.1187 32.1569 12.0749C32.2005 12.0312 32.2005 11.9874 32.2005 11.9436C32.2005 11.8999 32.1569 11.8124 32.0698 11.7687L31.5033 11.1561L30.414 11.5936V12.1187C30.414 12.2937 30.414 12.4249 30.4576 12.5124C30.5012 12.5999 30.5447 12.6436 30.6319 12.6874C30.719 12.6874 30.8062 12.6874 30.9369 12.6437L30.9805 12.7312C30.8062 12.7749 30.6319 12.8624 30.4576 12.9061C30.3269 12.9499 30.1961 12.9936 30.109 13.0374L30.0654 12.9499C30.1961 12.8624 30.2833 12.6874 30.2833 12.4249V9.31864L30.3704 9.2749L32.5491 11.6812C32.7234 11.8124 32.8541 11.8561 32.9848 11.8124ZM30.414 9.88741V11.4187L31.4162 11.0249L30.414 9.88741Z" fill="#999999"/>
<path d="M34.1614 8.26855C34.1178 8.3123 34.0742 8.35605 34.0742 8.3998C34.0742 8.44355 34.0742 8.53104 34.1178 8.66229L34.5971 10.9811C34.6407 11.1123 34.6407 11.1998 34.6842 11.2435C34.7278 11.2873 34.7714 11.3311 34.815 11.3311C34.8586 11.3311 34.9457 11.331 35.0764 11.2873L35.425 11.1998C35.5993 11.1561 35.7736 11.1123 35.8607 11.0248C35.9479 10.9373 35.9914 10.8498 36.035 10.7185C36.035 10.5873 36.035 10.4123 36.035 10.1498L36.1222 10.1061C36.1222 10.1936 36.1657 10.3248 36.2093 10.4998C36.2529 10.6748 36.2965 10.8936 36.3836 11.1123C36.1657 11.1561 35.8171 11.1998 35.2943 11.3311C34.6843 11.4623 34.2485 11.5498 33.9435 11.6373V11.5498C34.0742 11.5061 34.1178 11.506 34.1614 11.4623C34.205 11.4185 34.2485 11.3748 34.2485 11.3311C34.2485 11.2873 34.2485 11.1998 34.2049 11.0685L33.7257 8.74979C33.6821 8.61854 33.6821 8.53105 33.6385 8.4873C33.5949 8.44355 33.5514 8.3998 33.5078 8.3998C33.4642 8.3998 33.3771 8.3998 33.2463 8.3998V8.31229C33.3771 8.31229 33.5949 8.26855 33.8564 8.18105C34.1178 8.1373 34.2921 8.09355 34.4664 8.0498V8.13731C34.2921 8.22481 34.205 8.2248 34.1614 8.26855Z" fill="#999999"/>
<path d="M42.1787 10.7188C42.1787 10.675 42.1351 10.6313 42.0916 10.6313C42.048 10.6313 42.048 10.6313 42.0044 10.6751C41.9173 10.7188 41.8301 10.8063 41.743 10.85C41.6558 10.8938 41.5687 10.9375 41.4816 10.9375C41.3944 10.9813 41.2637 10.9813 41.133 10.9813C40.828 10.9813 40.5665 10.8938 40.3486 10.7626C40.1308 10.6313 39.9565 10.4126 39.8258 10.1501C39.6951 9.88755 39.6515 9.58131 39.695 9.23131C39.695 8.88131 39.7822 8.57505 39.9129 8.31255C40.0436 8.05005 40.2615 7.83131 40.4794 7.70006C40.6972 7.56881 40.9587 7.4813 41.2637 7.52505C41.438 7.52505 41.6123 7.56881 41.743 7.61256C41.8737 7.65631 42.0044 7.7438 42.1352 7.87505C42.1787 7.9188 42.1787 7.91881 42.2223 7.91881C42.2659 7.91881 42.353 7.8313 42.353 7.6563H42.4837C42.4837 7.87505 42.4402 8.22505 42.4402 8.75005H42.3094C42.3094 8.6188 42.2659 8.48755 42.2659 8.40005C42.2659 8.31255 42.2223 8.2688 42.2223 8.1813C42.1787 8.13755 42.1787 8.05004 42.1352 8.00629C42.048 7.87504 41.9173 7.78756 41.7866 7.70006C41.6559 7.61256 41.4815 7.61254 41.3073 7.56879C41.0894 7.56879 40.9151 7.61255 40.7408 7.7438C40.5665 7.87505 40.4358 8.05005 40.3486 8.31255C40.2615 8.57505 40.2179 8.83755 40.1744 9.18755C40.1744 9.53755 40.1744 9.84381 40.2615 10.1063C40.3487 10.3688 40.4794 10.5438 40.6101 10.6751C40.7844 10.8063 40.9587 10.8938 41.1765 10.8938C41.3508 10.8938 41.4815 10.8938 41.6558 10.8063C41.8301 10.7626 41.9173 10.6751 42.0044 10.5438C42.0916 10.4563 42.1352 10.3688 42.1352 10.2813C42.1787 10.1938 42.2223 10.0188 42.2223 9.80006H42.353C42.3094 10.3688 42.3094 10.7188 42.3094 10.9375H42.1787C42.1787 10.85 42.1787 10.7625 42.1787 10.7188Z" fill="#999999"/>
<path d="M46.6232 8.44387C46.7975 8.61887 46.9282 8.88139 47.0154 9.14389C47.1025 9.40639 47.0589 9.7564 47.0154 10.1064C46.9282 10.4564 46.7975 10.7626 46.6232 10.9814C46.4489 11.2001 46.231 11.3751 45.9696 11.4626C45.7082 11.5501 45.4467 11.5939 45.1417 11.5064C44.8367 11.4189 44.6188 11.3314 44.401 11.1126C44.2267 10.9376 44.096 10.6751 44.0088 10.4126C43.9217 10.1501 43.9652 9.80015 44.0088 9.45015C44.096 9.10015 44.2267 8.7939 44.401 8.57515C44.5753 8.3564 44.7931 8.18138 45.0546 8.09388C45.316 8.00638 45.5774 7.96264 45.8824 8.05014C46.1875 8.13764 46.4489 8.26887 46.6232 8.44387ZM45.316 8.22512C45.1417 8.31262 44.9674 8.48763 44.8367 8.75013C44.706 9.01263 44.5753 9.27514 44.5317 9.58139C44.4445 9.88764 44.4445 10.1939 44.4881 10.4564C44.5317 10.7189 44.6188 10.9376 44.7496 11.1126C44.8803 11.2876 45.0546 11.3751 45.2288 11.4189C45.4467 11.4626 45.621 11.4189 45.7953 11.3314C45.9696 11.2439 46.1439 11.0689 46.2746 10.8064C46.4053 10.5876 46.5361 10.2814 46.5796 9.97512C46.6668 9.66887 46.6668 9.36262 46.6232 9.10012C46.5796 8.83762 46.4925 8.61887 46.3618 8.44387C46.231 8.26887 46.0567 8.1814 45.8824 8.13765C45.6646 8.0939 45.4903 8.13762 45.316 8.22512Z" fill="#999999"/>
<path d="M48.4096 12.0751C48.4531 12.2939 48.6275 12.4688 48.8889 12.6001C48.976 12.6438 49.1068 12.6439 49.1939 12.6439C49.2811 12.6439 49.4118 12.6001 49.4989 12.5126C49.586 12.4251 49.6732 12.3376 49.7168 12.2064C49.7603 12.0751 49.7604 11.9876 49.7604 11.8564C49.7604 11.7251 49.7168 11.6376 49.6296 11.5063C49.5861 11.3751 49.4553 11.2439 49.3682 11.1126C49.2375 10.9376 49.1503 10.7626 49.0632 10.6751C48.976 10.5439 48.9325 10.4126 48.9325 10.2814C48.9325 10.1501 48.9325 9.9751 48.976 9.84385C49.0632 9.66885 49.1503 9.53762 49.281 9.45012C49.4118 9.36262 49.5425 9.31885 49.6732 9.31885C49.8039 9.31885 49.9782 9.3626 50.1089 9.40635C50.1961 9.4501 50.2832 9.49385 50.3268 9.5376C50.3704 9.58135 50.4139 9.62512 50.4575 9.66887C50.5011 9.71262 50.5447 9.75636 50.5447 9.80011C50.5882 9.88761 50.6318 9.93136 50.6754 9.93136C50.7189 9.93136 50.719 9.93136 50.7625 9.93136C50.8061 9.88761 50.8061 9.84386 50.8497 9.80011L50.9368 9.84385C50.8497 10.0189 50.719 10.3251 50.5447 10.7626L50.4575 10.7189C50.5011 10.5439 50.5447 10.4126 50.5447 10.2376C50.5447 10.1064 50.5011 9.93135 50.4139 9.84385C50.3268 9.7126 50.2397 9.62511 50.0654 9.58136C49.9782 9.53761 49.8475 9.5376 49.7604 9.5376C49.6732 9.5376 49.586 9.58135 49.4989 9.6251C49.4118 9.66885 49.3682 9.75637 49.3246 9.88762C49.281 10.0626 49.2375 10.1939 49.3246 10.3251C49.3682 10.4564 49.4553 10.5876 49.5425 10.7189C49.6296 10.8501 49.7168 10.9376 49.7168 10.9814C49.8475 11.1564 49.9782 11.3314 50.0218 11.4626C50.1089 11.5939 50.1525 11.7251 50.1525 11.8564C50.1525 11.9876 50.1525 12.1626 50.1089 12.2939C50.0218 12.4689 49.9346 12.6001 49.8039 12.6876C49.6732 12.7751 49.4989 12.8188 49.3682 12.8188C49.1939 12.8188 49.0196 12.7751 48.8453 12.7314C48.7146 12.6876 48.5839 12.6001 48.4967 12.5564C48.4096 12.4689 48.366 12.4251 48.2789 12.3376C48.2353 12.2501 48.1917 12.2064 48.1481 12.2064C48.1046 12.2064 48.1046 12.2064 48.061 12.2064C48.0174 12.2501 48.0174 12.2939 47.9738 12.3376L47.8867 12.2939C47.9739 12.1189 48.1046 11.7689 48.3224 11.2439L48.4096 11.2876C48.366 11.5501 48.366 11.8126 48.4096 12.0751Z" fill="#999999"/>
<path d="M55.6863 12.6439C55.6428 12.6439 55.5992 12.6439 55.5556 12.6876C55.5121 12.7314 55.4685 12.7751 55.3813 12.9064L54.1177 14.9189C54.0742 15.0064 54.0306 15.0939 53.987 15.1376C53.987 15.1814 53.987 15.2251 54.0306 15.2689C54.0742 15.3126 54.1177 15.3563 54.2049 15.4438L54.1613 15.5314C54.0306 15.4439 53.8563 15.3126 53.6384 15.1814C53.4205 15.0501 53.2463 14.9189 53.1156 14.8751L53.1591 14.7876C53.2463 14.8313 53.3334 14.8751 53.377 14.8751C53.4206 14.8751 53.4641 14.8751 53.5077 14.8314C53.5513 14.7876 53.5949 14.7439 53.682 14.6126L55.0328 12.4251L52.4184 14.4376L52.3748 14.3939L53.0284 11.1126L51.6776 13.2563C51.5905 13.3438 51.5905 13.4314 51.5469 13.5189C51.5469 13.5626 51.5469 13.6501 51.5905 13.6938C51.6341 13.7376 51.6776 13.8251 51.8084 13.8689L51.7648 13.9564C51.6776 13.8689 51.5469 13.7813 51.3726 13.6938C51.1983 13.6063 51.0676 13.5188 50.9805 13.4751L51.024 13.3876C51.1112 13.4314 51.1983 13.4751 51.2419 13.4751C51.2855 13.4751 51.3726 13.4751 51.4162 13.4314C51.4598 13.3876 51.5034 13.3001 51.5905 13.2126L52.8105 11.2439C52.8541 11.1564 52.8977 11.0689 52.9413 11.0251C52.9413 10.9814 52.9413 10.9376 52.8977 10.8939C52.8541 10.8501 52.8105 10.8064 52.7234 10.7189L52.767 10.6313C52.8541 10.6751 52.9848 10.7626 53.1156 10.8939C53.2463 10.9814 53.377 11.0689 53.4641 11.1126L52.8541 14.0439L55.2071 12.2501L55.3813 12.3813C55.5992 12.5126 55.7735 12.6439 55.9042 12.6876L55.8606 12.7751C55.8171 12.6876 55.7299 12.6439 55.6863 12.6439Z" fill="#999999"/>
<path d="M57.2986 17.5438C57.1679 17.675 57.0372 17.85 56.9065 18.025C56.7757 17.85 56.4707 17.6312 56.1222 17.2812C55.6864 16.8438 55.3379 16.5375 55.0764 16.3625L55.12 16.275C55.2071 16.3625 55.2943 16.4062 55.3378 16.4062C55.3814 16.4062 55.425 16.4062 55.5121 16.4062C55.5557 16.3625 55.6429 16.3188 55.73 16.2313L57.3422 14.4813C57.4293 14.3938 57.4729 14.3063 57.5165 14.2625C57.5601 14.2188 57.5601 14.175 57.5165 14.0875C57.4729 14 57.4293 13.9563 57.3422 13.8688L57.3858 13.7812C57.6036 14 57.9522 14.3063 58.388 14.7438C58.7365 15.05 58.998 15.2688 59.1287 15.4C58.9544 15.5313 58.8237 15.6625 58.7365 15.7938C58.6494 15.8813 58.6058 15.9688 58.5623 16.0125L58.4751 15.925C58.6058 15.75 58.693 15.6187 58.7365 15.5312C58.7801 15.4438 58.7801 15.3563 58.7365 15.2688C58.693 15.1813 58.6494 15.0938 58.5187 14.9625L58.2137 14.7C58.1265 14.6125 58.0829 14.5687 57.9958 14.5687C57.9522 14.5687 57.9086 14.5687 57.8651 14.5687C57.8215 14.6125 57.7344 14.6563 57.6472 14.7438L56.8629 15.575L57.0808 15.7938C57.2115 15.925 57.2986 15.925 57.4293 15.925C57.5165 15.8813 57.6036 15.8375 57.6908 15.7938C57.7779 15.75 57.8215 15.7062 57.8215 15.6625L57.9087 15.75C57.7779 15.8375 57.6908 15.9688 57.6036 16.0563L57.4293 16.2313C57.2986 16.3625 57.1679 16.5375 56.9936 16.7562L56.9065 16.6688C56.9065 16.6688 56.9501 16.5813 57.0372 16.4938C57.1243 16.4063 57.1679 16.275 57.1679 16.1875C57.1679 16.1 57.1243 16.0125 57.0372 15.925L56.8193 15.7063L56.035 16.5375C55.9479 16.625 55.9043 16.7125 55.8607 16.7562C55.8172 16.8 55.8607 16.8438 55.8607 16.8875C55.9043 16.9313 55.9479 17.0187 56.035 17.0625L56.2965 17.2812C56.4272 17.4125 56.5579 17.5 56.6886 17.5438C56.8193 17.5875 56.9065 17.5438 57.0372 17.5C57.1679 17.4562 57.2986 17.325 57.4729 17.1937L57.5601 17.2812C57.4729 17.3688 57.3858 17.4563 57.2986 17.5438Z" fill="#999999"/>
<path d="M59.9131 17.1935C60.0438 17.0623 60.2181 16.9311 60.3924 16.7998C60.5667 17.0186 60.8281 17.3686 61.2203 17.8936C61.6124 18.3748 61.8739 18.7248 62.0482 18.9435C61.8739 19.0748 61.6996 19.1623 61.5253 19.2936C61.3946 19.3811 61.3074 19.4685 61.2203 19.556L61.1331 19.4685C61.3074 19.2935 61.4381 19.1623 61.5253 19.0748C61.6124 18.9873 61.6124 18.8561 61.6124 18.7686C61.6124 18.6373 61.5253 18.506 61.3946 18.3748L61.2203 18.156L59.0852 19.8185C58.998 19.906 58.9109 19.9498 58.8673 20.0373C58.8237 20.081 58.8237 20.1685 58.8673 20.2123C58.9109 20.2998 58.9545 20.3873 59.0416 20.4748L58.9545 20.5186C58.8673 20.3873 58.7366 20.2123 58.5187 19.9498C58.3009 19.6873 58.1702 19.5123 58.083 19.381L58.1702 19.3373C58.2573 19.4248 58.3445 19.5123 58.388 19.556C58.4316 19.5998 58.5188 19.5998 58.5623 19.5998C58.6059 19.5998 58.693 19.5123 58.8238 19.4685L60.9588 17.806L60.7845 17.5873C60.6538 17.4123 60.5667 17.3248 60.436 17.281C60.3488 17.2373 60.2181 17.2373 60.0874 17.281C59.9567 17.3248 59.8259 17.4123 59.6081 17.5436L59.5209 17.4561C59.6952 17.3686 59.7824 17.3248 59.9131 17.1935Z" fill="#999999"/>
<path d="M63.2679 21.2188C63.2243 21.175 63.1807 21.175 63.1371 21.175C63.0936 21.175 63.0064 21.2188 62.8757 21.2625L60.8278 22.4437C60.7406 22.4875 60.6535 22.575 60.6099 22.6188C60.5663 22.6625 60.5663 22.7062 60.5663 22.75C60.5663 22.7938 60.6099 22.8812 60.6535 22.9688L60.5663 23.0125C60.4792 22.8813 60.392 22.7063 60.2613 22.4875C60.1306 22.2688 59.9999 22.0938 59.9563 21.9625L60.0435 21.9188C60.087 22.0063 60.1742 22.0938 60.2178 22.1375C60.2613 22.1813 60.3049 22.1813 60.3485 22.1813C60.392 22.1813 60.4792 22.1375 60.6099 22.0938L62.6578 20.9125C62.745 20.8687 62.8321 20.7813 62.8757 20.7375C62.9193 20.6938 62.9193 20.65 62.9193 20.6063C62.9193 20.5625 62.8757 20.475 62.8321 20.3875L62.9193 20.3438C62.9629 20.475 63.0936 20.65 63.2243 20.8688C63.355 21.0875 63.4421 21.2625 63.5293 21.3938L63.4421 21.4375C63.3986 21.3062 63.3114 21.2625 63.2679 21.2188Z" fill="#999999"/>
<path d="M62.3965 26.5125C62.4401 26.4688 62.44 26.425 62.44 26.425C62.44 26.3813 62.3965 26.3813 62.3529 26.3375C62.2657 26.2938 62.1786 26.2062 62.0915 26.1625C62.0043 26.1187 61.9607 26.0312 61.8736 25.9437C61.83 25.8562 61.7429 25.7688 61.6993 25.6375C61.5686 25.375 61.525 25.0688 61.5686 24.8063C61.6122 24.5438 61.7429 24.2813 61.9172 24.1063C62.0915 23.8875 62.3529 23.7125 62.7015 23.5813C63.0065 23.45 63.3551 23.4062 63.6165 23.4062C63.9215 23.4062 64.183 23.4938 64.4008 23.6688C64.6187 23.8438 64.793 24.0188 64.9237 24.325C65.0109 24.5 65.0109 24.675 65.0544 24.8063C65.0544 24.9375 65.0544 25.1125 65.0109 25.2438C65.0109 25.2875 65.0109 25.3313 65.0109 25.3313C65.0544 25.375 65.1416 25.375 65.3159 25.3313L65.3594 25.4188C65.1852 25.5063 64.8366 25.6375 64.3573 25.8125L64.3137 25.725C64.4444 25.6375 64.5316 25.5938 64.6187 25.55C64.7058 25.5063 64.7494 25.4625 64.793 25.4188C64.8366 25.375 64.8801 25.3313 64.9237 25.2438C65.0109 25.1125 65.0544 24.9375 65.0544 24.8063C65.0544 24.6313 65.0108 24.5 64.9673 24.325C64.8801 24.15 64.7494 23.975 64.5751 23.8875C64.4008 23.8 64.183 23.7562 63.8779 23.7562C63.6165 23.7562 63.3115 23.8437 63.0065 23.975C62.7015 24.1062 62.44 24.2813 62.2222 24.4563C62.0479 24.6313 61.9172 24.85 61.83 25.025C61.7865 25.2438 61.7865 25.4188 61.8736 25.5938C61.9172 25.725 62.0043 25.8563 62.135 25.9875C62.2657 26.1188 62.3965 26.1625 62.5272 26.2063C62.6143 26.25 62.7451 26.25 62.8322 26.2063C62.9194 26.2063 63.0936 26.1625 63.3115 26.1188L63.3551 26.2063C62.8322 26.425 62.4836 26.5563 62.3093 26.6438L62.2658 26.5563C62.3093 26.6 62.3529 26.5563 62.3965 26.5125Z" fill="#999999"/>
<path d="M18.17 46.9874C18.1264 46.9437 18.0828 46.9436 17.9957 46.9436C17.9521 46.9436 17.8649 46.9874 17.7342 47.0311L15.1634 48.2561L15.1198 48.1687L17.0806 45.0624L14.8148 46.1561C14.6841 46.1999 14.6405 46.2436 14.597 46.2874C14.5534 46.3311 14.5098 46.3749 14.5098 46.4624C14.5098 46.5062 14.5534 46.5936 14.597 46.7249L14.5098 46.7687C14.4662 46.6812 14.4227 46.5062 14.3355 46.3312C14.2484 46.1562 14.2048 46.0249 14.1177 45.9374L14.2048 45.8937C14.2484 45.9812 14.292 46.0686 14.3355 46.0686C14.3791 46.1124 14.4227 46.1124 14.5098 46.1124C14.5534 46.1124 14.6406 46.0687 14.7713 46.0249L16.8628 45.0187C16.9499 44.9749 17.0371 44.9312 17.0806 44.8874C17.1242 44.8437 17.1242 44.7999 17.1242 44.7561C17.1242 44.7124 17.0806 44.6249 17.037 44.5374L17.1242 44.4937C17.1678 44.5812 17.2114 44.7124 17.2985 44.8874C17.3421 45.0187 17.4292 45.1061 17.4728 45.1936L15.8606 47.7749L17.6906 46.8999C17.8214 46.8562 17.8649 46.8124 17.9085 46.7687C17.9521 46.7249 17.9957 46.6811 17.9957 46.5936C17.9957 46.5499 17.9521 46.4624 17.9085 46.3312L17.9957 46.2874C18.0392 46.3749 18.0828 46.5499 18.17 46.7249C18.2571 46.8999 18.3007 47.0312 18.3878 47.1187L18.3007 47.1624C18.2571 47.0749 18.2135 47.0312 18.17 46.9874Z" fill="#999999"/>
<path d="M18.3441 52.9376L18.257 52.9814C18.1698 52.8939 18.0827 52.7189 17.9955 52.5876C17.8212 52.3689 17.7341 52.2376 17.6469 52.1064L17.7341 52.0626C17.8212 52.1501 17.8648 52.1939 17.9084 52.2376C17.9519 52.2814 17.9955 52.2376 18.0391 52.2376C18.0827 52.1939 18.1262 52.1501 18.1698 52.0626L18.6491 51.3626L17.9955 50.4438L17.4726 50.5751C17.2983 50.6189 17.1676 50.6626 17.0805 50.7501C16.9933 50.7939 16.9498 50.8814 16.9498 50.9689C16.9498 51.0564 16.9933 51.1439 17.0805 51.2751L16.9933 51.3188C16.9062 51.1876 16.819 51.0126 16.6883 50.8813C16.6012 50.7501 16.5576 50.6626 16.4705 50.6189L16.5576 50.5751C16.6883 50.6626 16.8626 50.7064 17.1241 50.6189L20.087 49.7876L20.1306 49.8314L18.3441 52.5001C18.2569 52.6751 18.2569 52.8501 18.3441 52.9376ZM19.5642 50.0501L18.0827 50.4438L18.6927 51.2751L19.5642 50.0501Z" fill="#999999"/>
<path d="M21.5685 52.5877C21.6992 52.4564 21.83 52.2814 21.9607 52.1064C22.135 52.2814 22.44 52.5877 22.8757 53.0252C23.3114 53.4627 23.6164 53.7689 23.7907 53.9439C23.6164 54.0752 23.4857 54.2502 23.355 54.3377C23.2243 54.4689 23.1371 54.5564 23.0936 54.6439L23.0064 54.5564C23.1807 54.3814 23.2679 54.2064 23.3114 54.1189C23.355 53.9877 23.3986 53.9002 23.355 53.8127C23.3114 53.7252 23.2679 53.5939 23.0936 53.4627L22.9193 53.2877L21.0021 55.2127C20.9149 55.3002 20.8713 55.3877 20.8278 55.4314C20.7842 55.4752 20.7842 55.5627 20.8278 55.6064C20.8713 55.6502 20.9149 55.7377 21.0021 55.8252L20.9149 55.9127C20.8278 55.7814 20.6535 55.6502 20.4356 55.4314C20.2178 55.2127 20.0434 55.0814 19.9563 54.9502L20.0435 54.8627C20.1306 54.9502 20.2177 54.9939 20.3049 55.0377C20.3485 55.0814 20.4356 55.0814 20.4792 55.0377C20.5228 54.9939 20.6099 54.9502 20.697 54.8627L22.6143 52.9377L22.44 52.7627C22.3092 52.6314 22.1785 52.5439 22.0914 52.5439C22.0042 52.5002 21.8735 52.5439 21.7864 52.5877C21.6557 52.6314 21.5249 52.7627 21.3506 52.9377L21.2635 52.8502C21.3506 52.8064 21.4378 52.7189 21.5685 52.5877Z" fill="#999999"/>
<path d="M27.3203 56.7874C27.2767 56.7874 27.1896 56.7874 27.146 56.8312C27.1024 56.8749 27.0153 56.9624 26.9717 57.0499L26.1438 58.2312C26.0131 58.4062 25.8824 58.5812 25.7953 58.7124C25.6645 58.8437 25.5774 58.9311 25.4467 58.9749C25.316 59.0624 25.1417 59.0624 24.9674 59.0624C24.7931 59.0624 24.6188 58.9749 24.4881 58.8874C24.2266 58.7124 24.0523 58.4937 24.0088 58.2312C23.9652 58.0999 23.9652 57.9686 24.0088 57.8811C24.0088 57.7936 24.0523 57.6624 24.1395 57.5311C24.1831 57.3999 24.3138 57.2687 24.4009 57.0499L25.2288 55.8249C25.316 55.7374 25.316 55.6499 25.3595 55.6062C25.3595 55.5624 25.3595 55.5186 25.3159 55.4749C25.2724 55.4311 25.2288 55.3874 25.1417 55.2999L25.1852 55.2124C25.2724 55.2999 25.4467 55.3874 25.6645 55.5624C25.8824 55.6936 26.0131 55.8249 26.1438 55.8687L26.1003 55.9562C26.0131 55.9124 25.926 55.8687 25.8824 55.8687C25.8388 55.8687 25.7952 55.8686 25.7517 55.9124C25.7081 55.9561 25.6645 55.9999 25.5774 56.1311L24.7059 57.4436C24.5752 57.6624 24.4445 57.8374 24.4009 58.0124C24.3573 58.1874 24.3138 58.3187 24.3574 58.4499C24.4009 58.5812 24.4881 58.7124 24.6623 58.8436C24.9238 59.0186 25.1852 59.0624 25.4031 58.9749C25.621 58.8874 25.8388 58.6686 26.1003 58.3186L26.9281 57.0936C27.0153 57.0061 27.0153 56.9187 27.0589 56.8312C27.0589 56.7437 27.0589 56.6999 27.0153 56.6561C26.9717 56.6124 26.9281 56.5249 26.841 56.4812L26.8846 56.3937C26.9717 56.4812 27.1024 56.5686 27.2767 56.6561C27.4074 56.7436 27.5382 56.8311 27.6253 56.8749L27.5817 56.9624C27.451 56.8312 27.4075 56.7874 27.3203 56.7874Z" fill="#999999"/>
<path d="M30.3267 61.8623C30.2395 61.8623 30.1524 61.8623 30.0217 61.8185C29.891 61.7748 29.8474 61.6873 29.8038 61.5998C29.7603 61.5123 29.7603 61.3373 29.8038 61.1623L29.891 60.681C29.9345 60.506 29.9345 60.3748 29.9345 60.2873C29.9345 60.1998 29.9345 60.1123 29.891 60.0248C29.8474 59.9373 29.7602 59.8935 29.6731 59.8498L29.281 59.6748L28.8452 60.681C28.8017 60.8123 28.7581 60.856 28.7581 60.9435C28.7581 60.9873 28.7581 61.0311 28.8016 61.0748C28.8452 61.1186 28.8888 61.1623 29.0195 61.2061L28.9759 61.2936C28.8452 61.2498 28.6709 61.1623 28.4531 61.031C28.1916 60.9435 28.0173 60.856 27.9302 60.8123L27.9738 60.7248C28.0609 60.7685 28.1481 60.7686 28.1916 60.7686C28.2352 60.7686 28.2788 60.7685 28.3223 60.7248C28.3659 60.681 28.4095 60.5935 28.4531 60.506L29.4117 58.3185C29.4552 58.1873 29.4988 58.1435 29.4988 58.056C29.4988 58.0123 29.4988 57.9686 29.4552 57.9248C29.4117 57.8811 29.3681 57.8373 29.2374 57.7936L29.281 57.7061C29.4117 57.7498 29.5424 57.8373 29.8038 57.9248C29.9346 57.9686 30.0217 58.0123 30.1524 58.0998C30.2831 58.1435 30.3703 58.1873 30.4138 58.2311C30.6317 58.3186 30.806 58.4498 30.9367 58.5811C31.0674 58.7123 31.1546 58.8436 31.1546 59.0186C31.1982 59.1498 31.1546 59.3248 31.111 59.4561C31.0675 59.5873 30.9803 59.6748 30.8932 59.7623C30.806 59.8498 30.6753 59.9373 30.501 59.9811C30.3267 60.0248 30.1524 60.0248 29.9345 59.9373L29.9781 59.9811C30.1088 60.0686 30.196 60.1123 30.2396 60.1998C30.2831 60.2873 30.3267 60.3748 30.3267 60.4623C30.3267 60.5498 30.3267 60.681 30.2831 60.8123L30.196 61.2936C30.196 61.3811 30.1524 61.4686 30.1524 61.5123C30.1524 61.5561 30.1524 61.5998 30.1524 61.6436C30.1524 61.6873 30.196 61.6873 30.2396 61.7311C30.2831 61.7311 30.3267 61.7748 30.3703 61.7311C30.4139 61.7311 30.4574 61.6873 30.5446 61.6436L30.5881 61.7311C30.501 61.7748 30.4138 61.8186 30.3267 61.8623ZM30.1088 59.806C30.2395 59.806 30.3703 59.7185 30.4574 59.631C30.5446 59.5435 30.6317 59.4123 30.6753 59.281C30.7624 59.0623 30.806 58.8436 30.7624 58.6686C30.7188 58.4936 30.5446 58.3623 30.3267 58.2311C30.2395 58.1873 30.1524 58.1873 30.1088 58.1873C30.0653 58.1873 30.0217 58.231 29.9781 58.2748C29.9345 58.3185 29.891 58.406 29.8474 58.4935L29.3681 59.5873L29.6295 59.7185C29.8038 59.7623 29.9781 59.806 30.1088 59.806Z" fill="#999999"/>
<path d="M35.4682 63.1752V63.2627C35.3375 63.2189 35.2068 63.1752 34.9889 63.1314C34.7275 63.0877 34.5532 63.0439 34.4225 63.0002V62.9127C34.5532 62.9127 34.6403 62.9564 34.6839 62.9127C34.7275 62.9127 34.771 62.8689 34.771 62.7814C34.771 62.7377 34.771 62.6502 34.771 62.5627L34.6839 61.7314L33.5946 61.4689L33.2896 61.9064C33.2024 62.0377 33.1153 62.1689 33.1153 62.2564C33.0717 62.3439 33.1153 62.4314 33.1588 62.4752C33.2024 62.5189 33.2896 62.5627 33.4203 62.6064V62.6939C33.246 62.6502 33.0717 62.6064 32.8974 62.5627C32.7667 62.5189 32.636 62.5189 32.5488 62.5189V62.4314C32.7231 62.4314 32.8538 62.3002 32.9846 62.1252L34.6839 59.5439H34.771L35.2068 62.7377C35.2503 63.0002 35.3375 63.1314 35.4682 63.1752ZM34.466 60.1564L33.6382 61.4252L34.6403 61.6439L34.466 60.1564Z" fill="#999999"/>
<path d="M38.78 60.2873C38.7364 60.2873 38.6928 60.331 38.6928 60.3748C38.6928 60.4185 38.6493 60.5061 38.6493 60.6373L38.5621 62.9998C38.5621 63.131 38.5621 63.2186 38.5621 63.2623C38.5621 63.3061 38.6057 63.3498 38.6493 63.3936C38.6929 63.3936 38.78 63.4373 38.8671 63.4373H39.2157C39.39 63.4373 39.5643 63.4373 39.6515 63.3498C39.7386 63.306 39.8258 63.2185 39.8693 63.0873C39.9129 62.956 39.9565 62.781 40 62.5623H40.0872C40.0872 62.6498 40.0436 62.7811 40.0436 62.9561C40.0436 63.1311 40.0436 63.3498 40.0436 63.5685C39.8258 63.5685 39.4772 63.5248 38.9979 63.5248C38.4314 63.481 37.9521 63.4811 37.6907 63.4811V63.3936C37.8214 63.3936 37.865 63.3935 37.9521 63.3498C37.9957 63.3498 38.0393 63.3061 38.0393 63.2623C38.0393 63.2186 38.0828 63.131 38.0828 62.9998L38.17 60.6373C38.17 60.5061 38.17 60.4185 38.17 60.3748C38.17 60.331 38.1264 60.2873 38.0828 60.2435C38.0393 60.1998 37.9521 60.1998 37.865 60.1998V60.1123C37.9957 60.1123 38.17 60.156 38.4314 60.156C38.6929 60.156 38.8671 60.156 38.9979 60.156V60.2435C38.9107 60.2873 38.8236 60.2873 38.78 60.2873Z" fill="#999999"/>
<path d="M47.5817 60.944C47.7559 61.0752 47.8867 61.2065 47.9302 61.4252C47.9738 61.6002 47.9738 61.7752 47.9302 61.9065C47.8867 62.0815 47.7995 62.2127 47.6252 62.344C47.4945 62.4752 47.3202 62.5628 47.1023 62.6065C47.0588 62.6065 46.9281 62.6502 46.7973 62.694C46.6666 62.7377 46.4923 62.7815 46.3616 62.8253C46.1002 62.869 45.9259 62.9565 45.7951 63.0002L45.7516 62.869C45.8387 62.8252 45.9259 62.7815 45.9695 62.7815C46.013 62.7377 46.0566 62.694 46.0566 62.6502C46.0566 62.6065 46.0566 62.519 46.013 62.3878L45.403 60.069C45.3594 59.9377 45.3594 59.8502 45.3159 59.8065C45.2723 59.7627 45.2287 59.719 45.1851 59.719C45.1416 59.719 45.0544 59.719 44.9237 59.7628L44.8801 59.6752C45.0108 59.6315 45.1851 59.5878 45.403 59.544C45.5337 59.5003 45.6644 59.4565 45.7951 59.4565C45.9259 59.4127 46.013 59.369 46.1002 59.369C46.318 59.3252 46.4923 59.2815 46.623 59.3253C46.7973 59.369 46.9281 59.4127 47.0152 59.5002C47.1024 59.5877 47.1895 59.719 47.2331 59.8502C47.2767 60.0252 47.2766 60.2002 47.1895 60.3752C47.1023 60.5502 46.9716 60.6815 46.7538 60.8565C47.1459 60.8128 47.4074 60.8565 47.5817 60.944ZM46.8409 60.594C46.8845 60.419 46.8845 60.244 46.8409 60.0252C46.7973 59.8065 46.6666 59.6315 46.5359 59.544C46.4052 59.4565 46.2309 59.4565 46.013 59.5002C45.9259 59.544 45.8387 59.544 45.7951 59.5877C45.7516 59.6315 45.7516 59.6752 45.7516 59.719C45.7516 59.7627 45.7516 59.8503 45.7951 59.9815L46.0566 61.0315L46.3616 60.944C46.6231 60.9002 46.7973 60.769 46.8409 60.594ZM46.5359 62.519C46.5795 62.5627 46.623 62.6065 46.6666 62.6065C46.7102 62.6065 46.7973 62.6065 46.8845 62.5627C47.4509 62.4315 47.6252 62.0815 47.4945 61.5128C47.4509 61.2503 47.3202 61.119 47.1459 60.9877C46.9716 60.9002 46.7538 60.9002 46.4923 60.944L46.1002 61.0315L46.4052 62.2127C46.4488 62.3877 46.4923 62.4752 46.5359 62.519Z" fill="#999999"/>
<path d="M52.4182 59.8937C52.5054 60.0687 52.5925 60.2437 52.7232 60.4187C52.549 60.5062 52.2004 60.6374 51.7646 60.8562C51.2418 61.1187 50.8496 61.2937 50.5882 61.4249L50.5446 61.3374C50.6317 61.2937 50.7189 61.2499 50.7625 61.2062C50.806 61.1624 50.806 61.1187 50.806 61.0749C50.806 61.0312 50.7625 60.9436 50.7189 60.8124L49.7167 58.6687C49.6731 58.5812 49.6296 58.4937 49.586 58.4499C49.5424 58.4062 49.4988 58.4061 49.4553 58.4061C49.4117 58.4061 49.3246 58.4499 49.2374 58.4937L49.1938 58.4061C49.4553 58.2749 49.891 58.0999 50.4139 57.8374C50.806 57.6624 51.1111 57.4874 51.2853 57.3999C51.3725 57.6187 51.4161 57.7937 51.5032 57.9249C51.5468 58.0562 51.5904 58.1436 51.6339 58.1874L51.5468 58.2312C51.4596 58.0562 51.3289 57.9249 51.2853 57.8374C51.1982 57.7499 51.111 57.7062 51.0239 57.7062C50.9367 57.7062 50.806 57.7499 50.6753 57.7937L50.3267 57.9686C50.2396 58.0124 50.1524 58.0561 50.1089 58.0999C50.0653 58.1436 50.0653 58.1874 50.0653 58.2312C50.0653 58.2749 50.1089 58.3624 50.1524 58.4937L50.6318 59.4999L50.8932 59.3687C51.0239 59.2812 51.111 59.1937 51.111 59.1062C51.111 59.0187 51.1111 58.8874 51.0675 58.7999C51.0239 58.7124 51.0239 58.6249 51.0239 58.6249L51.111 58.5812C51.1546 58.7124 51.2418 58.8874 51.2853 58.9749L51.3725 59.1936C51.4596 59.3249 51.5468 59.5437 51.6775 59.8062L51.5904 59.8499C51.5904 59.8499 51.5468 59.7624 51.4596 59.6311C51.3725 59.4999 51.3289 59.4561 51.1982 59.4124C51.0675 59.3686 51.0239 59.4124 50.8932 59.4562L50.6318 59.5874L51.111 60.6374C51.1546 60.7249 51.1982 60.8124 51.2418 60.8562C51.2853 60.8999 51.3289 60.8999 51.3725 60.8999C51.4161 60.8999 51.5032 60.8561 51.5904 60.8124L51.8954 60.6812C52.0696 60.5937 52.2004 60.5062 52.244 60.4187C52.3311 60.3312 52.3311 60.1999 52.3311 60.1124C52.3311 59.9812 52.2875 59.8062 52.2004 59.5874L52.2875 59.5437C52.3311 59.6312 52.3747 59.7624 52.4182 59.8937Z" fill="#999999"/>
<path d="M57.1243 57.4002L57.1679 57.4877C57.0807 57.5752 56.9064 57.6627 56.7757 57.7502C56.5579 57.8814 56.4271 58.0127 56.2964 58.1002L56.2528 58.0127C56.34 57.9252 56.3836 57.8814 56.4271 57.8377C56.4707 57.7939 56.4271 57.7502 56.4271 57.7064C56.3836 57.6627 56.34 57.6189 56.2528 57.5752L55.5557 57.0939L54.6407 57.7502L54.7714 58.2752C54.8149 58.4502 54.8585 58.5814 54.9456 58.6689C54.9892 58.7564 55.0764 58.8002 55.1635 58.8002C55.2507 58.8002 55.3378 58.7564 55.4685 58.6689L55.5121 58.7564C55.3814 58.8439 55.2071 58.9314 55.0764 59.0627C54.9457 59.1502 54.8585 59.1939 54.8149 59.2814L54.7714 59.1939C54.8585 59.0627 54.9021 58.8877 54.8149 58.6252L53.9871 55.6502L54.0306 55.6064L56.6886 57.4002C56.8629 57.4877 57.0371 57.4877 57.1243 57.4002ZM54.2485 56.1752L54.6407 57.6627L55.4685 57.0502L54.2485 56.1752Z" fill="#999999"/>
<path d="M58.4314 51.7999C58.4314 51.8437 58.4314 51.9311 58.4749 51.9749C58.5185 52.0186 58.5621 52.1061 58.6492 52.1936L59.695 53.1999C59.8693 53.3749 60 53.5062 60.0872 53.6374C60.1743 53.7687 60.2614 53.8999 60.305 54.0311C60.3486 54.1624 60.3486 54.3374 60.305 54.5124C60.2614 54.6874 60.1743 54.8187 60.0436 54.9499C59.8257 55.2124 59.5643 55.2999 59.3028 55.3436C59.1721 55.3436 59.0414 55.3437 58.9542 55.2999C58.8671 55.2562 58.7364 55.2124 58.6057 55.1249C58.4749 55.0374 58.3442 54.9062 58.2135 54.7749L57.1242 53.7249C57.037 53.6374 56.9499 53.5937 56.9063 53.5499C56.8627 53.5062 56.8192 53.5062 56.7756 53.5499C56.732 53.5937 56.6449 53.6374 56.6013 53.6812L56.5142 53.5936C56.6013 53.5061 56.732 53.3749 56.9499 53.1999C57.1242 53.0249 57.2549 52.8937 57.342 52.7624L57.4292 52.8499C57.342 52.9374 57.2985 52.9811 57.2985 53.0686C57.2985 53.1124 57.2985 53.1562 57.2985 53.1999C57.342 53.2437 57.3856 53.3312 57.4728 53.4187L58.6057 54.5124C58.78 54.6874 58.9542 54.8186 59.085 54.9061C59.2157 54.9936 59.39 55.0374 59.5207 55.0374C59.6514 55.0374 59.8257 54.9499 59.9564 54.8186C60.1743 54.5999 60.2614 54.3374 60.1743 54.1187C60.1307 53.8562 59.9564 53.5937 59.6514 53.3312L58.5621 52.2811C58.475 52.1936 58.3878 52.1499 58.3442 52.1062C58.3007 52.0624 58.2135 52.0624 58.1699 52.1062C58.1264 52.1499 58.0392 52.1937 57.9521 52.2374L57.8649 52.1499C57.9521 52.0624 58.0392 51.9749 58.2135 51.7999C58.3442 51.6687 58.4314 51.5812 58.5185 51.4937L58.6057 51.5812C58.4749 51.6687 58.4314 51.7562 58.4314 51.7999Z" fill="#999999"/>
<path d="M60.1742 50.4002C59.9999 50.3127 59.8257 50.1814 59.6514 50.0939C59.7821 49.8752 60.0435 49.5252 60.3921 49.0439C60.7407 48.5189 60.9586 48.1689 61.0893 47.9502C61.2636 48.0814 61.4378 48.2127 61.5686 48.3002C61.6993 48.3877 61.83 48.4752 61.9171 48.5189L61.8736 48.6064C61.6557 48.4752 61.4814 48.4314 61.3507 48.3877C61.22 48.3439 61.1328 48.3439 61.0457 48.3877C60.9585 48.4314 60.8278 48.5189 60.7407 48.6939L60.5664 48.8689L62.8322 50.4002C62.9629 50.4877 63.05 50.5314 63.0936 50.5314C63.1372 50.5314 63.2243 50.5314 63.2679 50.4877C63.3115 50.4439 63.3986 50.3564 63.4858 50.2689L63.5729 50.3127C63.4858 50.4439 63.3551 50.6189 63.1808 50.8814C63.0065 51.1439 62.8758 51.3189 62.8322 51.4502L62.745 51.4064C62.8322 51.2752 62.8758 51.1877 62.8758 51.1439C62.8758 51.1002 62.8758 51.0127 62.8322 50.9689C62.7886 50.9252 62.7015 50.8377 62.6143 50.7939L60.3485 49.2627L60.2178 49.4814C60.1307 49.6564 60.0435 49.7877 60.0435 49.8752C60.0435 49.9627 60.0871 50.0939 60.1742 50.1814C60.2614 50.2689 60.3921 50.4002 60.5664 50.5752L60.5228 50.6627C60.3921 50.5752 60.3049 50.4877 60.1742 50.4002Z" fill="#999999"/>
<path d="M62.9193 44.2311C62.9629 44.0998 63.0064 44.0123 63.05 43.9248L63.1372 43.9685C63.1372 44.0123 63.1372 44.0998 63.1807 44.1873C63.2243 44.2748 63.2679 44.3623 63.3986 44.4935L64.4444 45.7623L65.2287 46.1123C65.3594 46.1561 65.4029 46.1998 65.4901 46.1998C65.5337 46.1998 65.5772 46.1998 65.6208 46.156C65.6644 46.1123 65.708 46.0685 65.7515 45.9373L65.8387 45.9811C65.7515 46.1123 65.708 46.2873 65.5772 46.506C65.4901 46.7248 65.403 46.9435 65.3594 47.031L65.2722 46.9873C65.3158 46.8998 65.3158 46.8123 65.3158 46.7686C65.3158 46.7248 65.3158 46.6811 65.2722 46.6373C65.2287 46.5936 65.1415 46.5498 65.0544 46.506L64.4008 46.1998L62.3964 46.3311C62.2657 46.3311 62.1785 46.3748 62.135 46.3748C62.0914 46.4185 62.0478 46.4185 62.0478 46.4623L61.9607 46.4186C62.0043 46.3311 62.0914 46.1998 62.135 46.0685C62.2657 45.806 62.3529 45.5873 62.3964 45.4561L62.4836 45.4998C62.3964 45.6748 62.3964 45.806 62.5271 45.8498C62.5707 45.8498 62.6143 45.8936 62.7014 45.8936L64.4008 45.806L63.5293 44.756C63.3986 44.6248 63.3114 44.4935 63.2243 44.4935C63.1371 44.4498 63.05 44.4498 63.0064 44.4935C62.9629 44.5373 62.8757 44.6248 62.8322 44.756L62.745 44.7123C62.745 44.5373 62.8322 44.4061 62.9193 44.2311Z" fill="#999999"/>
<path d="M39.9564 70.0001C32.0261 70.0001 24.5752 67.375 18.3442 62.475C12.3311 57.7063 7.97384 50.9688 6.14378 43.5313C6.01306 42.9626 6.36165 42.3938 6.88452 42.2626C7.45097 42.1313 8.01743 42.4813 8.14815 43.0063C9.89107 50.0063 13.9869 56.3063 19.6514 60.8126C25.4902 65.4501 32.5054 67.9001 39.9564 67.9001C47.4074 67.9001 54.4226 65.4501 60.2614 60.8126C65.9259 56.3063 70.0218 50.0063 71.7647 43.0063C71.8954 42.4375 72.4619 42.0876 73.0283 42.2626C73.5948 42.3938 73.9434 42.9626 73.7691 43.5313C71.8954 50.9688 67.5817 57.7063 61.5686 62.475C55.3377 67.4188 47.8867 70.0001 39.9564 70.0001Z" fill="#999999"/>
<path d="M72.7671 27.7812C72.2878 27.7812 71.8956 27.475 71.7649 26.9938C70.022 19.9938 65.9261 13.6937 60.2616 9.1875C54.4228 4.55 47.4076 2.09999 39.9566 2.09999C32.5056 2.09999 25.4904 4.55 19.6516 9.1875C13.9871 13.6937 9.89127 19.9938 8.14835 26.9938C8.01763 27.5625 7.45117 27.9125 6.88472 27.7375C6.31827 27.6063 5.96968 27.0375 6.14398 26.4687C8.01761 19.0312 12.3313 12.2938 18.3444 7.525C24.5318 2.58126 32.0263 0 39.9566 0C47.8869 0 55.3379 2.62501 61.5688 7.525C67.5819 12.2938 71.9392 19.0312 73.7693 26.4687C73.9 27.0375 73.5514 27.6063 73.0285 27.7375C72.9414 27.7813 72.8542 27.7812 72.7671 27.7812Z" fill="#999999"/>
<path d="M1.22004 38.1498C0.392152 37.3623 0 36.3123 0 35.0873C0 33.8623 0.392152 32.8123 1.22004 32.0248C2.04793 31.2373 3.0501 30.7998 4.27015 30.7998C5.18518 30.7998 6.01307 31.0623 6.75381 31.5436C7.49455 32.0248 7.97386 32.7248 8.27887 33.5998H5.83879C5.53378 32.9873 5.0109 32.681 4.31374 32.681C3.61657 32.681 3.0501 32.8998 2.65794 33.3373C2.26578 33.7748 2.04794 34.3435 2.04794 35.0873C2.04794 35.831 2.26578 36.3998 2.65794 36.8373C3.0501 37.2748 3.61657 37.4935 4.31374 37.4935C5.0109 37.4935 5.53378 37.1873 5.83879 36.5748H8.27887C7.97386 37.4498 7.49455 38.1498 6.75381 38.631C6.01307 39.1123 5.22875 39.3748 4.27015 39.3748C3.0501 39.3748 2.04793 38.981 1.22004 38.1498Z" fill="#999999"/>
<path d="M12.6361 38.1937C11.8082 37.3625 11.416 36.3562 11.416 35.1312C11.416 33.9062 11.8082 32.8562 12.6361 32.0687C13.4639 31.2812 14.4661 30.8438 15.6862 30.8438C16.9062 30.8438 17.9084 31.2375 18.6927 32.0687C19.5206 32.8562 19.9127 33.9062 19.9127 35.1312C19.9127 36.3562 19.5206 37.4062 18.6927 38.1937C17.8648 39.025 16.8626 39.4188 15.6862 39.4188C14.4661 39.375 13.4639 38.9812 12.6361 38.1937ZM17.2548 36.8375C17.6469 36.4 17.8648 35.8313 17.8648 35.0875C17.8648 34.3438 17.6469 33.775 17.2548 33.3375C16.8626 32.9 16.3398 32.6813 15.6426 32.6813C14.989 32.6813 14.4226 32.9 14.0304 33.3375C13.6382 33.775 13.4204 34.3438 13.4204 35.0875C13.4204 35.8313 13.6382 36.4 14.0304 36.8375C14.4226 37.275 14.9454 37.4938 15.6426 37.4938C16.3398 37.4938 16.8626 37.275 17.2548 36.8375Z" fill="#999999"/>
<path d="M26.4487 32.4186C26.1872 32.4186 25.9694 32.5061 25.8386 32.6373C25.6644 32.7686 25.5772 32.9873 25.5772 33.2061C25.5772 33.4686 25.6644 33.6435 25.7951 33.8185C25.9258 33.9935 26.1437 34.0811 26.3615 34.1686C26.623 34.2561 26.8844 34.3436 27.1894 34.3873C27.4944 34.4748 27.7994 34.5623 28.0609 34.6498C28.3659 34.7373 28.6273 34.8686 28.8452 35.0436C29.1066 35.2186 29.2809 35.4373 29.4116 35.6998C29.5424 36.0061 29.6295 36.356 29.6295 36.7498C29.6295 37.4498 29.3245 38.0623 28.758 38.5873C28.1916 39.1123 27.4508 39.3311 26.4922 39.3311C25.5336 39.3311 24.7929 39.1123 24.2264 38.631C23.66 38.1935 23.355 37.5373 23.355 36.7061H25.5336C25.5772 37.3623 25.9258 37.7123 26.5358 37.7123C26.8408 37.7123 27.0587 37.6248 27.233 37.4935C27.4073 37.3623 27.4944 37.1436 27.4944 36.9248C27.4944 36.7061 27.4073 36.4873 27.2765 36.3561C27.1458 36.2248 26.928 36.0935 26.7101 36.006C26.4487 35.9185 26.1872 35.831 25.8822 35.7435C25.5772 35.656 25.2722 35.5686 25.0108 35.4811C24.7058 35.3498 24.4443 35.2185 24.2264 35.0873C23.965 34.9123 23.7907 34.6935 23.66 34.431C23.5293 34.1248 23.4421 33.8185 23.4421 33.381C23.4421 32.5935 23.7471 31.981 24.3136 31.4998C24.88 31.0185 25.6208 30.7998 26.5358 30.7998C27.4509 30.7998 28.148 31.0185 28.7145 31.4123C29.2809 31.806 29.5424 32.4623 29.5859 33.3373H27.3637C27.3201 33.031 27.233 32.8123 27.0587 32.6373C26.8844 32.5061 26.7101 32.4186 26.4487 32.4186Z" fill="#999999"/>
<path d="M43.0935 30.9312V39.2874H41.0456V34.5624L39.1284 39.2874H37.6033L35.6861 34.5624V39.2874H33.6382V30.9312H35.9475L38.3441 36.7062L40.7406 30.9312H43.0935Z" fill="#999999"/>
<path d="M52.2876 30.9312V32.4624H49.2811V34.2561H51.939V35.7874H49.2811V37.7124H52.2876V39.2437H47.2332V30.9312H52.2876Z" fill="#999999"/>
<path d="M55.8606 32.5061V30.9312H62.4401V32.4624H60.1307V39.2874H58.0828V32.4624H55.8606V32.5061Z" fill="#999999"/>
<path d="M66.0132 39.2874V30.9312H68.0611V39.2874H66.0132Z" fill="#999999"/>
<path d="M72.9413 38.1498C72.1134 37.3623 71.7212 36.3123 71.7212 35.0873C71.7212 33.8623 72.1134 32.8123 72.9413 32.0248C73.7691 31.2373 74.7713 30.7998 75.9914 30.7998C76.9064 30.7998 77.7343 31.0623 78.475 31.5436C79.2157 32.0248 79.695 32.7248 80.0001 33.5998H77.56C77.255 32.9873 76.7321 32.681 76.0349 32.681C75.3378 32.681 74.7713 32.8998 74.3792 33.3373C73.987 33.7748 73.7691 34.3435 73.7691 35.0873C73.7691 35.831 73.987 36.3998 74.3792 36.8373C74.7713 37.2748 75.3378 37.4935 76.0349 37.4935C76.7321 37.4935 77.255 37.1873 77.56 36.5748H80.0001C79.695 37.4498 79.2157 38.1498 78.475 38.631C77.7343 39.1123 76.95 39.3748 75.9914 39.3748C74.7713 39.3748 73.7691 38.981 72.9413 38.1498Z" fill="#999999"/>
</svg>
