<svg width="76" height="70" viewBox="0 0 76 70" fill="none" xmlns="http://www.w3.org/2000/svg">
<path opacity="0.9992" d="M33.8797 68.7234C25.1545 67.6352 17.3204 63.1918 11.8076 56.2162C11.7385 56.1255 11.6072 56.1116 11.5174 56.1813C11.4276 56.2511 11.4138 56.3836 11.4829 56.4743C14.2048 59.9202 17.507 62.7663 21.2927 64.9427C25.1752 67.1679 29.3962 68.5839 33.8245 69.135C33.8314 69.135 33.8383 69.135 33.8521 69.135C33.9557 69.135 34.0455 69.0583 34.0593 68.9536C34.0732 68.842 33.9903 68.7444 33.8797 68.7234Z" fill="#999999"/>
<path opacity="0.9992" d="M64.6977 56.0417C64.6079 55.9719 64.4767 55.9859 64.4076 56.0766C58.8533 63.1847 50.9156 67.6839 42.0522 68.7512C41.9417 68.7651 41.8588 68.8698 41.8726 68.9814C41.8864 69.086 41.9762 69.1628 42.0799 69.1628C42.0868 69.1628 42.0937 69.1628 42.1075 69.1628C46.6048 68.6256 50.8811 67.2026 54.8188 64.9425C58.6599 62.7382 61.9966 59.8434 64.7392 56.3347C64.8014 56.244 64.7875 56.1114 64.6977 56.0417Z" fill="#999999"/>
<path opacity="0.9992" d="M42.2111 1.48597C50.4527 2.51836 57.9897 6.5921 63.4473 12.9678C63.4887 13.0166 63.544 13.0375 63.6062 13.0375C63.6545 13.0375 63.7029 13.0236 63.7443 12.9887C63.8341 12.912 63.8411 12.7794 63.7651 12.6957C58.2453 6.24332 50.6116 2.11378 42.2663 1.06744C42.1489 1.05349 42.0522 1.1372 42.0383 1.2488C42.0176 1.36739 42.1005 1.47202 42.2111 1.48597Z" fill="#999999"/>
<path opacity="0.9992" d="M33.8242 1.06744C25.6102 2.09285 18.0593 6.13171 12.5603 12.4237C12.4843 12.5074 12.4912 12.6399 12.581 12.7167C12.6225 12.7515 12.6708 12.7725 12.7192 12.7725C12.7745 12.7725 12.8366 12.7515 12.8781 12.7027C18.315 6.48049 25.769 2.49743 33.8794 1.479C33.99 1.46505 34.0729 1.36041 34.0591 1.2488C34.0452 1.1372 33.9416 1.05349 33.8242 1.06744Z" fill="#999999"/>
<path opacity="0.9992" d="M38.1143 0C37.5271 0 37.0574 0.481316 37.0574 1.06727C37.0574 1.65321 37.534 2.13453 38.1143 2.13453C38.6946 2.13453 39.1713 1.65321 39.1713 1.06727C39.1713 0.481316 38.6946 0 38.1143 0ZM38.1143 1.71599C37.762 1.71599 37.4719 1.42302 37.4719 1.06727C37.4719 0.71151 37.762 0.418536 38.1143 0.418536C38.4667 0.418536 38.7568 0.71151 38.7568 1.06727C38.7568 1.42302 38.4667 1.71599 38.1143 1.71599Z" fill="#999999"/>
<path opacity="0.9992" d="M38.1143 67.8652C37.5271 67.8652 37.0574 68.3466 37.0574 68.9325C37.0574 69.5185 37.534 69.9998 38.1143 69.9998C38.6946 69.9998 39.1713 69.5185 39.1713 68.9325C39.1713 68.3466 38.6946 67.8652 38.1143 67.8652ZM38.1143 69.5882C37.762 69.5882 37.4719 69.2952 37.4719 68.9395C37.4719 68.5837 37.762 68.2907 38.1143 68.2907C38.4667 68.2907 38.7568 68.5837 38.7568 68.9395C38.7568 69.2952 38.4667 69.5882 38.1143 69.5882Z" fill="#999999"/>
<path opacity="0.9992" d="M69.1192 51.7939C69.1122 51.7939 69.1122 51.7939 69.1192 51.7939C69.1053 51.8009 69.0983 51.8009 69.0913 51.8079C69.0983 51.8009 69.1053 51.8009 69.1192 51.7939Z" fill="#999999"/>
<path opacity="0.9992" d="M72.0964 29.3671C72.0964 29.3601 72.0964 29.3532 72.1034 29.3462C72.0964 29.3532 72.0964 29.3601 72.0964 29.3671Z" fill="#999999"/>
<path opacity="0.9992" d="M74.8598 40.5837C73.2364 40.786 72.3728 42.5369 71.5093 43.7507C71.5093 43.7507 71.5092 43.7437 71.5162 43.7437L71.5093 43.7507C71.5162 43.7437 71.5162 43.7437 71.5231 43.7367C71.5162 43.7437 71.5162 43.7507 71.5093 43.7576L71.5162 43.7507C71.5092 43.7646 71.4954 43.7786 71.4885 43.7855C71.4954 43.7786 71.5024 43.7716 71.5093 43.7646C71.5024 43.7786 71.4885 43.7855 71.4816 43.7995C71.4747 43.8134 71.4678 43.8204 71.454 43.8274L71.4609 43.8204C71.1155 44.232 70.7562 44.6296 70.4799 45.09C70.9359 43.3251 71.2536 41.5324 71.4194 39.7188C71.4194 39.7327 71.4194 39.7467 71.4125 39.7606C71.4194 39.7188 71.4195 39.6769 71.4264 39.6351C71.4264 39.642 71.4264 39.649 71.4264 39.649C71.454 39.356 71.4816 39.0631 71.5024 38.7771C71.9169 38.4004 72.4626 38.226 72.8978 37.8633C72.9186 37.8493 72.9324 37.8354 72.9531 37.8214C72.9531 37.8214 72.9462 37.8214 72.9462 37.8284C72.9531 37.8214 72.96 37.8144 72.9669 37.8075C72.9669 37.8075 72.9669 37.8075 72.96 37.8075C73.9686 37.0611 74.998 36.0426 75.2121 34.7522C75.3227 33.8384 74.5006 33.0641 73.7476 33.8453C72.7804 35.1637 72.3797 36.796 71.53 38.1911C71.6129 36.503 71.5852 34.808 71.3849 33.1268C73.0567 31.5364 74.8391 29.1996 74.4108 26.7442C74.2519 26.1931 73.6716 25.4467 73.0844 25.9559C72.1932 26.8139 72.3314 28.23 72.0896 29.36C72.0827 29.3949 72.0826 29.4298 72.0757 29.4577V29.4507C72.0757 29.4647 72.0688 29.4786 72.0688 29.4926C72.0688 29.5065 72.0619 29.5205 72.0619 29.5344C72.0619 29.5344 72.0619 29.5344 72.0619 29.5274C72.0619 29.5344 72.0619 29.5344 72.0619 29.5414C72.0619 29.5414 72.0619 29.5414 72.0619 29.5344C71.8271 30.5738 71.758 31.6759 71.3158 32.6525C71.1017 30.9086 70.9497 29.1438 70.3349 27.4906C73.3814 22.231 70.5006 18.3316 69.7545 21.7078C69.6233 23.4308 70.3418 25.0979 70.1207 26.8349C69.6717 25.1677 68.7528 23.7168 67.8409 22.2798C67.8686 22.1612 67.9307 22.0496 67.9584 21.931C67.9584 21.938 67.9584 21.938 67.9515 21.945C69.8927 16.4761 65.955 15.7786 67.309 20.7243V20.7173C67.309 20.7312 67.3159 20.7452 67.3159 20.7591C67.3159 20.7522 67.3159 20.7522 67.3159 20.7452C67.3159 20.7522 67.3159 20.7591 67.3228 20.7661C67.3228 20.7731 67.3228 20.7731 67.3228 20.7801C67.4195 21.2195 67.606 21.6311 67.682 22.0705C66.9912 21.1916 66.2727 20.3266 65.4783 19.5384C65.4506 19.2175 65.4092 18.8618 65.4576 18.52V18.5269C65.4576 18.52 65.4576 18.52 65.4576 18.513C65.5059 17.3062 66.1 14.0207 64.1933 14.1881C64.1933 14.1881 64.2002 14.1881 64.2002 14.1812C64.1933 14.1881 64.1795 14.1881 64.1726 14.1951C64.1795 14.1951 64.1795 14.1951 64.1864 14.1881C63.1087 15.0322 64.1795 16.9505 64.4904 18.0247C64.4904 18.0177 64.4835 18.0107 64.4835 18.0038C64.5042 18.0526 64.5249 18.1084 64.5457 18.1572C64.5387 18.1433 64.5388 18.1363 64.5319 18.1224C64.5388 18.1503 64.5526 18.1712 64.5595 18.1991C64.5526 18.1851 64.5526 18.1782 64.5457 18.1642C64.5802 18.2549 64.6147 18.3456 64.6493 18.4363C64.6424 18.4223 64.6424 18.4153 64.6355 18.4014C64.6977 18.5548 64.7598 18.7083 64.822 18.8548C64.2348 18.2061 63.4749 17.7596 62.7633 17.2644C61.8169 16.2878 60.6217 15.4437 59.3575 14.9275H59.3644C58.4594 14.5648 56.8636 15.2345 58.0173 16.225C59.1295 17.1528 60.6977 17.0551 62.0517 17.2923C62.259 17.2783 62.4524 17.4736 62.6389 17.4248C63.8824 18.1572 64.8911 19.1757 65.8582 20.236C64.5318 19.4686 61.354 19.092 60.7184 20.8707C61.1053 21.666 62.0794 21.6171 62.8117 21.4288C63.9308 21.2404 64.9878 20.5778 66.1069 20.522C66.48 20.9544 66.8392 21.3939 67.1984 21.8334C67.1915 21.8264 67.1846 21.8194 67.1777 21.8124C67.6268 22.3705 67.9791 22.9983 68.3383 23.6191C67.005 22.5588 64.974 22.224 63.3367 22.6286C61.7892 23.1239 62.3073 24.5329 63.7788 24.4004H63.7719C63.7788 24.4004 63.7857 24.4004 63.7927 24.4004C63.8065 24.4004 63.8203 24.4004 63.8341 24.4004H63.8272C63.841 24.4004 63.8548 24.4004 63.8686 24.4004C63.8617 24.4004 63.8548 24.4004 63.8548 24.4004C69.5818 23.8144 68.5179 22.5798 70.5835 29.5414C69.5473 27.8045 67.6959 26.2838 65.5957 26.3605C64.898 26.521 64.3937 27.1418 65.0707 27.7068C65.0707 27.7068 65.0707 27.7068 65.0707 27.7138C65.0638 27.7068 65.0638 27.6998 65.0569 27.6998C65.0638 27.7068 65.0707 27.7138 65.0776 27.7208C65.0776 27.7208 65.0776 27.7208 65.0707 27.7138C66.3211 29.5623 68.9808 28.9694 70.6734 30.0785C70.929 32.0945 71.2329 34.1104 71.2329 36.1473C70.4868 34.3266 66.853 30.5529 64.8911 32.3316C64.8496 32.3526 64.8358 32.4153 64.8565 32.4572C64.8427 32.6246 64.9533 32.7711 65.0085 32.9246V32.9176C65.0085 32.9246 65.0154 32.9315 65.0154 32.9315C65.9135 35.2474 68.9463 34.9405 70.6872 36.2449C70.7286 36.2798 70.7701 36.3147 70.8115 36.3426C70.9497 36.4751 71.1293 36.5798 71.2398 36.7332C71.2329 38.5399 71.0602 40.3396 70.777 42.1253C70.701 41.9161 70.6181 41.7138 70.5352 41.5045C70.5352 41.5115 70.5421 41.5185 70.5421 41.5254V41.5185C70.5283 41.4906 70.5214 41.4627 70.5076 41.4348C70.5145 41.4417 70.5145 41.4557 70.5214 41.4627C68.9808 35.7845 63.2814 35.6729 66.3004 39.356C67.6889 40.3815 69.2019 41.2325 70.5144 42.3625C70.5006 42.3555 70.4937 42.3416 70.4799 42.3346C70.5352 42.3834 70.5974 42.4323 70.6457 42.4881C70.473 44.6296 69.6647 46.7083 68.8979 48.7103C68.4696 41.7626 63.4127 40.9186 65.6026 45.3132C66.6182 46.6734 67.9377 47.7895 68.6078 49.3939C68.4627 49.7636 68.3107 50.1263 68.138 50.4891C67.9653 50.8448 67.7857 51.2006 67.5922 51.5424C67.3988 51.8842 67.1916 52.226 66.9705 52.5538C66.7494 52.8817 66.5491 53.2096 66.3073 53.5304C66.0724 53.8443 65.7892 54.221 65.5336 54.521C65.4092 54.6675 65.4368 54.7721 65.499 54.8279C65.5612 54.8837 65.651 54.9116 65.8721 54.6395C66.0448 54.4233 66.4593 53.928 66.6251 53.6769C66.7494 53.4956 66.853 53.3421 67.005 53.1468C67.0119 53.1398 67.0257 53.1189 67.0327 53.1189C74.1551 53.363 74.5144 45.9061 69.1328 50.8867C69.1259 50.8937 69.1259 50.8937 69.119 50.9006C69.1052 50.9146 69.0983 50.9216 69.0844 50.9355C69.0844 50.9355 69.0845 50.9355 69.0914 50.9285C69.0845 50.9355 69.0775 50.9425 69.0637 50.9495C69.0637 50.9495 69.0568 50.9495 69.0568 50.9564C69.0637 50.9495 69.0637 50.9495 69.0706 50.9495C68.5801 51.3471 68.1242 51.7796 67.6544 52.1981C68.138 51.375 68.511 50.4891 68.891 49.6171C68.9601 49.5823 69.0015 49.4916 68.9739 49.4218C69.4644 48.2569 69.8996 47.0641 70.2796 45.8573C72.3728 45.2574 75.6819 44.4482 75.9997 41.8394C76.0135 41.1767 75.5368 40.514 74.8598 40.5837ZM74.8598 33.9011C75.6612 35.7287 73.2225 37.4517 71.8547 38.233C72.9117 36.8169 74.0861 35.4148 74.7078 33.7407C74.77 33.7895 74.8184 33.8453 74.8598 33.9011ZM72.207 37.1518C72.6008 36.5867 72.8011 35.931 73.0429 35.2963C73.0429 35.2893 73.0498 35.2823 73.0498 35.2823C73.0498 35.2823 73.0498 35.2893 73.0429 35.2893C73.4021 34.6754 73.6992 33.643 74.5489 33.6709C74.2588 34.515 73.7614 35.2614 73.2709 35.9938C73.2778 35.9868 73.2778 35.9799 73.2847 35.9729C73.2432 36.0357 73.2018 36.0984 73.1534 36.1612C73.1534 36.1612 73.1534 36.1612 73.1534 36.1542C73.1465 36.1612 73.1465 36.1682 73.1396 36.1752C73.1465 36.1682 73.1465 36.1612 73.1534 36.1542C73.1465 36.1682 73.1396 36.1821 73.1258 36.1891C73.1327 36.1821 73.1327 36.1752 73.1396 36.1682C73.1327 36.1822 73.1258 36.1891 73.1189 36.2031C73.1258 36.1961 73.1258 36.1891 73.1327 36.1822C72.9808 36.4054 72.8288 36.6216 72.6837 36.8448C72.6906 36.8379 72.6906 36.8309 72.6975 36.8239C72.3521 37.2494 72.055 37.7168 71.6958 38.1353C71.8823 37.8214 72.0343 37.4796 72.207 37.1518ZM73.6094 26.1443C73.6094 26.1513 73.6094 26.1513 73.6094 26.1443C73.6094 26.1024 73.6163 26.0536 73.6232 25.9978C73.6577 26.0048 73.6854 26.0257 73.7061 26.0466C75.2536 27.6859 73.1673 30.9993 71.8685 32.2758C72.7458 30.3436 73.416 28.2718 73.6094 26.1443ZM71.7511 31.9898C72.3106 30.5877 72.1379 26.4512 73.485 25.9978C73.3952 27.4557 72.96 28.8578 72.5593 30.2529C72.2692 30.9784 72.0343 31.7457 71.6267 32.4153C71.6751 32.2758 71.7165 32.1363 71.7511 31.9898ZM67.6129 21.38C67.3712 20.2499 66.6389 18.4921 67.6337 17.5992C67.5922 18.9036 67.5784 20.222 67.6544 21.5264C67.6406 21.4776 67.6268 21.4288 67.6129 21.38ZM61.2089 16.9365C60.3799 16.783 57.665 16.6156 57.962 15.4647C59.2401 15.646 60.3454 16.4482 61.5198 16.9714C61.4162 16.9574 61.3126 16.9505 61.2089 16.9365ZM61.5336 16.6645C60.3592 16.1552 59.171 15.2066 57.8584 15.2693C59.3299 14.4811 60.7599 15.9809 61.8859 16.797C61.7685 16.7482 61.6511 16.7133 61.5336 16.6645ZM64.9602 18.5339V18.5409C64.8565 18.2619 64.7529 17.9828 64.6424 17.7108V17.7178C64.6355 17.7038 64.6286 17.6829 64.6217 17.6689V17.6759C64.6147 17.6689 64.6147 17.655 64.6078 17.648C64.6078 17.655 64.6147 17.662 64.6147 17.6689C64.6147 17.662 64.6078 17.648 64.6078 17.641C64.6009 17.6271 64.594 17.6062 64.5871 17.5922C64.5871 17.5992 64.5871 17.5992 64.594 17.6062C64.3108 16.6784 63.5509 15.2275 64.2831 14.4113C64.3177 14.5299 64.3799 14.6415 64.4075 14.7601V14.7532C64.4075 14.7601 64.4075 14.7601 64.4075 14.7671C64.4075 14.7671 64.4075 14.7671 64.4075 14.7601C64.4766 15.5484 64.5457 16.3366 64.7736 17.0969C64.7736 17.09 64.7736 17.083 64.7667 17.083C64.8427 17.4178 64.8773 17.7596 64.9809 18.0945C64.9809 18.0875 64.9809 18.0875 64.9809 18.0805C64.9809 18.0875 64.9809 18.0945 64.9878 18.1014C65.0569 18.3805 65.0776 18.6595 65.1121 18.9455C65.0638 18.806 65.0154 18.6665 64.9602 18.5339ZM65.2365 18.3107C65.2296 18.3316 65.2296 18.3595 65.2227 18.3805C65.2227 18.3665 65.2296 18.3595 65.2296 18.3456C65.2296 18.3595 65.2227 18.3735 65.2227 18.3874C65.2089 18.2967 65.1881 18.2061 65.1605 18.1154C65.0292 17.7108 64.9671 17.2853 64.8565 16.8737C64.8565 16.8737 64.8565 16.8737 64.8565 16.8807C64.5526 16.0715 64.6769 15.1787 64.3799 14.3834C64.4144 14.3765 64.4559 14.3834 64.4904 14.3834C65.7823 15.1438 65.2158 17.083 65.2227 18.3456C65.2365 18.3316 65.2365 18.3177 65.2365 18.3107ZM65.4023 20.501C64.442 20.7452 63.5232 21.1428 62.5561 21.3381C62.5492 21.3381 62.5422 21.3381 62.5353 21.3381C62.5353 21.3381 62.5353 21.3381 62.5422 21.3381C61.955 21.4567 61.2711 21.4706 60.8981 20.9126C61.5267 20.9963 62.183 20.8777 62.8117 20.7731C62.8047 20.7731 62.7909 20.7801 62.784 20.7801C63.1847 20.7103 63.5854 20.6615 63.9861 20.5987C63.993 20.5987 63.9999 20.5987 64.0137 20.5917H64.0068C64.5042 20.4731 65.0154 20.3755 65.5266 20.4662C65.4783 20.4801 65.4437 20.4941 65.4023 20.501ZM65.6648 20.3336C64.9256 20.2429 64.2003 20.3894 63.4611 20.4383C63.468 20.4383 63.4818 20.4313 63.4887 20.4313C62.6321 20.508 61.7685 20.801 60.9119 20.6964C60.9464 20.6336 60.9879 20.5708 61.0362 20.508C62.3005 19.371 64.3453 19.6151 65.7615 20.3266C65.727 20.3336 65.6925 20.3336 65.6648 20.3336ZM67.7995 17.5922C67.8133 17.5922 67.834 17.5992 67.8479 17.5992C67.9239 17.6201 67.986 17.6759 68.0413 17.7317C68.7459 18.9804 68.2071 20.6405 67.8409 21.945C67.8409 21.952 67.834 21.9589 67.834 21.9589C67.7788 20.508 67.7788 19.0431 67.7995 17.5922ZM67.7373 23.7656C67.6821 23.7656 67.6199 23.7656 67.5577 23.7726C66.3556 23.9121 65.1743 24.226 63.9654 24.2818C63.9723 24.2818 63.9792 24.2818 63.9792 24.2818C63.613 24.2958 63.2262 24.3097 62.8877 24.1353H62.8946C62.8877 24.1353 62.8876 24.1283 62.8807 24.1283C62.6804 24.0377 62.5768 23.8214 62.5146 23.6191C64.2831 23.9749 66.1346 23.2285 67.8962 23.7726C67.8478 23.7656 67.7926 23.7586 67.7373 23.7656ZM63.5439 23.5005C63.3505 23.4796 63.1502 23.5145 62.9567 23.5005C62.9636 23.5005 62.9705 23.5005 62.9844 23.5005C62.9429 23.5005 62.9084 23.4936 62.8669 23.4936C62.8738 23.4936 62.8738 23.4936 62.8807 23.4936C62.7978 23.4866 62.7149 23.4866 62.6389 23.4587H62.6459C62.639 23.4587 62.6321 23.4517 62.6321 23.4517C62.6321 23.4517 62.632 23.4517 62.6389 23.4517C62.5975 23.4378 62.5561 23.4238 62.5146 23.4168C62.5215 23.3959 62.5284 23.375 62.5422 23.3471C63.7305 21.9171 66.9221 22.6495 68.2209 23.64C66.6803 23.2145 65.0983 23.5563 63.5439 23.5005ZM70.7217 20.6405C72.5455 22.1403 71.226 25.2096 70.4039 26.9744C70.8254 24.8817 70.6526 22.7472 70.6181 20.6266C70.6526 20.6266 70.6872 20.6336 70.7217 20.6405ZM70.1898 24.6166C70.0862 23.926 69.9272 23.2494 69.8996 22.5519C69.8927 21.9101 69.8513 20.9893 70.5007 20.6615C70.4868 22.7053 70.6941 24.7701 70.2658 26.7791C70.3141 26.0466 70.3487 25.3281 70.1898 24.6166ZM69.7684 29.3461C68.1449 28.8927 65.575 28.9206 64.9878 27.0441C65.2296 27.1488 65.423 27.3511 65.6855 27.4208C65.6786 27.4208 65.6786 27.4208 65.6717 27.4138C65.9135 27.5045 66.1553 27.5813 66.404 27.658C66.4938 27.6929 66.5836 27.7277 66.6734 27.7556C66.6734 27.7556 66.6734 27.7556 66.6665 27.7556C66.6942 27.7626 66.7218 27.7766 66.7494 27.7835C66.7839 27.7975 66.8116 27.8045 66.8461 27.8184C66.8392 27.8184 66.8392 27.8114 66.8323 27.8114C66.86 27.8184 66.8807 27.8324 66.9083 27.8393C66.9152 27.8393 66.9152 27.8394 66.9221 27.8463C66.9843 27.8673 67.0465 27.8882 67.1156 27.9091C67.1225 27.9091 67.1225 27.9091 67.1294 27.9161H67.1225C67.1294 27.9161 67.1432 27.9231 67.1501 27.9231C67.1432 27.9231 67.1363 27.9161 67.1363 27.9161C67.8547 28.1951 68.587 28.4881 69.2157 28.9415C69.2157 28.9415 69.2157 28.9415 69.2088 28.9415C69.2295 28.9554 69.2433 28.9694 69.2641 28.9764C69.2572 28.9694 69.2502 28.9694 69.2502 28.9624C69.4989 29.1438 69.8029 29.2484 70.0516 29.4228C69.9549 29.4019 69.8651 29.374 69.7684 29.3461ZM66.6389 27.6371C66.4316 27.5603 66.2175 27.5045 66.0033 27.4348H65.9964C65.9273 27.4069 65.8513 27.3859 65.7822 27.365C65.7891 27.365 65.7892 27.365 65.7961 27.372C65.7477 27.358 65.7063 27.3441 65.6579 27.3232C65.6648 27.3232 65.6648 27.3232 65.6717 27.3301C65.6579 27.3232 65.6441 27.3232 65.6303 27.3162C65.6372 27.3162 65.6372 27.3162 65.6441 27.3232C65.5197 27.2813 65.4023 27.2115 65.2918 27.1348L65.2987 27.1418C65.2158 27.079 65.126 27.0302 65.0292 26.9883C65.05 26.9534 65.0845 26.9255 65.1121 26.8976C66.936 25.9559 69.0844 27.8463 70.1898 29.2345C70.1898 29.2345 70.1898 29.2414 70.1967 29.2414C70.1967 29.2484 70.2036 29.2484 70.2036 29.2554L70.1967 29.2484L70.2036 29.2554C70.2036 29.2554 70.2036 29.2554 70.2036 29.2484C70.2243 29.2833 70.2519 29.3112 70.2727 29.3461C70.2796 29.36 70.2865 29.367 70.3003 29.381C70.3003 29.381 70.3003 29.374 70.2934 29.374C70.3072 29.3949 70.321 29.4158 70.3349 29.4368C69.1743 28.6973 67.9791 27.9928 66.6389 27.6371ZM70.3417 35.7427C68.6768 34.7801 66.0655 34.9614 65.1812 32.9525C65.1329 32.8199 65.0707 32.6944 65.0223 32.5618C65.9549 33.2594 67.081 33.6082 68.138 34.0616C68.9394 34.6336 69.7684 35.1777 70.5076 35.8194C70.4523 35.7985 70.397 35.7706 70.3417 35.7427ZM67.3366 33.5105C67.3435 33.5175 67.3505 33.5175 67.3643 33.5245C66.5698 33.1687 65.7823 32.8199 65.05 32.3526C65.0569 32.3386 65.0638 32.3247 65.0776 32.3107C67.1777 31.083 69.9618 34.229 70.9428 35.9171C69.9065 34.9056 68.6561 34.0685 67.3366 33.5105ZM69.7062 41.3092C68.3522 40.1094 65.7754 39.5723 65.6717 37.4587C67.2606 38.5399 68.5594 40.0257 69.872 41.4278C69.8236 41.3859 69.7615 41.3441 69.7062 41.3092ZM67.7995 38.8329C67.7995 38.8399 67.7995 38.8399 67.7995 38.8329C67.7926 38.8259 67.7857 38.8189 67.7788 38.8119C67.7857 38.8189 67.7857 38.8259 67.7995 38.8329C67.7926 38.8329 67.7995 38.8329 67.7995 38.8329C67.7857 38.8259 67.7788 38.8189 67.7719 38.805C67.7719 38.805 67.7788 38.805 67.7788 38.8119L67.7719 38.805C67.7788 38.805 67.7787 38.8119 67.7857 38.8119C67.7787 38.805 67.7649 38.798 67.758 38.784C67.758 38.784 67.758 38.784 67.7649 38.791C67.1363 38.2399 66.5629 37.6331 65.8306 37.2215C65.879 37.1866 65.9342 37.1518 65.9895 37.1239C68.2347 36.8448 69.5404 39.4607 70.2036 41.2604C69.4782 40.3884 68.6147 39.6351 67.7995 38.8329ZM68.9877 51.2913C69.9411 50.5309 70.9013 49.3521 72.2208 49.4148C71.2744 50.7053 69.5957 51.2564 68.214 51.9679C68.4696 51.7307 68.7252 51.5005 68.9877 51.2913ZM69.1121 51.7935C70.2589 51.1657 71.6543 50.6425 72.4142 49.5404C72.4902 49.659 72.5179 49.7985 72.5248 49.938C72.1863 51.9539 69.3262 52.6864 67.5784 52.6515C68.0551 52.3097 68.5801 52.0516 69.1121 51.7935ZM68.2209 48.0616C67.2814 46.4293 64.7736 45.1597 65.4437 42.9833C66.1691 44.2878 66.7839 45.6899 67.7511 46.8408C67.7442 46.8339 67.7442 46.8339 67.7373 46.8269C68.062 47.3152 68.3038 47.8732 68.4351 48.4522C68.3729 48.3197 68.2969 48.1871 68.2209 48.0616ZM68.2002 47.3989C67.2468 45.948 66.3625 44.4482 65.575 42.8857C65.6648 42.8578 65.7615 42.8648 65.8513 42.8787C67.986 43.6739 68.4143 46.7781 68.7045 48.801C68.587 48.3197 68.4489 47.8314 68.2002 47.3989ZM71.0809 44.6156C72.3521 43.4298 73.2156 40.5698 75.295 40.9535C74.1621 42.7113 72.3728 43.939 70.7079 45.1388C70.8184 44.9574 70.9497 44.783 71.0809 44.6156ZM75.675 42.0207C75.1638 43.9041 72.9255 44.8109 71.1846 45.1737C72.511 44.2808 73.8097 43.2833 74.8322 42.0347C74.8322 42.0416 74.8253 42.0416 74.8184 42.0486C74.8391 42.0207 74.8598 41.9998 74.8805 41.9719C74.8805 41.9719 74.8805 41.9719 74.8736 41.9789C75.1016 41.7138 75.3019 41.4208 75.4539 41.0999C75.6681 41.358 75.7164 41.6998 75.675 42.0207Z" fill="#999999"/>
<path opacity="0.9992" d="M74.8804 41.9723C74.8804 41.9793 74.8804 41.9793 74.8804 41.9723C74.8804 41.9723 74.8804 41.9653 74.8874 41.9653C74.8874 41.9723 74.8873 41.9723 74.8804 41.9723Z" fill="#999999"/>
<path opacity="0.9992" d="M6.89582 51.8079C6.88884 51.8009 6.88188 51.8009 6.8749 51.7939C6.8749 51.7939 6.8749 51.7939 6.86792 51.7939C6.88187 51.8009 6.88884 51.8009 6.89582 51.8079Z" fill="#999999"/>
<path opacity="0.9992" d="M10.9163 27.7068C11.5933 27.1418 11.0959 26.521 10.3913 26.3605C8.29805 26.2768 6.43971 27.7975 5.40346 29.5414C7.46905 22.5798 6.40516 23.8144 12.1322 24.4004C12.1253 24.4004 12.1184 24.4004 12.1184 24.4004C12.1322 24.4004 12.146 24.4004 12.1598 24.4004H12.1529C12.1667 24.4004 12.1805 24.4004 12.1944 24.4004C12.2013 24.4004 12.2082 24.4004 12.2151 24.4004H12.2082C13.6796 24.5329 14.1978 23.1239 12.6503 22.6286C11.013 22.224 8.97507 22.5588 7.64867 23.6191C8.0079 22.9983 8.36023 22.3705 8.80927 21.8124C8.80236 21.8194 8.79545 21.8264 8.78854 21.8334C9.14778 21.3939 9.50701 20.9475 9.88006 20.522C10.9992 20.5778 12.0562 21.2404 13.1753 21.4288C13.9076 21.6171 14.8817 21.666 15.2686 20.8707C14.633 19.092 11.4552 19.4686 10.1288 20.236C11.0959 19.1757 12.1045 18.1642 13.348 17.4248C13.5415 17.4736 13.728 17.2783 13.9353 17.2923C15.2893 17.0621 16.8575 17.1528 17.9697 16.225C19.1165 15.2414 17.5276 14.5718 16.6226 14.9275H16.6295C15.3653 15.4437 14.1701 16.2878 13.2237 17.2644C12.5121 17.7596 11.7522 18.2061 11.165 18.8548C11.2272 18.7013 11.2894 18.5548 11.3515 18.4014C11.3446 18.4153 11.3446 18.4223 11.3377 18.4363C11.3723 18.3456 11.4068 18.2549 11.4413 18.1642C11.4344 18.1782 11.4344 18.1851 11.4275 18.1991C11.4344 18.1712 11.4482 18.1503 11.4552 18.1224C11.4482 18.1363 11.4482 18.1433 11.4413 18.1572C11.4621 18.1084 11.4828 18.0526 11.5035 18.0038C11.5035 18.0107 11.4966 18.0177 11.4966 18.0247C11.8075 16.9505 12.8714 15.0322 11.8006 14.1881C11.8075 14.1881 11.8075 14.1881 11.8144 14.1951C11.8075 14.1881 11.7937 14.1881 11.7868 14.1812C11.7868 14.1812 11.7937 14.1812 11.7937 14.1881C9.88697 14.0277 10.4811 17.3062 10.5294 18.513C10.5294 18.52 10.5294 18.52 10.5294 18.5269V18.52C10.5847 18.8618 10.5433 19.2175 10.5087 19.5384C9.71425 20.3266 8.99579 21.1846 8.30496 22.0705C8.38786 21.6311 8.57438 21.2195 8.66419 20.7801C8.66419 20.7731 8.66419 20.7731 8.66419 20.7661C8.66419 20.7591 8.6642 20.7522 8.67111 20.7452C8.67111 20.7522 8.67111 20.7522 8.67111 20.7591C8.67111 20.7452 8.678 20.7312 8.678 20.7173V20.7243C10.032 15.7855 6.09428 16.4761 8.03552 21.945C8.03552 21.938 8.03553 21.938 8.02863 21.931C8.06317 22.0496 8.11843 22.1612 8.14606 22.2798C7.23416 23.7168 6.30845 25.1677 5.86631 26.8349C5.63834 25.1049 6.36372 23.4378 6.23246 21.7078C5.48636 18.3247 2.60557 22.231 5.65215 27.4906C5.03731 29.1508 4.88533 30.9086 4.67117 32.6525C4.22903 31.6759 4.16686 30.5738 3.92506 29.5344C3.92506 29.5344 3.92506 29.5344 3.92506 29.5414C3.92506 29.5344 3.92506 29.5344 3.92506 29.5274C3.92506 29.5274 3.92506 29.5274 3.92506 29.5344C3.92506 29.5205 3.91817 29.5065 3.91817 29.4926C3.91817 29.4786 3.91125 29.4647 3.91125 29.4507V29.4577C3.90434 29.4228 3.90435 29.3879 3.89744 29.36C3.65565 28.223 3.79382 26.8139 2.90264 25.9559C2.30853 25.4467 1.73512 26.1931 1.57623 26.7442C1.14791 29.1996 2.93027 31.5364 4.60208 33.1268C4.40865 34.808 4.37412 36.503 4.45702 38.1911C3.60729 36.796 3.2066 35.1637 2.23944 33.8453C1.49334 33.071 0.664339 33.8453 0.774872 34.7522C0.995939 36.0496 2.01836 37.0611 3.02698 37.8075C3.02698 37.8075 3.02699 37.8075 3.02008 37.8075C3.02699 37.8144 3.0339 37.8214 3.04081 37.8284C3.04081 37.8284 3.0339 37.8284 3.0339 37.8214C3.05462 37.8354 3.06844 37.8493 3.08917 37.8633C3.52439 38.219 4.07015 38.3934 4.48465 38.7771C4.50537 39.07 4.53301 39.363 4.56064 39.649C4.56064 39.642 4.56064 39.6351 4.56064 39.6351C4.56755 39.6769 4.56755 39.7188 4.57446 39.7606C4.57446 39.7467 4.57445 39.7327 4.56754 39.7188C4.72643 41.5324 5.05113 43.3251 5.50708 45.09C5.23075 44.6296 4.87152 44.225 4.5261 43.8204L4.533 43.8274C4.52609 43.8204 4.51919 43.8065 4.50537 43.7995C4.49847 43.7855 4.48464 43.7786 4.47773 43.7646C4.48464 43.7716 4.49155 43.7786 4.49846 43.7855C4.49155 43.7716 4.47774 43.7576 4.47083 43.7507L4.47773 43.7576C4.47082 43.7507 4.47083 43.7437 4.46392 43.7367C4.47083 43.7437 4.47082 43.7437 4.47773 43.7507L4.47083 43.7437C4.47083 43.7437 4.47082 43.7507 4.47773 43.7507C3.61419 42.5369 2.75065 40.786 1.12719 40.5837C0.45017 40.521 -0.0264914 41.1767 0.00114198 41.8184C0.325834 44.4273 3.62801 45.2365 5.72123 45.8364C6.09428 47.0431 6.53643 48.236 7.02692 49.4009C6.99928 49.4776 7.04073 49.5683 7.10981 49.5962C7.48977 50.4751 7.86282 51.354 8.3464 52.1772C7.87663 51.7586 7.42068 51.3261 6.93019 50.9285C6.9371 50.9285 6.93711 50.9355 6.94402 50.9355C6.94402 50.9355 6.93711 50.9355 6.93711 50.9285C6.9302 50.9216 6.91639 50.9146 6.90948 50.9076C6.90948 50.9076 6.90947 50.9076 6.91638 50.9146C6.90256 50.9006 6.89565 50.8937 6.88184 50.8797C6.87493 50.8727 6.87493 50.8727 6.86802 50.8658C1.48643 45.8852 1.84565 53.3491 8.96815 53.0979C8.97506 53.0979 8.98888 53.1189 8.99579 53.1258C9.14778 53.3212 9.2514 53.4677 9.37575 53.656C9.54155 53.9141 9.96295 54.4024 10.1288 54.6186C10.3498 54.8907 10.4327 54.8628 10.5018 54.807C10.564 54.7581 10.5847 54.6465 10.4673 54.5C10.2117 54.2001 9.92841 53.8234 9.69353 53.5095C9.45864 53.1956 9.2514 52.8678 9.03033 52.5329C8.80927 52.2051 8.60202 51.8633 8.40858 51.5215C8.21515 51.1797 8.02862 50.8239 7.86282 50.4682C7.69011 50.1124 7.53814 49.7427 7.39306 49.373C8.06317 47.7686 9.38266 46.6525 10.3982 45.2923C12.5881 40.8976 7.52431 41.7347 7.1029 48.6894C6.34298 46.6874 5.53472 44.6087 5.3551 42.4672C5.40346 42.4113 5.45872 42.3625 5.5209 42.3137C5.50708 42.3207 5.50017 42.3346 5.48635 42.3416C6.79894 41.2115 8.31186 40.3675 9.70044 39.3351C12.7194 35.652 7.02 35.7636 5.47944 41.4417C5.48635 41.4348 5.48636 41.4208 5.49327 41.4138C5.47945 41.4417 5.47255 41.4696 5.45873 41.4975V41.5045C5.45873 41.4975 5.46563 41.4906 5.46563 41.4836C5.38273 41.6859 5.29292 41.8952 5.22383 42.1044C4.94059 40.3256 4.76789 38.519 4.76098 36.7123C4.87151 36.5588 5.05113 36.4542 5.18929 36.3217C5.23074 36.2868 5.2722 36.2589 5.31365 36.224C7.05455 34.9126 10.0873 35.2195 10.9854 32.9106C10.9854 32.9036 10.9923 32.8966 10.9923 32.8966V32.9036C11.0476 32.7502 11.1581 32.6037 11.1443 32.4363C11.165 32.3944 11.1512 32.3386 11.1097 32.3107C9.14777 30.5319 5.514 34.3057 4.76789 36.1263C4.7748 34.0895 5.07185 32.0735 5.32746 30.0576C6.99928 28.9694 9.659 29.5623 10.9163 27.7068C10.9094 27.7138 10.9094 27.7138 10.9094 27.7208C10.9163 27.7138 10.9232 27.7068 10.9301 27.6998C10.9163 27.6998 10.9163 27.7068 10.9163 27.7068C10.9094 27.7138 10.9163 27.7138 10.9163 27.7068ZM13.0993 24.1214C13.0993 24.1214 13.1062 24.1214 13.0993 24.1214C13.0993 24.1214 13.0924 24.1283 13.0855 24.1283C13.0924 24.1283 13.0924 24.1283 13.0993 24.1214C12.7608 24.2958 12.3671 24.2888 12.0009 24.2748C12.0078 24.2748 12.0147 24.2748 12.0147 24.2748C10.8058 24.226 9.62445 23.9051 8.4224 23.7656C8.36022 23.7656 8.29805 23.7656 8.23588 23.7586H8.24277C8.18751 23.7586 8.13225 23.7586 8.07698 23.7586C9.83861 23.2215 11.69 23.9609 13.4586 23.6052C13.4033 23.8144 13.3066 24.0307 13.0993 24.1214ZM13.4586 23.354C13.4655 23.375 13.4793 23.3959 13.4862 23.4238C13.4448 23.4308 13.4033 23.4447 13.3619 23.4587C13.3619 23.4587 13.3619 23.4587 13.3688 23.4587C13.3619 23.4587 13.3549 23.4657 13.3549 23.4657H13.3619C13.2859 23.5005 13.203 23.5005 13.1201 23.5005C13.127 23.5005 13.127 23.5005 13.1339 23.5005C13.0924 23.5005 13.0579 23.5075 13.0164 23.5075C13.0233 23.5075 13.0303 23.5075 13.0441 23.5075C12.8506 23.5215 12.6503 23.4866 12.4569 23.5075C10.8956 23.5633 9.32049 23.2215 7.78683 23.654C9.07178 22.6565 12.2634 21.9241 13.4586 23.354ZM13.4448 21.3381C13.4448 21.3381 13.4378 21.3381 13.4309 21.3381C12.4569 21.1498 11.545 20.7452 10.5847 20.501C10.5502 20.4871 10.5087 20.4801 10.4742 20.4662C10.9854 20.3824 11.4897 20.4731 11.994 20.5917H11.9871C11.994 20.5917 12.0009 20.5917 12.0147 20.5987C12.4154 20.6615 12.8161 20.7103 13.2168 20.7801C13.2099 20.7801 13.1961 20.7731 13.1891 20.7731C13.8109 20.8777 14.4741 20.9963 15.1028 20.9126C14.709 21.4776 14.032 21.4637 13.4448 21.3381ZM14.9508 20.515C14.9991 20.5708 15.0406 20.6336 15.0751 20.7033C14.2116 20.808 13.348 20.515 12.4983 20.4383C12.5052 20.4383 12.519 20.4452 12.5259 20.4452C11.7868 20.3894 11.0614 20.2429 10.3222 20.3406C10.2876 20.3406 10.26 20.3406 10.2255 20.3406C11.6417 19.6151 13.6866 19.378 14.9508 20.515ZM14.7781 16.9365C14.6744 16.9505 14.5708 16.9574 14.4741 16.9644C15.6485 16.4482 16.747 15.646 18.0319 15.4577C18.3151 16.6087 15.6071 16.7761 14.7781 16.9365ZM18.1286 15.2693C16.816 15.2066 15.6278 16.1552 14.4534 16.6645C14.3359 16.7133 14.2185 16.7482 14.101 16.797C15.2271 15.9809 16.6571 14.4811 18.1286 15.2693ZM11.6969 14.4044C12.4292 15.2205 11.6624 16.6714 11.3861 17.5992C11.3861 17.5922 11.3861 17.5922 11.393 17.5852C11.3861 17.5992 11.3792 17.6201 11.3723 17.6341C11.3723 17.641 11.3654 17.648 11.3654 17.662C11.3654 17.655 11.3723 17.648 11.3723 17.6341C11.3653 17.641 11.3653 17.655 11.3584 17.662V17.655C11.3515 17.6689 11.3446 17.6899 11.3377 17.7038V17.6968C11.2272 17.9689 11.1236 18.2479 11.0199 18.5269V18.52C10.9647 18.6525 10.9232 18.792 10.861 18.9246C10.8956 18.6386 10.9163 18.3595 10.9854 18.0805C10.9854 18.0735 10.9854 18.0666 10.9923 18.0596C10.9923 18.0666 10.9923 18.0666 10.9923 18.0735C11.0959 17.7457 11.1236 17.3969 11.2065 17.0621C11.2065 17.069 11.2065 17.076 11.1995 17.076C11.4275 16.3157 11.4966 15.5274 11.5657 14.7392C11.5657 14.7392 11.5657 14.7392 11.5657 14.7462C11.5657 14.7392 11.5657 14.7392 11.5657 14.7322V14.7392C11.6002 14.6346 11.6624 14.5299 11.6969 14.4044ZM11.4897 14.3834C11.5242 14.3834 11.5657 14.3765 11.6002 14.3834C11.2963 15.1787 11.4275 16.0715 11.1236 16.8807C11.1236 16.8807 11.1236 16.8807 11.1236 16.8737C11.013 17.2853 10.9439 17.7108 10.8196 18.1154C10.7989 18.2061 10.7781 18.2967 10.7574 18.3874C10.7574 18.3735 10.7505 18.3595 10.7505 18.3456C10.7505 18.3595 10.7574 18.3665 10.7574 18.3805C10.7505 18.3595 10.7505 18.3316 10.7436 18.3107C10.7436 18.3247 10.7436 18.3316 10.7505 18.3456C10.7643 17.083 10.1978 15.1368 11.4897 14.3834ZM8.35331 17.5992C9.34811 18.4921 8.60893 20.2499 8.37404 21.38C8.36023 21.4288 8.34641 21.4776 8.3395 21.5264C8.40858 20.222 8.40167 18.9036 8.35331 17.5992ZM7.94573 17.7387C8.001 17.6829 8.05625 17.6271 8.13915 17.6062C8.15297 17.5992 8.17371 17.5992 8.18752 17.5992C8.20825 19.0501 8.20825 20.515 8.15298 21.9659C8.15298 21.9589 8.14606 21.952 8.14606 21.952C7.77992 20.6475 7.24108 18.9804 7.94573 17.7387ZM5.26529 20.6405C5.29983 20.6336 5.33437 20.6266 5.36892 20.6266C5.33437 22.7472 5.15475 24.8817 5.58307 26.9744C4.76097 25.2096 3.44149 22.1403 5.26529 20.6405ZM5.48635 20.6545C6.13574 20.9823 6.09429 21.9101 6.08738 22.5449C6.05284 23.2424 5.89395 23.926 5.79723 24.6097C5.63834 25.3212 5.67287 26.0466 5.72123 26.7651C5.29291 24.7631 5.50017 22.6914 5.48635 20.6545ZM2.28089 26.0466C2.30853 26.0257 2.33616 26.0117 2.36379 25.9978C2.3707 26.0466 2.37069 26.0955 2.3776 26.1513V26.1443C2.56413 28.2718 3.24114 30.3436 4.1185 32.2758C2.81973 30.9993 0.733426 27.6929 2.28089 26.0466ZM3.42767 30.2529C3.02698 28.8578 2.59176 27.4557 2.50196 25.9978C3.84908 26.4512 3.67636 30.5877 4.23594 31.9898C4.27048 32.1363 4.30503 32.2758 4.36029 32.4153C3.9527 31.7457 3.71782 30.9784 3.42767 30.2529ZM1.12719 33.9011C1.17555 33.8453 1.22392 33.7895 1.27918 33.7407C1.90093 35.4148 3.07534 36.8169 4.13231 38.233C2.75756 37.4517 0.318912 35.7287 1.12719 33.9011ZM3.2826 36.8379C3.28951 36.8448 3.28951 36.8518 3.29642 36.8588C3.15134 36.6356 2.99245 36.4193 2.84737 36.1961C2.85428 36.2031 2.85428 36.2101 2.86119 36.217C2.85428 36.2031 2.84737 36.1961 2.84046 36.1822C2.84737 36.1891 2.84736 36.1961 2.85427 36.2031C2.84736 36.1891 2.84046 36.1752 2.82664 36.1682C2.83355 36.1752 2.83355 36.1821 2.84046 36.1891C2.83355 36.1821 2.83355 36.1752 2.82664 36.1682C2.82664 36.1682 2.82664 36.1682 2.82664 36.1752C2.78519 36.1124 2.74375 36.0496 2.69539 35.9868C2.7023 35.9938 2.7023 36.0008 2.70921 36.0078C2.21871 35.2684 1.72131 34.5289 1.43116 33.6849C2.28089 33.664 2.57795 34.6894 2.93719 35.3032C2.93719 35.3032 2.93718 35.2963 2.93027 35.2963C2.93027 35.3032 2.93719 35.3102 2.93719 35.3102C3.17898 35.952 3.37931 36.6007 3.77308 37.1657C3.9527 37.4936 4.10469 37.8354 4.2774 38.1632C3.92507 37.7307 3.62802 37.2703 3.2826 36.8379ZM0.312017 42.0207C0.270567 41.6998 0.318915 41.3511 0.526165 41.0999C0.678149 41.4208 0.878501 41.7138 1.10648 41.9789C1.10648 41.9789 1.10647 41.9789 1.09956 41.9719C1.12029 41.9998 1.141 42.0207 1.16173 42.0486C1.15482 42.0416 1.15482 42.0416 1.14792 42.0347C2.17035 43.2833 3.47603 44.2808 4.79552 45.1737C3.06844 44.8109 0.830142 43.9041 0.312017 42.0207ZM0.691976 40.9535C2.77139 40.5628 3.63493 43.4298 4.90606 44.6156C5.03732 44.79 5.16857 44.9574 5.2791 45.1388C3.6211 43.939 1.82494 42.7183 0.691976 40.9535ZM6.99238 51.2913C7.2618 51.5075 7.5174 51.7307 7.75919 51.9679C6.38443 51.2564 4.6988 50.6983 3.75236 49.4148C5.07876 49.3521 6.04593 50.524 6.99238 51.2913ZM8.40858 52.6515C6.65387 52.6794 3.80072 51.9539 3.46221 49.938C3.46912 49.7985 3.49676 49.659 3.57275 49.5404C4.33957 50.6495 5.72815 51.1727 6.87494 51.7935C7.40688 52.0516 7.925 52.3097 8.40858 52.6515ZM7.76611 48.0616C7.68321 48.1871 7.61413 48.3197 7.54504 48.4522C7.6763 47.8802 7.91808 47.3152 8.24277 46.8269C8.23587 46.8339 8.23587 46.8339 8.22896 46.8408C9.20304 45.6829 9.81098 44.2808 10.5364 42.9833C11.2134 45.1597 8.71255 46.4223 7.76611 48.0616ZM10.1288 42.8787C10.2186 42.8717 10.3153 42.8578 10.4051 42.8857C9.61754 44.4482 8.73327 45.948 7.77992 47.3989C7.53122 47.8314 7.39305 48.3197 7.27561 48.801C7.57267 46.7781 7.99408 43.6739 10.1288 42.8787ZM6.28081 41.3092C6.22555 41.3511 6.16337 41.3859 6.10811 41.4278C7.42069 40.0257 8.71946 38.5399 10.3084 37.4587C10.2117 39.5723 7.63485 40.1094 6.28081 41.3092ZM10.0044 37.1308C10.0597 37.1587 10.1149 37.1866 10.1633 37.2285C9.43101 37.64 8.85762 38.2469 8.22896 38.798C8.22896 38.798 8.22897 38.798 8.23588 38.791C8.22897 38.798 8.21514 38.805 8.20823 38.8189C8.21514 38.8189 8.21515 38.8119 8.22206 38.8119L8.21515 38.8189C8.21515 38.8189 8.22206 38.8189 8.22206 38.8119C8.21515 38.8189 8.20133 38.8259 8.19442 38.8329C8.19442 38.8329 8.20133 38.8329 8.20133 38.8259C8.20824 38.8189 8.21515 38.8189 8.21515 38.8119C8.20824 38.8189 8.20133 38.8259 8.19442 38.8329C7.37924 39.6281 6.52261 40.3884 5.79723 41.2674C6.45352 39.4677 7.75919 36.8518 10.0044 37.1308ZM10.8058 32.9594C10.8058 32.9594 10.8058 32.9525 10.8058 32.9594C9.92151 34.9614 7.31016 34.787 5.64525 35.7497C5.58998 35.7776 5.53471 35.8055 5.47944 35.8334C6.21863 35.1916 7.05454 34.6405 7.849 34.0755C8.91289 33.6221 10.032 33.2733 10.9647 32.5758C10.9163 32.7013 10.8541 32.8269 10.8058 32.9594ZM10.9163 32.3107C10.9232 32.3247 10.9301 32.3386 10.9439 32.3526C10.2117 32.8199 9.4172 33.1687 8.62965 33.5245C8.63656 33.5175 8.64346 33.5175 8.65728 33.5105C7.33087 34.0685 6.08738 34.9056 5.05804 35.9171C6.03212 34.229 8.81618 31.083 10.9163 32.3107ZM5.6936 29.367C5.70051 29.36 5.70743 29.3531 5.71433 29.3391C5.74197 29.3042 5.76269 29.2763 5.78342 29.2414C5.78342 29.2414 5.78342 29.2414 5.78342 29.2484L5.79032 29.2414L5.78342 29.2484C5.78342 29.2414 5.79032 29.2414 5.79032 29.2345C5.79032 29.2345 5.79032 29.2345 5.79723 29.2275C6.89566 27.8394 9.05106 25.949 10.8749 26.8907C10.9025 26.9186 10.937 26.9465 10.9578 26.9814C10.861 27.0162 10.7712 27.072 10.6883 27.1348L10.6952 27.1278C10.5847 27.2046 10.4673 27.2674 10.3429 27.3162C10.3498 27.3162 10.3498 27.3162 10.3567 27.3092C10.3429 27.3162 10.3291 27.3162 10.3153 27.3232C10.3222 27.3232 10.3222 27.3232 10.3291 27.3162C10.2807 27.3301 10.2393 27.3441 10.1909 27.365C10.1978 27.365 10.1978 27.365 10.2048 27.358C10.1357 27.379 10.0597 27.4069 9.99059 27.4278H9.98369C9.76953 27.4975 9.55536 27.5533 9.34811 27.6301C8.00789 27.9858 6.81966 28.6834 5.65215 29.4158C5.66597 29.4019 5.67979 29.3879 5.6936 29.367ZM6.21865 29.3461C6.12193 29.374 6.03212 29.4019 5.94231 29.4368C6.19792 29.2554 6.49497 29.1577 6.74367 28.9764C6.73676 28.9833 6.72986 28.9833 6.72986 28.9903C6.75058 28.9764 6.7644 28.9624 6.78513 28.9554C6.78513 28.9554 6.78512 28.9554 6.77821 28.9554C7.40687 28.502 8.13916 28.2091 8.85763 27.93C8.85072 27.93 8.85072 27.93 8.84381 27.937C8.85072 27.937 8.86453 27.93 8.87144 27.93H8.86452C8.87143 27.93 8.87145 27.93 8.87836 27.9231C8.94053 27.9021 9.00269 27.8812 9.07177 27.8603C9.07868 27.8603 9.0787 27.8603 9.0856 27.8533C9.11324 27.8463 9.13395 27.8393 9.16159 27.8254C9.15468 27.8254 9.15468 27.8324 9.14777 27.8324C9.18231 27.8184 9.20994 27.8114 9.24448 27.7975C9.27212 27.7905 9.29976 27.7766 9.3274 27.7696C9.3274 27.7696 9.32739 27.7696 9.32048 27.7696C9.41029 27.7417 9.50009 27.6998 9.5899 27.6719C9.8386 27.5952 10.0804 27.5185 10.3222 27.4278C10.3153 27.4278 10.3153 27.4278 10.3084 27.4348C10.5709 27.365 10.7643 27.1627 11.0061 27.0581C10.4051 28.9206 7.8352 28.8996 6.21865 29.3461Z" fill="#999999"/>
<path opacity="0.9992" d="M1.09961 41.9653L1.10659 41.9723C1.09962 41.9723 1.09961 41.9723 1.09961 41.9653Z" fill="#999999"/>
<path d="M22.1561 27.6234C19.227 27.6234 17.4101 29.9532 17.4101 32.1157C17.4101 32.583 17.4861 33.0295 17.638 33.434C17.6864 33.5666 17.7969 33.6503 17.9351 33.6503C18.0802 33.6503 18.1976 33.5247 18.1976 33.3643C18.1976 33.3085 18.1838 33.2597 18.17 33.2178C18.0387 32.8132 17.9696 32.3947 17.9696 31.9901C17.9696 29.8137 19.8487 28.0419 22.1561 28.0419C23.2338 28.0419 24.0628 28.5721 24.6155 29.6114C25.2096 30.7275 25.2718 32.0459 25.2718 32.5551C25.2718 36.0011 24.1872 38.1286 23.2822 39.3005C22.1354 40.7863 20.5672 41.6373 18.9783 41.6373C17.5137 41.6373 16.4153 40.9398 15.7244 39.5726C15.1994 38.5332 14.9092 37.0753 14.9092 35.4709C14.9092 30.4834 18.0871 26.4724 21.2304 25.0843C21.2787 25.0633 21.4169 25.0075 21.4169 24.889C21.4169 24.7983 21.3409 24.7285 21.2442 24.7285C21.1889 24.7285 21.1268 24.7425 21.037 24.7843C19.3997 25.4749 17.7762 26.884 16.5811 28.6488C15.6139 30.0788 14.4602 32.4296 14.4602 35.5058C14.4602 38.6936 15.6346 42.0977 18.9437 42.0977C20.6501 42.0977 22.3495 41.2607 23.593 39.7958C25.0714 38.0519 25.859 35.5407 25.859 32.5272C25.8451 30.2671 24.878 27.6234 22.1561 27.6234Z" fill="#999999"/>
<path d="M52.7531 38.1356C52.988 38.1356 53.1676 37.9543 53.1676 37.7171C53.1676 37.4939 52.9811 37.3125 52.7531 37.3125C52.5251 37.3125 52.3386 37.4939 52.3386 37.7171C52.3386 37.9543 52.5182 38.1356 52.7531 38.1356Z" fill="#999999"/>
<path d="M61.9481 39.1119C61.9342 39.1119 61.9135 39.1119 61.8928 39.1259H61.8652L61.8237 39.1678C60.8289 40.242 59.1226 41.086 57.9343 41.086C57.1606 41.086 56.7668 40.7442 56.7668 40.0676C56.7668 39.3282 57.6304 38.3516 58.2728 38.3516C58.4663 38.3516 58.5423 38.4074 58.5768 38.4562C58.5215 38.5051 58.4939 38.5818 58.4939 38.6795C58.4939 38.8608 58.6044 39.0003 58.7633 39.0003C58.791 39.0003 58.8186 39.0003 58.867 38.9794C58.9775 38.9306 59.0466 38.798 59.0466 38.6306C59.0466 38.3028 58.7979 37.954 58.259 37.954C57.5613 37.954 56.7668 38.5888 56.4145 39.3073C55.2332 40.4861 54.1555 41.086 53.2159 41.086C52.7807 41.086 52.6011 40.8977 52.6011 40.4443C52.6011 40.2071 52.6425 39.949 52.6909 39.6909C52.7323 39.4538 52.7669 39.2305 52.7669 39.0352C52.7669 38.5609 52.5044 38.4632 52.2833 38.4632C51.931 38.4632 51.5925 38.8259 51.3714 39.0701C51.3369 39.105 51.3092 39.1399 51.2816 39.1678C50.418 40.0467 49.513 40.4373 48.9949 40.4373C48.8291 40.4373 48.7255 40.3815 48.7255 40.1164C48.7255 39.963 48.767 39.7607 48.8015 39.5654C48.8429 39.3561 48.8844 39.1468 48.8844 38.9655C48.8844 38.4772 48.5597 38.4004 48.3732 38.4004C47.6271 38.4004 47.0053 39.3352 46.4803 40.3606C46.501 40.2699 46.5287 40.1792 46.5494 40.0885C46.6599 39.6491 46.7774 39.1957 46.7774 38.8887C46.7774 38.6027 46.6116 38.4353 46.3214 38.4353C45.9622 38.4353 45.6029 38.8399 45.3819 39.084C45.3542 39.1119 45.3335 39.1398 45.3128 39.1608C44.7878 39.7118 44.2143 39.9978 43.641 39.9978C42.9639 39.9978 42.3837 39.5654 42.0106 38.7841C41.9208 38.5958 41.8448 38.4283 41.6997 38.3865C41.6928 38.3865 41.6859 38.3865 41.6859 38.3795C41.679 38.3516 41.6652 38.3307 41.6514 38.3028C41.527 38.1075 41.2231 37.968 40.926 37.968C40.1177 37.968 39.3716 38.5679 38.9364 39.2445C38.4321 39.7677 37.686 40.3676 36.9882 40.9256C36.8155 39.956 36.5392 39.2236 36.18 38.7492C35.8967 38.3795 35.5858 38.1912 35.2542 38.1912C35.1437 38.1912 35.0332 38.2121 34.9227 38.2539C34.9227 38.24 34.9296 38.226 34.9296 38.2051C34.9296 38.1144 34.8881 38.0238 34.7914 37.9261C34.6532 37.7866 34.446 37.7099 34.2042 37.7099C33.4581 37.7099 32.2008 38.533 31.6136 39.3631C30.6326 40.2211 29.5272 40.8279 28.8986 40.8279C28.8364 40.8279 28.719 40.6815 28.6844 40.1304C28.6568 39.7677 28.5532 39.5026 28.3666 39.3352C28.2008 39.1957 27.9867 39.1329 27.7173 39.1538C27.6274 39.1608 27.5031 39.1608 27.3926 39.1608C27.2406 39.1608 27.0886 39.1538 26.9573 39.1468C27.4755 38.512 27.8623 37.5843 27.8623 36.9077C27.8623 36.3357 27.5791 36.0078 27.0955 36.0078C26.1145 36.0078 25.3201 37.2146 25.3201 38.2121C25.3201 38.8818 25.6586 39.3212 26.2734 39.4537C26.5912 39.5165 27.1024 39.5584 27.6413 39.5584C28.0212 39.5584 28.1387 39.5584 28.1525 40.1932L28.1594 40.3048C28.1801 40.8698 28.187 41.2814 28.8019 41.2814C29.4858 41.2814 30.4668 40.7652 31.3165 40.1234C31.3165 40.1374 31.3165 40.1443 31.3165 40.1583C31.3165 40.5629 31.5997 40.8349 32.0281 40.8349C32.7189 40.8349 33.5686 40.0188 34.2456 39.3561C34.5012 39.1119 34.7154 38.9027 34.8812 38.7701C34.9848 38.6934 35.0954 38.6516 35.2059 38.6516C35.4339 38.6516 35.6757 38.8399 35.8484 39.1468C36.1385 39.656 36.3527 40.4094 36.4839 41.3302C34.3285 43.0671 32.2353 44.9366 32.2353 46.9386C32.2353 48.3616 33.1679 48.9964 34.0867 48.9964C35.0539 48.9964 35.9658 48.3616 36.477 47.3501C36.9261 46.4851 37.1886 44.9645 37.1886 43.2903C37.1886 42.6276 37.1471 41.9929 37.0642 41.386L37.078 41.372C37.61 40.9465 38.1212 40.535 38.5495 40.1513C38.5357 40.228 38.5288 40.2978 38.5288 40.3676C38.5288 40.6117 38.6048 40.814 38.7499 40.9535C38.8949 41.093 39.1091 41.1628 39.3716 41.1628C39.3993 41.1628 39.4338 41.1628 39.4683 41.1628C40.1868 41.1279 40.9122 40.4722 41.6099 39.2166C42.128 40.0397 42.805 40.4722 43.5719 40.4722C44.2489 40.4722 44.9466 40.1164 45.5822 39.4328L45.6375 39.37C45.6513 39.3561 45.6651 39.3421 45.6789 39.3212C45.8378 39.1468 46.0934 38.8538 46.28 38.8259C46.28 38.8329 46.28 38.8329 46.28 38.8399C46.28 39.0771 46.1487 39.5933 46.0243 40.0467C45.9967 40.1583 45.9691 40.2699 45.9415 40.3815C45.8931 40.5768 45.8724 40.7303 45.8724 40.8628C45.8724 41.1697 46.0451 41.2814 46.2109 41.2814C46.349 41.2814 46.5356 41.1907 46.6461 40.9326C47.2678 39.5863 47.8896 38.7841 48.311 38.7841C48.3386 38.7841 48.3594 38.7841 48.3594 38.9027C48.3594 39.0282 48.3248 39.2026 48.2903 39.391C48.2488 39.6142 48.1936 39.8723 48.1936 40.0955C48.1936 40.7163 48.5874 40.8489 48.919 40.8489C49.5062 40.8489 50.5493 40.4792 51.5579 39.4328C51.5925 39.3979 51.627 39.3631 51.6615 39.3282C51.8273 39.1538 52.0484 38.9166 52.235 38.9027C52.235 38.9166 52.2418 38.9376 52.2418 38.9724C52.2418 39.091 52.2142 39.2654 52.1797 39.4677C52.1313 39.7467 52.076 40.0606 52.076 40.3676C52.076 41.1279 52.4353 41.5115 53.1399 41.5115C54.1071 41.5115 55.1434 41.0163 56.228 40.0257C56.228 40.9675 56.8221 41.5115 57.8583 41.5115C59.2055 41.5115 61.0362 40.6187 62.1 39.4398C62.1346 39.4049 62.1484 39.3631 62.1484 39.3212C62.1553 39.2236 62.0655 39.1119 61.9481 39.1119ZM40.926 38.4074C41.0365 38.4074 41.1747 38.4632 41.2162 38.5678L41.223 38.5748C41.2369 38.6097 41.2645 38.6655 41.3129 38.7004L41.2438 38.8539L41.3405 38.798C40.9744 39.5514 40.2835 40.7094 39.4407 40.7094C39.1782 40.7094 39.0469 40.5838 39.0469 40.3257C39.0538 39.6212 39.9796 38.4074 40.926 38.4074ZM36.6014 43.3252C36.6014 44.8389 36.3803 46.2549 36.0142 47.099C35.5375 48.2081 34.6947 48.5987 34.066 48.5987C33.4028 48.5987 32.636 48.1593 32.636 46.9316C32.636 45.2156 34.6118 43.4089 36.5323 41.8324C36.5737 42.3068 36.6014 42.823 36.6014 43.3252ZM34.1697 38.1354C34.294 38.1354 34.3838 38.1702 34.4529 38.24C34.4529 38.247 34.4529 38.247 34.4529 38.247C34.4529 38.3377 34.5151 38.4074 34.6049 38.4353C34.4114 38.5888 34.1766 38.812 33.9279 39.0561C33.3337 39.6281 32.5945 40.3466 32.0971 40.3466C31.9382 40.3466 31.8899 40.2978 31.8899 40.1304C31.8899 39.4607 33.4028 38.1354 34.1697 38.1354ZM27.0541 36.4054C27.1508 36.4054 27.4478 36.4054 27.4478 36.9146C27.4478 37.5564 26.9919 38.5399 26.4599 39.0701C26.0316 38.9724 25.7898 38.7771 25.7898 38.1702C25.7898 37.4029 26.4945 36.4054 27.0541 36.4054Z" fill="#999999"/>
<g opacity="0.9992">
<path opacity="0.9992" d="M31.0609 30.7904L30.7708 31.6623H29.9763L31.2405 27.8955H32.2561L33.5756 31.6623H32.7258L32.4219 30.7904H31.0609ZM32.2492 30.1207C31.9866 29.3255 31.8139 28.8163 31.7241 28.4815H31.7172C31.6274 28.8512 31.4409 29.4441 31.2267 30.1207H32.2492Z" fill="#999999"/>
<path opacity="0.9992" d="M38.4113 31.6623L37.0918 27.8955H37.9553L38.508 29.6324C38.6738 30.1556 38.8051 30.609 38.888 30.9927H38.9018C38.9778 30.6439 39.1228 30.1835 39.3025 29.6464L39.8828 27.8955H40.7048L39.3508 31.6623H38.4113Z" fill="#999999"/>
<path opacity="0.9992" d="M45.0226 30.7904L44.7324 31.6623H43.938L45.2022 27.8955H46.2177L47.5372 31.6623H46.6875L46.3835 30.7904H45.0226ZM46.2108 30.1207C45.9483 29.3255 45.7756 28.8163 45.6858 28.4815H45.6789C45.5891 28.8512 45.4026 29.4441 45.1884 30.1207H46.2108Z" fill="#999999"/>
</g>
<path opacity="0.9992" d="M14.6812 53.2098C14.2529 53.5237 13.6933 53.5376 13.3341 53.0354C12.9818 52.5471 13.1476 52.0309 13.5897 51.71C14.0387 51.3822 14.5845 51.4101 14.9368 51.8914C15.2615 52.3448 15.151 52.861 14.6812 53.2098ZM13.8453 52.0518C13.5482 52.2751 13.417 52.575 13.6104 52.8471C13.8246 53.147 14.1493 53.0703 14.4256 52.868C14.7158 52.6517 14.8608 52.3658 14.6467 52.0728C14.4463 51.7938 14.1424 51.8286 13.8453 52.0518Z" fill="#999999"/>
<path opacity="0.9992" d="M15.9386 55.0163L15.379 55.5394L15.1096 55.2395L16.512 53.9351L17.0785 54.5559C17.3617 54.8628 17.341 55.1907 17.1269 55.386C16.9403 55.5604 16.74 55.5534 16.6087 55.4906C16.6502 55.5813 16.6709 55.7557 16.4222 55.9929L16.3531 56.0556C16.2564 56.1463 16.1528 56.244 16.1044 56.3277L15.8419 56.0347C15.8833 55.951 15.9801 55.8533 16.1321 55.7138L16.1528 55.6929C16.3048 55.5534 16.3462 55.4418 16.1321 55.2186L15.9386 55.0163ZM16.1804 54.7931L16.4153 55.0512C16.5673 55.2186 16.6916 55.2255 16.8091 55.1139C16.9265 55.0093 16.9196 54.8768 16.7814 54.7233L16.5396 54.4582L16.1804 54.7931Z" fill="#999999"/>
<path opacity="0.9992" d="M18.7089 58.7554L18.4809 58.5531C18.5086 58.4973 18.5431 58.4415 18.5776 58.3857C18.4049 58.4276 18.2115 58.3578 18.0112 58.1834C17.5898 57.8207 17.6312 57.2975 17.9904 56.879C18.3635 56.4395 18.9023 56.3349 19.3514 56.7325C19.7244 57.0534 19.759 57.458 19.5794 57.737L19.2685 57.465C19.3237 57.3394 19.3445 57.158 19.1372 56.9767C18.8402 56.7186 18.5431 56.893 18.322 57.1511C18.1079 57.4022 17.9904 57.73 18.2806 57.9811C18.55 58.2113 18.7573 58.0718 18.8678 57.9393L18.8816 57.9253L18.5638 57.6463L18.7849 57.3882L19.4066 57.9323L18.7089 58.7554Z" fill="#999999"/>
<path opacity="0.9992" d="M20.8157 59.7949L20.4427 60.074L20.1111 59.8438L21.7207 58.623L22.149 58.916L21.6309 60.8901L21.2717 60.646L21.3891 60.1926L20.8157 59.7949ZM21.5066 59.8577C21.624 59.4462 21.6931 59.1811 21.7553 59.0137C21.6102 59.1462 21.3615 59.3415 21.0783 59.5648L21.5066 59.8577Z" fill="#999999"/>
<path opacity="0.9992" d="M23.144 61.8036L24.0283 60.1016L24.4773 60.3387C24.4912 60.834 24.5188 61.7269 24.4981 61.9571H24.505C24.581 61.7687 24.733 61.4757 24.878 61.1967L25.1405 60.6945L25.4721 60.8689L24.5879 62.5709L24.1596 62.3407C24.1527 61.9152 24.1319 60.8898 24.1527 60.6526H24.1458C24.0836 60.8061 23.904 61.1619 23.7451 61.4618L23.4756 61.978L23.144 61.8036Z" fill="#999999"/>
<path opacity="0.9992" d="M27.4688 61.755L26.7503 63.5338L26.3704 63.3803L27.0888 61.6016L27.4688 61.755Z" fill="#999999"/>
<path opacity="0.9992" d="M30.301 64.1194C30.1283 64.4403 29.7967 64.6147 29.3407 64.4752C28.7604 64.3008 28.6084 63.8055 28.7673 63.2823C28.9193 62.7801 29.3338 62.4104 29.921 62.5918C30.4046 62.7382 30.5566 63.101 30.5082 63.4219L30.1145 63.3033C30.1214 63.1498 30.0592 62.9754 29.8174 62.9057C29.4927 62.808 29.2785 63.0661 29.1818 63.4009C29.092 63.7148 29.0989 64.0706 29.4512 64.1822C29.7069 64.2589 29.845 64.1124 29.9072 64.0148L30.301 64.1194Z" fill="#999999"/>
<path opacity="0.9992" d="M34.453 65.0683L34.2596 65.4938L33.8589 65.4519L34.7086 63.6104L35.2198 63.6662L35.6827 65.6542L35.2544 65.6054L35.1438 65.145L34.453 65.0683ZM35.0955 64.7962C35.0057 64.3777 34.9435 64.1126 34.9158 63.9312C34.8468 64.1126 34.7224 64.4056 34.5773 64.7404L35.0955 64.7962Z" fill="#999999"/>
<path opacity="0.9992" d="M37.4513 65.7447L37.4167 63.8194L37.928 63.8124C38.1698 64.2379 38.6257 65.0122 38.7155 65.2215H38.7224C38.6948 65.0192 38.6948 64.6844 38.6879 64.3705L38.681 63.7985L39.054 63.7915L39.0885 65.7168L38.605 65.7237C38.3908 65.354 37.8934 64.4681 37.7967 64.2449H37.7898C37.8036 64.4123 37.8174 64.8099 37.8243 65.1517L37.8312 65.7377L37.4513 65.7447Z" fill="#999999"/>
<path opacity="0.9992" d="M40.8086 63.6942L41.5616 63.6035C42.1143 63.5338 42.515 63.8616 42.584 64.4267C42.6531 64.9847 42.3492 65.4451 41.7758 65.5218L41.0435 65.6125L40.8086 63.6942ZM41.4027 65.2219L41.7067 65.187C42.0659 65.1451 42.1972 64.8522 42.1557 64.4755C42.1212 64.1616 41.9347 63.8965 41.5616 63.9384L41.2508 63.9732L41.4027 65.2219Z" fill="#999999"/>
<path opacity="0.9992" d="M46.6184 64.5383L46.0381 62.7038L46.5217 62.5503C46.8809 62.8921 47.5303 63.499 47.6754 63.6664H47.6823C47.5994 63.485 47.5026 63.1642 47.4059 62.8642L47.2332 62.3201L47.5855 62.2085L48.1658 64.0431L47.703 64.1896C47.3921 63.8966 46.6598 63.1921 46.5078 63.0107H46.501C46.5631 63.1642 46.6875 63.5408 46.7911 63.8687L46.9638 64.4267L46.6184 64.5383Z" fill="#999999"/>
<path opacity="0.9992" d="M50.1626 62.7665L50.2109 63.2339L49.8448 63.4013L49.6514 61.3784L50.1212 61.1621L51.5166 62.634L51.1229 62.8153L50.7982 62.4735L50.1626 62.7665ZM50.5771 62.2015C50.287 61.8876 50.1073 61.6853 49.9899 61.5458C50.0244 61.7411 50.059 62.055 50.1004 62.4107L50.5771 62.2015Z" fill="#999999"/>
<path opacity="0.9992" d="M52.4284 60.3459L51.9241 60.6388L51.7583 60.3459L53.1193 59.5576L53.2851 59.8506L52.7877 60.1436L53.5683 61.5178L53.2091 61.727L52.4284 60.3459Z" fill="#999999"/>
<path opacity="0.9992" d="M54.7844 58.4277L55.4545 59.3485C55.6687 59.6484 55.8897 59.6205 56.0555 59.5019C56.249 59.3624 56.2904 59.1671 56.0832 58.8881L55.4131 57.9673L55.7447 57.7231L56.4079 58.63C56.7947 59.1601 56.5875 59.5228 56.249 59.774C55.9036 60.0321 55.5029 60.1088 55.1229 59.5926L54.4597 58.6788L54.7844 58.4277Z" fill="#999999"/>
<path opacity="0.9992" d="M58.1484 57.1718L58.6666 57.7369L58.3695 58.0159L57.0776 56.5998L57.6925 56.0278C57.9965 55.7418 58.3142 55.7628 58.5146 55.979C58.6873 56.1674 58.6804 56.3696 58.6182 56.5022C58.708 56.4603 58.8807 56.4394 59.1156 56.6905L59.1778 56.7603C59.2676 56.8579 59.3643 56.9626 59.4472 57.0114L59.1571 57.2765C59.0742 57.2346 58.9774 57.137 58.8393 56.9835L58.8186 56.9626C58.6804 56.8091 58.5699 56.7673 58.3488 56.9835L58.1484 57.1718ZM57.9274 56.9277L58.183 56.6905C58.3488 56.5371 58.3557 56.4115 58.2452 56.2929C58.1415 56.1813 58.0103 56.1813 57.8583 56.3208L57.5958 56.565L57.9274 56.9277Z" fill="#999999"/>
<path opacity="0.9992" d="M60.6838 55.0512L60.9187 55.4558L60.6562 55.7627L59.6406 54.0119L59.9791 53.6143L61.8582 54.3606L61.575 54.6885L61.1397 54.5141L60.6838 55.0512ZM60.8289 54.3606C60.4351 54.2002 60.1864 54.0956 60.0275 54.0119C60.138 54.1723 60.3038 54.4444 60.4904 54.7513L60.8289 54.3606Z" fill="#999999"/>
<path opacity="0.9992" d="M61.3608 51.8564L61.5958 51.5146L62.8807 52.4215L63.4265 51.6332L63.6751 51.8704L62.9221 52.9586L61.3608 51.8564Z" fill="#999999"/>
<path opacity="0.9992" d="M21.7002 11.3914L20.9403 10.3241C20.8988 10.3938 20.7745 10.5194 20.7123 10.5682L20.5603 10.352C20.6708 10.2334 20.7675 10.0451 20.7814 9.89858L20.9955 9.74512L22.0111 11.1681L21.7002 11.3914Z" fill="#999999"/>
<path opacity="0.9992" d="M24.0007 8.83802C24.2286 9.22865 24.3323 9.70997 23.8901 9.97504C23.4618 10.2331 23.1026 9.94714 22.8608 9.53558C22.6397 9.1589 22.5568 8.66363 22.9851 8.41251C23.3996 8.16139 23.7658 8.44041 24.0007 8.83802ZM23.1786 9.34026C23.3582 9.64719 23.5447 9.83553 23.7381 9.71694C23.9316 9.60533 23.8487 9.33329 23.676 9.03334C23.5033 8.74036 23.3236 8.54504 23.1302 8.66363C22.9368 8.78221 22.9851 9.01241 23.1786 9.34026Z" fill="#999999"/>
<path opacity="0.9992" d="M26.5775 7.54753C26.764 7.95909 26.8193 8.44738 26.3565 8.66363C25.9074 8.8729 25.5758 8.55899 25.3755 8.11953C25.1889 7.72192 25.1613 7.22666 25.6104 7.01041C26.0456 6.80812 26.3841 7.129 26.5775 7.54753ZM25.7071 7.95909C25.8521 8.27997 26.0179 8.48924 26.2252 8.39158C26.4255 8.29392 26.3703 8.02187 26.2252 7.70797C26.0801 7.40105 25.9212 7.1848 25.7209 7.28246C25.5274 7.38012 25.5551 7.61729 25.7071 7.95909Z" fill="#999999"/>
<path opacity="0.9992" d="M30.5637 5.78984C30.6327 6.06887 30.5291 6.29906 30.2528 6.37579C29.9903 6.44555 29.7761 6.32696 29.7001 6.02004C29.631 5.76194 29.7347 5.51082 30.0179 5.44106C30.2666 5.37131 30.4808 5.48292 30.5637 5.78984ZM29.9695 5.94331C30.011 6.10374 30.0939 6.1735 30.1975 6.1456C30.3011 6.11769 30.3426 6.02701 30.3011 5.85262C30.2528 5.67823 30.1699 5.6294 30.0732 5.65731C29.9695 5.68521 29.9212 5.78287 29.9695 5.94331ZM30.4324 7.09428L30.9989 5.21087L31.2545 5.14111L30.6811 7.02452L30.4324 7.09428ZM31.9937 6.21535C32.0628 6.49438 31.9591 6.72457 31.6828 6.8013C31.4203 6.87106 31.2061 6.75247 31.1301 6.44555C31.0611 6.18745 31.1647 5.93633 31.4479 5.86657C31.6897 5.79682 31.9108 5.90843 31.9937 6.21535ZM31.3927 6.36882C31.4341 6.52926 31.517 6.59901 31.6206 6.57111C31.7243 6.54321 31.7657 6.45252 31.7243 6.27814C31.6759 6.10375 31.593 6.05492 31.4963 6.08282C31.3996 6.11072 31.3512 6.20838 31.3927 6.36882Z" fill="#999999"/>
<path opacity="0.9992" d="M37.251 6.0338L37.2234 4.27595L37.6863 4.26897C37.9073 4.65961 38.3218 5.36414 38.4047 5.55248H38.4116C38.3909 5.37111 38.384 5.06419 38.3771 4.77819L38.3702 4.25502L38.7087 4.24805L38.7363 6.00589L38.2942 6.01287C38.1007 5.67107 37.6448 4.8619 37.555 4.65961H37.5481C37.5619 4.81307 37.5757 5.1758 37.5757 5.4897L37.5826 6.02682L37.251 6.0338Z" fill="#999999"/>
<path opacity="0.9992" d="M40.7328 5.73384L40.5532 6.12448L40.187 6.08262L40.9538 4.39453L41.4236 4.44336L41.8588 6.25701L41.4651 6.21516L41.3614 5.79662L40.7328 5.73384ZM41.32 5.48272C41.2371 5.09906 41.1818 4.85492 41.1542 4.69448C41.092 4.86189 40.9815 5.12697 40.8502 5.43389L41.32 5.48272Z" fill="#999999"/>
<path opacity="0.9992" d="M43.731 5.11322L43.2129 5.00859L43.2751 4.70166L44.6774 4.98766L44.6153 5.29458L44.0971 5.18995L43.8139 6.60599L43.4478 6.52926L43.731 5.11322Z" fill="#999999"/>
<path opacity="0.9992" d="M46.6463 5.51751L46.3354 6.51502C46.2387 6.8359 46.3699 6.98238 46.5495 7.03819C46.7568 7.10097 46.9157 7.03121 47.0124 6.72429L47.3233 5.72678L47.6825 5.83839L47.3785 6.82195C47.1989 7.39394 46.8259 7.4358 46.4598 7.32419C46.0867 7.2056 45.8104 6.95448 45.9831 6.38946L46.287 5.39893L46.6463 5.51751Z" fill="#999999"/>
<path opacity="0.9992" d="M49.285 7.59656L49.0087 8.23832L48.6702 8.09183L49.361 6.48047L50.0587 6.78739C50.4042 6.94086 50.5078 7.21291 50.4042 7.46403C50.3144 7.68027 50.1416 7.74305 50.0104 7.74305C50.0795 7.80583 50.1624 7.94534 50.038 8.23134L50.0035 8.30807C49.9551 8.41968 49.9067 8.53827 49.8929 8.62197L49.5682 8.47549C49.5682 8.39178 49.6166 8.27319 49.6926 8.0988L49.6995 8.07788C49.7755 7.90349 49.7686 7.79885 49.513 7.68724L49.285 7.59656ZM49.4093 7.32452L49.6995 7.45007C49.886 7.53378 49.9897 7.49193 50.0518 7.35939C50.1071 7.22686 50.0518 7.11525 49.886 7.04549L49.589 6.91295L49.4093 7.32452Z" fill="#999999"/>
<path opacity="0.9992" d="M51.8068 9.16569L51.489 9.45169L51.1643 9.27032L52.5391 8.03564L52.9466 8.27281L52.6219 10.1074L52.2765 9.91208L52.3525 9.48657L51.8068 9.16569ZM52.4423 9.17267C52.5183 8.78901 52.5667 8.54486 52.6012 8.38442C52.4769 8.51696 52.2696 8.71228 52.0278 8.93549L52.4423 9.17267Z" fill="#999999"/>
<path opacity="0.9992" d="M54.8466 9.46582L55.1506 9.68904L54.3216 10.8679L55.0262 11.3771L54.8121 11.6073L53.8311 10.9098L54.8466 9.46582Z" fill="#999999"/>
</svg>
