<svg width="70" height="70" viewBox="0 0 70 70" fill="none" xmlns="http://www.w3.org/2000/svg">
<g opacity="0.9992">
<path opacity="0.9992" d="M66.9457 24.3364C66.9966 24.3176 67.0221 24.2673 67.003 24.217C65.8831 20.9621 64.2542 17.9082 62.1734 15.1371C60.1182 12.3974 57.6557 9.9908 54.8623 7.98003C49.0719 3.81396 42.1998 1.6084 35.0032 1.6084C27.8066 1.6084 20.9345 3.81396 15.1314 7.98003C12.338 9.98452 9.88183 12.3974 7.8202 15.1371C5.73948 17.9082 4.1169 20.9621 2.99064 24.217C2.97155 24.2673 3.00336 24.3176 3.04791 24.3364C3.06063 24.3427 3.06699 24.3427 3.07972 24.3427C3.1179 24.3427 3.15608 24.3176 3.1688 24.2799C7.80747 10.8328 20.5972 1.79691 34.9968 1.79691C49.3901 1.79691 62.1798 10.8328 66.8248 24.2799C66.8439 24.3301 66.9012 24.3553 66.9457 24.3364Z" fill="#999999"/>
<path opacity="0.9992" d="M2.90782 45.217C2.85691 45.2358 2.83146 45.2861 2.84419 45.3363C3.93227 48.6416 5.54212 51.752 7.61648 54.5796C9.66538 57.3696 12.1342 59.8265 14.9404 61.8749C20.7816 66.129 27.7174 68.3785 34.9967 68.3785C42.2761 68.3785 49.2118 66.129 55.0531 61.8749C57.8655 59.8265 60.328 57.3758 62.377 54.5796C64.4513 51.752 66.0612 48.6416 67.1492 45.3363C67.1683 45.2861 67.1365 45.2358 67.0856 45.217C67.0347 45.1981 66.9838 45.2295 66.9647 45.2798C62.4469 58.9845 49.5999 68.19 34.9904 68.19C20.3871 68.19 7.53376 58.9845 3.01599 45.2798C3.01599 45.2295 2.95872 45.2044 2.90782 45.217Z" fill="#999999"/>
<path opacity="0.9992" d="M1.5653 23.9345C1.58439 23.9408 1.60348 23.947 1.62893 23.947C1.70529 23.947 1.78164 23.8968 1.8071 23.8214C6.64302 9.78994 19.9864 0.370737 35.0032 0.370737C50.02 0.370737 63.357 9.79623 68.1992 23.8214C68.2311 23.9219 68.3392 23.9722 68.441 23.9408C68.5428 23.9093 68.5938 23.8025 68.5619 23.702C67.3848 20.2899 65.6795 17.0853 63.5033 14.1822C61.3462 11.3106 58.7692 8.78456 55.8422 6.67953C49.7591 2.3061 42.5561 0 35.0095 0C27.4629 0 20.26 2.31239 14.1769 6.67953C11.2499 8.78456 8.67284 11.3106 6.51576 14.1822C4.33323 17.0916 2.63429 20.2899 1.45713 23.702C1.40622 23.7962 1.46349 23.903 1.5653 23.9345Z" fill="#999999"/>
<path opacity="0.9992" d="M68.5874 45.6006C68.4855 45.5692 68.3774 45.6195 68.3456 45.72C63.6369 60.0153 50.2299 69.6168 34.9968 69.6168C19.7636 69.6168 6.36302 60.0153 1.64799 45.72C1.61618 45.6195 1.508 45.5692 1.40619 45.6006C1.30439 45.632 1.25348 45.7388 1.2853 45.8394C2.43065 49.308 4.11049 52.5692 6.28666 55.5288C8.43737 58.457 11.0208 61.027 13.9669 63.176C16.9511 65.3502 20.2345 67.0342 23.7342 68.1967C27.3547 69.3906 31.1408 70.0001 34.9904 70.0001C38.8401 70.0001 42.6324 69.3906 46.2467 68.1967C49.7463 67.0405 53.0297 65.3502 56.014 63.176C58.9601 61.027 61.5435 58.457 63.6942 55.5288C65.8703 52.5629 67.5565 49.308 68.6955 45.8394C68.7464 45.7388 68.6892 45.632 68.5874 45.6006Z" fill="#999999"/>
<path opacity="0.9992" d="M48.5692 58.1801C49.4855 57.9287 50.4209 57.7277 51.3817 57.7528C52.3807 57.7654 53.3415 57.4072 54.2642 57.049C56.1222 56.3452 57.0894 54.5481 58.0184 52.9332C58.7628 51.7896 59.501 50.6397 60.1754 49.4584C60.1882 49.4395 60.2136 49.4144 60.2009 49.3892C60.1754 49.3641 60.15 49.3955 60.1309 49.4081C60.1309 49.4081 60.1245 49.4081 60.1245 49.4144C60.1118 49.4207 60.1054 49.4269 60.0927 49.4332C60.0927 49.4332 60.0991 49.4332 60.0991 49.4269C59.7619 49.628 59.501 49.9359 59.1828 50.1621C58.8201 50.3883 58.4065 50.5203 58.0311 50.7277C56.8857 51.3372 55.7849 52.0535 54.9068 53.0149C54.9005 53.0212 54.8941 53.0338 54.8877 53.04L54.8941 53.0338C54.2514 53.8632 53.8124 54.8309 53.2079 55.6855C53.0488 55.8928 52.8643 56.1128 52.6289 56.251C52.3425 56.4207 52.0053 56.4961 51.7062 56.6406C51.3753 56.8354 51.1208 57.1433 50.7645 57.3066C50.1473 57.5957 49.4664 57.69 48.8238 57.891C52.0562 55.8111 54.9832 53.0903 56.7585 49.672C56.7585 49.6657 56.7649 49.6594 56.7649 49.6532C56.7649 49.6594 56.7649 49.6594 56.7585 49.6657C56.9557 49.3327 57.1912 49.0185 57.4457 48.7232C57.5221 48.6352 57.5984 48.5472 57.6748 48.4593C58.9092 47.014 59.9209 44.6011 59.0874 42.7663C59.0874 42.7663 59.0874 42.7663 59.0874 42.7725C59.0365 42.6343 58.9983 42.4961 58.9474 42.3578C58.9474 42.3641 58.9537 42.3704 58.9537 42.3704C58.9028 42.1882 58.8138 42.0185 58.7501 41.8426V41.8488C58.7374 41.8237 58.731 41.7986 58.7183 41.7672C58.7183 41.7734 58.7247 41.7797 58.7247 41.7797C58.6992 41.7169 58.6929 41.654 58.6801 41.5912C58.6801 41.5912 58.6801 41.5975 58.6801 41.6038C58.6738 41.5786 58.6738 41.5598 58.6674 41.5347V41.5409C58.6292 41.3838 58.7501 40.8058 58.5401 41.3147C58.5401 41.3147 58.5401 41.3147 58.5401 41.3084C58.5338 41.321 58.5338 41.3273 58.5274 41.3399C58.521 41.365 58.5083 41.3838 58.502 41.409V41.4153C58.3938 41.8677 58.4956 42.3452 58.591 42.7977C58.5783 43.5077 58.5338 44.2241 58.2983 44.8964C57.9102 45.9144 57.1085 46.7501 57.0321 47.8749C57.0321 47.8937 57.0257 47.9063 57.0257 47.9251C56.6249 49.7097 55.6131 51.2303 54.4487 52.6253C54.6969 51.3183 54.8114 49.9736 55.4159 48.7609C56.1413 47.435 56.2431 46.04 56.2113 44.5634C56.1922 44.4691 56.1731 43.7591 56.0331 44.0167C55.3904 46.2788 53.2143 47.0014 53.5324 49.8354C53.5324 49.8417 53.5324 49.8479 53.5324 49.8605C53.5324 49.8668 53.5324 49.8668 53.5324 49.8731C53.5324 49.8668 53.5324 49.8668 53.5324 49.8605C53.6279 50.4826 53.6915 51.1047 53.9269 51.6953C54.0096 51.9781 54.0287 52.2797 54.0733 52.5751C54.0733 52.5625 54.0733 52.5562 54.0733 52.5436C54.0796 52.5939 54.086 52.6442 54.086 52.6944C54.086 52.6882 54.086 52.6882 54.086 52.6819C54.086 52.6944 54.086 52.7007 54.086 52.7133C54.086 52.707 54.086 52.7007 54.086 52.6944C54.2005 53.3982 52.6861 54.5293 52.1834 55.0445C50.1664 56.7851 47.9647 58.3435 45.4959 59.4054C47.5893 58.1989 48.0665 56.2259 49.5237 54.5607C49.5237 54.5607 49.5237 54.5607 49.5173 54.567C49.5237 54.5607 49.5301 54.5544 49.5364 54.5481C49.5364 54.5481 49.5364 54.5481 49.5364 54.5544C49.5428 54.5481 49.5491 54.5418 49.5555 54.5356L49.5619 54.5293C49.5619 54.5356 49.5555 54.5356 49.5555 54.5418C49.9182 54.1585 50.1282 53.6747 50.3891 53.2286C50.7009 52.7887 51.0508 52.3614 51.229 51.8399C51.5153 51.023 51.4581 50.1244 51.808 49.3201C51.808 49.3201 51.808 49.3264 51.8017 49.3264C52.2344 48.2833 51.948 48.7986 51.4899 49.2824C50.879 49.8417 50.2109 50.3569 49.6446 50.9602C49.6382 50.9664 49.6382 50.9664 49.6319 50.9727C49.6255 50.979 49.6255 50.979 49.6191 50.9853C48.6901 52.0661 47.5002 53.0777 47.6593 54.6298C47.7548 55.4907 47.9266 56.383 47.4175 57.1684C47.4175 57.1747 47.4112 57.1747 47.4112 57.181C47.4048 57.1998 47.3921 57.2124 47.3857 57.2312C47.3857 57.225 47.3921 57.225 47.3921 57.2187C47.3857 57.2312 47.3793 57.2375 47.373 57.2501V57.2438C47.2521 57.4072 47.1312 57.5643 46.9976 57.7151C47.0039 57.7088 47.0103 57.7025 47.0166 57.6962C47.0039 57.7088 46.9976 57.7214 46.9848 57.7277L46.9912 57.7214C46.9848 57.7277 46.9785 57.7339 46.9721 57.7402C46.3103 58.5445 45.4195 59.1101 44.5541 59.6756C44.5605 59.6756 44.5605 59.6693 44.5669 59.6693C43.7969 60.1909 42.8361 60.4108 41.9453 60.6558H41.9516C41.9453 60.6558 41.9326 60.6621 41.9262 60.6621C41.9326 60.6621 41.9389 60.6558 41.9453 60.6558C39.8328 61.1271 37.7011 61.5418 35.5313 61.5481C35.2386 61.6235 34.8632 61.5167 34.6023 61.6424C33.5333 61.014 32.3943 60.4925 31.179 60.1971C31.179 60.1971 31.179 60.1971 31.1854 60.1971C31.1726 60.1971 31.1599 60.1908 31.1472 60.1908H31.1535C29.8682 59.9898 28.5638 60.0777 27.2721 59.9332C26.9539 59.883 26.604 59.8201 26.3176 59.6505C25.9613 59.4431 25.694 59.1289 25.3568 58.8964C24.9496 58.6576 24.466 58.5634 24.0842 58.2806C23.4097 57.7905 22.9134 57.1181 22.3153 56.5463C26.464 58.7833 31.1408 60.3291 35.9067 60.2285C35.9131 60.2285 35.9195 60.2285 35.9322 60.2285C35.9258 60.2285 35.9258 60.2285 35.9195 60.2285C36.3967 60.2411 36.8739 60.3102 37.3448 60.4108C37.4848 60.4422 37.6311 60.4736 37.7711 60.505C40.0682 60.9826 43.2943 60.6558 44.815 58.7079C44.815 58.7079 44.815 58.7079 44.8087 58.7142C44.9296 58.5822 45.0632 58.4566 45.1841 58.3246C45.1777 58.3309 45.1777 58.3372 45.1714 58.3372C45.3368 58.1738 45.4704 57.9853 45.6295 57.8156L45.6231 57.8219C45.6486 57.7968 45.6677 57.7716 45.6931 57.7465C45.6868 57.7528 45.6868 57.7528 45.6804 57.7591C45.7313 57.6962 45.8013 57.6523 45.8649 57.602C45.8649 57.602 45.8586 57.6083 45.8522 57.6083C45.8713 57.5894 45.8967 57.5706 45.9158 57.558L45.9095 57.5643C46.0558 57.4323 46.7558 57.225 46.0876 57.2941H46.094C46.0813 57.2941 46.0685 57.2941 46.0558 57.3004C46.024 57.3066 45.9922 57.3067 45.9667 57.3129H45.9604C45.4004 57.4637 44.9423 57.847 44.5032 58.2115C43.7206 58.6136 42.9125 58.9781 42.0344 59.1163C40.6981 59.2986 39.3173 58.9215 38.0384 59.4996C38.0193 59.5059 38.0002 59.5122 37.9811 59.5185C35.7986 60.128 33.5461 59.9332 31.3508 59.4996C32.9288 59.0032 34.456 58.3497 36.1358 58.2869C38.0002 58.2869 39.591 57.5894 41.1881 56.6971C41.2772 56.6217 42.0407 56.1882 41.6844 56.1944C38.8401 56.8228 36.7785 54.9189 33.8706 56.9045C33.8642 56.9108 33.8578 56.9171 33.8451 56.9171C33.8388 56.9171 33.8388 56.9233 33.8324 56.9233C33.8388 56.9233 33.8388 56.9171 33.8451 56.9171C33.2215 57.3821 32.5725 57.8093 32.0635 58.4C31.7962 58.6514 31.4844 58.8524 31.1917 59.0661C31.2044 59.0598 31.2172 59.0535 31.2235 59.0409C31.1726 59.0724 31.1217 59.1101 31.0645 59.1478C31.0708 59.1478 31.0708 59.1415 31.0772 59.1415C31.0645 59.1478 31.0517 59.154 31.0454 59.1603C31.0517 59.154 31.0581 59.154 31.0645 59.1478C30.3582 59.6819 28.2456 58.7205 27.3866 58.4817C24.3133 57.3444 21.329 55.8991 18.7392 53.8883C21.2717 55.4216 23.7024 54.7806 26.3749 55.3713H26.3685C26.3812 55.3713 26.3876 55.3776 26.4003 55.3776H26.394C26.4067 55.3776 26.4131 55.3838 26.4258 55.3838C26.4322 55.3838 26.4322 55.3838 26.4385 55.3838C26.4322 55.3838 26.4258 55.3838 26.4194 55.3776C27.0494 55.5472 27.6984 55.4844 28.3347 55.5032C28.9965 55.5849 29.6709 55.7043 30.3391 55.5912C31.4017 55.4216 32.3498 54.8372 33.4315 54.7492H33.4252C34.8187 54.6047 34.0869 54.5984 33.2915 54.391C32.3243 54.0643 31.3762 53.6558 30.3836 53.3982C30.3772 53.3982 30.3709 53.3919 30.3645 53.3919C30.3582 53.3919 30.3518 53.3856 30.3454 53.3856C30.3454 53.3856 30.3454 53.3856 30.3518 53.3856C28.6274 53.0212 26.833 52.3426 25.2295 53.4171C24.3387 54.014 23.467 54.7178 22.3089 54.6361C22.3025 54.6361 22.3025 54.6361 22.2962 54.6361C22.2707 54.6361 22.2516 54.6361 22.2262 54.6361C22.2325 54.6361 22.2389 54.6361 22.2453 54.6361C22.2325 54.6361 22.2198 54.6361 22.2007 54.6361H22.2071C21.9653 54.6047 21.7171 54.5607 21.4753 54.5104C21.4881 54.5104 21.4944 54.5167 21.5071 54.5167C21.4881 54.5104 21.469 54.5104 21.4562 54.5041C21.4626 54.5041 21.4626 54.5041 21.469 54.5041C21.4562 54.5041 21.4499 54.4979 21.4372 54.4979C21.4372 54.4979 21.4372 54.4979 21.4435 54.4979C20.1773 54.2591 19.0446 53.637 17.9247 53.0463C17.9311 53.0463 17.9311 53.0526 17.9375 53.0526C16.9194 52.5373 16.124 51.6388 15.335 50.8282L15.3413 50.8345C15.335 50.8282 15.3286 50.8156 15.3159 50.8093C15.3223 50.8156 15.3286 50.8219 15.335 50.8282C13.5915 48.8551 11.9053 46.8192 10.639 44.5068C10.3782 44.2241 10.2827 43.7339 9.9582 43.5454C9.78003 43.4889 9.7164 43.7088 9.7864 43.8345C9.78003 43.8219 9.78003 43.8093 9.77367 43.8031C9.78003 43.8219 9.7864 43.8408 9.79276 43.8596V43.8533C9.81185 43.9036 9.83094 43.9539 9.86275 43.9979C9.86275 43.9916 9.85639 43.9916 9.85639 43.9853C10.0918 44.3874 10.3336 44.7896 10.5627 45.198C10.5563 45.1917 10.5563 45.1855 10.55 45.1792C11.0972 46.1343 11.9816 46.9386 12.2234 48.0257C12.2234 48.0131 12.2171 48.0068 12.2171 47.9943C12.7134 49.7725 12.2107 51.5948 12.4589 53.3856C12.6498 54.611 13.4642 55.6101 14.2978 56.4898C15.3859 58.0921 17.0594 59.0849 18.682 60.0966C20.4318 61.0768 21.8762 62.4467 23.0788 64.0239C23.2634 64.2878 23.4733 64.5517 23.5942 64.847C23.5942 64.8533 23.6006 64.8659 23.6006 64.8722C23.6006 64.9099 23.6579 64.9162 23.6642 64.8785V64.8722C23.6642 64.8659 23.6642 64.8596 23.6642 64.8596V64.8533C23.3461 63.1442 22.8307 61.3847 21.7426 59.9772C21.7489 59.9835 21.7489 59.9898 21.7553 59.9961C21.0172 58.9718 20.0945 58.0984 19.2483 57.1684C19.2546 57.1747 19.261 57.181 19.2673 57.1935C17.543 55.2645 15.4495 53.7061 13.6679 51.8461C13.0252 50.69 12.8598 49.2824 12.478 48.0131C12.4716 47.988 12.4652 47.9566 12.4589 47.9314C13.8906 49.7097 15.2777 51.5822 17.123 52.9772L17.1166 52.9709C17.123 52.9772 17.123 52.9772 17.1294 52.9835C18.2365 53.9323 19.3819 54.8874 20.6418 55.6352C20.6354 55.6352 20.629 55.6289 20.6227 55.6289C21.049 55.8677 21.469 56.1379 21.8571 56.4332C22.6652 57.269 23.4224 58.1487 23.9569 59.1855C24.5232 60.2537 25.4777 61.0768 26.4003 61.8435C28.2456 63.4144 30.7781 63.4018 33.0815 63.4521C34.7614 63.584 36.4476 63.7034 38.1275 63.7348C38.1593 63.7411 38.1974 63.7537 38.2165 63.7223C38.2293 63.6846 38.1847 63.672 38.1529 63.6594C38.1529 63.6594 38.1465 63.6594 38.1465 63.6531C38.1338 63.6469 38.1211 63.6343 38.1084 63.628C38.1084 63.628 38.1147 63.628 38.1147 63.6343C37.7011 63.3892 37.2112 63.295 36.7785 63.0813C36.3203 62.8237 35.9386 62.4655 35.4995 62.1828C35.3404 62.0822 35.1877 61.9817 35.0286 61.8812C35.3532 61.8686 35.6777 61.8623 36.0022 61.856C35.9958 61.856 35.9895 61.856 35.9831 61.856C36.8867 61.8372 37.8157 61.523 38.7001 61.768C38.6938 61.768 38.681 61.7618 38.6747 61.7618C40.1573 62.1011 41.2899 63.1567 42.6898 63.6783C43.657 64.0176 44.6941 63.8228 45.6549 63.5715C47.2457 63.4207 48.6074 62.6101 49.9691 61.856C51.3562 60.9952 52.9088 60.4987 54.5314 60.2537C54.7987 60.2223 55.0659 60.1783 55.3268 60.2034C55.3332 60.2034 55.3395 60.2097 55.3459 60.2097C55.3713 60.2223 55.3968 60.1846 55.3777 60.1657C55.3777 60.1657 55.3713 60.1657 55.3713 60.1594C55.365 60.1594 55.365 60.1531 55.3586 60.1531C55.3586 60.1531 55.3586 60.1531 55.3522 60.1531C53.9842 59.7196 52.508 59.4054 51.0636 59.6316C51.0699 59.6316 51.0763 59.6316 51.0826 59.6316C50.0518 59.7636 49.0592 60.0777 48.0538 60.3165C48.0602 60.3165 48.0729 60.3102 48.0793 60.3102C46.0113 60.7878 44.0705 61.6738 42.0216 62.2142C40.9336 62.2205 39.8455 61.7932 38.7765 61.5795C38.7574 61.5733 38.7319 61.567 38.7129 61.5607C40.5645 61.2339 42.4607 60.97 44.1851 60.1971H44.1787C44.1851 60.1971 44.1851 60.1971 44.1914 60.1908C45.3113 59.7761 46.4503 59.33 47.4748 58.7205C47.4684 58.7205 47.4684 58.7268 47.4621 58.7268C47.8438 58.532 48.2065 58.3372 48.5692 58.1801ZM54.805 53.5553C55.8231 52.0535 57.5157 51.2052 59.1064 50.4386C57.2421 52.286 55.3904 54.1648 53.3988 55.8803C53.876 55.1074 54.3151 54.3156 54.805 53.5553ZM51.6171 56.9171C51.8907 56.6594 52.2534 56.5338 52.6034 56.4207C52.2407 56.6217 51.8717 56.8165 51.5153 57.0302C51.5471 56.9862 51.579 56.9548 51.6171 56.9171ZM51.229 57.4135C53.1315 56.6217 54.6078 55.1828 56.0204 53.7375C57.083 52.6379 58.2602 51.6451 59.2783 50.5014C59.0683 50.8533 58.8201 51.1864 58.6356 51.5508C58.6229 51.5697 58.6165 51.5948 58.6038 51.6136C57.4902 53.2474 56.7521 55.233 55.0595 56.3892C54.1305 56.961 53.0425 57.3129 51.9671 57.47C51.9226 57.47 51.878 57.47 51.8335 57.47H51.8398C51.6171 57.4575 51.3881 57.4575 51.1654 57.4386C51.1844 57.4323 51.2099 57.426 51.229 57.4135ZM58.8774 42.8165C58.8774 42.8165 58.8774 42.8102 58.871 42.8102C58.8965 42.8856 58.9219 42.9548 58.9474 43.0302C59.5073 44.3623 58.9474 45.7259 58.4256 46.9763C58.1456 47.5795 57.7066 48.0885 57.2866 48.5975C57.4139 48.3399 57.5857 48.1137 57.732 47.8623C58.1329 47.1523 58.5974 46.4422 58.7183 45.6316C58.731 45.5499 58.7438 45.4745 58.7565 45.3928V45.3991C58.7565 45.3928 58.7565 45.3865 58.7629 45.374C58.8265 44.8273 58.9792 44.2806 58.9156 43.7277V43.7339C58.9156 43.7277 58.9156 43.7214 58.9156 43.7151V43.7214C58.9156 43.69 58.9092 43.6648 58.9092 43.6334C58.9092 43.6397 58.9092 43.646 58.9092 43.6523C58.9028 43.5454 58.8901 43.4449 58.8774 43.3381C58.8774 43.3381 58.8774 43.3381 58.8774 43.3444C58.8774 43.3381 58.8774 43.3318 58.8774 43.3255C58.8774 43.3255 58.8774 43.3255 58.8774 43.3318C58.8647 43.1935 58.8456 43.0616 58.8265 42.9233C58.8265 42.9296 58.8265 42.9296 58.8265 42.9359C58.8265 42.9296 58.8265 42.9233 58.8265 42.9171C58.8265 42.9171 58.8265 42.9171 58.8265 42.9233C58.8201 42.6469 58.7247 42.3892 58.6547 42.1316C58.7438 42.3578 58.7947 42.5903 58.8774 42.8165ZM56.9876 48.6603C57.2166 48.0822 57.2294 47.4413 57.4648 46.8695C58.0438 45.8138 58.7692 44.777 58.7501 43.5203C58.8519 44.1801 58.6483 44.8273 58.5465 45.4745C58.4892 45.7824 58.4129 46.0903 58.2856 46.3794C58.292 46.3731 58.292 46.3605 58.2983 46.3542C57.9293 47.1837 57.3948 47.9189 56.9812 48.7169C56.9812 48.7043 56.9812 48.6855 56.9876 48.6603ZM54.1687 51.5382C54.1687 51.532 54.1624 51.5194 54.1624 51.5131C54.1687 51.5257 54.1687 51.532 54.1751 51.5445C54.1751 51.5445 54.1751 51.5445 54.1687 51.5382C54.1687 51.5445 54.1751 51.5445 54.1751 51.5508C54.1751 51.5445 54.1687 51.5445 54.1687 51.5382ZM55.7913 47.3408C55.1932 48.8174 54.5378 50.2752 54.4232 51.8839C54.4423 50.4386 54.506 48.9494 55.2759 47.6675C55.8422 46.8066 55.6704 45.707 56.0204 44.7833C55.9313 45.6316 56.0713 46.5176 55.7913 47.3408ZM54.9577 46.4359C55.2632 46.0526 55.4922 45.619 55.7658 45.2169C55.734 45.3551 55.7213 45.4871 55.6895 45.6253C55.6895 45.619 55.6895 45.6128 55.6959 45.6065C55.6831 45.6693 55.664 45.7384 55.6513 45.8013V45.795C55.5177 46.4045 55.4795 47.0391 55.1168 47.5733C55.1168 47.5733 55.1168 47.5733 55.1168 47.567C54.3023 48.8111 54.2196 50.2627 54.226 51.6953C54.226 51.6891 54.2196 51.6765 54.2196 51.6702C53.5706 49.9422 53.5706 47.812 54.9577 46.4359ZM51.299 50.6397C51.299 50.646 51.299 50.6523 51.299 50.6523C51.2163 51.5508 50.8536 52.3614 50.2809 53.0526C49.9946 53.5302 49.7782 54.0517 49.3773 54.4539C49.371 54.4602 49.371 54.4664 49.3646 54.4727L49.371 54.4664C49.2819 54.5733 49.1801 54.6801 49.091 54.7869C49.091 54.7806 49.0974 54.7806 49.0974 54.7743L49.091 54.7806C49.1674 54.5921 49.2501 54.4099 49.3328 54.2214C49.7019 53.3605 50.0327 52.4808 50.4463 51.6388C50.44 51.6451 50.44 51.6576 50.4336 51.6639C50.7199 51.0418 51.0445 50.4323 51.4326 49.8605C51.3499 50.1119 51.3435 50.3821 51.299 50.6397C51.299 50.646 51.299 50.646 51.299 50.6397ZM51.019 49.9359C51.019 49.9296 51.019 49.9296 51.019 49.9359C51.019 49.9296 51.019 49.9296 51.019 49.9359ZM48.0347 53.6181C48.1429 53.0966 48.5056 52.707 48.8365 52.3111C49.4537 51.4377 50.2173 50.69 50.9936 49.961C50.9936 49.961 50.9936 49.961 50.9999 49.9548C51.1526 49.7977 51.3117 49.6406 51.4771 49.5023C49.9882 51.5634 49.3392 54.0517 48.0602 56.2259C48.0665 56.1944 48.0729 56.1567 48.0793 56.1253C48.1429 55.2833 47.7929 54.4602 48.0347 53.6181ZM44.1024 58.7959C44.2424 58.7079 44.376 58.6011 44.516 58.5068C44.5096 58.5068 44.5096 58.5131 44.5032 58.5131C44.5096 58.5068 44.516 58.5068 44.5223 58.5005C44.5223 58.5005 44.5223 58.5005 44.516 58.5005C44.815 58.3372 45.0377 58.0858 45.2795 57.8533C45.0886 58.0795 44.8596 58.268 44.6623 58.488L44.6687 58.4817C44.605 58.5508 44.5414 58.6199 44.4778 58.6953C43.3515 60.0652 41.5317 60.2663 39.8646 60.4359C39.0437 60.4862 38.2356 60.3165 37.4339 60.1657C37.7902 60.1469 38.1402 60.2034 38.4965 60.2097C39.5019 60.2286 40.5454 60.3102 41.5126 59.9646C41.608 59.9332 41.7035 59.9018 41.7926 59.8704H41.7862C41.7926 59.8704 41.8053 59.8641 41.8117 59.8641C42.448 59.6128 43.1288 59.4619 43.6951 59.0661L43.6888 59.0724C43.6951 59.0661 43.7015 59.0661 43.7079 59.0598C43.7079 59.0598 43.7015 59.0598 43.7015 59.0661C43.7333 59.0472 43.7588 59.0284 43.7906 59.0095C43.7842 59.0158 43.7779 59.0158 43.7715 59.0221C43.8797 58.953 43.9878 58.8776 44.096 58.8084C44.096 58.8084 44.096 58.8084 44.0896 58.8084C44.0896 58.8022 44.096 58.7959 44.1024 58.7959ZM37.1794 59.8767C37.9429 59.7887 38.6492 59.4305 39.4128 59.3426C40.9017 59.3488 42.4607 59.5185 43.8224 58.7707C43.1543 59.2672 42.3334 59.418 41.5635 59.6882C41.1944 59.8075 40.8127 59.9018 40.4182 59.9332C40.4309 59.9332 40.4436 59.9332 40.4563 59.9332C39.3364 60.0212 38.2229 59.8767 37.1094 59.9018C37.1348 59.8892 37.1603 59.8829 37.1794 59.8767ZM32.4007 58.5382C32.4071 58.532 32.4134 58.5194 32.4198 58.5131C32.4134 58.5257 32.4007 58.532 32.3943 58.5445C32.3943 58.5445 32.3943 58.5445 32.4007 58.5382C32.3943 58.5445 32.3943 58.5445 32.3943 58.5508C32.3943 58.5445 32.4007 58.5445 32.4007 58.5382ZM32.2925 58.6639C33.7942 56.9736 36.1295 55.7357 38.4329 56.4144C39.0246 56.5212 39.6355 56.5149 40.2336 56.5652C40.0682 56.6092 39.9091 56.6783 39.7437 56.7223C39.75 56.7223 39.7564 56.716 39.7628 56.716C39.68 56.7348 39.6037 56.76 39.521 56.7788C39.5273 56.7788 39.5273 56.7788 39.5337 56.7788C38.7892 56.9862 38.0765 57.3192 37.2812 57.2375H37.2875C35.455 57.093 33.8197 57.847 32.2607 58.6828C32.2734 58.6765 32.2862 58.6702 32.2925 58.6639ZM37.2748 57.47C38.5474 57.5706 39.6482 56.7537 40.8572 56.5903C39.8773 56.9925 38.9928 57.6585 37.9238 57.8345C35.964 58.0544 33.9851 58.1989 32.1653 59.0158C33.7688 58.1926 35.4295 57.3946 37.2748 57.47ZM31.7135 54.9566C31.7071 54.9566 31.7008 54.9628 31.6944 54.9628C30.6636 55.3964 29.5691 55.4844 28.4747 55.2707C27.7875 55.2393 27.0875 55.3147 26.4131 55.1262C26.4067 55.1262 26.394 55.1199 26.3876 55.1199C26.394 55.1199 26.394 55.1199 26.4003 55.1199C26.2285 55.0822 26.0567 55.0445 25.8913 55.0068C25.8977 55.0068 25.904 55.0068 25.904 55.0068C25.8977 55.0068 25.8977 55.0068 25.8913 55.0068C26.1395 54.9817 26.394 54.9628 26.6421 54.9377C27.8002 54.8246 28.9519 54.6675 30.1164 54.6235C30.1036 54.6235 30.0973 54.6235 30.0845 54.6235C30.9372 54.567 31.7835 54.5607 32.6361 54.6424C32.3116 54.7052 32.0126 54.8497 31.7071 54.9503C31.7071 54.9628 31.7135 54.9566 31.7135 54.9566ZM32.3243 54.2465H32.3307H32.3243ZM23.8488 54.6989C24.8032 54.2842 25.5031 53.4359 26.5721 53.2034C27.2021 53.0212 27.8384 53.1783 28.4683 53.2977C29.7791 53.4485 31.039 53.8255 32.2862 54.2339H32.2925H32.2862C32.5471 54.3031 32.8079 54.3785 33.0625 54.479C29.9446 54.0894 26.8458 54.8435 23.7279 54.7429C23.766 54.7303 23.8106 54.7178 23.8488 54.6989ZM14.6796 53.4233C14.6732 53.4171 14.6669 53.4108 14.6605 53.4108C14.8768 53.5993 15.0868 53.7941 15.3095 53.97C15.6595 54.2654 16.0667 54.4853 16.404 54.7995C16.3976 54.7932 16.3912 54.7869 16.3849 54.7869C16.474 54.856 16.5567 54.9377 16.6394 55.0068C16.7094 55.0634 16.773 55.1199 16.843 55.1765C16.8367 55.1702 16.8303 55.1639 16.8239 55.1576C16.8876 55.2142 16.9576 55.2645 17.0212 55.321C17.0148 55.3147 17.0085 55.3084 17.0021 55.3022C17.0339 55.3336 17.0721 55.3587 17.1103 55.3901C17.1039 55.3838 17.0975 55.3838 17.0975 55.3776C19.0955 57.2627 21.0935 59.2106 22.4425 61.6172C22.4425 61.6172 22.4425 61.6172 22.4425 61.611C22.4425 61.6172 22.4489 61.6235 22.4552 61.6298L22.4489 61.6235C22.6843 62.1639 22.9007 62.7106 23.117 63.2636C23.0915 63.2133 23.0661 63.163 23.0406 63.119C22.6143 62.3713 22.0989 61.6612 21.5071 61.0329L21.5008 61.0266C21.5008 61.0266 21.5008 61.0266 21.5071 61.0329C21.4753 61.0014 21.4499 60.97 21.4181 60.9386C21.4181 60.9386 21.4181 60.9386 21.4244 60.9449C21.3481 60.8695 21.2781 60.7941 21.2017 60.7187C21.2081 60.725 21.2144 60.7312 21.2208 60.7375C20.6036 60.0589 19.8528 59.5185 19.191 58.8839C19.1974 58.8901 19.2037 58.8964 19.2037 58.9027C19.1974 58.8964 19.191 58.8901 19.1846 58.8839L19.191 58.8901C19.1846 58.8839 19.1719 58.8713 19.1655 58.865L19.1719 58.8713C19.1655 58.865 19.1592 58.8587 19.1528 58.8524C19.1592 58.8524 19.1592 58.8587 19.1592 58.865C19.1528 58.8587 19.1528 58.8587 19.1465 58.8524C19.1401 58.8461 19.1337 58.8399 19.1274 58.8336C19.1337 58.8399 19.1401 58.8461 19.1465 58.8524C17.5493 57.1244 16.1749 55.2142 14.6541 53.4171C14.6605 53.4045 14.6669 53.4171 14.6796 53.4233ZM12.8279 50.1684C13.1525 52.198 14.546 53.681 15.8249 55.2016C16.8048 56.5526 17.912 57.8093 19.0319 59.0472C19.8209 59.7636 20.68 60.4045 21.4053 61.19C21.4117 61.1962 21.4117 61.2025 21.4181 61.2025C21.4181 61.2025 21.4181 61.2025 21.4117 61.1962C22.1498 61.9754 22.7416 62.874 23.2634 63.8102C23.2506 63.7851 23.2315 63.7663 23.2188 63.7411C21.9971 62.1828 20.5081 60.8444 18.7647 59.8641C18.771 59.8704 18.7838 59.8767 18.7901 59.8767C18.2111 59.5373 17.6829 59.1163 17.1039 58.7707C17.1103 58.777 17.123 58.7833 17.1294 58.7896C15.4622 57.7654 14.2342 56.1379 13.1525 54.5544C12.4143 53.216 12.6879 51.6262 12.8279 50.1684ZM25.0386 58.9404C25.4777 59.0849 25.8277 59.3928 26.1585 59.707C25.7259 59.4368 25.2995 59.1603 24.8605 58.8964C24.9241 58.909 24.9814 58.9215 25.0386 58.9404ZM34.9841 63.3013C34.9523 63.3013 34.9268 63.3013 34.895 63.3075C32.458 63.0688 29.8682 63.4332 27.6157 62.3022C26.4512 61.6424 25.4332 60.6873 24.6378 59.6316C24.6123 59.5813 24.5869 59.5374 24.5614 59.4871L24.5678 59.4934C24.4532 59.2483 24.3196 59.0032 24.2114 58.7519C24.2305 58.7707 24.256 58.7896 24.2751 58.8084C26.2413 60.3794 28.6783 61.1145 31.0772 61.7806C32.897 62.277 34.6596 62.9557 36.5049 63.3704C35.9958 63.3578 35.4868 63.2887 34.9841 63.3013ZM36.4731 63.163C33.3742 62.2456 30.2436 61.3596 27.2084 60.2411C28.3283 60.304 29.4482 60.304 30.5618 60.3856C32.8016 60.6056 34.7041 61.9126 36.4731 63.163ZM43.5997 62.1388C43.5933 62.1388 43.587 62.1451 43.5806 62.1451C43.8033 62.0634 44.026 61.988 44.2424 61.9C44.5923 61.7681 44.9105 61.5607 45.2668 61.4413C45.2604 61.4413 45.2541 61.4476 45.2477 61.4476C45.3368 61.4162 45.4195 61.3847 45.5086 61.3533C45.5786 61.3282 45.6422 61.3031 45.7122 61.2779C45.7059 61.2779 45.6995 61.2842 45.6931 61.2842C45.7568 61.2591 45.8204 61.2339 45.884 61.2088C45.8777 61.2088 45.8713 61.2151 45.8649 61.2151C45.8967 61.2025 45.9349 61.1899 45.9667 61.1711C45.9604 61.1711 45.9604 61.1774 45.954 61.1774C48.0984 60.4862 50.2873 59.8264 52.5589 59.795C52.5589 59.795 52.5589 59.795 52.5525 59.795C52.5589 59.795 52.5652 59.795 52.5716 59.795H52.5652C53.0488 59.8327 53.5324 59.8955 54.016 59.9521C53.9715 59.9521 53.9269 59.9521 53.876 59.9521C53.1697 59.9646 52.4507 60.0526 51.7635 60.2348H51.7571C51.7571 60.2348 51.7571 60.2348 51.7635 60.2348C51.7317 60.2411 51.6935 60.2537 51.6617 60.2663H51.668C51.5853 60.2914 51.5026 60.3102 51.4199 60.3354C51.4262 60.3354 51.4326 60.3291 51.439 60.3291C50.7072 60.505 50.02 60.8255 49.301 61.0517C49.3073 61.0517 49.3137 61.0454 49.3201 61.0454C49.3137 61.0454 49.301 61.0517 49.2946 61.0517H49.301C49.2946 61.0517 49.2819 61.058 49.2755 61.058C49.2819 61.058 49.2819 61.058 49.2883 61.058C49.2819 61.058 49.2755 61.0643 49.2692 61.0643C49.2755 61.0643 49.2755 61.0643 49.2819 61.0643C49.2755 61.0643 49.2692 61.0643 49.2692 61.0706C49.2628 61.0706 49.2564 61.0768 49.2501 61.0768C49.2564 61.0768 49.2692 61.0706 49.2755 61.0706C47.3984 61.5356 45.4768 61.7743 43.5806 62.1576C43.5806 62.1451 43.587 62.1388 43.5997 62.1388ZM45.3368 62.0131C46.6985 61.8435 48.0411 61.5418 49.371 61.2214C50.1982 60.9386 50.9999 60.5742 51.8526 60.3668C51.8589 60.3668 51.8653 60.3668 51.8653 60.3605H51.8589C52.7116 60.1406 53.596 60.0652 54.4742 60.0589C54.4487 60.0589 54.4296 60.0589 54.4042 60.0652C52.7943 60.3291 51.2481 60.8695 49.8609 61.7241C49.8673 61.7178 49.8737 61.7178 49.88 61.7115C49.4092 61.9943 48.9001 62.2016 48.4229 62.4781C48.4292 62.4718 48.4356 62.4718 48.4483 62.4655C47.0612 63.251 45.4004 63.4961 43.8288 63.6531C42.5625 63.6594 41.5126 62.8488 40.5072 62.1891C42.1171 62.742 43.7333 62.3273 45.3368 62.0131Z" fill="#999999"/>
<path opacity="0.9992" d="M60.1753 20.617C59.5009 19.4357 58.7627 18.2858 58.0183 17.1421C57.0893 15.5272 56.1221 13.7301 54.2641 13.0263C53.3478 12.6682 52.3806 12.31 51.3816 12.3226C50.4208 12.3477 49.4854 12.1466 48.5691 11.8953C48.2001 11.7319 47.8437 11.5434 47.5065 11.3297C47.5129 11.3297 47.5129 11.336 47.5192 11.336C46.4884 10.7328 45.3558 10.2867 44.2359 9.86565C44.2295 9.86565 44.2295 9.86565 44.2232 9.85936H44.2295C42.5051 9.08647 40.6089 8.82884 38.7573 8.49581C38.7764 8.48953 38.8018 8.48324 38.8209 8.47696C39.8899 8.25703 40.978 7.82974 42.0661 7.84231C44.1086 8.3827 46.0494 9.2687 48.1237 9.74626C48.1173 9.74626 48.1046 9.73997 48.0983 9.73997C49.1036 9.98504 50.0963 10.2992 51.1271 10.4249C51.1207 10.4249 51.1143 10.4249 51.108 10.4249C52.5524 10.6511 54.035 10.3369 55.3967 9.90335C55.3967 9.90335 55.3967 9.90335 55.403 9.90335C55.4094 9.90335 55.4094 9.89707 55.4158 9.89707C55.4158 9.89707 55.4221 9.89707 55.4221 9.89078C55.4476 9.87193 55.4158 9.83423 55.3903 9.8468C55.384 9.85308 55.3776 9.85308 55.3712 9.85308C55.1104 9.8845 54.8367 9.83423 54.5759 9.80281C52.9596 9.56403 51.4071 9.06762 50.0135 8.20048C48.6519 7.44644 47.2838 6.63584 45.6994 6.48504C44.7386 6.23369 43.695 6.0389 42.7342 6.37822C41.3343 6.89348 40.2017 7.95542 38.7191 8.29473C38.7255 8.29473 38.7382 8.28845 38.7446 8.28845C37.8537 8.5398 36.9311 8.22561 36.0275 8.20048C36.0339 8.20048 36.0403 8.20048 36.0466 8.20048C35.7221 8.19419 35.3976 8.18163 35.0731 8.17534C35.2322 8.0748 35.3912 7.97427 35.5439 7.87373C35.983 7.59725 36.3711 7.23279 36.8229 6.97516C37.2556 6.76152 37.7456 6.66726 38.1592 6.4222C38.1592 6.4222 38.1528 6.4222 38.1528 6.42848C38.1655 6.4222 38.1783 6.41592 38.191 6.40335C38.191 6.40335 38.1973 6.40335 38.1973 6.39707C38.2228 6.37821 38.2673 6.37193 38.261 6.33423C38.2419 6.30281 38.2037 6.31538 38.1719 6.32166C36.492 6.35308 34.8058 6.47247 33.126 6.60443C30.8226 6.6547 28.2901 6.64213 26.4448 8.21304C25.5221 8.98593 24.5677 9.80281 24.0014 10.871C23.4669 11.9078 22.7097 12.7938 21.9016 13.6233C21.5134 13.9186 21.0934 14.1888 20.6671 14.4276C20.6735 14.4276 20.6798 14.4213 20.6862 14.4213C19.4263 15.1691 18.281 16.1179 17.1738 17.073C17.1674 17.0793 17.1674 17.0793 17.1611 17.0856L17.1674 17.0793C15.3221 18.4743 13.935 20.3405 12.5033 22.1251C12.5097 22.0999 12.516 22.0685 12.5224 22.0434C12.9042 20.7804 13.0696 19.3665 13.7123 18.2104C15.494 16.3441 17.5874 14.792 19.3118 12.863C19.3054 12.8692 19.2991 12.8755 19.2927 12.8881C20.1453 11.9518 21.0616 11.0847 21.7997 10.0604C21.7934 10.0667 21.7934 10.073 21.787 10.0793C22.8751 8.67175 23.3905 6.91233 23.7087 5.20317V5.19689C23.7087 5.1906 23.7087 5.1906 23.7087 5.18432V5.17804C23.7023 5.14033 23.645 5.1529 23.645 5.18432C23.645 5.1906 23.6387 5.20317 23.6387 5.20945C23.5178 5.50479 23.3078 5.7687 23.1233 6.03261C21.9206 7.6161 20.4762 8.98594 18.7264 9.9599C17.1102 10.9716 15.4367 11.9581 14.3422 13.5667C13.5087 14.4464 12.6942 15.4455 12.5033 16.6709C12.2552 18.4617 12.7578 20.284 12.2615 22.0622C12.2615 22.0497 12.2679 22.0434 12.2679 22.0308C12.0261 23.1242 11.148 23.9285 10.5944 24.8773C10.6008 24.871 10.6008 24.8647 10.6071 24.8585C10.3781 25.2669 10.1363 25.6691 9.90082 26.0712C9.90082 26.0649 9.90719 26.0649 9.90719 26.0586C9.88173 26.1026 9.85628 26.1529 9.83719 26.2032V26.1969C9.83083 26.2157 9.82447 26.2346 9.8181 26.2534C9.82447 26.2409 9.82447 26.2283 9.83083 26.222C9.76084 26.3477 9.82447 26.5613 10.0026 26.5111C10.3271 26.3226 10.4226 25.8324 10.6835 25.5497C11.9497 23.2373 13.6423 21.2077 15.3794 19.2283C15.3731 19.2346 15.3667 19.2409 15.3603 19.2472C15.3667 19.2409 15.3731 19.2283 15.3858 19.222L15.3794 19.2283C16.1684 18.4177 16.9638 17.5191 17.9819 17.0039C17.9755 17.0039 17.9755 17.0102 17.9692 17.0102C19.0954 16.4195 20.2281 15.7974 21.488 15.5586C21.488 15.5586 21.488 15.5586 21.4816 15.5586C21.4943 15.5586 21.5007 15.5524 21.5134 15.5524C21.507 15.5524 21.507 15.5524 21.5007 15.5524C21.5198 15.5461 21.5389 15.5461 21.5516 15.5398C21.5389 15.5398 21.5325 15.5461 21.5198 15.5461C21.7616 15.4958 22.0034 15.4518 22.2515 15.4204H22.2452C22.2579 15.4204 22.2706 15.4204 22.2897 15.4204C22.2833 15.4204 22.277 15.4204 22.2706 15.4204C22.2961 15.4204 22.3215 15.4204 22.3406 15.4204C22.347 15.4204 22.347 15.4204 22.3533 15.4204C23.5114 15.3387 24.3831 16.0362 25.274 16.6394C26.8775 17.7139 28.6718 17.029 30.3962 16.6709C30.3962 16.6709 30.3962 16.6709 30.3899 16.6709C30.3962 16.6709 30.4026 16.6646 30.409 16.6646C30.4153 16.6646 30.4217 16.6583 30.428 16.6583C31.4207 16.4007 32.3688 15.9922 33.336 15.6655C34.1313 15.4581 34.8631 15.4518 33.4696 15.3073H33.476C32.3942 15.2193 31.4461 14.6349 30.3835 14.4653C29.7154 14.3522 29.0473 14.4779 28.3791 14.5533C27.7365 14.5721 27.0874 14.5156 26.4639 14.6789C26.4702 14.6789 26.4766 14.6789 26.483 14.6726C26.4766 14.6726 26.4766 14.6726 26.4702 14.6726C26.4575 14.6726 26.4511 14.6789 26.4384 14.6789H26.4448C26.432 14.6789 26.4257 14.6852 26.413 14.6852H26.4193C23.7468 15.2759 21.3161 14.6349 18.7837 16.1682C21.3734 14.1574 24.3577 12.7121 27.431 11.5748C28.2901 11.336 30.4026 10.3809 31.1089 10.9087C31.1025 10.9025 31.0962 10.9025 31.0898 10.8962C31.1025 10.9025 31.1153 10.9087 31.1216 10.915C31.1153 10.915 31.1153 10.9087 31.1089 10.9087C31.1598 10.9464 31.2107 10.9779 31.268 11.0156C31.2552 11.0093 31.2425 11.003 31.2362 10.9904C31.5289 11.2041 31.8406 11.4051 32.1079 11.6565C32.6169 12.2472 33.266 12.6807 33.8896 13.1394C33.8832 13.1394 33.8832 13.1332 33.8768 13.1332C33.8832 13.1332 33.8832 13.1394 33.8896 13.1394C33.8959 13.1457 33.9023 13.152 33.915 13.152C36.8229 15.1376 38.8846 13.2337 41.7288 13.8621C42.0852 13.8683 41.3216 13.4348 41.2325 13.3594C39.6354 12.4734 38.051 11.7696 36.1803 11.7696C34.5004 11.7068 32.9669 11.047 31.3952 10.5569C33.5969 10.1233 35.843 9.92848 38.0255 10.538C38.0446 10.5443 38.0637 10.5506 38.0828 10.5569C39.3554 11.1349 40.7426 10.7579 42.0788 10.9402C42.9569 11.0784 43.765 11.4428 44.5477 11.845C44.9867 12.2032 45.4512 12.5865 46.0048 12.7436H46.0112C46.043 12.7498 46.0748 12.7561 46.1003 12.7561C46.113 12.7561 46.1257 12.7624 46.1384 12.7624H46.1321C46.8066 12.8378 46.1066 12.6305 45.9539 12.4922L45.9603 12.4985C45.9412 12.4797 45.9157 12.4608 45.8966 12.4482C45.8966 12.4482 45.903 12.4545 45.9094 12.4545C45.8457 12.4042 45.7757 12.3603 45.7248 12.2974C45.7312 12.3037 45.7312 12.3037 45.7376 12.31C45.7121 12.2849 45.693 12.2597 45.6676 12.2346L45.6739 12.2409C45.5149 12.0712 45.3812 11.8764 45.2158 11.7193C45.2222 11.7256 45.2222 11.7319 45.2285 11.7319C45.1076 11.5999 44.974 11.4743 44.8531 11.3423C44.8531 11.3423 44.8531 11.3423 44.8595 11.3486C43.3387 9.40066 40.1126 9.07391 37.8156 9.55147C37.6756 9.58288 37.5356 9.6143 37.3892 9.64572C36.9184 9.74626 36.4411 9.81538 35.9639 9.82795C35.9703 9.82795 35.9703 9.82795 35.9766 9.82795C35.9703 9.82795 35.9639 9.82795 35.9512 9.82795C31.1916 9.72741 26.5084 11.2732 22.3597 13.5102C22.9578 12.9384 23.4541 12.266 24.1286 11.7759C24.5104 11.4868 24.994 11.3989 25.4012 11.1601C25.7321 10.9276 26.0057 10.6134 26.3621 10.406C26.6484 10.2364 26.9984 10.1735 27.3165 10.1233C28.6082 9.97875 29.9126 10.0667 31.198 9.86565H31.1916C31.2043 9.86565 31.2171 9.85936 31.2298 9.85936C31.2298 9.85936 31.2298 9.85936 31.2234 9.85936C32.4388 9.57032 33.5714 9.04249 34.6468 8.41412C34.9076 8.5398 35.2831 8.43297 35.5758 8.50838C37.7456 8.51466 39.8772 8.92938 41.9897 9.40066C41.9834 9.40066 41.977 9.39437 41.9706 9.39437C41.977 9.39437 41.9897 9.40066 41.9961 9.40066H41.9897C42.8806 9.652 43.8414 9.86565 44.6113 10.3872C44.6049 10.3872 44.6049 10.3809 44.5986 10.3809C45.464 10.9527 46.3548 11.512 47.0165 12.3163C47.0229 12.3226 47.0293 12.3288 47.0356 12.3351L47.0293 12.3288C47.0356 12.3414 47.0484 12.354 47.0611 12.3603C47.0547 12.354 47.0484 12.3477 47.042 12.3414C47.1693 12.4922 47.2965 12.6493 47.4174 12.8127V12.8064C47.4238 12.819 47.4301 12.8253 47.4365 12.8378C47.4365 12.8315 47.4301 12.8315 47.4301 12.8253C47.4365 12.8441 47.4492 12.8567 47.4556 12.8755C47.4556 12.8818 47.462 12.8818 47.462 12.8881C47.9646 13.6798 47.7928 14.5658 47.7038 15.4267C47.5447 16.9788 48.7346 17.9904 49.6636 19.0712C49.6699 19.0775 49.6699 19.0775 49.6763 19.0838C49.6827 19.0901 49.6827 19.0901 49.689 19.0963C50.2617 19.6996 50.9235 20.2148 51.5343 20.7741C51.9925 21.2579 52.2788 21.7732 51.8461 20.7301C51.8461 20.7301 51.8461 20.7364 51.8525 20.7364C51.4961 19.9384 51.5598 19.0398 51.2734 18.2166C51.0953 17.7014 50.7453 17.2678 50.4335 16.8279C50.1726 16.3818 49.9626 15.898 49.5999 15.5147C49.5999 15.5209 49.6063 15.5209 49.6063 15.5272L49.5999 15.5209C49.5936 15.5147 49.5872 15.5084 49.5809 15.5021C49.5809 15.5021 49.5809 15.5021 49.5809 15.5084C49.5745 15.5021 49.5681 15.4958 49.5618 15.4895C49.5618 15.4895 49.5618 15.4895 49.5681 15.4958C48.1046 13.8306 47.6338 11.8576 45.5403 10.6511C48.0028 11.713 50.2108 13.2714 52.2279 15.012C52.7306 15.5272 54.245 16.6583 54.1304 17.3621C54.1304 17.3558 54.1304 17.3495 54.1304 17.3432C54.1304 17.3558 54.1304 17.3621 54.1304 17.3746C54.1304 17.3683 54.1304 17.3683 54.1304 17.3621C54.1241 17.4123 54.1177 17.4626 54.1177 17.5129C54.1177 17.5003 54.1177 17.494 54.1177 17.4814C54.0732 17.7768 54.0541 18.0721 53.9714 18.3612C53.7359 18.9518 53.6723 19.5739 53.5769 20.196C53.5769 20.1897 53.5769 20.1897 53.5769 20.1834C53.5769 20.1897 53.5769 20.1897 53.5769 20.196C53.5769 20.2023 53.5769 20.2086 53.5769 20.2211C53.2587 23.0551 55.4412 23.7777 56.0775 26.0398C56.2112 26.2974 56.2366 25.5874 56.2557 25.4931C56.2875 24.0165 56.1793 22.6215 55.4603 21.2956C54.8558 20.0766 54.7413 18.7382 54.4931 17.4312C55.6576 18.8261 56.6693 20.3468 57.0702 22.1314C57.0702 22.1502 57.0765 22.1628 57.0765 22.1816C57.1465 23.3127 57.9546 24.1484 58.3428 25.1601C58.5782 25.8387 58.6291 26.5551 58.6355 27.2588C58.54 27.7113 58.4446 28.1888 58.5464 28.6412V28.6475C58.5528 28.6726 58.5591 28.6978 58.5719 28.7166C58.5782 28.7292 58.5782 28.7355 58.5846 28.7481C58.5846 28.7481 58.5846 28.7481 58.5846 28.7418C58.7882 29.2445 58.6737 28.6726 58.7118 28.5156V28.5218C58.7182 28.4967 58.7246 28.4779 58.7246 28.4527C58.7246 28.4527 58.7246 28.459 58.7246 28.4653C58.7373 28.4025 58.7437 28.3333 58.7691 28.2768C58.7691 28.2831 58.7627 28.2893 58.7627 28.2893C58.7691 28.2642 58.7818 28.2391 58.7946 28.2077V28.2139C58.8582 28.038 58.9473 27.8683 58.9982 27.6861C58.9982 27.6924 58.9918 27.6987 58.9918 27.6987C59.0364 27.5604 59.0809 27.4159 59.1318 27.284C59.1318 27.284 59.1318 27.284 59.1318 27.2902C59.9654 25.4617 58.9536 23.0425 57.7192 21.5972C57.6428 21.5093 57.5665 21.4213 57.4901 21.3333C57.2356 21.038 57.0002 20.7301 56.8029 20.3908C56.8029 20.3971 56.8093 20.3971 56.8093 20.4034C56.8093 20.3971 56.8029 20.3908 56.8029 20.3845C55.034 16.9662 52.1006 14.2454 48.8682 12.1655C49.5109 12.3665 50.1917 12.4608 50.8089 12.7498C51.1653 12.9132 51.4198 13.2148 51.7507 13.4159C52.0497 13.5604 52.3806 13.6358 52.6733 13.8055C52.9087 13.9437 53.0933 14.17 53.2523 14.371C53.8568 15.2319 54.2959 16.1933 54.9385 17.0227L54.9322 17.0165C54.9385 17.0227 54.9449 17.0353 54.9513 17.0416C55.8294 18.003 56.9238 18.7256 58.0755 19.3288C58.451 19.5362 58.8646 19.6682 59.2272 19.8944C59.5518 20.1206 59.8063 20.4285 60.1435 20.6296C60.1435 20.6296 60.1372 20.6296 60.1372 20.6233C60.1499 20.6296 60.1563 20.6358 60.169 20.6421C60.169 20.6421 60.1753 20.6421 60.1753 20.6484C60.2008 20.661 60.2199 20.6861 60.2453 20.6673C60.2199 20.661 60.1944 20.6358 60.1753 20.617ZM52.5715 10.2804C52.5651 10.2804 52.5588 10.2804 52.5524 10.2804C52.5524 10.2804 52.5524 10.2804 52.5588 10.2804C50.2872 10.249 48.0983 9.58917 45.9539 8.89796C45.9603 8.89796 45.9603 8.90425 45.9666 8.90425C45.9348 8.89168 45.8966 8.87911 45.8648 8.86026C45.8712 8.86026 45.8776 8.86654 45.8839 8.86654C45.8203 8.84141 45.7567 8.81628 45.693 8.79114C45.6994 8.79114 45.7058 8.79743 45.7121 8.79743C45.6421 8.77229 45.5785 8.74716 45.5085 8.72202C45.4194 8.6906 45.3367 8.65918 45.2476 8.62777C45.254 8.62777 45.2603 8.63405 45.2667 8.63405C44.9104 8.51466 44.5922 8.3073 44.2422 8.17534C44.0259 8.08109 43.8032 8.01197 43.5805 7.93028C43.5869 7.93028 43.5932 7.93656 43.5996 7.93656C43.5869 7.93028 43.5805 7.93028 43.5678 7.924C45.464 8.3073 47.3856 8.54608 49.2627 9.01107C49.2563 9.01107 49.2436 9.00479 49.2372 9.00479C49.2436 9.00479 49.25 9.01107 49.2563 9.01107C49.2627 9.01107 49.2691 9.01107 49.2691 9.01735C49.2627 9.01735 49.2627 9.01735 49.2563 9.01735C49.2627 9.01735 49.2691 9.02364 49.2754 9.02364C49.2691 9.02364 49.2691 9.02364 49.2627 9.02364C49.2754 9.02364 49.2818 9.02992 49.2882 9.02992H49.2818C49.2882 9.02992 49.3009 9.0362 49.3072 9.0362C49.3009 9.0362 49.2945 9.02992 49.2882 9.02992C50.0072 9.25613 50.688 9.5766 51.4261 9.75254C51.4198 9.75254 51.4134 9.74626 51.407 9.74626C51.4898 9.77139 51.5725 9.79653 51.6552 9.81538H51.6488C51.6807 9.82795 51.7188 9.83423 51.7507 9.8468C51.7507 9.8468 51.7507 9.8468 51.7443 9.8468H51.7507C52.4379 10.0227 53.1505 10.117 53.8632 10.1296C53.9077 10.1296 53.9523 10.1296 54.0032 10.1296C53.5196 10.1861 53.036 10.249 52.5524 10.2867C52.5651 10.2804 52.5651 10.2804 52.5715 10.2804ZM43.8414 6.4222C45.413 6.57929 47.0738 6.82435 48.461 7.60981C48.4546 7.60353 48.4482 7.60353 48.4355 7.59725C48.9064 7.87373 49.4218 8.08109 49.8926 8.36385C49.8863 8.35757 49.8799 8.35757 49.8736 8.35129C51.2607 9.21215 52.8069 9.74626 54.4168 10.0102C54.4422 10.0102 54.4613 10.0165 54.4868 10.0165C53.6087 10.0102 52.7242 9.93477 51.8716 9.71484H51.8779C51.8716 9.71484 51.8652 9.71484 51.8652 9.70856C51.0125 9.49491 50.2108 9.13674 49.3836 8.85398C48.0537 8.53351 46.7111 8.23818 45.3494 8.06224C43.7459 7.74805 42.1361 7.33333 40.5326 7.88629C41.5252 7.22023 42.5688 6.41592 43.8414 6.4222ZM22.4488 8.45182C22.4424 8.45811 22.4424 8.46439 22.436 8.47067C22.436 8.47067 22.436 8.47067 22.436 8.46439C21.0807 10.871 19.0891 12.819 17.0911 14.7041C17.0974 14.6978 17.1038 14.6978 17.1038 14.6915C17.072 14.7229 17.0338 14.7481 16.9956 14.7795C17.002 14.7732 17.0084 14.7669 17.0147 14.7606C16.9511 14.8172 16.8811 14.8674 16.8175 14.924C16.8238 14.9177 16.8302 14.9114 16.8366 14.9051C16.7666 14.9617 16.7029 15.0183 16.6329 15.0748C16.5439 15.1439 16.4611 15.2256 16.3784 15.2947C16.3848 15.2884 16.3911 15.2822 16.3975 15.2822C16.0603 15.5901 15.6467 15.81 15.3031 16.1116C15.0804 16.2876 14.8704 16.4886 14.654 16.6709C14.6604 16.6646 14.6668 16.6583 14.6731 16.6583C14.6604 16.6646 14.654 16.6771 14.6413 16.6834C16.1621 14.8863 17.5365 12.9761 19.1336 11.2481C19.1273 11.2543 19.1209 11.2606 19.1145 11.2669C19.1209 11.2606 19.1273 11.2543 19.1336 11.2481C19.14 11.2418 19.14 11.2418 19.1463 11.2355C19.1463 11.2355 19.14 11.2418 19.14 11.2481C19.1463 11.2418 19.1527 11.2355 19.1591 11.2292L19.1527 11.2355C19.1591 11.2292 19.1718 11.2166 19.1782 11.2104L19.1718 11.2166C19.1782 11.2104 19.1845 11.2041 19.1909 11.1978C19.1845 11.2041 19.1782 11.2104 19.1782 11.2166C19.8399 10.582 20.5908 10.0416 21.208 9.36296C21.2016 9.36924 21.1953 9.37552 21.1889 9.38181C21.2652 9.3064 21.3352 9.231 21.4116 9.15559C21.4116 9.15559 21.4116 9.15559 21.4052 9.16188C21.437 9.13046 21.4625 9.09904 21.4943 9.06762C21.4943 9.06762 21.4943 9.06762 21.488 9.07391L21.4943 9.06762C22.0861 8.43926 22.6015 7.7292 23.0278 6.98145C23.0533 6.93118 23.0787 6.88719 23.1042 6.83692C22.8878 7.3836 22.6715 7.93656 22.436 8.47696C22.4424 8.45182 22.4424 8.45182 22.4488 8.45182ZM13.1587 15.5147C14.2404 13.9312 15.4749 12.3037 17.1356 11.2795C17.1293 11.2858 17.1165 11.292 17.1102 11.2983C17.6892 10.959 18.211 10.5317 18.7964 10.1924C18.79 10.1987 18.7773 10.205 18.7709 10.205C20.5144 9.22471 21.997 7.89258 23.2251 6.32795C23.2378 6.30281 23.2569 6.28396 23.2696 6.25882C22.7542 7.19509 22.1561 8.09365 21.418 8.87283C21.418 8.87283 21.418 8.87283 21.4243 8.86654C21.418 8.87283 21.418 8.87911 21.4116 8.87911C20.6862 9.66457 19.8272 10.3055 19.0382 11.0218C17.9183 12.2597 16.8111 13.5165 15.8312 14.8674C14.5586 16.3881 13.1651 17.871 12.8342 19.9007C12.6878 18.4491 12.4142 16.8656 13.1587 15.5147ZM32.3242 15.8288H32.3306C32.3306 15.8288 32.3306 15.8288 32.3242 15.8288ZM26.3939 14.9554C26.4002 14.9554 26.413 14.9491 26.4193 14.9491C27.0938 14.7606 27.7874 14.8297 28.481 14.8046C29.5754 14.5972 30.6698 14.6789 31.7007 15.1125C31.707 15.1125 31.7134 15.1188 31.7197 15.1188H31.7134C32.0252 15.2256 32.3242 15.3701 32.6424 15.4267C31.7897 15.5084 30.9435 15.4958 30.0908 15.4455C30.1035 15.4455 30.1099 15.4455 30.1226 15.4455C28.9582 15.4016 27.8065 15.2445 26.6484 15.1314C26.4002 15.1062 26.1457 15.0874 25.8976 15.0622C25.9039 15.0622 25.9039 15.0622 25.9103 15.0622C25.9039 15.0622 25.8976 15.0622 25.8976 15.0622C26.0694 15.0245 26.2412 14.9868 26.4066 14.9491C26.4002 14.9554 26.4002 14.9554 26.3939 14.9554ZM33.056 15.5963C32.8015 15.6969 32.5406 15.7723 32.2797 15.8414H32.2861H32.2797C31.0325 16.2498 29.7727 16.6269 28.4619 16.7777C27.8383 16.8971 27.202 17.0542 26.5657 16.8719C25.503 16.6394 24.8031 15.7911 23.8423 15.3764C23.8041 15.3639 23.7596 15.3513 23.7214 15.3387C26.8456 15.2382 29.9381 15.9859 33.056 15.5963ZM32.4006 11.5371C32.4006 11.5308 32.3942 11.5308 32.3942 11.5245C32.3942 11.5308 32.3942 11.5308 32.4006 11.5371C32.3942 11.5308 32.3942 11.5308 32.3942 11.5308C32.4006 11.5434 32.4133 11.5497 32.4197 11.5622C32.4197 11.556 32.407 11.5434 32.4006 11.5371ZM38.4328 13.661C36.123 14.3396 33.7941 13.1017 32.2924 11.4114C32.2861 11.4051 32.2733 11.3989 32.267 11.3926C33.8323 12.2283 35.4676 12.9823 37.2938 12.8378H37.2874C38.0828 12.7624 38.7955 13.0892 39.5399 13.2965C39.5336 13.2965 39.5336 13.2965 39.5272 13.2965C39.6099 13.3217 39.6863 13.3405 39.769 13.3594C39.7627 13.3594 39.7563 13.3531 39.7499 13.3531C39.9154 13.3971 40.0744 13.4662 40.2399 13.5102C39.6354 13.5667 39.0309 13.5604 38.4328 13.661ZM37.9301 12.2472C38.9927 12.4294 39.8772 13.0892 40.8635 13.4913C39.6481 13.3217 38.5473 12.5048 37.2811 12.6116C35.4358 12.687 33.7687 11.889 32.1779 11.0658C33.9914 11.8764 35.9703 12.0272 37.9301 12.2472ZM39.8645 9.64572C41.5316 9.81538 43.3514 10.0102 44.4777 11.3863C44.5413 11.4554 44.6049 11.5308 44.6686 11.5999L44.6622 11.5937C44.8658 11.8073 45.0949 12.0021 45.2794 12.2283C45.0376 11.9958 44.8086 11.7507 44.5159 11.5811C44.5159 11.5811 44.5159 11.5811 44.5222 11.5811C44.5159 11.5748 44.5095 11.5748 44.5031 11.5685C44.5095 11.5685 44.5095 11.5748 44.5159 11.5748C44.3759 11.4805 44.2422 11.38 44.1023 11.2858C44.1023 11.2858 44.1023 11.2858 44.1086 11.2858C44.1023 11.2795 44.0959 11.2795 44.0895 11.2732C44.0895 11.2732 44.0895 11.2732 44.0959 11.2732C43.9877 11.2041 43.8796 11.1287 43.7714 11.0595C43.7777 11.0658 43.7841 11.0658 43.7905 11.0721C43.7587 11.0533 43.7332 11.0344 43.7014 11.0156C43.7014 11.0156 43.7078 11.0156 43.7078 11.0218C43.7014 11.0156 43.695 11.0156 43.6887 11.0093L43.695 11.0156C43.1287 10.626 42.4415 10.4752 41.8116 10.2175C41.8052 10.2112 41.7925 10.2112 41.7861 10.2112H41.7925C41.697 10.1798 41.6016 10.1421 41.5125 10.117C40.5517 9.77139 39.5018 9.85308 38.4964 9.87193C38.1401 9.8845 37.7901 9.93477 37.4338 9.91592C38.2355 9.76511 39.05 9.59545 39.8645 9.64572ZM40.4626 10.1484C40.4499 10.1484 40.4371 10.1484 40.4244 10.1484C40.8126 10.1798 41.1943 10.2741 41.5698 10.3935C42.3397 10.6637 43.1605 10.8208 43.8286 11.3109C42.467 10.5631 40.9144 10.7328 39.419 10.7391C38.6555 10.6511 37.9492 10.2929 37.1856 10.205C37.1602 10.1987 37.1347 10.1924 37.1156 10.1861C38.2292 10.205 39.3427 10.0604 40.4626 10.1484ZM25.0385 11.1412C24.9813 11.1538 24.9176 11.1727 24.8604 11.1852C25.2994 10.9213 25.7257 10.6448 26.1584 10.3746C25.8276 10.6825 25.4776 10.9904 25.0385 11.1412ZM24.2686 11.2606C24.2495 11.2795 24.2241 11.2983 24.205 11.3172C24.3195 11.0658 24.4468 10.827 24.5613 10.5757L24.5549 10.582C24.5804 10.5317 24.6059 10.4877 24.6313 10.4375C25.4267 9.3818 26.4448 8.42669 27.6092 7.7669C29.8617 6.63584 32.4515 7.0003 34.8885 6.76152C34.9204 6.76152 34.9458 6.76152 34.9776 6.7678C35.4803 6.78665 35.9894 6.71125 36.492 6.6924C34.6468 7.10712 32.8842 7.78576 31.0644 8.28216C28.6718 8.95452 26.2412 9.6897 24.2686 11.2606ZM30.568 9.6897C29.4545 9.77139 28.3282 9.77768 27.2147 9.83423C30.2499 8.70945 33.3805 7.82974 36.4793 6.91233C34.704 8.16906 32.8015 9.47606 30.568 9.6897ZM49.3581 15.5963C49.3645 15.6026 49.3645 15.6089 49.3709 15.6152C49.7717 16.0174 49.9881 16.5452 50.2744 17.0165C50.8471 17.7139 51.2098 18.5245 51.2925 19.4168C51.2925 19.4231 51.2925 19.4294 51.2925 19.4294V19.4231C51.3371 19.6807 51.3434 19.9509 51.4261 20.2023C51.038 19.6305 50.7198 19.0209 50.4271 18.3989C50.4335 18.4051 50.4335 18.4177 50.4399 18.424C50.0263 17.582 49.6954 16.7023 49.3263 15.8414C49.2436 15.6529 49.1673 15.4707 49.0845 15.2822L49.0909 15.2884C49.0909 15.2822 49.0845 15.2822 49.0845 15.2759C49.1736 15.3827 49.2691 15.4895 49.3645 15.5963C49.3645 15.6026 49.3645 15.5963 49.3581 15.5963ZM48.0728 13.95C48.0664 13.9186 48.0601 13.8809 48.0537 13.8495C49.3327 16.0236 49.9817 18.512 51.4707 20.573C51.2989 20.4348 51.1462 20.2777 50.9935 20.1206C50.9935 20.1206 50.9935 20.1206 50.9871 20.1143C50.2108 19.3854 49.4409 18.6376 48.83 17.7642C48.4991 17.3683 48.1428 16.9788 48.0283 16.4572C47.7928 15.6152 48.1428 14.792 48.0728 13.95ZM58.4319 23.1053C58.9536 24.3558 59.5136 25.7193 58.9536 27.0515C58.9282 27.1269 58.8964 27.196 58.8773 27.2714C58.8773 27.2714 58.8773 27.2651 58.8836 27.2651C58.8073 27.4913 58.7564 27.7238 58.6609 27.95C58.7373 27.6861 58.8264 27.4348 58.8327 27.1583C58.8327 27.1583 58.8327 27.1583 58.8327 27.1646C58.8327 27.1583 58.8327 27.152 58.8327 27.1457C58.8327 27.152 58.8327 27.152 58.8327 27.1583C58.8455 27.02 58.8709 26.8881 58.8836 26.7499C58.8836 26.7499 58.8836 26.7498 58.8836 26.7561C58.8836 26.7498 58.8836 26.7436 58.8836 26.7373C58.8836 26.7373 58.8836 26.7373 58.8836 26.7436C58.8964 26.6367 58.9027 26.5362 58.9155 26.4294C58.9155 26.4357 58.9155 26.4419 58.9155 26.4482C58.9155 26.4168 58.9218 26.3917 58.9218 26.3603V26.3665C58.9218 26.3603 58.9218 26.354 58.9218 26.3477V26.354C58.9855 25.801 58.8327 25.2543 58.7691 24.7077C58.7691 24.7014 58.7691 24.6951 58.7627 24.6825V24.6888C58.75 24.6071 58.7373 24.5317 58.7246 24.45C58.6037 23.6332 58.1392 22.9231 57.7383 22.2193C57.5919 21.9743 57.4201 21.7418 57.2929 21.4841C57.7128 21.9931 58.1519 22.5021 58.4319 23.1053ZM58.2919 23.7211C58.2855 23.7148 58.2855 23.7023 58.2792 23.696C58.4064 23.985 58.4891 24.2929 58.54 24.6008C58.6418 25.2481 58.8455 25.8953 58.7437 26.5551C58.7627 25.2983 58.0374 24.2615 57.4583 23.2059C57.2229 22.6278 57.2165 21.9931 56.9811 21.415C56.9747 21.3962 56.9747 21.3773 56.9684 21.3585C57.3883 22.1565 57.9292 22.8917 58.2919 23.7211ZM55.7912 22.7346C56.0712 23.5577 55.9312 24.4437 56.0139 25.2983C55.6703 24.3746 55.8357 23.275 55.2694 22.4141C54.4995 21.1323 54.4359 19.643 54.4168 18.1978C54.5377 19.8001 55.1931 21.2579 55.7912 22.7346ZM54.2195 18.3863C54.2132 19.819 54.2959 21.2705 55.1104 22.5147C55.1104 22.5147 55.1104 22.5147 55.1104 22.5084C55.473 23.0425 55.5112 23.6771 55.6449 24.2867V24.2804C55.6576 24.3432 55.6767 24.4123 55.6894 24.4752C55.6894 24.4689 55.6894 24.4626 55.683 24.4563C55.7148 24.5946 55.7276 24.7265 55.7594 24.8648C55.4858 24.4563 55.2567 24.0227 54.9513 23.6457C53.5641 22.2696 53.5641 20.1394 54.2132 18.4177C54.2195 18.4051 54.2195 18.3989 54.2195 18.3863ZM54.1686 18.5371C54.1686 18.5308 54.1686 18.5308 54.175 18.5245C54.175 18.5308 54.175 18.5308 54.1686 18.5371C54.1686 18.5308 54.1686 18.5308 54.1686 18.5308C54.1623 18.5434 54.1623 18.5497 54.1559 18.5622C54.1623 18.556 54.1686 18.5497 54.1686 18.5371ZM51.617 13.1646C51.5852 13.1269 51.547 13.0955 51.5152 13.0577C51.8779 13.2651 52.2406 13.4599 52.6033 13.6673C52.247 13.5416 51.8906 13.4159 51.617 13.1646ZM54.8049 16.52C54.315 15.7597 53.8759 14.968 53.3987 14.1951C55.3903 15.9105 57.242 17.7893 59.1063 19.6367C57.5156 18.8701 55.823 18.0218 54.8049 16.52ZM56.0203 16.3378C54.6077 14.8926 53.1378 13.4473 51.2289 12.6619C51.2098 12.6556 51.1843 12.6493 51.1653 12.6367C51.388 12.6242 51.617 12.6179 51.8397 12.6053H51.8334C51.8779 12.6053 51.9225 12.6053 51.967 12.6053C53.0424 12.7624 54.1304 13.1143 55.0594 13.6861C56.752 14.8486 57.4901 16.8279 58.6037 18.4617C58.6164 18.4805 58.6228 18.5057 58.6355 18.5245C58.82 18.889 59.0682 19.222 59.2782 19.5739C58.2601 18.4303 57.0829 17.4375 56.0203 16.3378Z" fill="#999999"/>
<path opacity="0.9992" d="M1.46987 35.7605C2.28165 35.7605 2.93973 35.1106 2.93973 34.309C2.93973 33.5073 2.28165 32.8574 1.46987 32.8574C0.658082 32.8574 0 33.5073 0 34.309C0 35.1106 0.658082 35.7605 1.46987 35.7605Z" fill="#999999"/>
<path opacity="0.9992" d="M68.5302 35.7605C69.342 35.7605 70 35.1106 70 34.309C70 33.5073 69.342 32.8574 68.5302 32.8574C67.7184 32.8574 67.0603 33.5073 67.0603 34.309C67.0603 35.1106 67.7184 35.7605 68.5302 35.7605Z" fill="#999999"/>
</g>
<g opacity="0.9992">
<path opacity="0.9992" d="M21.2144 30.2373C23.8805 30.2373 25.2358 31.8522 25.2358 34.6359C25.2358 37.3693 23.9314 39.0721 21.068 39.0721C18.3001 39.0721 16.9766 37.4949 16.9766 34.7992C16.9702 31.9779 18.4465 30.2373 21.2144 30.2373ZM22.6779 34.2588C22.6779 31.7454 22.6015 30.4949 21.1126 30.4949C19.6109 30.4949 19.5154 31.7956 19.5154 34.3028V35.1825C19.5154 37.4886 19.6618 38.8082 21.1126 38.8082C22.4997 38.8082 22.6779 37.6206 22.6779 35.1574V34.2588Z" fill="#999999"/>
<path opacity="0.9992" d="M29.2383 29.7598V38.7266H29.9319V38.9465H26.2477V38.7266H26.9285V29.9797H26.1968V29.7598H29.2383Z" fill="#999999"/>
<path opacity="0.9992" d="M33.1579 33.1215V38.7328H33.8514V38.9527H30.1672V38.7328H30.8481V33.3414H30.1163V33.1215H33.1579ZM32.0443 29.9922C32.8143 29.9922 33.2724 30.3692 33.2724 31.117C33.2724 31.7642 32.9097 32.2669 32.0189 32.2669C31.0135 32.2669 30.7781 31.6448 30.7781 31.1295C30.7781 30.5326 31.109 29.9922 32.0443 29.9922Z" fill="#999999"/>
<path opacity="0.9992" d="M33.6034 33.1211H37.3131V33.341H36.5304L38.0194 37.4066L39.362 33.341H38.5284V33.1211H40.2019V33.341H39.6547L37.8157 38.9523H36.4095L34.1124 33.341H33.6034V33.1211Z" fill="#999999"/>
<path opacity="0.9992" d="M43.3197 33.1215V38.7328H44.0133V38.9527H40.3291V38.7328H41.0099V33.3414H40.2782V33.1215H43.3197ZM42.1998 29.9922C42.9698 29.9922 43.4279 30.3692 43.4279 31.117C43.4279 31.7642 43.0652 32.2669 42.1744 32.2669C41.169 32.2669 40.9336 31.6448 40.9336 31.1295C40.9336 30.5326 41.2708 29.9922 42.1998 29.9922Z" fill="#999999"/>
<path opacity="0.9992" d="M47.5957 36.0678V35.1253C47.5957 33.5669 47.4621 33.1648 46.9657 33.1648C46.743 33.1648 46.3803 33.2653 46.3803 33.6549C46.3803 33.7554 46.4058 33.8748 46.4567 34.0131H46.7685C46.8321 34.1702 46.8703 34.3335 46.8703 34.566C46.8703 35.1441 46.3994 35.5212 45.7758 35.5212C45.0059 35.5212 44.7069 35.1064 44.7069 34.5032C44.7069 33.4727 45.6104 32.9951 47.2966 32.9951C49.2437 32.9951 49.8991 33.5355 49.8991 35.3075V37.7958C49.8991 38.2985 50.0455 38.4305 50.2618 38.4305C50.4845 38.4305 50.6945 38.198 50.7581 37.1675L50.9427 37.18C50.879 38.6504 50.4209 39.0651 49.3519 39.0651C48.3465 39.0651 47.7866 38.7572 47.6402 38.1603C47.443 38.751 47.0803 39.0651 46.2149 39.0651C45.3495 39.0651 44.376 38.8075 44.376 37.5822C44.376 36.3443 45.4577 36.0615 47.2266 36.0615H47.5957V36.0678ZM47.5957 37.4062V36.2689H47.5066C46.9848 36.2689 46.7367 36.6334 46.7367 37.3811V37.5759C46.7367 38.4556 46.8258 38.5813 47.0612 38.5813C47.303 38.5813 47.5957 38.1917 47.5957 37.4062Z" fill="#999999"/>
</g>
</svg>
