<svg width="60" height="60" viewBox="0 0 60 60" fill="none" xmlns="http://www.w3.org/2000/svg">
<circle opacity="0.1" cx="30" cy="30" r="30" fill="#B48E40"/>
<path d="M40.1842 23H20.8158C19.8147 23 19 23.8412 19 24.875V36.125C19 37.1587 19.8147 38 20.8158 38H40.1842C41.1853 38 42 37.1587 42 36.125V24.875C42 23.8412 41.1853 23 40.1842 23ZM40.1842 24.25C40.2205 24.25 40.2544 24.2537 40.2895 24.26L31.1718 30.5363C30.8208 30.7775 30.1804 30.7775 29.8294 30.5363L20.7117 24.26C20.7456 24.2537 20.7807 24.25 20.817 24.25H40.1854H40.1842ZM40.1842 36.75H20.8158C20.4817 36.75 20.2105 36.47 20.2105 36.125V25.4175L29.1575 31.5763C29.534 31.835 30.017 31.965 30.5 31.965C30.983 31.965 31.466 31.835 31.8425 31.5763L40.7895 25.4175V36.125C40.7895 36.47 40.5183 36.75 40.1842 36.75Z" fill="#B48E40"/>
</svg>
