<svg width="60" height="60" viewBox="0 0 60 60" fill="none" xmlns="http://www.w3.org/2000/svg">
<circle opacity="0.1" cx="30" cy="30" r="30" fill="#B48E40"/>
<path d="M30.5007 43C30.3095 43 30.1282 42.9125 30.0095 42.7612C29.9382 42.67 28.237 40.4937 26.5132 37.28C25.4982 35.3888 24.6882 33.5313 24.107 31.76C23.3732 29.5263 23.002 27.42 23.002 25.5C23.002 21.365 26.367 18 30.502 18C34.637 18 38.002 21.365 38.002 25.5C38.002 27.42 37.6295 29.525 36.897 31.76C36.3157 33.5313 35.5057 35.3888 34.4907 37.28C32.7657 40.4937 31.0657 42.67 30.9945 42.7612C30.8757 42.9125 30.6945 43 30.5032 43H30.5007ZM30.5007 19.25C27.0545 19.25 24.2507 22.0538 24.2507 25.5C24.2507 29.5675 26.0795 33.83 27.6145 36.6888C28.742 38.79 29.8757 40.4562 30.5007 41.3262C31.1282 40.4525 32.2695 38.7763 33.3982 36.6688C34.927 33.815 36.7507 29.56 36.7507 25.5C36.7507 22.0538 33.947 19.25 30.5007 19.25Z" fill="#B48E40"/>
<path d="M30.5 29.25C28.4325 29.25 26.75 27.5675 26.75 25.5C26.75 23.4325 28.4325 21.75 30.5 21.75C32.5675 21.75 34.25 23.4325 34.25 25.5C34.25 27.5675 32.5675 29.25 30.5 29.25ZM30.5 23C29.1212 23 28 24.1212 28 25.5C28 26.8787 29.1212 28 30.5 28C31.8787 28 33 26.8787 33 25.5C33 24.1212 31.8787 23 30.5 23Z" fill="#B48E40"/>
</svg>
