<svg width="60" height="60" viewBox="0 0 60 60" fill="none" xmlns="http://www.w3.org/2000/svg">
<circle opacity="0.1" cx="30" cy="30" r="30" fill="#B48E40"/>
<g clip-path="url(#clip0_214_1955)">
<path d="M37.9994 43C35.7856 43 33.4306 42.3725 30.9994 41.135C28.7581 39.9937 26.5444 38.36 24.5969 36.41C22.6494 34.46 21.0181 32.2437 19.8781 30.0012C18.6431 27.5687 18.0156 25.2137 18.0156 23C18.0156 21.565 19.3531 20.1788 19.9269 19.65C20.7531 18.8888 22.0531 18 22.9981 18C23.4681 18 24.0181 18.3075 24.7319 18.9675C25.2631 19.46 25.8619 20.1275 26.4606 20.8975C26.8219 21.3625 28.6231 23.7362 28.6231 24.875C28.6231 25.8088 27.5669 26.4587 26.4494 27.145C26.0169 27.41 25.5706 27.685 25.2481 27.9438C24.9031 28.22 24.8419 28.3663 24.8319 28.3988C26.0181 31.3562 29.6444 34.9825 32.6006 36.1675C32.6269 36.1588 32.7731 36.1012 33.0544 35.7513C33.3131 35.4288 33.5881 34.9812 33.8531 34.55C34.5406 33.4325 35.1894 32.3763 36.1231 32.3763C37.2619 32.3763 39.6356 34.1775 40.1006 34.5387C40.8706 35.1375 41.5381 35.7362 42.0306 36.2675C42.6906 36.98 42.9981 37.5312 42.9981 38.0012C42.9981 38.9462 42.1094 40.25 41.3494 41.08C40.8194 41.6575 39.4331 43.0012 37.9981 43.0012L37.9994 43ZM22.9919 19.25C22.6569 19.2563 21.7556 19.6663 20.7756 20.5688C19.8456 21.4262 19.2669 22.3575 19.2669 23C19.2669 31.4113 29.5969 41.75 37.9994 41.75C38.6406 41.75 39.5719 41.1688 40.4294 40.2338C41.3331 39.2488 41.7431 38.3438 41.7494 38.0075C41.7094 37.77 41.0519 36.8463 39.2531 35.4613C37.7069 34.2712 36.4531 33.6325 36.1306 33.625C36.1081 33.6313 35.9681 33.685 35.6844 34.045C35.4381 34.3588 35.1744 34.7875 34.9181 35.2025C34.2181 36.3412 33.5569 37.4175 32.5956 37.4175C32.4406 37.4175 32.2881 37.3875 32.1419 37.3288C28.8606 36.0163 24.9806 32.1362 23.6681 28.855C23.5106 28.4613 23.4856 27.8438 24.2606 27.1413C24.6731 26.7675 25.2431 26.4175 25.7956 26.0775C26.2106 25.8225 26.6406 25.5588 26.9531 25.3112C27.3131 25.0275 27.3669 24.8875 27.3731 24.865C27.3644 24.5425 26.7269 23.2887 25.5369 21.7425C24.1519 19.9437 23.2281 19.2875 22.9906 19.2462L22.9919 19.25Z" fill="#B48E40"/>
</g>
<defs>
<clipPath id="clip0_214_1955">
<rect width="25" height="25" fill="white" transform="translate(18 18)"/>
</clipPath>
</defs>
</svg>
